<svg xmlns="http://www.w3.org/2000/svg" width="60.002" height="60" viewBox="0 0 60.002 60"><defs><style>.a{fill:#fff;}</style></defs><path class="a" d="M48.113,94.734a.719.719,0,0,1-.316-.071.739.739,0,0,1-.353-.989A21.09,21.09,0,0,1,57.657,83.568a.742.742,0,0,1,.62,1.348,19.617,19.617,0,0,0-9.495,9.394A.741.741,0,0,1,48.113,94.734Zm21.729,28.654a.742.742,0,1,0-.24-1.465,19.787,19.787,0,0,1-3.169.255,19.542,19.542,0,0,1-19.518-19.521,17.788,17.788,0,0,1,.252-3.16.742.742,0,1,0-1.462-.252,19.146,19.146,0,0,0-.276,3.412,21.029,21.029,0,0,0,21,21A21.352,21.352,0,0,0,69.842,123.387Zm5.577-1.738a21.071,21.071,0,0,0,10.1-10.214.742.742,0,1,0-1.348-.62,19.579,19.579,0,0,1-9.391,9.492.742.742,0,0,0,.636,1.342ZM87.2,105.856a21.4,21.4,0,0,0,.243-3.2,21.02,21.02,0,0,0-24.2-20.762.742.742,0,0,0,.224,1.468,19.54,19.54,0,0,1,22.27,22.267.765.765,0,0,0,.734.857A.742.742,0,0,0,87.2,105.856Zm-9.91-3.2a10.865,10.865,0,0,0-14.35-10.278.742.742,0,0,0,.476,1.406,9.37,9.37,0,1,1-6.35,8.872,9.284,9.284,0,0,1,.577-3.24.743.743,0,0,0-1.394-.516,10.856,10.856,0,1,0,21.041,3.756ZM47.453,83.5a6.42,6.42,0,1,0-4.529,1.87A6.415,6.415,0,0,0,47.453,83.5ZM46.4,75.492a4.923,4.923,0,1,1-3.479-1.44A4.924,4.924,0,0,1,46.4,75.492ZM53.828,100.2a3.4,3.4,0,0,0-1.37-5.9l-5.426-1.339-.86-4.3a15.106,15.106,0,0,0,6.449-6.446l4.293.86L58.253,88.5a3.4,3.4,0,0,0,6.642-1.4l-1.367-7.717A3.157,3.157,0,0,0,61.1,76.855l-14.04-2.619a.742.742,0,0,0-.27,1.459L60.8,78.311a1.655,1.655,0,0,1,1.265,1.33l1.367,7.717a1.913,1.913,0,0,1-3.74.792l-1.449-5.884a.745.745,0,0,0-.574-.55l-5.316-1.062a.735.735,0,0,0-.817.411,13.616,13.616,0,0,1-6.519,6.516.739.739,0,0,0-.411.817l1.063,5.316a.736.736,0,0,0,.55.574L52.1,95.741a1.911,1.911,0,0,1-.792,3.737l-7.717-1.367a1.651,1.651,0,0,1-1.324-1.234L39.65,82.837a.742.742,0,1,0-1.459.273l2.626,14.07a3.137,3.137,0,0,0,2.518,2.392l7.717,1.367a3.259,3.259,0,0,0,.6.055A3.4,3.4,0,0,0,53.828,100.2Zm40.823,30.5a6.413,6.413,0,1,0-4.529,1.873A6.411,6.411,0,0,0,94.651,130.7Zm-1.05-8.009a4.923,4.923,0,1,1-3.479-1.44A4.924,4.924,0,0,1,93.6,122.687Zm-6.753,7.622a.744.744,0,0,0-.6-.866L72.243,126.83a1.655,1.655,0,0,1-1.262-1.333l-1.37-7.717a1.913,1.913,0,0,1,3.74-.792l1.449,5.884a.744.744,0,0,0,.577.55l5.313,1.066a.743.743,0,0,0,.82-.411,13.59,13.59,0,0,1,6.516-6.519.739.739,0,0,0,.411-.817l-1.062-5.316a.736.736,0,0,0-.55-.574L80.943,109.4a1.911,1.911,0,0,1,.792-3.737l7.717,1.367a1.655,1.655,0,0,1,1.324,1.234L93.4,122.3a.742.742,0,0,0,1.459-.273l-2.626-14.07a3.141,3.141,0,0,0-2.518-2.392L81.993,104.2a3.4,3.4,0,0,0-1.406,6.639l5.426,1.339.86,4.3a15.1,15.1,0,0,0-6.449,6.449l-4.293-.86-1.339-5.426a3.4,3.4,0,0,0-6.642,1.406l1.367,7.714a3.157,3.157,0,0,0,2.426,2.527s14.04,2.619,14.175,2.632A.745.745,0,0,0,86.848,130.309ZM60.562,102.788l3.111-3.049,3.052-3.114a.74.74,0,0,0-.006-1.044l-6.427-6.427a.74.74,0,0,0-1.05,0l-3.083,3.083L53.091,95.3a.745.745,0,0,0,0,1.05l6.427,6.427a.749.749,0,0,0,1.044.006Zm-.8-12.062,5.383,5.383-2.524,2.583-2.576,2.521L54.666,95.83ZM62.5,98.575a.741.741,0,0,0,0-1.047l-5.291-5.291a.743.743,0,0,0-1.05,1.05l5.291,5.288a.741.741,0,0,0,1.05,0Z" transform="translate(-36.521 -72.569)"/></svg>