<?xml version="1.0" encoding="utf-8"?>
<!-- Generator: Adobe Illustrator 25.4.1, SVG Export Plug-In . SVG Version: 6.00 Build 0)  -->
<svg version="1.1" id="圖層_1" xmlns="http://www.w3.org/2000/svg" xmlns:xlink="http://www.w3.org/1999/xlink" x="0px" y="0px"
	 viewBox="0 0 1864.7 307.5" style="enable-background:new 0 0 1864.7 307.5;" xml:space="preserve">
<style type="text/css">
	.st0{fill:#FDDCBE;}
	.st1{fill:#F5F5F5;}
	.st2{fill:#333333;}
	.st3{fill:#F2F2F2;}
	.st4{fill:#666666;}
	.st5{fill:#574939;}
	.st6{fill:#EB7D86;}
	.st7{fill:#E6E6E6;}
	.st8{opacity:0.33;fill:#F2F2F2;enable-background:new    ;}
	.st9{fill:#004059;}
	.st10{fill:#C5D4D4;}
	.st11{fill:#DBDBDB;}
	.st12{fill:#7396A6;}
	.st13{fill:#5C7885;}
	.st14{fill:#3E5159;}
	.st15{fill:#0091A1;}
	.st16{fill:#568FC4;}
	.st17{fill:#85C8DE;}
	.st18{fill:#30657A;}
	.st19{fill:#B1C9BF;}
	.st20{fill:#BDA48C;}
	.st21{fill:#6B9429;}
	.st22{fill:#4D6B1E;}
	.st23{fill:#8EC536;}
	.st24{fill:#FFC942;}
	.st25{fill:#F58557;}
	.st26{fill:#B0C7D4;}
	.st27{fill:#D8E2E8;}
</style>
<g transform="translate(-55.26 -1603)">
	<g transform="translate(55.26 1603)">
		<g transform="translate(0 0)">
			<g transform="translate(0)">
				<g transform="translate(107.048 153.937)">
					<g transform="translate(0)">
						<g transform="translate(50.847 0.027)">
							<g transform="translate(0)">
								<g transform="translate(0)">
									<path class="st0" d="M7.1,12.3c0,0,7.6-6.6,1.6-11.1S0,6.5,0,6.5L7.1,12.3z"/>
								</g>
							</g>
						</g>
						<g transform="translate(49.578 5.596)">
							<g transform="translate(0)">
								<path class="st1" d="M0,2.1L1.2,0l7.9,6.5L7.7,8.6L0,2.1z"/>
							</g>
						</g>
						<g transform="translate(0 2.139)">
							<path class="st2" d="M1.3,17.8c0,0,27.2,35.1,57-5.9l-8.7-7.8c0,0-20.1,37.5-49.7-4.1L1.3,17.8z"/>
						</g>
						<path class="st3" d="M51.1,5.8l-0.3-0.2l-0.6,1.1l-0.5-0.5c0,0-14.4,26.9-36.8,9.8l-6.2,9.2c6.1,5.1,16.8,11.5,29.5,7.2
							L57.7,0.2C53.8-1,51.7,3.9,51.1,5.8z"/>
						<g transform="translate(51.494 15.865)">
							<g transform="translate(0)">
								<g transform="translate(0)">
									<path class="st4" d="M2,1.6c0.3-0.5,0.2-1.2-0.3-1.5C1.1-0.1,0.5,0,0.2,0.5C-0.1,1,0,1.7,0.5,2C1,2.3,1.7,2.1,2,1.6
										C2,1.6,2,1.6,2,1.6z"/>
								</g>
							</g>
						</g>
						<g transform="translate(53.93 13.174)">
							<g transform="translate(0)">
								<g transform="translate(0)">
									<path class="st4" d="M2,1.6c0.3-0.5,0.2-1.2-0.3-1.5C1.1-0.1,0.5,0,0.2,0.5C-0.2,1,0,1.7,0.5,2C1,2.3,1.7,2.1,2,1.6z"/>
								</g>
							</g>
						</g>
					</g>
				</g>
				<g transform="translate(0 51.512)">
					<g transform="translate(17.534 33.361)">
						<g transform="translate(0)">
							<path class="st0" d="M4.2,86.6c0,0-19.6-71.8,25.6-84.6c57.7-16.4,59.8,71.5,59.8,71.5L4.2,86.6z"/>
						</g>
					</g>
					<path class="st5" d="M56.4,76.2c0.9,3.2,0.4,6.1-1.2,6.5s-3.5-1.8-4.3-5s-0.4-6.1,1.1-6.5S55.5,73,56.4,76.2z"/>
					<path class="st5" d="M93.6,65.8c0.9,3.2,0.4,6.1-1.1,6.5s-3.5-1.8-4.3-5s-0.4-6.1,1.1-6.5S92.7,62.7,93.6,65.8z"/>
					<g transform="translate(63.221 85.426)">
						<g transform="translate(0)">
							<path class="st6" d="M0,5.4C0,5.4,14.9,0,25.1,0c0,0,4.8,12.8-9.7,16.4C1,19.9,0,5.4,0,5.4z"/>
						</g>
					</g>
					<g transform="translate(19.358 103.818)">
						<g transform="translate(0)">
							<g transform="translate(0)">
								<g transform="translate(17.725 56.574)">
									<g transform="translate(0)">
										<g transform="translate(0)">
											<path class="st2" d="M77.2,0l0.5,39.1l-6.1,29.5c0,0,11.3-6.3,14.9,1.3c5.2,10.7-20.3,3.4-20.3,3.4l3.6-33.5l-2.6-29.4
												c0,0-22.2,8.2-55.7,9.3l0.2,24.6L4.5,72.4c0,0,6.1-7.4,12.9,0.4c9.2,10.4-17.4,3.9-17.4,3.9l3.8-32L0,15.9
												C0,15.9,29,2.5,77.2,0z"/>
										</g>
									</g>
								</g>
								<path class="st2" d="M28.2,10l32.6,30.3L81,1.2L88.6,0L95,56.6c0,0-7.4,4.4-22.5,8.1c-6.3,1.7-16,3.4-16,3.4
									c-10,1.6-24.5,3.3-38.7,4.3L0,15.2L28.2,10z"/>
								<g transform="translate(28.228 1.195)">
									<g transform="translate(0)">
										<g transform="translate(0.002)">
											<g transform="translate(0)">
												<g transform="translate(0)">
													<path class="st1" d="M52.7,0L32.6,39.1L0,8.8L52.7,0z"/>
												</g>
											</g>
										</g>
										<g transform="translate(32.611)">
											<g transform="translate(0)">
												<path class="st4" d="M20.1,0l2.8,14.8l-8.1,3.1l3,11.2L0,39.1L20.1,0z"/>
											</g>
										</g>
										<g transform="translate(0 8.82)">
											<path class="st4" d="M32.6,30.3l-19.8-5.9L12.1,16l-9.4-1.8L0,0L32.6,30.3z"/>
										</g>
										<g transform="translate(23.125 6.626)">
											<g transform="translate(0)">
												<path class="st2" d="M12.5,3.7L9,0L1.8,0.9L0,6.4l3.4,2.9L2.1,25.7l7.4,6.8l5.4-10.4l-5-13.7L12.5,3.7z"/>
											</g>
										</g>
									</g>
								</g>
								<g transform="translate(59.441 43.285)">
									<g transform="translate(0)">
										<g transform="translate(0)">
											<path class="st4" d="M0.2,3.3C0.6,4.6,2,5.3,3.3,4.8c1.3-0.5,1.9-1.9,1.5-3.1C4.3,0.4,2.9-0.3,1.6,0.2
												C0.4,0.7-0.3,2.1,0.2,3.3L0.2,3.3z"/>
										</g>
									</g>
								</g>
								<g transform="translate(60.864 54.399)">
									<g transform="translate(0)">
										<g transform="translate(0)">
											<path class="st4" d="M0.2,3.3c0.5,1.3,1.9,1.9,3.2,1.4c1.3-0.5,1.9-1.9,1.4-3.2C4.2,0.3,2.8-0.3,1.6,0.2
												C0.3,0.7-0.3,2.1,0.2,3.3C0.2,3.3,0.2,3.3,0.2,3.3z"/>
										</g>
									</g>
								</g>
							</g>
						</g>
					</g>
					<path class="st5" d="M94.5,0c0,0,29.6,56.9-61.8,59.8l1,17.9c0,0-8.7-7.4-9.3,1.3c-0.8,10,8.2,5.9,8.2,5.9s-5.3,21.2-12.8,30.9
						c-0.4,0.5-42.2-77.6-3.3-79.1c0,0-0.8-20.1,23.4-26.9C73.8,0.2,76.4,27.8,94.5,0z"/>
				</g>
				<g transform="translate(80.635)">
					
						<rect x="68.1" y="117.4" transform="matrix(0.5542 -0.8324 0.8324 0.5542 -69.4081 125.5818)" class="st7" width="28.9" height="20.3"/>
					<path class="st3" d="M82.1,109.9l-1.5,2.3l7.2,25.8L99,121.2L82.1,109.9z"/>
					<ellipse class="st8" cx="124.4" cy="64.7" rx="58.4" ry="58.4"/>
					<path class="st7" d="M160.3,10.8C130.5-9,90.4-0.9,70.6,28.9c-19.8,29.7-11.7,69.9,18,89.7c29.7,19.8,69.9,11.7,89.7-18
						c0,0,0,0,0,0l0,0C198.1,70.8,190,30.6,160.3,10.8L160.3,10.8z M92,113.3c-26.9-17.9-34.1-54.2-16.3-81
						c17.9-26.9,54.2-34.1,81-16.3c26.9,17.9,34.1,54.1,16.3,81C155.2,123.9,118.9,131.2,92,113.3L92,113.3z"/>
					<path class="st3" d="M74.1,37.3C91.6,11.1,127,4,153.2,21.4c26.2,17.5,33.3,52.9,15.9,79.1c-2.5,3.7-5.4,7.1-8.6,10.2
						c25.4-19.9,29.9-56.6,10-82c-19.9-25.4-56.6-29.9-82-10c-9.9,7.7-17,18.4-20.3,30.5C69.6,45,71.6,41,74.1,37.3z"/>
					<path class="st4" d="M19.4,238.8L4.3,228.7c-2.4-1.6-3-4.8-1.4-7.2l56.9-85.4c1.6-2.4,4.8-3,7.2-1.4l15.1,10.1
						c2.4,1.6,3,4.8,1.4,7.2l-56.9,85.4C25.1,239.7,21.8,240.4,19.4,238.8z"/>
				</g>
				<g transform="translate(26.346 176.727)">
					<g transform="translate(0)">
						<path class="st7" d="M62,46.5l-1.4,6.8l4.5,3c2.5-0.1,5-1,5.6-4.7C71.9,44.2,62,46.5,62,46.5z"/>
						<g transform="translate(59.375 45.571)">
							<g transform="translate(0)">
								<g transform="translate(0)">
									<path class="st0" d="M0,9.3c0,0,9.4,3.6,10.6-3.8S1.9,0.3,1.9,0.3L0,9.3z"/>
								</g>
							</g>
						</g>
						<g transform="translate(57.42 45.311)">
							<g transform="translate(0)">
								<g transform="translate(0)">
									<path class="st1" d="M2.2,0l2.4,0.1l-2.1,10L0,9.9L2.2,0z"/>
								</g>
							</g>
						</g>
						<path class="st7" d="M59,47.2c0,0-40.2-5.3-49.1-46.8L0,0.6c0,0,0.5,37.3,39.8,53.1c6.9-0.8,13-1.8,18.2-2.8L59,47.2z"/>
						<g transform="translate(0)">
							<path class="st2" d="M0,0.6c0,0,2.6,46.8,58.1,55.4l2.8-11.3c0,0-40.4-3.6-51-44.7L0,0.6z"/>
						</g>
						<g transform="translate(51.746 51.221)">
							<g transform="translate(0)">
								<g transform="translate(0)">
									<path class="st4" d="M1,2.1c0.6,0,1.1-0.4,1.1-1c0-0.6-0.4-1.1-1-1.1C0.6,0,0,0.4,0,1C0,1.6,0.4,2.1,1,2.1z"/>
								</g>
							</g>
						</g>
						<g transform="translate(55.265 52.115)">
							<g transform="translate(0)">
								<g transform="translate(0)">
									<path class="st4" d="M1,2.1c0.6,0,1.1-0.4,1.1-1c0-0.6-0.4-1.1-1-1.1C0.6,0,0,0.4,0,1C0,1.6,0.4,2.1,1,2.1z"/>
								</g>
							</g>
						</g>
					</g>
				</g>
			</g>
		</g>
	</g>
	<g transform="translate(1683.521 1669.644)">
		<g transform="translate(0 0)">
			<path class="st9" d="M95.1,215.2c0,4.4,3.6,7.9,7.9,7.9s7.9-3.6,7.9-7.9s-3.6-7.9-7.9-7.9C98.7,207.3,95.1,210.8,95.1,215.2z"/>
			<path class="st9" d="M38.4,206.2c-1.5,4.1,0.6,8.7,4.7,10.2c4.1,1.5,8.7-0.6,10.2-4.7c1.5-4.1-0.6-8.7-4.7-10.2
				C44.4,199.9,39.9,202,38.4,206.2C38.4,206.2,38.4,206.2,38.4,206.2z"/>
			<path class="st9" d="M168.1,206.2c1.5,4.1-0.6,8.7-4.7,10.2s-8.7-0.6-10.2-4.7c-1.5-4.1,0.6-8.7,4.7-10.2
				C162.1,199.9,166.6,202,168.1,206.2z"/>
			<g transform="translate(95.357 91.954)">
				<path class="st10" d="M3.8-8h7.9c0.4,0,0.7,0.3,0.7,0.7v32.3c0,0.4-0.3,0.7-0.7,0.7H3.8c-0.4,0-0.7-0.3-0.7-0.7V-7.3
					C3-7.7,3.3-8,3.8-8z"/>
				<path class="st10" d="M3.8,53.4h7.9c0.4,0,0.7,0.3,0.7,0.7v25.4c0,0.4-0.3,0.7-0.7,0.7H3.8c-0.4,0-0.7-0.3-0.7-0.7V54.1
					C3,53.7,3.3,53.4,3.8,53.4z"/>
				<path class="st11" d="M4-8h2.9c-0.6,0-1,0.5-1,1v0v31.8c0,0.6,0.5,1,1,1c0,0,0,0,0,0H4c-0.6,0-1-0.5-1-1c0,0,0,0,0,0V-7
					C3-7.5,3.5-8,4-8C4-8,4-8,4-8z"/>
				<path class="st11" d="M4,53.4h2.9c-0.6,0-1,0.4-1,1c0,0,0,0,0,0v24.8c0,0.6,0.5,1,1,1c0,0,0,0,0,0H4c-0.6,0-1-0.5-1-1
					c0,0,0,0,0,0V54.4C3,53.8,3.5,53.4,4,53.4C4,53.4,4,53.4,4,53.4z"/>
				<path class="st12" d="M1.2,11.4h13c0.7,0,1.2,0.5,1.2,1.2v41.6c0,0.7-0.5,1.2-1.2,1.2h-13C0.5,55.5,0,55,0,54.3V12.7
					C0,12,0.5,11.4,1.2,11.4z"/>
				<g transform="translate(0 19.437)">
					<path class="st11" d="M14.1,34.4V-6.3c0-0.9-0.5-1.7-1.2-1.7h0.9c0.9,0,1.7,0.7,1.7,1.7v40.8c0,0.9-0.7,1.7-1.7,1.7h-0.9
						C13.6,36.1,14.1,35.3,14.1,34.4z"/>
					<path class="st11" d="M1.7-8h2.5C3.5-8,3-7.3,3-6.3v40.8c0,0.9,0.5,1.7,1.2,1.7H1.7c-0.9,0-1.7-0.7-1.7-1.7V-6.3
						C0-7.3,0.7-8,1.7-8z"/>
				</g>
			</g>
			<g transform="translate(56.941 89.615)">
				<g transform="translate(53.112 0)">
					<path class="st10" d="M9,19.7L0.3-4.1C0.1-4.4,0.3-4.9,0.7-5l7.4-2.7c0.4-0.1,0.8,0.1,1,0.4l8.8,23.8c0.1,0.4-0.1,0.8-0.4,1
						L10,20.2C9.6,20.3,9.2,20.1,9,19.7z"/>
					<path class="st10" d="M30.1,76.9l-8.7-23.8c-0.1-0.4,0.1-0.8,0.4-1l7.4-2.7c0.4-0.1,0.8,0.1,1,0.4l8.7,23.8
						c0.1,0.4-0.1,0.8-0.4,1L31,77.4C30.6,77.5,30.2,77.3,30.1,76.9z"/>
					<path class="st11" d="M0.9-5.1l2.7-1C3.1-5.9,2.9-5.3,3.1-4.8c0,0,0,0,0,0l8.6,23.3c0.2,0.5,0.8,0.8,1.3,0.6c0,0,0,0,0,0
						l-2.7,1c-0.5,0.2-1.1-0.1-1.3-0.6c0,0,0,0,0,0L0.3-3.8C0.2-4.3,0.4-4.9,0.9-5.1z"/>
					<path class="st11" d="M22,52.1l2.7-1c-0.5,0.2-0.8,0.8-0.6,1.3c0,0,0,0,0,0l8.6,23.3c0.2,0.5,0.8,0.8,1.3,0.6c0,0,0,0,0,0
						l-2.7,1c-0.5,0.2-1.1-0.1-1.3-0.6c0,0,0,0,0,0l-8.6-23.3C21.2,52.9,21.5,52.3,22,52.1z"/>
					<path class="st12" d="M18.5,54.3L4.2,15.3c-0.2-0.6,0.1-1.3,0.7-1.6l12.2-4.5c0.6-0.2,1.3,0.1,1.6,0.7L33,49
						c0.2,0.6-0.1,1.3-0.7,1.6l-12.2,4.5C19.5,55.3,18.8,55,18.5,54.3z"/>
					<g transform="translate(4.206 17.268)">
						<path class="st11" d="M27.4,31.8L13.3-6.5c-0.3-0.9-1.1-1.4-1.7-1.1l0.8-0.3c0.9-0.3,1.8,0.1,2.1,1c0,0,0,0,0,0l14.1,38.3
							c0.3,0.9-0.1,1.8-1,2.1l-0.8,0.3C27.5,33.4,27.8,32.5,27.4,31.8z"/>
						<path class="st11" d="M1.1-3.7l2.4-0.9c-0.7,0.4-0.9,1.3-0.5,2L17,35.6c0.3,0.9,1.1,1.4,1.7,1.1l-2.4,0.9
							c-0.9,0.3-1.8-0.1-2.1-1c0,0,0,0,0,0L0.1-1.6C-0.2-2.4,0.2-3.4,1.1-3.7C1.1-3.7,1.1-3.7,1.1-3.7z"/>
					</g>
				</g>
				<g transform="translate(0 0)">
					<path class="st10" d="M29.2,20.2l-7.4-2.7c-0.4-0.1-0.6-0.6-0.4-1l8.8-23.8c0.1-0.4,0.6-0.6,1-0.4L38.4-5
						c0.4,0.1,0.6,0.6,0.4,1l-8.8,23.8C30,20.1,29.6,20.3,29.2,20.2z"/>
					<path class="st10" d="M8.1,77.4l-7.4-2.7c-0.4-0.1-0.6-0.6-0.4-1L9,49.9c0.1-0.4,0.6-0.6,1-0.4l7.4,2.7c0.4,0.1,0.6,0.6,0.4,1
						L9.1,76.9C8.9,77.3,8.5,77.5,8.1,77.4z"/>
					<path class="st11" d="M22,17.5l2.7,1c-0.5-0.2-0.8-0.8-0.6-1.3c0,0,0,0,0,0l8.6-23.3c0.2-0.5,0.8-0.8,1.3-0.6c0,0,0,0,0,0
						l-2.7-1c-0.5-0.2-1.1,0.1-1.3,0.6c0,0,0,0,0,0l-8.6,23.3C21.2,16.8,21.5,17.3,22,17.5z"/>
					<path class="st11" d="M0.9,74.7l2.7,1c-0.5-0.2-0.8-0.8-0.6-1.3c0,0,0,0,0,0l8.6-23.3c0.2-0.5,0.8-0.8,1.3-0.6c0,0,0,0,0,0
						l-2.7-1c-0.5-0.2-1.1,0.1-1.3,0.6L0.3,73.5C0.2,74,0.4,74.6,0.9,74.7z"/>
					<path class="st12" d="M19,55.1L6.9,50.6c-0.6-0.2-1-0.9-0.7-1.6L20.5,9.9c0.2-0.6,0.9-1,1.6-0.7l12.2,4.5
						c0.6,0.2,1,0.9,0.7,1.6L20.6,54.3C20.4,55,19.7,55.3,19,55.1z"/>
					<g transform="translate(6.174 17.268)">
						<path class="st11" d="M27.4-2.1L13.3,36.2c-0.3,0.9-1.1,1.4-1.7,1.1l0.8,0.3c0.9,0.3,1.8-0.1,2.1-1c0,0,0,0,0,0L28.7-1.6
							c0.3-0.9-0.1-1.8-1-2.1L26.9-4C27.5-3.6,27.8-2.7,27.4-2.1z"/>
						<path class="st11" d="M1.1,33.5l2.4,0.9c-0.7-0.4-0.9-1.3-0.5-2L17-5.9c0.3-0.9,1.1-1.4,1.7-1.1l-2.4-0.9
							c-0.9-0.3-1.8,0.1-2.1,1c0,0,0,0,0,0L0.1,31.3C-0.2,32.2,0.2,33.2,1.1,33.5C1.1,33.5,1.1,33.5,1.1,33.5z"/>
					</g>
				</g>
			</g>
			<g transform="translate(80.287 73.147)">
				<path class="st12" d="M1.6,1.6H44c0.9,0,1.6,0.7,1.6,1.6v11.2c0,0.9-0.7,1.6-1.6,1.6H1.6c-0.9,0-1.6-0.7-1.6-1.6V3.1
					C0,2.3,0.7,1.6,1.6,1.6z"/>
				<path class="st10" d="M9.2-8h27.3C37.3-8,38-7.3,38-6.5V0c0,0.9-0.7,1.5-1.5,1.5H9.2C8.3,1.6,7.6,0.9,7.6,0v-6.5
					C7.6-7.3,8.3-8,9.2-8z"/>
				<path class="st11" d="M9.7-8h26.2C37-8,38-7.1,38-5.9c0,0-14.2,1.7-18.8,2.7s-4.2,4.8,0.2,4.8H9.7c-1.1,0-2.1-0.9-2.1-2.1v-5.4
					C7.6-7.1,8.5-8,9.7-8z"/>
				<path class="st11" d="M10.5,15.9H2.1C0.9,15.9,0,15,0,13.9V3.6c0-1.1,0.9-2.1,2.1-2.1h38.6c0,0-22.7,1.6-29.5,2.2
					C5.9,4.3,6.2,15.6,10.5,15.9z"/>
			</g>
			<ellipse class="st12" cx="193.9" cy="33.1" rx="25.5" ry="25.5"/>
			<path class="st9" d="M116.8,61.8V4.4l61.8,8.5c0.3,0,0.5,0,0.8,0.1l0,0c4.5,1.1,8,9.7,8,20.1s-3.5,19-8,20.1l0,0h0
				c-0.2,0.1-0.5,0.1-0.8,0.1L116.8,61.8z"/>
			<path class="st12" d="M16.9-4.9l102.3,6.2v0c7,2,12.4,15.5,12.4,31.8s-5.4,29.7-12.4,31.8v0L16.9,71.1v-38l0,0V-4.9z"/>
			<ellipse class="st13" cx="16.9" cy="33.1" rx="16.9" ry="38"/>
			<ellipse class="st14" cx="18.4" cy="33.1" rx="14.2" ry="32"/>
			<ellipse class="st15" cx="21.9" cy="33.1" rx="10.8" ry="24.2"/>
			<ellipse class="st16" cx="22.3" cy="33.1" rx="10.3" ry="23.2"/>
			<ellipse class="st17" cx="22.8" cy="33.1" rx="9.8" ry="22.1"/>
			<g transform="translate(202.283)">
				<path class="st14" d="M17.5,21.7l-3.8,3.6c-1.4,1.3-5.5-0.7-9.2-4.5s-5.5-8.1-4.1-9.4l3.8-3.6L17.5,21.7z"/>
				<path class="st9" d="M28.8,14.5l-10.4,9.9c-1.9,1.8-7.2-0.6-11.8-5.5S-0.3,8.5,1.7,6.7L12-3.2L28.8,14.5z"/>
				<path class="st18" d="M23.9,2.3c4.6,4.9,6.8,10.3,4.9,12.1S21.6,13.8,17,8.9S10.1-1.3,12-3.2S19.3-2.5,23.9,2.3z"/>
				<path class="st14" d="M33.7,4.6l-7.5,7.1c-1.3,1.3-5-0.4-8.2-3.8s-4.7-7.1-3.4-8.4l7.5-7.1L33.7,4.6z"/>
				<path class="st12" d="M30.3-3.8c3.2,3.4,4.7,7.1,3.4,8.4s-5-0.4-8.2-3.8s-4.7-7.1-3.4-8.4S27.1-7.1,30.3-3.8z"/>
				<path class="st17" d="M29.3-2.8c2.3,2.4,3.4,5,2.6,5.8s-3.4-0.5-5.7-2.8s-3.4-5-2.6-5.8S27.1-5.2,29.3-2.8z"/>
				<path class="st9" d="M28.2-1.8c-1.8-1.9-3.7-3-4.9-3.1c0-0.3,0.1-0.6,0.3-0.8c0.9-0.8,3.4,0.5,5.7,2.8s3.4,5,2.6,5.8
					c-0.2,0.2-0.5,0.3-0.8,0.2C31.1,2,30,0.1,28.2-1.8z"/>
				<path class="st19" d="M14.1,5.4l-7.2,6.8c-1.7,1.6-1,5.1,1.5,8.3l-2,1.9c-0.6-0.5-1.2-1.1-1.8-1.7c-3.7-3.8-5.5-8.1-4.1-9.4
					l0.8-0.8C0.8,8.9,0.9,7.5,1.7,6.7L12-3.2C10.6-1.8,11.5,1.7,14.1,5.4z"/>
				<path class="st19" d="M25.1,10.5l6.1-5.8C32,5.2,33,5.1,33.7,4.6l-7.5,7.1c-1,0.9-3.2,0.2-5.6-1.5
					C22.3,11.3,24.1,11.5,25.1,10.5z"/>
				<path class="st20" d="M29.6-2.5c2.1,2.3,3.1,4.7,2.3,5.5c-0.2,0.2-0.5,0.3-0.8,0.2c0-1.1-1-2.9-2.5-4.7L29.6-2.5z"/>
			</g>
			<path class="st19" d="M16.9-4.9c9.3,0,16.9,17,16.9,38c0,0.4,0,0.7,0,1.1c0,0-0.4-0.1-1.1-0.3c0-0.3,0-0.6,0-0.9
				c0-12.2-4.4-22.1-9.8-22.1c-5.2,0-9.4,9-9.8,20.4c-0.6,0-1.3,0-1.9-0.1c-3.7,0-7.4-0.4-11.1-1.3C0.7,10.6,8-4.9,16.9-4.9z"/>
			<g transform="translate(16.876 20.157)">
				<path class="st11" d="M0.9,50.9c-0.3,0-0.6,0.1-0.9,0.1L0.9,50.9z"/>
				<path class="st19" d="M0.9,50.9c8.9-1.1,16-17.6,16-37.9C16.9,5.9,16-1.2,14.1-8l0,0c2.5,8.2,3.9,16.6,4.3,25.1
					c0.3,5.9,5.2,10.6,11.1,10.8c23,0.6,74.2,1.3,79.2-3.3c5.9-5.3,5.9-13.7,5.8-15.4c0.1,1.2,0.1,2.4,0.1,3.7
					c0,16.3-5.4,29.7-12.4,31.8v0L0.9,50.9z"/>
			</g>
			<path class="st19" d="M131.2,40L131.2,40c0,0,0.4,2.5,0.6,5.4c0.2,2.9,2.7,5.1,5.6,4.9c0.1,0,0.1,0,0.2,0l39.1-3.9
				c3-0.3,5.7-1.9,7.3-4.4c2-3,3.8-7.7,3-14.5c0,0-0.7-7.5-4.3-12c2.2,2.6,6.8,9.3,7.2,20.4c0.5,14.7,17.3,22.3,25.5,10.8
				c-7.5,11.9-23.3,15.5-35.2,8c-0.7-0.4-1.3-0.9-2-1.4l-53.7,7.4C127.9,56.3,130.4,48.8,131.2,40z"/>
			<g transform="translate(131.121 158.912)">
				<path class="st13" d="M19.5,52L0.6,0.5c-0.3-0.8,0.1-1.8,1-2.1l16-5.9c0.8-0.3,1.8,0.1,2.1,1l18.9,51.4c0.3,0.8-0.1,1.8-1,2.1
					l-16,5.9C20.7,53.2,19.8,52.8,19.5,52z"/>
				<g transform="translate(0.617 0.617)">
					<path class="st11" d="M36.1,44.4L17.5-6c-0.4-1.1-1.4-1.8-2.2-1.5l1.1-0.4c1.1-0.4,2.4,0.2,2.8,1.3l18.5,50.4
						c0.4,1.1-0.2,2.4-1.3,2.8L35.4,47C36.2,46.5,36.6,45.3,36.1,44.4z"/>
					<path class="st11" d="M1.4-2.4l3.1-1.2C3.7-3,3.4-1.8,3.9-0.9l18.5,50.4c0.4,1.1,1.4,1.8,2.2,1.5l-3.1,1.2
						c-1.1,0.4-2.4-0.2-2.8-1.3L0.1,0.4C-0.3-0.7,0.3-1.9,1.4-2.4z"/>
				</g>
			</g>
			<g transform="translate(36.277 158.912)">
				<path class="st13" d="M17.5,52.9L1.5,47c-0.8-0.3-1.3-1.2-1-2.1L19.5-6.5c0.3-0.8,1.2-1.3,2.1-1l16,5.9c0.8,0.3,1.3,1.2,1,2.1
					L19.6,52C19.3,52.8,18.4,53.2,17.5,52.9z"/>
				<g transform="translate(0.617 0.617)">
					<path class="st11" d="M36.1-0.2L17.5,50.2c-0.4,1.1-1.4,1.8-2.2,1.5l1.1,0.4c1.1,0.4,2.4-0.2,2.8-1.3L37.7,0.4
						c0.4-1.1-0.2-2.4-1.3-2.8c0,0,0,0,0,0l-1.1-0.4C36.2-2.2,36.6-1.1,36.1-0.2z"/>
					<path class="st11" d="M1.4,46.6l3.1,1.2c-0.9-0.5-1.2-1.7-0.7-2.6L22.4-5.2c0.4-1.1,1.4-1.8,2.2-1.5l-3.1-1.2
						c-1.1-0.4-2.4,0.2-2.8,1.3L0.1,43.8C-0.3,44.9,0.3,46.2,1.4,46.6C1.4,46.6,1.4,46.6,1.4,46.6z"/>
				</g>
			</g>
			<g transform="translate(92.918 165.172)">
				<path class="st13" d="M1.6-8h17.1c0.9,0,1.6,0.7,1.6,1.6v54.8c0,0.9-0.7,1.6-1.6,1.6H1.6C0.7,50,0,49.3,0,48.4V-6.4
					C0-7.3,0.7-8,1.6-8z"/>
				<g transform="translate(0)">
					<path class="st11" d="M18.5-5.8v53.7c0,1.2-0.7,2.2-1.6,2.2h1.1c1.2,0,2.2-1,2.2-2.2V-5.8c0-1.2-1-2.2-2.2-2.2H17
						C17.8-8,18.5-7,18.5-5.8z"/>
					<path class="st11" d="M2.2,50h3.4C4.7,50,4,49,4,47.8V-5.8C4-7,4.7-8,5.5-8H2.2C1-8,0-7,0-5.8v53.7C0,49,1,50,2.2,50z"/>
				</g>
			</g>
		</g>
	</g>
	<g transform="translate(1555.927 1828.074)">
		<g transform="translate(0.001 0)">
			<path class="st21" d="M62.1,2c11.1,0,20.4,13.8,20.2,30.7c-0.2,16.4-9,29.5-19.7,29.5H19.2V2H62.1z"/>
			<g transform="translate(45.504 34.715)">
				<path class="st11" d="M12.8,20.3L12.8,20.3c0.8-1,1.5-2.1,2.1-3.3l7.5-11.4C24,3.3,26,2,28.2,2h8.4
					c-1.4,14.5-9.6,25.5-19.5,25.5H0C4.9,27.5,9.4,24.8,12.8,20.3z"/>
			</g>
			<path class="st22" d="M161,6.1c9.6,0,17.6,12,17.5,26.6c-0.2,14.2-7.8,25.6-17.1,25.6h-37.5V6.1H161z"/>
			<path class="st21" d="M131.2,2c11.1,0,20.4,13.8,20.2,30.7c-0.2,16.4-9,29.5-19.7,29.5H88.3V2H131.2z"/>
			<path class="st23" d="M20.2,2h67.7c11.1,0,20.4,13.8,20.2,30.7c-0.2,16.4-9,29.5-19.7,29.5c-4.9,0-9.4-2.7-12.8-7.3l0,0
				c-0.8-1-1.5-2.1-2.1-3.3l-7.5-11.4c-1.5-2.3-3.6-3.6-5.7-3.6H47.9c-2.1,0-4.2,1.3-5.7,3.6l-7.5,11.4c-0.6,1.1-1.3,2.2-2.1,3.3
				l0,0c-3.5,4.5-7.9,7.3-12.8,7.3C9,62.3,0.2,49.1,0,32.7C-0.2,15.8,9.1,2,20.2,2z"/>
			<path class="st24" d="M4,33.8C3.8,18.6,12.6,6.2,23,6.2h63.5c10.4,0,19.1,12.4,18.9,27.6c-0.2,14.7-8.4,26.6-18.5,26.6
				c-4.6,0-8.8-2.5-12.1-6.5l0,0c-0.7-0.9-1.4-1.9-2-2.9l-0.5-0.7l-6.5-9.9c-1.5-2.3-3.6-3.6-5.7-3.6H47.9c-2.1,0-4.2,1.3-5.7,3.6
				l-7.5,11.4c-0.6,1.1-1.3,2.2-2.1,3.3l0,0c-1.1,1.4-2.3,2.7-3.7,3.8c-2,1.1-4.1,1.6-6.4,1.7C12.4,60.4,4.2,48.6,4,33.8z"/>
			<ellipse class="st25" cx="23.1" cy="32.1" rx="14" ry="21.4"/>
			<ellipse class="st25" cx="88.3" cy="32.1" rx="14" ry="21.4"/>
			<g transform="translate(15.821 13.865)">
				<ellipse class="st16" cx="10.7" cy="18.3" rx="10.7" ry="16.3"/>
				<ellipse class="st17" cx="12.3" cy="18.3" rx="9" ry="13.8"/>
			</g>
			<g transform="translate(81.013 13.865)">
				<ellipse class="st16" cx="10.7" cy="18.3" rx="10.7" ry="16.3"/>
				<ellipse class="st17" cx="12.3" cy="18.3" rx="9" ry="13.8"/>
			</g>
			<path class="st16" d="M45.4,10.7h21.1c0.8,0,1.4,0.6,1.4,1.4v19.8c0,0.8-0.6,1.4-1.4,1.4H45.4c-0.8,0-1.4-0.6-1.4-1.4V12.1
				C44,11.3,44.6,10.7,45.4,10.7z"/>
			<path class="st17" d="M50.9,11.7h16.4c0.2,0,0.3,0,0.5,0.1c0.1,0.2,0.1,0.4,0.1,0.7v19.2c0,0.2,0,0.4-0.1,0.7
				c-0.2,0.1-0.3,0.1-0.5,0.1H50.9c-0.9,0-1.5-0.7-1.5-1.5c0,0,0,0,0,0V13.2C49.3,12.4,50,11.7,50.9,11.7z"/>
			<path class="st20" d="M45.7,10.7h20.5c0.8,0,1.5,0.6,1.7,1.3c0-0.1-0.1-0.2-0.1-0.3c-0.2-0.1-0.3-0.1-0.5-0.1H50.9
				c-0.9,0-1.5,0.7-1.5,1.5v0L44,12.4C44,11.5,44.8,10.7,45.7,10.7z"/>
			<g transform="translate(9.869 8.721)">
				<path class="st20" d="M13.2,2c7.4,0,13.4,8.7,14,19.7c-0.4-5.1-9.5-7.1-14.4-5.3C9.1,17.7,5,17.9,1.3,16.8L0,16.4
					C1.9,8,7.1,2,13.2,2z"/>
				<path class="st20" d="M78.4,2c7.4,0,13.4,8.7,14,19.7c-0.4-5.1-9.5-7.1-14.4-5.3c-3.7,1.4-7.7,1.5-11.5,0.4l-1.3-0.4
					C67.1,8,72.3,2,78.4,2z"/>
			</g>
			<path class="st24" d="M128.3,2c10.1,0,18.8,11.6,20,26.5c0.2,2.1-1.4,4-3.5,4.2c-0.1,0-0.2,0-0.3,0h-29.4c-2,0-3.7-1.5-3.8-3.6
				c-0.9-15-8.2-26.8-16.8-27.1v0H128.3z"/>
			<path class="st11" d="M151.4,32.7c0.1-5.6-0.9-11.1-3-16.3l0,0c3.5,7.7,4.4,16.5,4.6,21.3c0.1,2.1,1.8,3.8,4,3.8h13.7
				c3.5,0,6.6-2.5,7.2-5.9c0.5-2.9,0.6-5.9,0.3-8.9c0.3,2,0.4,4,0.4,6c-0.2,14.2-7.8,25.6-17.1,25.6h-19.9
				C147.3,53.1,151.2,43.6,151.4,32.7z"/>
			<g transform="translate(125.14 35.317)">
				<g transform="translate(4.969)">
					<path class="st26" d="M1.8,2h11.1c1,0,1.8,0.8,1.9,1.8c0,1-0.8,1.8-1.8,1.9c0,0-0.1,0-0.1,0H1.8C0.8,5.7,0,4.9,0,3.9
						C-0.1,2.9,0.7,2,1.8,2C1.8,2,1.8,2,1.8,2z"/>
				</g>
				<path class="st27" d="M1.8,2h4.8c1,0,1.8,0.8,1.9,1.8c0,1-0.8,1.8-1.8,1.9c0,0-0.1,0-0.1,0H1.8C0.8,5.6,0,4.8,0,3.8
					C0.1,2.8,0.9,2,1.8,2z"/>
			</g>
			<path class="st24" d="M154.8,6.1c9,0,16.6,10.5,17.4,23.8c0.1,1.5-1,2.7-2.5,2.8c0,0-0.1,0-0.1,0h-3.1c-2.1,0-3.9-1.6-4-3.7
				c-1.1-12.9-8.6-22.9-17.3-22.9H154.8z"/>
		</g>
		<path class="st21" d="M170,29.9c-0.8-13.3-8.4-23.8-17.4-23.8h2.2c9,0,16.6,10.5,17.4,23.8c0.1,1.5-1,2.7-2.5,2.8c0,0-0.1,0-0.1,0
			h-2.2c1.5,0,2.6-1.2,2.6-2.6C170,30,170,29.9,170,29.9z"/>
		<path class="st23" d="M128.3,2h-3.5c10.1,0,18.8,11.6,20,26.5c0.2,2.1-1.4,4-3.5,4.2c-0.1,0-0.2,0-0.3,0h3.5
			c2.1,0,3.9-1.7,3.8-3.9c0-0.1,0-0.2,0-0.3C147.1,13.6,138.5,2,128.3,2z"/>
	</g>
</g>
</svg>
