<svg xmlns="http://www.w3.org/2000/svg" width="1920" height="488.879" viewBox="0 0 1920 488.879"><g transform="translate(0 -841)"><g transform="translate(93.284 -60.279)"><path d="M265.072,1273.925c.807,25.577-20.408,46.525-46.041,46.525H-87.683a47.975,47.975,0,0,1-5.6-.324V1216.362a64.3,64.3,0,0,1,25.578-5.277,60.623,60.623,0,0,1,9.423.7,83.633,83.633,0,0,1,141.728-33.87,64.928,64.928,0,0,1,93.155,37.639,64.285,64.285,0,0,1,31.231-4.039,65.156,65.156,0,0,1,57.133,59.664C265.017,1272.095,265.072,1273.01,265.072,1273.925Z" fill="#fff"/><path d="M219.051,1320.468H89.391c35.047-4.482,70.132-6.516,104.9-12.976,27.081-5.028,46.836-18.436,59.039-43.6,2.071-4.275,2.655-14.52,1.149-23.446a63.913,63.913,0,0,1,10.47,30.753c.076.9.113,1.807.151,2.711C265.887,1299.526,244.663,1320.468,219.051,1320.468Z" fill="#b6d7e0" opacity="0.34" style="mix-blend-mode:multiply;isolation:isolate"/><path d="M1179.338,992.158H1014.684a24,24,0,0,1-24.12-23.6v-.273a34.82,34.82,0,0,1,39.91-34.471,44.9,44.9,0,0,1,76.08-18.166,34.857,34.857,0,0,1,50,20.187,34.772,34.772,0,0,1,41.8,13.375,34.312,34.312,0,0,1,5.621,16.507c.04.486.06.971.081,1.456C1204.479,980.917,1193.086,992.158,1179.338,992.158Z" fill="#e8f6f9"/><path d="M1179.338,992.158h-69.6c18.813-2.405,37.646-3.5,56.307-6.965,14.537-2.7,25.141-9.9,31.691-23.4,1.112-2.3,1.426-7.794.617-12.585a34.312,34.312,0,0,1,5.621,16.507c.04.486.06.971.081,1.456C1204.479,980.917,1193.086,992.158,1179.338,992.158Z" fill="#b6d7e0" opacity="0.34" style="mix-blend-mode:multiply;isolation:isolate"/></g><g transform="translate(576.436 278.343)"><path d="M1302.678,1051.536H1030.443c-21.7,0-39.712-17.332-39.879-39.026v-.451a57.571,57.571,0,0,1,65.986-56.994,74.235,74.235,0,0,1,125.789-30.035,57.632,57.632,0,0,1,82.667,33.377,57.491,57.491,0,0,1,69.111,22.114,56.731,56.731,0,0,1,9.294,27.292c.066.8.1,1.605.134,2.407C1344.246,1032.951,1325.409,1051.536,1302.678,1051.536Z" fill="#fff"/><path d="M1224.813,1020.222H1109.738c31.1-3.976,62.243-5.782,93.1-11.516,24.035-4.462,41.568-16.362,52.4-38.692,1.839-3.795,2.358-12.886,1.02-20.808a56.731,56.731,0,0,1,9.294,27.292c.066.8.1,1.605.134,2.407C1266.38,1001.636,1247.544,1020.222,1224.813,1020.222Z" transform="translate(77.866 31.314)" fill="#b6d7e0" opacity="0.34" style="mix-blend-mode:multiply;isolation:isolate"/></g></g></svg>