<svg xmlns="http://www.w3.org/2000/svg" width="68.881" height="63" viewBox="0 0 68.881 63"><defs><style>.a{fill:#fff;}</style></defs><path class="a" d="M1314.94,1325.75a1.4,1.4,0,0,1-1.4,1.4h-66.072a1.4,1.4,0,1,1,0-2.809h8.887v-28.753a1.405,1.405,0,0,1,.768-1.251l14.4-7.317v-13.758a1.4,1.4,0,0,1,.768-1.252l15.162-7.708a1.4,1.4,0,0,1,2.041,1.252v32.175l14.394,7.316a1.4,1.4,0,0,1,.768,1.252v18.043h8.888A1.4,1.4,0,0,1,1314.94,1325.75Zm-43.426-35.576-12.354,6.28v27.891h12.354Zm15.162-22.326-12.353,6.28v50.217h12.353v-56.5Zm15.163,39.316-12.354-6.28v23.461h12.354Zm-8.53,15.221a1.054,1.054,0,0,0,1.053-1.054v-15.3a1.053,1.053,0,1,0-2.107,0v15.3A1.054,1.054,0,0,0,1293.308,1322.385Zm4.707,0a1.054,1.054,0,0,0,1.054-1.054v-10.856a1.053,1.053,0,1,0-2.107,0v10.856A1.054,1.054,0,0,0,1298.015,1322.385Zm-30.324,0a1.054,1.054,0,0,0,1.053-1.054v-25.676a1.053,1.053,0,0,0-2.107,0v25.676A1.054,1.054,0,0,0,1267.691,1322.385Zm-4.707,0a1.054,1.054,0,0,0,1.053-1.054V1300.1a1.053,1.053,0,0,0-2.107,0v21.229A1.054,1.054,0,0,0,1262.984,1322.385Zm20.062,0a1.054,1.054,0,0,0,1.053-1.054v-47.667a1.053,1.053,0,0,0-2.107,0v47.667A1.054,1.054,0,0,0,1283.045,1322.385Zm-5.092,0a1.054,1.054,0,0,0,1.053-1.054v-42.985a1.053,1.053,0,1,0-2.107,0v42.985A1.054,1.054,0,0,0,1277.954,1322.385Z" transform="translate(-1246.059 -1264.154)"/></svg>