<svg xmlns="http://www.w3.org/2000/svg" width="64.641" height="65" viewBox="0 0 64.641 65"><defs><style>.a{fill:#466922;}.b{fill:#527a28;}.c{fill:#64942f;}.d{fill:#5b872b;}.e{fill:#80b407;}.f{fill:#1c5078;}.g{fill:#2a75ae;}.h{fill:#4298c7;}.i{fill:#204152;}.i,.n{opacity:0.2;}.j,.l{fill:#fff;}.j,.p{opacity:0.1;}.k{fill:#eef7fc;}.m{fill:#b4d4e9;}.n{fill:#335582;}.o{fill:#365784;}.p{fill:#f0f5f9;}.q{fill:#223752;}</style></defs><g transform="translate(-304.763 -136.583)"><path class="a" d="M307.232,199.15a28.856,28.856,0,0,1,.952-17.238,33.179,33.179,0,0,1,1.164,17.238Z"/><path class="a" d="M362.957,199.15a21.542,21.542,0,0,1,.952-14.833,24.849,24.849,0,0,1,1.163,14.833Z"/><path class="b" d="M365.985,199.15a17,17,0,0,1,.841-12.358,19.629,19.629,0,0,1,1.028,12.358Z"/><path class="b" d="M309.875,199.15a22.742,22.742,0,0,1,.74-13.492,26.144,26.144,0,0,1,.9,13.492Z"/><path class="c" d="M305.613,191.772a2.009,2.009,0,0,1,2.051,1.643,1.262,1.262,0,0,1,.625-.154,1.194,1.194,0,0,1,1.228,1.155h2.106a.793.793,0,1,1,1.586,0h.182a1.5,1.5,0,1,1,2.975,0h3.7a1.875,1.875,0,0,1,1.931-1.824.781.781,0,0,0,1.408-.415l.091-.091a2.062,2.062,0,0,1,2.837,0l.314.406a1.989,1.989,0,0,1,.274,1.012l-.072.534a2.041,2.041,0,0,1-.151.378h2.9a1.255,1.255,0,0,1,1.278-1,1.283,1.283,0,0,1,.885.32,1.267,1.267,0,0,1,1.3-1.141,1.348,1.348,0,0,1,1.253,1.824h1.624a1.325,1.325,0,1,1,2.636,0h3.418a1.333,1.333,0,0,1,2.275,0h2.649a1.322,1.322,0,1,1,2.642,0h2.85a1.276,1.276,0,0,1-.03-.273,1.519,1.519,0,0,1,.4-.968,1.375,1.375,0,0,1,.967-.4,1.43,1.43,0,0,1,.968.4l.091.092a1.394,1.394,0,0,1,.354.63,1.265,1.265,0,0,1,.959-.393,1.249,1.249,0,0,1,1.252.912h4.973a1.247,1.247,0,0,1,1.252-.912.65.65,0,0,0,1.131-.6,1.418,1.418,0,0,1,.967-.4h.091a1.411,1.411,0,0,1,.967.4,1.016,1.016,0,0,1,.283.44,1.029,1.029,0,0,1,.118.527,1.638,1.638,0,0,1-.116.547H369.4v4.734H304.763v-7.222A2.248,2.248,0,0,1,305.613,191.772Z"/><path class="d" d="M362.017,195.263a.73.73,0,0,0,0,1.459A.73.73,0,0,0,362.017,195.263Z"/><path class="d" d="M363.7,195.491a.183.183,0,0,0,0,.365A.183.183,0,0,0,363.7,195.491Z"/><path class="d" d="M352.541,197.1l-.046.046a.182.182,0,0,0,.258.257l.045-.045A.182.182,0,0,0,352.541,197.1Z"/><path class="d" d="M353.954,197.543a.228.228,0,0,0,0,.456A.228.228,0,0,0,353.954,197.543Z"/><path class="d" d="M354.63,195.582a.456.456,0,0,0,0,.912A.456.456,0,0,0,354.63,195.582Z"/><path class="d" d="M339,196.4a.456.456,0,0,0,0,.912A.456.456,0,0,0,339,196.4Z"/><path class="d" d="M343.247,197.986a.5.5,0,0,0-.229-.3.521.521,0,0,0-.339-.058.233.233,0,0,0-.038.007h-.009a.455.455,0,0,0-.384.347.545.545,0,0,0,.127.5.52.52,0,0,0,.372.155.558.558,0,0,0,.369-.151A.53.53,0,0,0,343.247,197.986Z"/><path class="d" d="M343.7,195.9a.456.456,0,0,0,0,.912A.456.456,0,0,0,343.7,195.9Z"/><path class="d" d="M336.9,195.856a.593.593,0,0,0,0,1.185A.593.593,0,0,0,336.9,195.856Z"/><path class="d" d="M340.077,195.674a.336.336,0,0,0,0,.672A.336.336,0,0,0,340.077,195.674Z"/><path class="d" d="M339.235,197.725a.456.456,0,0,0,0,.912A.456.456,0,0,0,339.235,197.725Z"/><path class="d" d="M323.057,193.8h-.046a.456.456,0,0,0,0,.912h.046a.456.456,0,0,0,0-.912Z"/><path class="d" d="M325.39,193.439a.228.228,0,0,0,0,.456A.228.228,0,0,0,325.39,193.439Z"/><path class="d" d="M325.291,195.263a.456.456,0,0,0,0,.912A.456.456,0,0,0,325.291,195.263Z"/><path class="d" d="M313.78,195.9h-.024a.239.239,0,1,0,0,.477h.024a.239.239,0,1,0,0-.477Z"/><path class="d" d="M310.006,197.68a.456.456,0,0,0,0,.912A.456.456,0,0,0,310.006,197.68Z"/><path class="d" d="M305.9,194.351a.456.456,0,0,0,0,.912A.456.456,0,0,0,305.9,194.351Z"/><path class="d" d="M306.772,195.172a.365.365,0,0,0,0,.73A.365.365,0,0,0,306.772,195.172Z"/><path class="d" d="M317.539,197.817a.463.463,0,0,0-.455.456v.045a.455.455,0,1,0,.911,0v-.045A.46.46,0,0,0,317.539,197.817Z"/><rect class="e" width="64.641" height="2.433" transform="translate(304.763 199.15)"/><path class="f" d="M311.339,199.15V144.518l23.667-7.935V199.15Z"/><path class="g" d="M311.339,199.15V146.7l23.667-7.935V199.15Z"/><path class="h" d="M335.006,141.731h-8.65l2.878-1.028h5.772Z"/><rect class="h" width="23.667" height="1.028" transform="translate(311.339 148.024)"/><rect class="h" width="23.667" height="1.028" transform="translate(311.339 155.345)"/><rect class="h" width="23.667" height="1.028" transform="translate(311.339 162.667)"/><rect class="h" width="23.667" height="1.028" transform="translate(311.339 169.988)"/><rect class="h" width="23.667" height="1.028" transform="translate(311.339 177.309)"/><rect class="h" width="23.667" height="1.028" transform="translate(311.339 184.63)"/><rect class="h" width="23.667" height="1.028" transform="translate(311.339 191.951)"/><path class="i" d="M311.339,146.875l3.294-1.128v53.4h-3.294Z"/><path class="j" d="M335.006,156.842l-23.667,13.7V146.875l23.667-8.108Z"/><path class="j" d="M335.006,171.565l-23.667,13.7v-4.479l23.667-13.7Z"/><path class="j" d="M335.006,183.011l-23.667,13.7v-8.875l23.667-13.7Z"/><path class="k" d="M323.891,199.15h-1.438V142.976l1.438-.482Z"/><rect class="l" width="27.758" height="47.523" transform="translate(335.006 151.628)"/><rect class="m" width="27.758" height="2.576" transform="translate(335.006 149.052)"/><rect class="n" width="2.121" height="50.098" transform="translate(335.006 149.052)"/><rect class="m" width="20.404" height="10.81" transform="translate(338.379 188.34)"/><rect class="o" width="18.192" height="9.536" transform="translate(339.485 189.614)"/><path class="p" d="M346.09,199.15h-6.6l4.6-9.536h6.6Z"/><path class="p" d="M353.079,199.15h-2.2l4.6-9.536h2.2Z"/><rect class="q" width="18.192" height="0.46" transform="translate(339.485 191.324)"/><rect class="q" width="9.536" height="0.53" transform="translate(345.401 189.614) rotate(90)"/><rect class="q" width="9.536" height="0.53" transform="translate(352.291 189.614) rotate(90)"/><rect class="o" width="7.527" height="1.36" transform="translate(339.485 155.601)"/><rect class="o" width="7.527" height="1.36" transform="translate(339.485 159.174)"/><rect class="o" width="7.527" height="1.36" transform="translate(339.485 162.747)"/><rect class="o" width="7.527" height="1.36" transform="translate(339.485 166.321)"/><rect class="o" width="7.527" height="1.36" transform="translate(339.485 169.894)"/><rect class="o" width="7.527" height="1.36" transform="translate(339.485 173.468)"/><rect class="o" width="7.527" height="1.36" transform="translate(339.485 177.041)"/><rect class="o" width="7.527" height="1.36" transform="translate(339.485 180.614)"/><rect class="o" width="7.527" height="1.36" transform="translate(339.485 184.188)"/><rect class="o" width="7.527" height="1.36" transform="translate(350.15 155.601)"/><rect class="o" width="7.527" height="1.36" transform="translate(350.15 159.174)"/><rect class="o" width="7.527" height="1.36" transform="translate(350.15 162.747)"/><rect class="o" width="7.527" height="1.36" transform="translate(350.15 166.321)"/><rect class="o" width="7.527" height="1.36" transform="translate(350.15 169.894)"/><rect class="o" width="7.527" height="1.36" transform="translate(350.15 173.468)"/><rect class="o" width="7.527" height="1.36" transform="translate(350.15 177.041)"/><rect class="o" width="7.527" height="1.36" transform="translate(350.15 180.614)"/><rect class="o" width="7.527" height="1.36" transform="translate(350.15 184.188)"/></g></svg>