<svg xmlns="http://www.w3.org/2000/svg" width="108.038" height="65" viewBox="0 0 108.038 65"><defs><style>.a{fill:#cb3a60;}.b{fill:#f8c194;}.c{fill:#f19e5c;}.d{fill:#5c9bed;}.e{fill:#ec5575;}.f{fill:#e49e6a;}.g{fill:#3580d2;}.h{fill:#d27d42;}.i{fill:#f6b784;}.j{fill:#f6b47f;}.k{fill:#eaedf1;}</style></defs><g transform="translate(-426.556 -359.939)"><path class="a" d="M446.582,402.354c-1.259,3.652-3.434,4.96-7.386,4.472-3.606-.446-7.22-.829-10.816-1.337a6.018,6.018,0,0,1-1.824-1.007v-2.111l.594-3.191c1.163.289,2.313.675,3.494.848,2.681.394,5.373.719,8.068,1a22.355,22.355,0,0,0,4.259.161c1.723-.154,2.92-1.351,4.02-2.593Z"/><path class="b" d="M446.582,402.354q.2-1.879.409-3.759c.08-.59.169-1.178.24-1.769.444-3.716.876-7.434,1.327-11.149q.7-5.779,1.433-11.556c.186-1.484.39-2.966.585-4.449,0,.5.09.827.748.851,1.643.059,3.281.249,4.924.307a1.2,1.2,0,0,0,.811-.608c.63-1.135,1.187-2.309,1.777-3.466,1.315-2.578,3.22-3.379,5.984-2.6,2.931.826,5.878,1.594,8.819,2.387-.257.412-.525.819-.77,1.238q-2.07,3.54-4.131,7.087c-2.215,3.823-4.458,7.63-6.617,11.483a2.692,2.692,0,0,0,1.71,4.132c4.012,1.2,7.666.609,10.586-2.559a62.033,62.033,0,0,0,4.38-5.5c.546-.748.8-.575,1.311-.05a13.652,13.652,0,0,0,7.116,3.828,6.9,6.9,0,0,1,2.431.752,37.812,37.812,0,0,1,3.286,2.778q4.9,4.213,9.795,8.424c.516.471,1.009.973,1.554,1.407.951.757,1.934,1.473,2.9,2.206l.2.622a5.869,5.869,0,0,1,.225,2.33,7.377,7.377,0,0,1-1.723,2.783c-1.96,1.932-2.044,1.6-3.732.1-1.048-.929-2.1-1.853-3.189-2.738a1.456,1.456,0,0,0-2.222.23,1.392,1.392,0,0,0,.122,2.062c.424.416.9.775,1.324,1.2.163.163.371.558.311.625-1.12,1.241-2.259,2.465-3.436,3.652-.4.407-.779.171-1.167-.188-1.132-1.046-2.3-2.051-3.473-3.053a1.514,1.514,0,0,0-2.385.181c-.553.691-.455,1.5.452,2.277.714.614.7,1.051.043,1.687-.807.775-1.52,1.649-2.278,2.476a4.185,4.185,0,0,1-5.051,1.14,4,4,0,0,0-6.325-3.584l-.231-.228c.007-.383.021-.766.02-1.15a3.711,3.711,0,0,0-2.552-3.671,3.959,3.959,0,0,0-4.207,1.03l-.218-.64a4.1,4.1,0,0,0-2.374-3.9c-2.046-.912-3.73-.166-5.134,1.521a4.008,4.008,0,0,0-1.317-4.323c-2.015-1.577-4.2-1.162-5.941,1.016a4.368,4.368,0,0,0-1.074-.408C450.1,402.627,448.342,402.5,446.582,402.354Z"/><path class="c" d="M502.736,398.153q-4.9-4.212-9.795-8.424a37.812,37.812,0,0,0-3.286-2.778,6.9,6.9,0,0,0-2.431-.752,13.652,13.652,0,0,1-7.116-3.828c-.515-.525-.765-.7-1.311.05a62.033,62.033,0,0,1-4.38,5.5c-2.92,3.168-6.574,3.76-10.586,2.559a2.692,2.692,0,0,1-1.71-4.132c2.159-3.853,4.4-7.66,6.617-11.483q2.055-3.549,4.131-7.087c.245-.419.513-.826.77-1.238,1.538-1.836,3.682-2.15,5.878-2.35q6.756-.618,13.51-1.256a7.015,7.015,0,0,1,4.249.915c2.44,1.391,4.992,2.612,7.313,4.176a6.975,6.975,0,0,0,5.893.837c.575,4.557,1.167,9.112,1.721,13.672.47,3.863.9,7.731,1.343,11.6a21.3,21.3,0,0,1-3.4.4C506.991,394.413,504.826,396.174,502.736,398.153Z"/><path class="d" d="M513.547,394.133c-.447-3.866-.874-7.734-1.344-11.6-.554-4.56-1.146-9.115-1.721-13.672-.432-2.677.144-5.039,2.561-6.505a9.681,9.681,0,0,1,3.578-1.078c3.435-.5,6.889-.873,10.336-1.3,1.66-.2,2.281.243,2.509,2.007.548,4.245,1.038,8.5,1.561,12.744q1,8.146,2.015,16.291c.333,2.716.647,5.434.97,8.151-1.164.29-2.313.676-3.494.849-2.681.394-5.374.721-8.07,1a21.883,21.883,0,0,1-4.26.157c-1.719-.162-2.936-1.33-4.009-2.61Zm13.929,2.723a3,3,0,1,0-2.943,3.027A2.871,2.871,0,0,0,527.476,396.856Z"/><path class="e" d="M450.576,369.672c-.195,1.483-.4,2.965-.585,4.449q-.723,5.776-1.433,11.556c-.451,3.715-.883,7.433-1.327,11.149-.071.591-.16,1.179-.24,1.769-1.1,1.242-2.3,2.439-4.02,2.593a22.355,22.355,0,0,1-4.259-.161c-2.7-.28-5.387-.605-8.068-1-1.181-.173-2.331-.559-3.494-.848q.906-7.52,1.814-15.039,1-8.2,2.027-16.391c.255-2.053.493-4.109.791-6.155.191-1.316.766-1.778,2.089-1.624,4.006.466,8.016.915,12.005,1.5a5.8,5.8,0,0,1,4.881,6.74C450.687,368.7,450.636,369.185,450.576,369.672Zm-14.058,24.2a3.01,3.01,0,1,0-.005,6.019,3.01,3.01,0,1,0,.005-6.019Z"/><path class="c" d="M474.889,413.564a4,4,0,0,1,6.325,3.584c-.513.97-.965,1.979-1.555,2.9-.764,1.193-1.64,2.315-2.467,3.467a9.682,9.682,0,0,1-2.749,1.384,3.838,3.838,0,0,1-4.193-4.992c.044-.163.1-.324.2-.665-1.869,1.244-3.658,1.414-5.3.006-1.4-1.194-1.632-2.779-1.006-4.71-1.748,1.107-3.414,1.326-5,.176a3.966,3.966,0,0,1-1.411-4.585,12.041,12.041,0,0,1-2.876.533,3.843,3.843,0,0,1-3.013-5.9c.321-.541.729-1.03,1.1-1.543,1.744-2.178,3.926-2.593,5.941-1.016a4.008,4.008,0,0,1,1.317,4.323c1.4-1.687,3.088-2.433,5.134-1.521a4.1,4.1,0,0,1,2.374,3.9l-.39,1.1.159.076.449-.532a3.959,3.959,0,0,1,4.207-1.03,3.711,3.711,0,0,1,2.552,3.671c0,.384-.013.767-.02,1.15l-.381.649.175.1Z"/><path class="f" d="M477.192,423.514c.827-1.152,1.7-2.274,2.467-3.467.59-.92,1.042-1.929,1.555-2.9a4.185,4.185,0,0,0,5.051-1.14c.758-.827,1.471-1.7,2.278-2.476.661-.636.671-1.073-.043-1.687-.907-.78-1.005-1.586-.452-2.277a1.514,1.514,0,0,1,2.385-.181c1.171,1,2.341,2.007,3.473,3.053.388.359.765.6,1.167.188,1.177-1.187,2.316-2.411,3.436-3.652.06-.067-.148-.462-.311-.625-.419-.421-.9-.78-1.324-1.2a1.392,1.392,0,0,1-.122-2.062,1.456,1.456,0,0,1,2.222-.23c1.086.885,2.141,1.809,3.189,2.738,1.688,1.5,1.772,1.832,3.732-.1a7.377,7.377,0,0,0,1.723-2.783,5.869,5.869,0,0,0-.225-2.33c1.564,1.145,3.351,2.1,3.881,4.182a2.805,2.805,0,0,1-.026,1.338,5.055,5.055,0,0,1-7.213,3.356,1.031,1.031,0,0,0-.934.151c-.837.849-1.612,1.761-2.391,2.665a4.5,4.5,0,0,1-5.855,1.182,1.123,1.123,0,0,0-1.023.169c-.837.848-1.6,1.773-2.371,2.681a4.363,4.363,0,0,1-5.839,1.031.677.677,0,0,0-1.04.2c-.737.895-1.509,1.76-2.257,2.644A4.4,4.4,0,0,1,477.192,423.514Z"/><path class="g" d="M514.179,398.575c1.073,1.28,2.29,2.448,4.009,2.61a21.883,21.883,0,0,0,4.26-.157c2.7-.28,5.389-.607,8.07-1,1.181-.173,2.33-.559,3.494-.849.2,1.49.447,2.976.573,4.473a1.582,1.582,0,0,1-1.58,1.848c-4,.512-8,1.044-12.01,1.474a5.814,5.814,0,0,1-6.443-5.154c-.054-.382-.149-.758-.225-1.136Q514.254,399.629,514.179,398.575Z"/><path class="h" d="M514.179,398.575q.075,1.055.148,2.108c-1.335,0-2.676.086-4-.013a3.7,3.7,0,0,0-3.13,1.1c-.969-.733-1.952-1.449-2.9-2.206-.545-.434-1.038-.936-1.554-1.407,2.09-1.979,4.255-3.74,7.407-3.621a21.3,21.3,0,0,0,3.4-.4Q513.864,396.355,514.179,398.575Z"/><path class="i" d="M467.919,409.545l-.449.532-.159-.076.39-1.1C467.773,409.118,467.846,409.332,467.919,409.545Z"/><path class="j" d="M474.889,413.564l-.437.516-.175-.1.381-.649Z"/><path class="k" d="M527.476,396.856a3,3,0,1,1-3-2.969A2.874,2.874,0,0,1,527.476,396.856Z"/><path class="k" d="M436.518,393.875a3.01,3.01,0,1,1-.005,6.019,3.01,3.01,0,1,1,.005-6.019Z"/></g></svg>