<svg id="圖層_1" data-name="圖層 1" xmlns="http://www.w3.org/2000/svg" viewBox="0 0 105.36 65"><defs><style>.cls-1{fill:#fff;}</style></defs><title>handshake</title><path class="cls-1" d="M907.9,431.4a2.1,2.1,0,0,1,2.35-1c3.6,0.48,7.21.91,10.81,1.37a2.67,2.67,0,0,0,3.34-2.57q1.55-12.4,3.06-24.79c0.3-2.45.59-4.9,0.92-7.34,0.29-2.12-.57-3.28-2.67-3.55l-11-1.39c-1.21-.16-1.8-0.81-1.66-1.78s0.92-1.42,2.11-1.27c3.6,0.45,7.21.92,10.81,1.35,3.83,0.45,5.88,2.93,5.53,6.73,0,0.16,0,.33,0,0.6,1.56,0.1,3.09.23,4.62,0.28a1,1,0,0,0,.61-0.55c0.51-.93,1-1.89,1.47-2.83A5.83,5.83,0,0,1,945,391.5c1.1,0.24,2.19.57,3.27,0.9a1.53,1.53,0,0,1,1.28,1.9,1.56,1.56,0,0,1-2.11,1.06c-0.93-.22-1.84-0.53-2.77-0.77a2.89,2.89,0,0,0-3.81,1.69c-0.65,1.24-1.31,2.49-1.92,3.75a1.87,1.87,0,0,1-2.05,1.17c-1.91-.15-3.82-0.24-5.83-0.36l-3.46,28.09c1.85,0.13,3.59.27,5.32,0.37a1,1,0,0,0,.64-0.25,5.4,5.4,0,0,1,8.42,2.09,1,1,0,0,0,.18.23c4.1-.51,5.5.16,7.2,3.46,4-.38,5.94.74,7,4.18a19.73,19.73,0,0,1,2,.17,5.27,5.27,0,0,1,3.6,7.88,36.72,36.72,0,0,1-4,5.32,5.31,5.31,0,0,1-8.89-2.09c-0.09-.29-0.17-0.59-0.25-0.88-3.89-.38-4.67-1-6.2-4.66a5.41,5.41,0,0,1-5.05-2.32c-0.46-.7-0.53-1.78-1.13-2.23s-1.67-.19-2.46-0.45a5.36,5.36,0,0,1-3.33-6.57c0.08-.29.18-0.58,0.28-0.93-0.57,0-1.08,0-1.58-.1-1.43-.17-2.65-0.31-3.76,1.16s-2.94,1.75-4.79,1.51c-3.6-.46-7.21-0.94-10.81-1.34a2.77,2.77,0,0,1-2.08-1.07v-1Zm51.72,13.32a2.34,2.34,0,0,0-1.42-2.39,2.18,2.18,0,0,0-2.66.74c-1,1.27-2,2.59-3,3.91a2.37,2.37,0,0,0,.23,3.47,2.35,2.35,0,0,0,3.4-.68c0.95-1.21,1.89-2.43,2.77-3.69A7.53,7.53,0,0,0,959.61,444.72Zm-11.48,1.67a4.26,4.26,0,0,0,1.39-.74c1.23-1.5,2.44-3,3.52-4.65a2.21,2.21,0,0,0-3.48-2.62,39,39,0,0,0-3.52,4.65C945.15,444.49,946.34,446.26,948.14,446.39Zm-1.75-9.76a2.34,2.34,0,0,0-1.3-2.24,2,2,0,0,0-2.38.33,30.86,30.86,0,0,0-2.82,3.77,2.21,2.21,0,0,0,3.46,2.58,46,46,0,0,0,2.85-3.75A1.75,1.75,0,0,0,946.38,436.63Zm-7.18-3.78a2,2,0,0,0-1.23-1.67,2,2,0,0,0-2.38.25,11.67,11.67,0,0,0-1.84,2.42,2,2,0,0,0,.35,2.37,2.16,2.16,0,0,0,2.32.67C937.59,436.59,939.23,434.35,939.21,432.84Z" transform="translate(-907.9 -389.03)"/><path class="cls-1" d="M959.51,412.65l-2.75,3.56a11.09,11.09,0,0,1-13,4.06,4.16,4.16,0,0,1-2.53-6.37q5.25-9.13,10.58-18.22a7.44,7.44,0,0,1,6.19-3.84c1.81-.14,3.62-0.34,5.42-0.52,1.32-.13,2.16.37,2.25,1.36s-0.57,1.57-1.87,1.7c-1.88.19-3.75,0.39-5.63,0.55a4.46,4.46,0,0,0-3.69,2.28q-5.31,9.1-10.58,18.22a1.11,1.11,0,0,0,.65,1.86,7.93,7.93,0,0,0,8.86-2c1.51-1.73,2.85-3.6,4.26-5.41,1.16-1.48,1.89-1.52,3.27-.21a12.05,12.05,0,0,0,7.23,3.57c3.53,0.33,6.29-1.3,8.75-3.59,0.65-.61,1.23-1.29,1.84-1.94,0.92-1,1.84-1.18,2.56-.49s0.58,1.57-.26,2.53a19.08,19.08,0,0,1-8.64,6.17l13.84,11.93c2.25-1.22,4.64-.26,7.08-0.73L990,399.34a11.94,11.94,0,0,0-1.8.2,5.11,5.11,0,0,1-4.17-.83c-2.43-1.47-5-2.78-7.41-4.22a6.27,6.27,0,0,0-4.33-.86,12.68,12.68,0,0,1-1.84.13,1.41,1.41,0,0,1-1.54-1.34,1.37,1.37,0,0,1,1.22-1.63c2.66-.42,5.29-0.67,7.77.87,2.21,1.37,4.59,2.47,6.77,3.88a5.41,5.41,0,0,0,4.92.62,14.46,14.46,0,0,1,.3-1.52,5.52,5.52,0,0,1,4.85-4.15c3.84-.53,7.68-1,11.53-1.43a1.57,1.57,0,0,1,1.92,1.26,1.53,1.53,0,0,1-1.53,1.79c-3.74.48-7.48,0.94-11.22,1.41a2.72,2.72,0,0,0-2.62,3.41q1.73,14,3.45,28c0.18,1.5.37,3,.58,4.49a2.6,2.6,0,0,0,3.09,2.41c3.54-.41,7.07-0.87,10.61-1.31l0.2,0c1.58-.23,2.45.21,2.57,1.3s-0.58,1.56-2.17,1.76c-3.6.45-7.21,0.92-10.81,1.36a5.75,5.75,0,0,1-6.32-3.85,1.15,1.15,0,0,0-.8-0.63c-1.19-.07-2.4,0-3.9,0l1,0.92a4.92,4.92,0,0,1,.53,7.23c-1.86,2.31-4.12,3.3-7.07,2.39a1.31,1.31,0,0,0-1,.4,35.69,35.69,0,0,1-3.19,3,5,5,0,0,1-4.64.48,0.94,0.94,0,0,0-1.2.37,25.39,25.39,0,0,1-2.22,2.42,5.32,5.32,0,0,1-4.47,1.34,1.38,1.38,0,0,1-1.28-1.48,1.25,1.25,0,0,1,1.18-1.43c2.46,0.11,3.47-1.73,4.82-3.31-1.21-1.05-2.42-2.06-3.57-3.12a1.53,1.53,0,0,1,.29-2.63,1.72,1.72,0,0,1,2,.5c1.4,1.21,2.8,2.43,4.21,3.62,1.62,1.37,3.08,1.26,4.47-.31,0.54-.61,1.06-1.24,1.65-1.94l-3.3-2.85c-0.29-.25-0.58-0.48-0.85-0.75a1.57,1.57,0,0,1-.25-2.21,1.5,1.5,0,0,1,2.28-.09c1.63,1.36,3.2,2.8,4.85,4.14a4.69,4.69,0,0,0,1.88.95,3.49,3.49,0,0,0,3.62-2.55,2.07,2.07,0,0,0-.93-2l-9.35-8.06q-4.91-4.23-9.83-8.45a2,2,0,0,0-.94-0.55,15.71,15.71,0,0,1-8.07-3.56A2.11,2.11,0,0,0,959.51,412.65Z" transform="translate(-907.9 -389.03)"/><path class="cls-1" d="M1003.35,429.57a4.52,4.52,0,0,1-4.48-4.54,4.52,4.52,0,1,1,9,.09A4.52,4.52,0,0,1,1003.35,429.57Zm0-3.1a1.41,1.41,0,1,0,0-2.82A1.38,1.38,0,0,0,1002,425,1.41,1.41,0,0,0,1003.35,426.47Z" transform="translate(-907.9 -389.03)"/><path class="cls-1" d="M917.53,429.57a4.55,4.55,0,0,1-4.45-4.58,4.6,4.6,0,0,1,4.61-4.45,4.54,4.54,0,0,1,4.42,4.61A4.48,4.48,0,0,1,917.53,429.57Zm0.06-5.92a1.49,1.49,0,0,0-1.41,1.47,1.43,1.43,0,0,0,1.5,1.35,1.33,1.33,0,0,0,1.33-1.39A1.42,1.42,0,0,0,917.59,423.65Z" transform="translate(-907.9 -389.03)"/></svg>