<svg xmlns="http://www.w3.org/2000/svg" viewBox="0 0 1920 97"><defs><style>.a{fill:#fff;}.b{fill:#262626;}.c{isolation:isolate;}.d{fill:#635650;}.e{fill:#4c9827;}.f{fill:#0087cd;}.g{fill:#3f9177;}.h{fill:#59aa48;}</style></defs><rect class="a" width="1920" height="95"/><rect class="b" y="94" width="1920" height="1"/><path d="M1565,41V19c0-.05,0,.06,0,0,.3-1.29.66-2,2-2h31c1.54,0,3,.46,3,2,0,7,0,14,0,21a4.18,4.18,0,0,1,0,1,3.21,3.21,0,0,1-3,2h-1c.18,1.12.82,1.94,1,3a1.72,1.72,0,0,1-1,2,4,4,0,0,1-2,0c-1.21-.64-1.8-1.36-3-2a1,1,0,0,0-1,0c-1.14.61-2.85,1.4-4,2-.23.12.25-.07,0,0a1.64,1.64,0,0,1-2-1,3.35,3.35,0,0,1,0-1c.16-1,.82-1.9,1-3h-18a2.76,2.76,0,0,1-3-2S1565,41,1565,41Zm32,0c.07,0,0,0,0,0h1a.88.88,0,0,0,1-.74,1.13,1.13,0,0,0,0-.26V20a.91.91,0,0,0-.81-1,.61.61,0,0,0-.19,0h-30a.89.89,0,0,0-1,.76,1,1,0,0,0,0,.24V40h0c0,.26-.26,1,0,1h19c.19,0,0,.19,0,0,.1-.66-.09-1.34,0-2a2.8,2.8,0,0,0,0-1,7.09,7.09,0,0,1-1-5,6.43,6.43,0,0,1,7.24-5.5,6.33,6.33,0,0,1,1.76.5c3.82,1.68,5.46,6.62,3,10-.08.11-1-.12-1,0C1596.11,38.77,1596.88,40.25,1597,41Zm-6-2a5.49,5.49,0,0,0,5-5c0-2.4-2.6-4-5-4a3.76,3.76,0,0,0-4,3.51,4,4,0,0,0,0,.49C1587,36.41,1588.6,39,1591,39Zm4,6-1-5a6,6,0,0,1-6,0l-1,5c.15-.07.91,0,1,0,.68-.35,1.34-.61,2-1a2.52,2.52,0,0,1,3,0C1593.75,44.43,1594.15,44.55,1595,45Zm-1-20c.15,0,.85,0,1,0,.61-.07,1.17-.41,1-1s-1.29-1-2-1h-23c-.12,0-.88,0-1,0a1.15,1.15,0,0,0-1,1c0,.45.55.87,1,1a5.57,5.57,0,0,0,1,0h23Zm-24,4c-.52,0-.85-.43-1,0-.26.73.17,2,1,2,1.24,0,2.77,0,4,0h6a4.09,4.09,0,0,0,2-1,.87.87,0,0,0,0-1c-.2-.37-.57,0-1,0h-11Z"/><g class="c"><g class="c"><path class="d" d="M1558,60.56h-5V59.29H1555a4.18,4.18,0,0,0-.52-1.14l1.36-.43a9.67,9.67,0,0,1,.62,1.57H1558Zm-.26,2.39h-4.29V61.67h4.29Zm0,2.36h-4.29V64h4.29Zm0,6.27h-1.36v-.7h-1.6v1h-1.33V66.36h4.29Zm-1.36-2V67.64h-1.6v1.94Zm3.64-3a22.34,22.34,0,0,1-.87,4.41l-1.17-.71a22.16,22.16,0,0,0,.74-4Zm6.47-8.35c0,1.14,0,2.25-.1,3.34a14.72,14.72,0,0,1-.18,2,1.71,1.71,0,0,1-.32.61,1.36,1.36,0,0,1-.6.43,3.89,3.89,0,0,1-1.3.15l-.68,0-.54-1.3,1.58,0a.53.53,0,0,0,.53-.44,20.22,20.22,0,0,0,.19-3.38h-1.62a6.32,6.32,0,0,1-4.52,5.84l-.84-1.13a7.12,7.12,0,0,0,2.66-1.56,11.8,11.8,0,0,0-1.84-1.55l.89-1a11.61,11.61,0,0,1,1.71,1.46,6.56,6.56,0,0,0,.55-2.07h-3.53V58.22ZM1565,68.63a6.34,6.34,0,0,1-.2,1.75,1.69,1.69,0,0,1-.66,1,3.07,3.07,0,0,1-1.55.29,5.17,5.17,0,0,1-1.29-.1,1.06,1.06,0,0,1-.54-.41,1.2,1.2,0,0,1-.22-.72v-4h1.36V70a.29.29,0,0,0,.12.24,1.56,1.56,0,0,0,.69.08.68.68,0,0,0,.88-.75,7,7,0,0,0,.1-1.32Zm-.88-1.93-1,.82a10.8,10.8,0,0,0-2.09-2l1-.89A10.64,10.64,0,0,1,1564.14,66.7Zm3,3.25-1.26.57a28.06,28.06,0,0,0-1.27-3.93l1.2-.6A20.64,20.64,0,0,1,1567.17,70Z"/><path class="d" d="M1574.08,60.52h-4.93V59.21h1.92c-.08-.17-.29-.57-.62-1.19l1.49-.41c.18.36.43.9.75,1.6h1.39Zm-.43,11h-1.38v-.69h-1.4v1h-1.39V66.28h4.17Zm0-8.6h-4.14V61.55h4.14Zm0,2.32h-4.16V63.87h4.16Zm-1.41,4.28V67.59h-1.4v1.89Zm11-6.19-.75,1.09a9.19,9.19,0,0,1-1.88-1.67v.87h-4.3v-.82a12.24,12.24,0,0,1-1.57,1.57l-.86-1.06a9.33,9.33,0,0,0,1.53-1.47,6.43,6.43,0,0,0-1.21-1l.92-.86a6.32,6.32,0,0,1,1,.79,6.47,6.47,0,0,0,.65-1.39h-2.19V58.1h3.52v1.27a12.27,12.27,0,0,1-1.47,2.93h3.67a9.64,9.64,0,0,1-1.78-4.29l1.23-.21a5.32,5.32,0,0,0,.19.83,6.25,6.25,0,0,0,.93-.75l.86.86a8,8,0,0,1-1.39,1.06c.07.15.15.34.24.56a5.77,5.77,0,0,0,1.58-1.13l.89.92a8.29,8.29,0,0,1-1.78,1.3A8.66,8.66,0,0,0,1583.27,63.29Zm-.39,8.34h-8.72v-1.3h2.19a7.09,7.09,0,0,0-.59-1.51l1-.59h-1.63V64.47h6.65v3.76H1580l1.12.63q-.25.81-.51,1.47h2.27ZM1580.45,67V65.7h-3.92V67Zm-.68,1.23h-2.7a19.54,19.54,0,0,1,.75,2.1h1.25A11.49,11.49,0,0,0,1579.77,68.23Z"/><path class="d" d="M1599.15,62.71l-.67,1.28a8.61,8.61,0,0,1-1.39-.4v6h-6.75l.68.8A21,21,0,0,1,1585.7,72l-.69-1.29a18.84,18.84,0,0,0,4.37-1H1587v-6h3l-.61-.88a7.32,7.32,0,0,0,4.18-2.49l1.45.32a3.12,3.12,0,0,1-.35.54A12.9,12.9,0,0,0,1599.15,62.71Zm-9.36-.44h-4.66V61h4.66Zm-.14-2.55h-4.31V58.44h4.31Zm6,5.54V64.7h-7.13v.56Zm0,1.63V66.3h-7.13v.59Zm0,1.67v-.63h-7.13v.63Zm3.22-8.66a19.42,19.42,0,0,1-1.4,1.79l-1.21-.72c.13-.16.42-.51.86-1.07h-5a13.36,13.36,0,0,1-1.41,1.41l-1.08-.93a9.76,9.76,0,0,0,2.38-2.72l1.31.44a1.62,1.62,0,0,1-.3.56h5.89Zm-1.94,3.66A12.63,12.63,0,0,1,1593.8,62a8.21,8.21,0,0,1-2.6,1.54Zm2.12,7.21-.76,1.24a24.52,24.52,0,0,0-4.69-1l.74-1.2A20.38,20.38,0,0,1,1599.05,70.77Z"/><path class="d" d="M1606.27,60.48h-5.18V59.2h2a5,5,0,0,0-.51-1l1.41-.53a12.7,12.7,0,0,1,.7,1.53h1.54Zm-.35,2.38h-4.45V61.58h4.45Zm0,2.34h-4.45V63.93h4.45Zm0,6.23h-1.41v-.72h-1.68v1.1h-1.38V66.27h4.47Zm-1.41-2V67.59h-1.68V69.4Zm10.67-1.33a10.37,10.37,0,0,1-.43,2.28,3.11,3.11,0,0,1-.63,1.29,1,1,0,0,1-.69.26,1.09,1.09,0,0,1-.82-.36,5.39,5.39,0,0,1-.67-2.15,18.5,18.5,0,0,1-.31-3.2V59.52h-2.17v4.31h1.72v1.38h-1.72v6.62h-1.37V65.21h-1.49V63.83h1.49V59.52h-1.3V58.17H1613v8.34a12.62,12.62,0,0,0,.52,3.59,13.73,13.73,0,0,0,.38-2.81Z"/></g></g><g class="c"><g class="c"><path class="d" d="M1361.74,67.83a36.85,36.85,0,0,1-4.33,2.53l-.42-1.28c.49-.24,1.07-.55,1.76-1V64.31h-1.36V63h1.36V59.88h-1.62V58.57h4.41v1.31h-1.46V63h1.3v1.34h-1.3v3.06c.45-.28.94-.61,1.49-1Zm8.63-.67H1366a9.44,9.44,0,0,1-1.33,1.41v1.58c.66-.2,1.36-.44,2.08-.72l.18,1.27a18.86,18.86,0,0,1-3.48,1.11l-.39-1.08a.67.67,0,0,0,.3-.58v-.6a17.51,17.51,0,0,1-1.94,1l-.7-1.22a10.7,10.7,0,0,0,3.54-2.19h-2v-3h8.1Zm.68-3.75h-9.29V62.25h9.29Zm-.43-1.85h-8.48V58.1h8.48Zm-6.07-1.17V59.27h-1.07v1.12ZM1369,66v-.7h-5.32V66Zm-2.07-5.63V59.27h-1.09v1.12Zm4.31,10.37-.73,1.15a6.07,6.07,0,0,1-2.62-1.6,5.37,5.37,0,0,1-1.46-2.51l1.22-.31a3.77,3.77,0,0,0,.61,1.21,9.22,9.22,0,0,0,1.65-1.3l1,.88a10.64,10.64,0,0,1-1.78,1.36A6.3,6.3,0,0,0,1371.22,70.76Zm-2-10.37V59.27h-1.06v1.12Z"/><path class="d" d="M1377.52,68.84a45.13,45.13,0,0,1-4.13,2l-.4-1.36c.69-.28,1.2-.49,1.53-.65V63.2h-1.32V61.83h1.32v-4h1.39v4h1.14V63.2h-1.14v5l1.45-.75Zm9.67.47a6.07,6.07,0,0,1-.32,1.64,1.25,1.25,0,0,1-.58.68,4.57,4.57,0,0,1-1.64.18,3.13,3.13,0,0,1-1.41-.24.9.9,0,0,1-.44-.86V68h-1.53a4.09,4.09,0,0,1-1,2.66,5.71,5.71,0,0,1-3.11,1.38l-.68-1.26a5.05,5.05,0,0,0,2.57-.87,2.67,2.67,0,0,0,.87-1.91h-1.83V63.08h8.29V68h-2.17v2.18c0,.27.14.41.43.41.52,0,.85-.08,1-.23a3.3,3.3,0,0,0,.27-1.45Zm-.28-6.92h-9.4V61.21h2.22a10.38,10.38,0,0,0-.56-1.15h-1.12V58.81h3.37a6.55,6.55,0,0,0-.33-.85l1.52-.27a4.57,4.57,0,0,1,.4,1.12h3.36v1.25h-1.12a8.47,8.47,0,0,1-.55,1.15h2.21Zm-2,2.58V64.3h-5.42V65Zm0,1.76V66h-5.42v.71Zm-1.31-6.67h-2.84a6.54,6.54,0,0,1,.55,1.15H1383A5.91,5.91,0,0,0,1383.62,60.06Z"/><path class="d" d="M1393.76,60.59h-4.67V59.32h1.78a10.4,10.4,0,0,0-.47-1.3l1.36-.36.59,1.66h1.41Zm-.38,2.36h-3.9V61.7h3.9Zm0,2.34h-3.9V64h3.9Zm0,6.24h-1.33v-.64h-1.25v1h-1.35V66.39h3.93Zm-1.33-2V67.69h-1.25v1.87Zm11-.38h-1v1.3a1.16,1.16,0,0,1-.42,1,2.71,2.71,0,0,1-1.4.27l-.9,0-.41-1.32h1.45c.23,0,.35-.11.35-.33v-.94h-4.64v2.63h-1.33V69.18h-.73V68.1h.73V64.45h3v-.89h-3.92V62.42h2.1v-.73h-1.38V60.6h1.38v-.72h-1.7V58.73h1.7v-.9h1.29v.9h2.34v-.9h1.33v.87h2v1.15h-2v.75h1.44v1.09h-1.44v.73H1403v1.14h-3.9v.89h3V68.1h1Zm-5.29-2.9v-.72h-1.65v.72Zm0,1.82v-.78h-1.65v.78Zm1.81-7.5v-.72h-2.34v.72Zm0,1.82v-.73h-2.34v.73Zm1.18,3.86v-.73h-1.66v.73Zm0,1.82v-.78h-1.66v.78Z"/><path class="d" d="M1409.59,62.42a40.11,40.11,0,0,1-4,2l-.56-1.18a34.47,34.47,0,0,0,4.18-2.06Zm1.88.66a1.37,1.37,0,0,1-.28.92,1.08,1.08,0,0,1-.65.4,7.79,7.79,0,0,1-1.32.07l-.47-1.26.84,0c.32,0,.49-.15.49-.46V59.4h-4.77V58.13h6.16Zm-2.86-2.48-.81,1a9.5,9.5,0,0,0-2.26-.87l.83-1.06A9.55,9.55,0,0,1,1408.61,60.6Zm8.93,11.21h-1.42v-.63H1408v.63h-1.39V65.2H1411a6.38,6.38,0,0,0,.61-1.08l1.51.24a4.19,4.19,0,0,1-.43.84h4.84Zm-1.42-4.2V66.48H1408v1.13Zm0,2.34V68.77H1408V70Zm.49-7.56a26,26,0,0,1-3.86,1.59l-.57-1.14c1.37-.47,2.72-1,4-1.61Zm1.88.43a1.83,1.83,0,0,1-.3,1.16,1.14,1.14,0,0,1-.67.44,11.55,11.55,0,0,1-1.5.06l-.48-1.25,1,0a.58.58,0,0,0,.34-.14.41.41,0,0,0,.18-.31V59.4h-4.72V58.13h6.11Zm-3.22-2.09-.9,1a8.71,8.71,0,0,0-1.91-1l.85-1A7.32,7.32,0,0,1,1415.27,60.73Z"/></g></g><path d="M1372,46c.06-.09-.07.07,0,0a5,5,0,0,1,7,0h4c.06-.09-.07.07,0,0a5,5,0,0,1,7,0h1c-.35-.64-.41-.6-1-1-.41-.28-1.56-.75-2-1h0c.06-.06.94.06,1,0,.47-.45-.06-1.37,0-2a8.36,8.36,0,0,0,0-2,3.24,3.24,0,0,0-3-3,3.31,3.31,0,0,0-3,3c0,.67,0,1.33,0,2a2.1,2.1,0,0,0,1,2s0-.06,0,0c-1.12.42-1.24,1-2,2V35h21c.6,0,1,.58,1,0V17a1,1,0,0,0-1-1h-26a1,1,0,0,0-1,1v0c0,1.8,0,3.2,0,5,0,.29.29.9,0,1a2.54,2.54,0,0,0-2,2c-.33,1.53-1.12,2.69,0,4,0,0,0,0,0,0h0a3.93,3.93,0,0,0-4,3.87V39a3.11,3.11,0,0,0,2,3c.12,0,0-.12,0,0a4.9,4.9,0,0,0,1,2c.06,0,.94-.07,1,0-.25.12-.78.88-1,1-.85.47-1.5.14-2,1Zm10-12V33h4c.44,0,.71.37,1,0,1-1.36,2.94-2.67,4-4,.38-.48.17-1.35,0-2-.12-.46-.6-.77-1-1-.23-.14,0-.76,0-1,0-2.12,0-3.88,0-6h0c0-.4.31-1,0-1s-1,.6-1,1v7a2.66,2.66,0,0,0-2,1c-.57.68-1.42,1.32-2,2-.09.1.13,0,0,0-1.73,0-3.27,0-5,0h0c0-.05,0,0,0,0,1.09-1.27.31-2.52,0-4s-.56-2.71-2-3c-.11,0-.89,0-1,0V17h26V34Zm-4,10s0,0,0,0c1.35-1.19,1.33-2.48,1-4a3.25,3.25,0,0,0-5-2c-.08.06-.86-.1-1,0h0V33c0-.09,0,.09,0,0,0-.32.28,0,0,0s-1-.3-1,0c0,.1,0-.1,0,0v8h0c-.59-.12-1-.36-1-1,0-2.27,0-4.74,0-7a3.53,3.53,0,0,1,3-3c2.26,0,4.74,0,7,0,1.43,0,2.57,0,4,0,.46,0,.7.4,1,0,.68-.89,1.28-2.15,2-3,.29-.34.51,0,1,0,.32,0,.85-.29,1,0a1,1,0,0,1,0,1c-.8,1-1.2,2-2,3-.26.32-.76.67-1,1s-.75,0-1,0c-1.66,0-3.34,0-5,0a.93.93,0,0,0-1,.85V46h0C1379.21,45.06,1379.1,44.43,1378,44Zm-3-19c.27-1.17.79-2.15,2-2s2,1.82,2,3c0,.58.11.44,0,1-.24,1.19-.78,2.13-2,2a2,2,0,0,1-2-2V26h-1C1374,25.62,1374.91,25.36,1375,25Zm3,17a3.29,3.29,0,0,1-3,2,2.2,2.2,0,0,1-2-2c0-.55.9-1.47,1-2,.21-1.09.89-2.12,2-2s2,1.91,2,3h0A5.57,5.57,0,0,1,1378,42Zm10,0c-.22,1.14-.85,2.11-2,2a2.06,2.06,0,0,1-2-2,13.35,13.35,0,0,1,0-2,3.18,3.18,0,0,1,3-2c1,.13,1,1.93,1,3h0A8.34,8.34,0,0,1,1388,42Zm6,4c.06-.09-.07.07,0,0a5,5,0,0,1,7,0h1a7.27,7.27,0,0,0-1-1c-.55-.44-1.39-.6-2-1,0,0,0,0,0,0h0a3.74,3.74,0,0,0,1-2,8.36,8.36,0,0,0,0-2,3.28,3.28,0,0,0-3-3,3.32,3.32,0,0,0-3,3,5.57,5.57,0,0,0,0,1,3.94,3.94,0,0,0,1,3s0,0,0,0c-.22.11-.8.89-1,1-.88.47-1.48.13-2,1Zm5-4c-.25,1-.92,2.14-2,2a2.2,2.2,0,0,1-2-2,11.13,11.13,0,0,1,0-2c.22-1.07.91-2.14,2-2s2,1.93,2,3h0A5.57,5.57,0,0,1,1399,42Z"/><g class="c"><g class="c"><path class="d" d="M1457.1,68.34a15.75,15.75,0,0,1-.89,3.51l-1.25-.54a14.28,14.28,0,0,0,.9-3.33Zm3.81-1.34-1.18.4c-.06-.26-.12-.53-.21-.81a40.16,40.16,0,0,1-4,1l-.47-1.12a12.8,12.8,0,0,0,2.9-3.35,19.3,19.3,0,0,1-2.48.44l-.27-1.12a15.72,15.72,0,0,0,2.67-4.69l1.28.58a19.55,19.55,0,0,1-1.92,3.6,11.77,11.77,0,0,0,1.62-.38,8.33,8.33,0,0,0,.72-1.43l1.28.62a22.15,22.15,0,0,1-3.36,5.06,11.63,11.63,0,0,0,1.55-.43,2.54,2.54,0,0,0-.19-.57l1.19-.38A13.08,13.08,0,0,1,1460.91,67Zm-1.69,4.23-1.3.36a18.92,18.92,0,0,0-.48-3.25l1.23-.36A21,21,0,0,1,1459.22,71.23Zm2-.76-1.15.47a13.59,13.59,0,0,0-.74-2.72l1.14-.44A21.24,21.24,0,0,1,1461.2,70.47Zm8.1-5.23-.69,1.27a20.53,20.53,0,0,1-3.63-2,15.66,15.66,0,0,1-3.53,1.93l-.62-1.24a14.38,14.38,0,0,0,3-1.54,9,9,0,0,1-1.4-1.65,11.25,11.25,0,0,1-1.07,1.16l-.83-1.11a14.79,14.79,0,0,0,3.18-4.37l1.3.4a9.1,9.1,0,0,1-.58,1.17h3.88V60.6a15.18,15.18,0,0,1-2.31,3A15,15,0,0,0,1469.3,65.24Zm-1.18,5.39-.65,1.27a22.56,22.56,0,0,0-5.44-2l.56-1.26A25.52,25.52,0,0,1,1468.12,70.63Zm-.35-3-.52,1.25a23.58,23.58,0,0,0-4.42-1.53l.55-1.23A26,26,0,0,1,1467.77,67.63Zm-1-7h-3.15a4,4,0,0,1-.26.34,6.54,6.54,0,0,0,1.6,1.88A12.85,12.85,0,0,0,1466.77,60.6Z"/><path class="d" d="M1485.12,64.25a18.81,18.81,0,0,1-2.11,2v3.87a1.52,1.52,0,0,1-.38,1.12,1.73,1.73,0,0,1-1,.46c-.44,0-1.38.08-2.82.08l-.4-1.33c.46,0,.93,0,1.4,0a7.13,7.13,0,0,0,1.6-.09.36.36,0,0,0,.19-.35V67.29a34.53,34.53,0,0,1-9.89,4.34l-.7-1.25a47.18,47.18,0,0,0,9.26-3.54q-4,.45-8.77.75l-.37-1.36,1.67,0V59.06h2a6.6,6.6,0,0,0,1-1.42l1.53.32a7.06,7.06,0,0,1-.75,1.1H1483v5.46a9.64,9.64,0,0,0,1.29-1.28Zm-3.55-2.91v-1h-7.34v1Zm0,2.19V62.47h-7.34v1.06Zm0,1.93v-.78h-7.34v1.45C1476.62,66,1479.06,65.78,1481.57,65.46Z"/><path class="d" d="M1501,69.4h-6.14v1a1.3,1.3,0,0,1-.25.85,1.23,1.23,0,0,1-.62.43,6.3,6.3,0,0,1-1.43.11l-1.1,0-.46-1.3,2.11,0c.19,0,.29-.09.29-.27v-.8h-6.34V68.27h6.34v-.69a14.26,14.26,0,0,0,2.21-.63h-5.94v-1h8.52v1a23.84,23.84,0,0,1-3.33,1.22v.1H1501Zm-.24-2.35h-1.35V65.23h-10.7V67h-1.42V64.1h1l-.29-5.74a11.13,11.13,0,0,0,3.12-.61l.65,1.11a12.49,12.49,0,0,1-2.36.49l0,.85h2.09v1h-2l0,.91h2v1h-1.94l.05.92h8.81l0-.92h-2.15v-1h2.21l0-.91h-2.25v-1h2.28l.05-.85h-2.44V58.23h3.83l-.26,5.87h1Zm-4.86-8.83a5.24,5.24,0,0,1-1,1c.26.23.5.47.72.7l-.86.75a5.88,5.88,0,0,0-.79-.79,11.65,11.65,0,0,1-1.62.81l-.67-.9a7.27,7.27,0,0,0,1.36-.64c-.15-.13-.44-.35-.89-.66l.78-.78,1.07.77a5.26,5.26,0,0,0,.83-.75Zm.07,5-.85.73a8.07,8.07,0,0,0-1.08-1,15,15,0,0,1-1.64.9l-.65-.89a11.27,11.27,0,0,0,1.37-.73,6,6,0,0,0-1.05-.72l.77-.79c.28.17.7.45,1.24.85a7.17,7.17,0,0,0,.9-.85l1,.58a11.11,11.11,0,0,1-1,1A10.39,10.39,0,0,1,1496,63.26Z"/><path class="d" d="M1507.59,62.42a40.11,40.11,0,0,1-4,2l-.56-1.18a34.47,34.47,0,0,0,4.18-2.06Zm1.88.66a1.37,1.37,0,0,1-.28.92,1.08,1.08,0,0,1-.65.4,7.79,7.79,0,0,1-1.32.07l-.47-1.26.84,0c.32,0,.49-.15.49-.46V59.4h-4.77V58.13h6.16Zm-2.86-2.48-.81,1a9.5,9.5,0,0,0-2.26-.87l.83-1.06A9.55,9.55,0,0,1,1506.61,60.6Zm8.93,11.21h-1.42v-.63H1506v.63h-1.39V65.2H1509a6.38,6.38,0,0,0,.61-1.08l1.51.24a4.19,4.19,0,0,1-.43.84h4.84Zm-1.42-4.2V66.48H1506v1.13Zm0,2.34V68.77H1506V70Zm.49-7.56a26,26,0,0,1-3.86,1.59l-.57-1.14c1.37-.47,2.72-1,4-1.61Zm1.88.43a1.83,1.83,0,0,1-.3,1.16,1.14,1.14,0,0,1-.67.44,11.55,11.55,0,0,1-1.5.06l-.48-1.25,1,0a.58.58,0,0,0,.34-.14.41.41,0,0,0,.18-.31V59.4h-4.72V58.13h6.11Zm-3.22-2.09-.9,1a8.71,8.71,0,0,0-1.91-1l.85-1A7.32,7.32,0,0,1,1513.27,60.73Z"/></g></g><path d="M1485,47c-.66-.17-1.35.21-2,0a59.91,59.91,0,0,1-7-3c-2.14-1-3.87-2-6-3h0c-.41-.21-1.16-.7-1-1s.59-.2,1,0c.82.4,2.18.6,3,1,3.28,1.59,6.58,2.72,10,4,.74.28,1.24.76,2,1a2.87,2.87,0,0,0,2,0,29.14,29.14,0,0,0,5-2c.18-.11-.23-.86,0-1-.83-.22-1.27.26-2,0a13.27,13.27,0,0,0-6-1c-.86.08-2.14.88-3,1-.43.06-1-.66-1-1s.6-.93,1-1a31.51,31.51,0,0,1,7,0,9.55,9.55,0,0,1,2,0c1.07.26,1.92.76,3,1,.56.12.63.51,1,0a2.2,2.2,0,0,0,0-2c-.14-.28.23-.79,0-1a6.26,6.26,0,0,0-2-1,17.24,17.24,0,0,0-4-1c-1.11-.13-1.9.16-3,0-.4-.06-1.64.21-2,0-2-1.19-3.7-2.5-6-3a15.53,15.53,0,0,0-5,0,16.68,16.68,0,0,0-2,0c-.4.09-.9-.68-1-1s.62.12,1,0c1-.3,2-1,3-1a19.59,19.59,0,0,1,10,3c.3.17.61.78,1,1-.07-.59.07-1.5,0-2a49,49,0,0,0-2-8c-.11-.37.14-.64,0-1,0-.09.09-1,0-1a4.64,4.64,0,0,1-3-1c-.84-.9-.75-1.83-1-3-.28-1.33-1-2.64-1-4,0-1.06,0-1.94,0-3,0-.2.85-.89,1-1s-.15-.09,0,0a5.91,5.91,0,0,1,1,1,31.56,31.56,0,0,1,4,5,6,6,0,0,1,1,4,4.36,4.36,0,0,1-1,2c-.09.08,0-.1,0,0,.5,1.84.49,4.16,1,6,0,0,0-.08,0,0,.29-.36.75-.65,1-1a3.35,3.35,0,0,0,0-1c-.36-.75-.92-1.16-1-2a5.55,5.55,0,0,1,1-3,7.87,7.87,0,0,1,1-1,11.81,11.81,0,0,1,6-3,35.91,35.91,0,0,1,7-1,13.35,13.35,0,0,1,2,0c.32,0-.07.62,0,1s.19-.23,0,0a14.93,14.93,0,0,0-1,2,58.21,58.21,0,0,1-5,7c-1.11,1.43-2.18,2.65-4,3s-3.57.46-5-1c0,0,.07.05,0,0-.64.78-1.17.89-1,2s-.19,2.79,0,4c0,.11.9,0,1,0,.9.11,1.09-.08,2,0a3.35,3.35,0,0,0,1,0c1.25-.66,2.75-1.35,4-2,.53-.28.43.2,1,0,.81-.29,2.36-.72,3,0,.54-.31.46-.69,1-1a7.26,7.26,0,0,1,3-1c.86,0,1.22.63,2,1a2.3,2.3,0,0,1,1,1h0c-.13.31.06.67,0,1-.1.52-.61.64-1,1-1,1-1.88,2.15-3,3-1.86,1.41-4.06,2.71-6,4s-3.89,3.11-6,4c-.73.31-1.25-.25-2,0Zm2-18a3.39,3.39,0,0,0,2,1,3.65,3.65,0,0,0,4-1,11.14,11.14,0,0,0,2-2c.93-1.43,2.14-2.53,3-4,.61-1,1.41-2.95,2-4,.07-.12-.12.17,0,0h-1a30.45,30.45,0,0,0-6,1,13,13,0,0,0-5,2,9.48,9.48,0,0,0-2,2,3.33,3.33,0,0,0,0,4h0c.52-.39,1.47-1.63,2-2,.35-.24,1,.61,1,1,0,.19-.85-.13-1,0C1487.42,27.47,1487.62,28.53,1487,29Zm-5-6h0c.14-.31.93-.67,1-1,.21-1-.48-2.12-1-3a32.46,32.46,0,0,0-3-5s.14.1,0,0c0,.54,0,.55,0,1-.08,1.94-.66,4.14,0,6a4.6,4.6,0,0,0,2,2c.21.12-.23-.09,0,0-.09-.45.14-.64,0-1s-.31-.88,0-1,.85.65,1,1S1481.86,22.66,1482,23Zm14,18h0c.94-.7,2.07-1.29,3-2,.77-.59,1.27-1.37,2-2a7.87,7.87,0,0,0,1-1c.15-.17.92-.77,1-1a5.57,5.57,0,0,0-1,0,11.12,11.12,0,0,0-4,1c-1.16.73-1.84,1.29-3,2-.08,0,.09.94,0,1C1495.56,39.71,1496,40,1496,41Zm-3-4c.23.11-.19.88,0,1a1.33,1.33,0,0,0,1,0c1.27-.78,2.74-2.21,4-3a7.61,7.61,0,0,1,3-1c.49-.12,1.49.06,2,0h0c-.48-.09-1.52-1-2-1-1.06-.1-1.11.49-2,1a56,56,0,0,1-6,3S1493.06,36.94,1493,37Zm-2,0h0c.27,0-.23.1,0,0,1-.44,2-1.51,3-2,.47-.23,1.55.27,2,0h0c-.31,0-.72-.12-1,0-1,.43-2,.53-3,1C1491.57,36.21,1491.42,36.76,1491,37Z"/><g class="c"><g class="c"><path class="d" d="M1174,69.4h-6.14v1a1.3,1.3,0,0,1-.25.85,1.23,1.23,0,0,1-.62.43,6.3,6.3,0,0,1-1.43.11l-1.1,0-.46-1.3,2.11,0c.19,0,.29-.09.29-.27v-.8h-6.34V68.27h6.34v-.69a14.26,14.26,0,0,0,2.21-.63h-5.94v-1h8.52v1a23.84,23.84,0,0,1-3.33,1.22v.1H1174Zm-.24-2.35h-1.35V65.23h-10.7V67h-1.42V64.1h1l-.29-5.74a11.13,11.13,0,0,0,3.12-.61l.65,1.11a12.49,12.49,0,0,1-2.36.49l0,.85h2.09v1h-2l0,.91h2v1h-1.94l.05.92h8.81l0-.92h-2.15v-1h2.21l0-.91h-2.25v-1h2.28l.05-.85h-2.44V58.23h3.83l-.26,5.87h1Zm-4.86-8.83a5.24,5.24,0,0,1-1,1c.26.23.5.47.72.7l-.86.75a5.88,5.88,0,0,0-.79-.79,11.65,11.65,0,0,1-1.62.81l-.67-.9a7.27,7.27,0,0,0,1.36-.64c-.15-.13-.44-.35-.89-.66l.78-.78,1.07.77a5.26,5.26,0,0,0,.83-.75Zm.07,5-.85.73a8.07,8.07,0,0,0-1.08-1,15,15,0,0,1-1.64.9l-.65-.89a11.27,11.27,0,0,0,1.37-.73,6,6,0,0,0-1.05-.72l.77-.79c.28.17.7.45,1.24.85a7.17,7.17,0,0,0,.9-.85l1,.58a11.11,11.11,0,0,1-1,1A10.39,10.39,0,0,1,1169,63.26Z"/><path class="d" d="M1180.59,62.42a40.11,40.11,0,0,1-4,2l-.56-1.18a34.47,34.47,0,0,0,4.18-2.06Zm1.88.66a1.37,1.37,0,0,1-.28.92,1.08,1.08,0,0,1-.65.4,7.79,7.79,0,0,1-1.32.07l-.47-1.26.84,0c.32,0,.49-.15.49-.46V59.4h-4.77V58.13h6.16Zm-2.86-2.48-.81,1a9.5,9.5,0,0,0-2.26-.87l.83-1.06A9.55,9.55,0,0,1,1179.61,60.6Zm8.93,11.21h-1.42v-.63H1179v.63h-1.39V65.2H1182a6.38,6.38,0,0,0,.61-1.08l1.51.24a4.19,4.19,0,0,1-.43.84h4.84Zm-1.42-4.2V66.48H1179v1.13Zm0,2.34V68.77H1179V70Zm.49-7.56a26,26,0,0,1-3.86,1.59l-.57-1.14c1.37-.47,2.72-1,4-1.61Zm1.88.43a1.83,1.83,0,0,1-.3,1.16,1.14,1.14,0,0,1-.67.44,11.55,11.55,0,0,1-1.5.06l-.48-1.25,1,0a.58.58,0,0,0,.34-.14.41.41,0,0,0,.18-.31V59.4h-4.72V58.13h6.11Zm-3.22-2.09-.9,1a8.71,8.71,0,0,0-1.91-1l.85-1A7.32,7.32,0,0,1,1186.27,60.73Z"/><path class="d" d="M1206.15,62.71l-.67,1.28a8.61,8.61,0,0,1-1.39-.4v6h-6.75l.68.8A21,21,0,0,1,1192.7,72l-.69-1.29a18.84,18.84,0,0,0,4.37-1H1194v-6h3l-.61-.88a7.32,7.32,0,0,0,4.18-2.49l1.45.32a3.12,3.12,0,0,1-.35.54A12.9,12.9,0,0,0,1206.15,62.71Zm-9.36-.44h-4.66V61h4.66Zm-.14-2.55h-4.31V58.44h4.31Zm6,5.54V64.7h-7.13v.56Zm0,1.63V66.3h-7.13v.59Zm0,1.67v-.63h-7.13v.63Zm3.22-8.66a19.42,19.42,0,0,1-1.4,1.79l-1.21-.72c.13-.16.42-.51.86-1.07h-5a13.36,13.36,0,0,1-1.41,1.41l-1.08-.93a9.76,9.76,0,0,0,2.38-2.72l1.31.44a1.62,1.62,0,0,1-.3.56h5.89Zm-1.94,3.66A12.63,12.63,0,0,1,1200.8,62a8.21,8.21,0,0,1-2.6,1.54Zm2.12,7.21-.76,1.24a24.52,24.52,0,0,0-4.69-1l.74-1.2A20.38,20.38,0,0,1,1206.05,70.77Z"/><path class="d" d="M1211.09,66.54a30.88,30.88,0,0,1-1.82,5.23l-1.23-.88a30.29,30.29,0,0,0,1.77-5.23Zm.4-2.87-.92,1.21a10.37,10.37,0,0,0-2.5-1.91l.87-1.19A11.35,11.35,0,0,1,1211.49,63.67Zm.1-3.74-1,1.12a11,11,0,0,0-2.38-2.24l1-1.08A13.68,13.68,0,0,1,1211.59,59.93Zm10.4-.55h-3.48c-.12.36-.28.78-.49,1.25h3.5v5.91h-3V70.7a.91.91,0,0,1-.41.82,2.65,2.65,0,0,1-1.35.26c-.28,0-.55,0-.8,0l-.58-1.44c.37,0,.73,0,1.07,0s.5,0,.55-.08a.3.3,0,0,0,.09-.25V66.54h-2.92V60.63h2.12a10.49,10.49,0,0,0,.48-1.25h-3.44v5.44a14.59,14.59,0,0,1-1.58,7.08l-1.21-.81a14.36,14.36,0,0,0,1.37-6.41V58.06h10Zm-5.63,8.39a13.71,13.71,0,0,1-2.19,3.44l-1.17-1a11.13,11.13,0,0,0,2-3.22Zm3.76-4.82v-1.1h-4.5V63Zm0,2.34V64.15h-4.5v1.14Zm2.1,5-1.25.92a18.4,18.4,0,0,0-1.6-3.51l1.22-.7A16.53,16.53,0,0,1,1222.22,70.31Z"/></g></g><path d="M1174,21c.62-.14,1.38.13,2,0s1.24-.85,2-1V17c.65,0,1.38,0,2,0a22.19,22.19,0,0,1,9,2c.91.46,1.14,1.46,2,2a1.56,1.56,0,0,0,1,0,34.24,34.24,0,0,1,8-1,38.39,38.39,0,0,1,9,1h0V46c-.78-.18-1.23-.84-2-1a35.4,35.4,0,0,0-9-1,33,33,0,0,0-6,1,4.18,4.18,0,0,1-1,0,34.53,34.53,0,0,0-9-1c-2.82.08-5.29,1.23-8,2Zm19,22a33.37,33.37,0,0,1,14,0c0-.12,0,.08,0,0V23c0-.22.24,0,0,0-1.38-.2-2.62-.86-4-1a34.4,34.4,0,0,0-10,1c-.31.06,0-.31,0,0C1193,29.53,1193,36.47,1193,43Zm-2-1h0V23c0-.23-.8-.87-1-1a17.43,17.43,0,0,0-8-3c-.51-.07-1.47.05-2,0V39a27.77,27.77,0,0,1,6,1A20.83,20.83,0,0,1,1191,42Zm-15,1a43.08,43.08,0,0,1,10-1,22.61,22.61,0,0,0-8-1V22c-.57.11-.46.93-1,1-.34.05-1-.34-1,0C1176,29.52,1176,36.48,1176,43Zm21-17,9,6-9,6Zm5,6-3-2v4Z"/><g class="c"><g class="c"><path class="d" d="M970,58.25a16.16,16.16,0,0,1-5.13,7.1L964,64.13a13.41,13.41,0,0,0,4.62-6.36ZM977.16,71l-1.28.88a12.94,12.94,0,0,0-.9-1.79c-2.46.58-5.47,1.1-9,1.58l-.42-1.22q2.06-1.47,4.81-8.14l1.46.43a34.89,34.89,0,0,1-4,7.27,51.35,51.35,0,0,0,6.47-1.13,29.35,29.35,0,0,0-1.67-2.43l1.18-.76A29.77,29.77,0,0,1,977.16,71Zm1-6.83-.85,1.26a12.46,12.46,0,0,1-4.43-6.12h-1.3V58H974A11.19,11.19,0,0,0,978.2,64.2Z"/><path class="d" d="M994,64.6h-13.9V63.31h6.25V61.18h-3.46A9.27,9.27,0,0,1,981,62.89l-1.06-1a13,13,0,0,0,3.41-4l1.42.43c-.28.5-.59,1-.94,1.52h2.45v-2h1.43v2h5.38v1.33h-5.38v2.13H994Zm-1.67,7.21h-1.44v-.72H983.2v.72h-1.48V66.06h10.56Zm-1.44-2.06V67.37H983.2v2.38Z"/><path class="d" d="M1001.27,60.48h-5.18V59.2h2a5,5,0,0,0-.51-1l1.41-.53a12.7,12.7,0,0,1,.7,1.53h1.54Zm-.35,2.38h-4.45V61.58h4.45Zm0,2.34h-4.45V63.93h4.45Zm0,6.23h-1.41v-.72h-1.68v1.1h-1.38V66.27h4.47Zm-1.41-2V67.59h-1.68V69.4Zm10.67-1.33a10.37,10.37,0,0,1-.43,2.28,3.11,3.11,0,0,1-.63,1.29,1,1,0,0,1-.69.26,1.09,1.09,0,0,1-.82-.36,5.39,5.39,0,0,1-.67-2.15,18.5,18.5,0,0,1-.31-3.2V59.52h-2.17v4.31h1.72v1.38h-1.72v6.62h-1.37V65.21h-1.49V63.83h1.49V59.52h-1.3V58.17H1008v8.34a12.62,12.62,0,0,0,.52,3.59,13.73,13.73,0,0,0,.38-2.81Z"/><path class="d" d="M1015.24,67.72a19,19,0,0,1-2.06,3.59l-1.19-.77a17.3,17.3,0,0,0,2-3.4Zm9.12-1h-10.58V59h3a7.41,7.41,0,0,0,.74-1.36l1.56.29a5.13,5.13,0,0,1-.58,1.07h5.85ZM1023,61.2v-1h-7.82v1Zm0,2.17v-1h-7.82v1Zm0,2.16v-1h-7.82v1Zm.2,3.92a2,2,0,0,1-2.23,2.21h-3.42a1.76,1.76,0,0,1-1.2-.41,1.46,1.46,0,0,1-.46-1.18V67.34h1.4v2.53a.39.39,0,0,0,.22.39,2.63,2.63,0,0,0,1,.11l2.39,0a1,1,0,0,0,.57-.18c.19-.12.31-.55.37-1.28Zm-2-.56-1.23.75a13.66,13.66,0,0,0-1.62-2l1.17-.73A11.1,11.1,0,0,1,1021.16,68.89Zm5.07,1.73-1.25.69a14.86,14.86,0,0,0-2.21-3.36l1.24-.71A17.66,17.66,0,0,1,1026.23,70.62Z"/></g></g><path d="M1011,22V43c0,.06,0,.93,0,1-.36,2-1.94,3-4,3H981a5.57,5.57,0,0,1-1,0,3.85,3.85,0,0,1-3-4c0-5.83-1-12.17-1-18V18c0-.55.56-.66,1-1s.6,0,1,0h28c.54,0,.74-.48,1,0,.14.26,0,.7,0,1,0,.75,0,2.21,0,3h0c.64,0,1.36,0,2,0s1.79.29,2,1C1011,22.06,1011,21.94,1011,22Zm-4,0h0V42c0,.52.47-.11,1,0s0,.6,0,1,.37,1,0,1a5.57,5.57,0,0,1-1,0c-.89-.24-1-1-1-2V18H979a1.09,1.09,0,0,0-1,1V43a3,3,0,0,0,3,3h26c1.62,0,2-1.38,2-3V23c0-.1,0-.91,0-1s.06,0,0,0C1008.28,22,1007.77,22,1007,22Zm-21,3h4a.92.92,0,0,1,1,.83.48.48,0,0,1,0,.17v8a.92.92,0,0,1-.83,1H982a.9.9,0,0,1-1-.79.74.74,0,0,1,0-.21V26a.88.88,0,0,1,.74-1,1.13,1.13,0,0,1,.26,0Zm-3,5c0,1,0,2,0,3,0,.26-.27,0,0,0h6c.25,0,0,.27,0,0,0-1.91,0-4.09,0-6,0-.26.24,0,0,0-1.91,0-4.09,0-6,0-.27,0,0-.25,0,0C983,27.93,983,29.07,983,30Zm-1-9c-.13,0,.13,0,0,0a1.48,1.48,0,0,0-1,1c0,.4.61.92,1,1,.15,0-.16,0,0,0h19a8.34,8.34,0,0,0,1,0c.32-.07,0-.68,0-1a1,1,0,0,0-1-1H982Zm0,20c-.16,0,.15,0,0,0-.33.07-1,.66-1,1s.46,0,1,0h8c.44,0,1,.43,1,0a1.06,1.06,0,0,0-1-1h-8Zm20,1c.36,0-.13.32,0,0s.27-.85,0-1-.76,0-1,0c-1.4,0-2.6,0-4,0h-3c-.13,0,.13,0,0,0-.43.08-1,.57-1,1s.58,0,1,0h8Zm-8-17a1.19,1.19,0,0,0-1,1,1.17,1.17,0,0,0,1,1c.11,0-.11,0,0,0h7c.17,0,.84,0,1,0,.33-.06,0-.67,0-1,0-.48.51-1,0-1-1.3,0-2.7,0-4,0S995.3,25,994,25Zm8,13c.5,0,0,.43,0,0s.51-1,0-1h-8c-.17,0,.16,0,0,0a2,2,0,0,0-1,1c-.1.51.46,0,1,0h8Zm-16,0h4c.44,0,1,.41,1,0a1.19,1.19,0,0,0-1-1h-8c-.13,0,.13,0,0,0-.41,0-1,.59-1,1s.51,0,1,0Zm13-7c1,0,2,0,3,0,.53,0,.07-.49,0-1s.48-1,0-1h-8c-.07,0,.07,0,0,0a1.52,1.52,0,0,0-1,1,1,1,0,0,0,1,1c1.29,0,2.71,0,4,0Zm-2,2h-3a1,1,0,0,0-1,1c0,.38.52,1,1,1h8c.36,0,0-.64,0-1s.54-1,0-1h-5Z"/><g class="c"><g class="c"><path class="d" d="M1065.59,63.8l-.86,1.15a17.27,17.27,0,0,0-2.77-2l.84-1.16A14.61,14.61,0,0,1,1065.59,63.8Zm.18,2.61a27.4,27.4,0,0,1-2.5,5.44l-1.2-.87a27.72,27.72,0,0,0,2.44-5.23Zm.19-6.24-1,1a19,19,0,0,0-2.75-2.47l1-1A16.44,16.44,0,0,1,1066,60.17Zm10,3.1h-4.42v2.22h3.64V71.8h-1.45V71H1068v.78h-1.45V65.49h3.58V63.27h-4.42V62h4.43V59.83c-1.26.12-2.45.19-3.58.23l-.5-1.35a33.11,33.11,0,0,0,8.73-1l.72,1.17a25.9,25.9,0,0,1-3.93.81V62H1076Zm-2.23,6.37V66.86H1068v2.78Z"/><path class="d" d="M1085.85,61.53h-3.09v.91h2.76v4.7h-2.76V68h2.76v1.12h-2.76v1a27.55,27.55,0,0,0,2.83-.4l.07,1.14q-3.47.57-7.33,1l-.29-1.16,3.44-.35v-1.2h-2.8V68h2.8v-.9h-2.8v-4.7h2.8v-.91h-3.21V60.36h3.21v-.91c-.7.08-1.53.15-2.51.21l-.35-1.12a40.77,40.77,0,0,0,6.5-.76l.55,1c-.76.17-1.73.34-2.91.5v1h3.09Zm-4.37,2.75v-.82H1080v.82Zm0,1.81v-.82H1080v.82Zm2.74-1.79v-.84h-1.46v.84Zm0,1.79v-.82h-1.46v.82Zm7.55-5.27c0,2.23-.06,4.38-.15,6.44a25.5,25.5,0,0,1-.28,3.58,1.23,1.23,0,0,1-.54.75,2.33,2.33,0,0,1-1.28.26,8.51,8.51,0,0,1-.86,0l-.39-1.36c.4,0,.72,0,1,0,.47,0,.74-.06.82-.18a18,18,0,0,0,.28-2.85c.11-1.79.14-3.57.11-5.32h-1.38a20.56,20.56,0,0,1-2.13,9.73l-1.23-.61a17.37,17.37,0,0,0,2-9.12h-1.39V60.82h1.42c0-1.31,0-2.29,0-2.92h1.39c0,1,0,2,0,2.92Z"/><path class="d" d="M1108.15,62.71l-.67,1.28a8.61,8.61,0,0,1-1.39-.4v6h-6.75l.68.8A21,21,0,0,1,1094.7,72l-.69-1.29a18.84,18.84,0,0,0,4.37-1H1096v-6h3l-.61-.88a7.32,7.32,0,0,0,4.18-2.49l1.45.32a3.12,3.12,0,0,1-.35.54A12.9,12.9,0,0,0,1108.15,62.71Zm-9.36-.44h-4.66V61h4.66Zm-.14-2.55h-4.31V58.44h4.31Zm6,5.54V64.7h-7.13v.56Zm0,1.63V66.3h-7.13v.59Zm0,1.67v-.63h-7.13v.63Zm3.22-8.66a19.42,19.42,0,0,1-1.4,1.79l-1.21-.72c.13-.16.42-.51.86-1.07h-5a13.36,13.36,0,0,1-1.41,1.41l-1.08-.93a9.76,9.76,0,0,0,2.38-2.72l1.31.44a1.62,1.62,0,0,1-.3.56h5.89Zm-1.94,3.66A12.63,12.63,0,0,1,1102.8,62a8.21,8.21,0,0,1-2.6,1.54Zm2.12,7.21-.76,1.24a24.52,24.52,0,0,0-4.69-1l.74-1.2A20.38,20.38,0,0,1,1108.05,70.77Z"/><path class="d" d="M1115.27,60.48h-5.18V59.2h2a5,5,0,0,0-.51-1l1.41-.53a12.7,12.7,0,0,1,.7,1.53h1.54Zm-.35,2.38h-4.45V61.58h4.45Zm0,2.34h-4.45V63.93h4.45Zm0,6.23h-1.41v-.72h-1.68v1.1h-1.38V66.27h4.47Zm-1.41-2V67.59h-1.68V69.4Zm10.67-1.33a10.37,10.37,0,0,1-.43,2.28,3.11,3.11,0,0,1-.63,1.29,1,1,0,0,1-.69.26,1.09,1.09,0,0,1-.82-.36,5.39,5.39,0,0,1-.67-2.15,18.5,18.5,0,0,1-.31-3.2V59.52h-2.17v4.31h1.72v1.38h-1.72v6.62h-1.37V65.21h-1.49V63.83h1.49V59.52h-1.3V58.17H1122v8.34a12.62,12.62,0,0,0,.52,3.59,13.73,13.73,0,0,0,.38-2.81Z"/></g></g><path d="M1076,35c0-.25-.07.24,0,0a4.67,4.67,0,0,1,2-3c1.68-1,3.33-2,5-3,.18-.11-.14.17,0,0,.72-.9,1.29-2.09,2-3,2-2.59,5-5.41,7-8a1.73,1.73,0,0,1,2.38-.62,1.75,1.75,0,0,1,.62.62c.74,1.23,1.29,2.75,2,4,.12.22-.27,0,0,0,.61-.06,1.39.06,2,0,.45-.05.78.57,1,1s.64.5,1,1a1.94,1.94,0,0,1,0,2c-.33.46-.67.53-1,1a1.43,1.43,0,0,0,0,1c.67,1.14,1.36,1.84,2,3s.22,2.77-1,3c-1,.19-2-.19-3,0-3.07.6-5.94,1.4-9,2-.09,0-.86,0-1,0,.25.44.76,1.58,1,2s.5.7,0,1-1.49.7-2,1c.23.41.78.61,1,1,.43.75.6,1.23,1,2,.78,1.51.65,3.63-1,4-1.06.23-2.42-1-3-2-.73-1.25-1.29-1.75-2-3-.3-.52-.71-1.47-1-2-.1-.19-.8-.06-1,0-2.57.82-4.44-.36-5-3,0-.14,0-.86,0-1Zm15-15c-.11.13.07-.1,0,0-1.4,1.8-2.6,4.2-4,6-.83,1.06-2.17,1.95-3,3a1.43,1.43,0,0,0,0,1c1,1.8,3,3.19,4,5,.09.16-.19,0,0,0,3.2-.63,6.8-1.37,10-2,.41-.08.57.09,1,0Zm-8,10c-1.76,1-3.31,1.95-5,3-1.14.71-1.36,2.72-1,4,.57,2,3.12,2,5,1,1.47-.83,2.54-1.16,4-2,.18-.1.81.11,1,0Zm18,2c0-.07.07.13,0,0l-4-7c-1.2-2.1-1.8-3.92-3-6-.06-.1-.93.08-1,0-.23-.26.27-.2,0,0s-1.19-.34-1,0c1.2,2.11,2.79,4.9,4,7s2.7,3.76,4,6c0,.08-.08,1,0,1C1100.42,33.14,1101,32.53,1101,32Zm-18,7c0,.08,0,0,0,0,1.07,1.86,1.92,4.15,3,6a1.26,1.26,0,0,0,1.76.24A1.36,1.36,0,0,0,1088,45a2.14,2.14,0,0,0,0-2c-1-1.68-2-3.31-3-5,0-.09.07.11,0,0Zm16-13c.27-.44.77-.6,1-1,0-.05,0,.06,0,0-.22-.4-.77-.61-1-1,0-.08.06-1,0-1-.44,0-.52,0-1,0Zm-11,12-1-1h-1l1,1Zm13-22a2.11,2.11,0,0,0-1,1c0,.14,0-.14,0,0-.16.57.14,1.43,0,2a.93.93,0,0,0,.83,1h.17c.27-.06-.07-.75,0-1,.19-.72.8-1.28,1-2C1102.15,16.44,1101.49,16.3,1101,16Zm3,6c1.12-.62,2.89-1.38,4-2,.4-.22.18-.67,0-1s-.61-.22-1,0c-.67.36-1.34.63-2,1-.48.26-.53.72-1,1-.28.16-1.1-.29-1,0s.64,1,1,1Zm-1,3c0,.29.7.92,1,1,.79.22,1.2-.21,2,0,.39.1.91.33,1,0s.4-.89,0-1c-.58-.16-1.42.15-2,0-.26-.07-.84,0-1,0C1103.58,25,1103.05,24.69,1103,25Zm-22,12c.38-.18.64.22,1,0s.17-.69,0-1-.63-.2-1,0-.68-.18-1,0-.71.35-1,0,.28-.2,0,0-1.24.66-1,1a2.69,2.69,0,0,0,2,1C1080.15,38,1080.73,37.13,1081,37Zm4-2a1.46,1.46,0,0,0-1-1,1.52,1.52,0,0,0-1,1,1.44,1.44,0,0,0,1,1A1.52,1.52,0,0,0,1085,35Z"/><g class="c"><g class="c"><path class="d" d="M1272.24,68.12h-5.43v3.66h-1.43V68.12h-5.49v-8h5.49V57.87h1.43v2.26h5.43Zm-6.86-4.69v-2h-4v2Zm0,3.36V64.73h-4v2.06Zm5.4-3.36v-2h-4v2Zm0,3.36V64.73h-4v2.06Z"/><path class="d" d="M1280.06,60.51h-4.94v-1.3H1277a7.38,7.38,0,0,0-.58-1.12l1.48-.43a12.22,12.22,0,0,1,.73,1.55h1.47Zm-.44,2.37h-4.15V61.55h4.15Zm0,2.36h-4.15V63.9h4.15Zm0,6.24h-1.36v-.72h-1.38v1h-1.41V66.27h4.15Zm-1.36-2V67.58h-1.38v1.85Zm10,1c0,.91-.54,1.36-1.64,1.36l-.87,0-.48-1.3h1.27c.21,0,.32-.11.32-.34v-.8h-4.47a5.13,5.13,0,0,1-1.16,2.59l-1.16-.83a5.16,5.16,0,0,0,1.08-3.5V64.45h7.11Zm.74-6.76h-8.77v-1.2h3.67v-.75h-3V60.66h3V60h-3.39V58.81h3.39v-1h1.39v1h3.39V60h-3.39v.7h3v1.11h-3v.75H1289Zm-2.14,4.55v-.81h-4.34a6.51,6.51,0,0,1,0,.81Zm0-1.91v-.75h-4.32v.75Z"/><path class="d" d="M1296.08,68.09a26,26,0,0,1-4.77,2.13l-.36-1.36a14.73,14.73,0,0,0,1.93-.71V60.1h-1.68V58.73h4.5V60.1h-1.43v7.43c.65-.32,1.2-.61,1.65-.88Zm8.94-8.66h-3.83c-.14.45-.3.9-.49,1.36h3.56v8.07h-5.21l.72.78a24.81,24.81,0,0,1-4.32,2.32l-.92-1.15a17.31,17.31,0,0,0,3.9-2h-1.79V60.79h2.59a9.68,9.68,0,0,0,.53-1.36h-3.5v-1.3H1305Zm-2.17,3.66V62h-4.79v1.07Zm0,2.23V64.25h-4.79v1.07Zm0,2.27V66.51h-4.79v1.08Zm2.35,3.17-.86,1.12a20,20,0,0,0-3.73-1.61l.83-1.19A20.65,20.65,0,0,1,1305.2,70.76Z"/><path class="d" d="M1319.54,71.72h-1.46v-.78H1310v.78h-1.46V58.23h11ZM1318.08,62V59.59H1310V62Zm0,3.76V63.32H1310v2.45Zm0,3.82V67.06H1310v2.53Z"/></g></g><path d="M1301,44V31h2V46h-28V18h15v2h-12V44Zm-1-28c-1.37,1.38-2.63,2.62-4,4-2.82,2.83-5.19,6.16-8,9-.11.11,0-.15,0,0,0,1.29,0,2.71,0,4,0,.1,0-.13,0,0h0c1.24,0,2.76,0,4,0,.26,0-.18.19,0,0,3.35-3.38,6.65-6.63,10-10,.82-.82,2.18-1.18,3-2,.08-.08-.06-.94,0-1l-4-4C1300.92,16.1,1300.08,15.91,1300,16Zm-10,14c0-.12-.1.1,0,0,1.77-1.78,3.23-4.22,5-6s3.3-3.28,5-5c.09-.09-.06.08,0,0l2,1s.08.92,0,1c-.84.84-2.16,1.15-3,2-2.64,2.66-5.37,5.34-8,8-.19.19.26,0,0,0s-.58,0-1,0C1290,30.5,1290,30.46,1290,30Zm1,9h-10v2h10Z"/><path class="e" d="M314,15h0l-1,1h0v1h-1v1h0l-1,2h-1v1l-1,1h0l-1,1c-.17.24.17.76,0,1h-1s0,0,0,0,0,0,0,0h0l-2,3h0v1s-1,0-1,0v1h-1v1h12v1h-1v1h0c-.2.27-.8.73-1,1h0l-1,1h0v1l-1,1h0l-1,1h0l-1,1h0v1h0c-.14.18-.86-.18-1,0v1c-.52.7-.48,1.3-1,2h-1l-1,2h0s0,0,0,0l-1,1h0v1c-.14.17-.87-.18-1,0s.05.9,0,1h13V57a1.06,1.06,0,0,1-1,1H292V13h0c.14,0,.86,0,1,0h21c.41,0,.59,0,1,0v1h0Z"/><path class="f" d="M339,40h1V39c.27-.2.73.2,1,0h0l1-1c.62-.73,1.38-1.27,2-2,.11-.17-.11-.83,0-1s-.13-.71,0-1,.86-.66,1-1V32h0s0,0,0,0h0V30H331l-2,1c-.27.11-.73-.11-1,0h0l-1,1-2,1h0s0,0,0,0v1h-1l-1,1c.1.27.16.88,0,1-.19.39-.81.61-1,1h0v3h0c0,.68.3,1,1,1h11c-.13,0,.13,0,0,0h0c.14,0-.15,0,0,0h4V40C338.49,39.8,338.51,40.2,339,40Z"/><path class="f" d="M341,55v1h-1c-.36.2-.64.8-1,1h0c-.26.11-.74-.12-1,0h0l-2,1H322V54h1s0,0,0,0c.51-.89.49-2.11,1-3h0l1-1,1-1h0l1-1c.85-.4,2.15-.6,3-1h2c.08,0-.08,0,0,0h13c.2,0-.1-.16,0,0h0v2h0v1h0s0,1,0,1h-1c-.16.3.17.71,0,1s.13.79,0,1h-1v1Z"/><path class="f" d="M325,50s0,0,0,0,0,0,0,0,0,0,0,0S325,50,325,50Z"/><path class="f" d="M325,51h0s0,0,0,0S325,51,325,51Z"/><path class="f" d="M328,14h1l1-1h15c.13,0-.13,0,0,0h0c.2,0,0-.21,0,0s0,.72,0,1v1h0v2h0v1h-1v1l-1,1h0l-1,1h0l-1,1h0s0,0,0,0h0l-1,1h0s0,0,0,0h-1l-2,1h-2s0,0,0,0c-.19,0,.19,0,0,0H322c-.13,0,.13,0,0,0h0c0-.39,0-1.61,0-2s-.09-.62,0-1c0,0,0,0,0,0,.16-.45.84-.55,1-1V19h0s0,0,0,0V18h1V17h1V16h1V15Z"/><path class="f" d="M322,23h0C322,23,322,23.06,322,23Z"/><g class="c"><g class="c"><path class="g" d="M362,45.24l-1.16-4q2-.51,4.5-1.26V33.14h-3.6V29.36h3.6V22.88h-3.92V19.1H373v3.78h-3.89v6.48h3.35v3.78h-3.35V38.9l3.53-1,.61,3.6Q367.92,43.29,362,45.24Zm30.81,5a15.3,15.3,0,0,1-7-5.43l.29,3.17-7.49,1.44-3.1.57-.86-3.42,1.29-.21c.75-.1,1.32-.18,1.73-.26V43.65a32.36,32.36,0,0,1-4.86,1.91,12.65,12.65,0,0,0-2.37-2.88,33.31,33.31,0,0,0,8.49-3.2h-4V31.3h17.82v8.18h-6.23a16.57,16.57,0,0,0,1.77,2.7,25.55,25.55,0,0,0,3.2-2.52l3,2.19c-1.71,1.08-3.06,1.89-4.07,2.41a14.59,14.59,0,0,0,4.93,2.6A10.73,10.73,0,0,0,392.83,50.2ZM372.67,30V26.7h22V30Zm1.41-4.54V17.66H393.3v7.81Zm3.42-2.84h2.19V20.54H377.5Zm1.18,13.79H388.8V34.36H378.68Zm2.7,9,4.4-.79a20.32,20.32,0,0,1-2.45-4.57q-.79.64-1.95,1.44Zm1.05-22.82h2.27V20.54h-2.27Zm5,0h2.34V20.54H387.4Z"/></g><g class="c"><path class="h" d="M398.34,44.73l-1.44-4.28q1.62-.59,4.39-1.66V29.07h-3.56V25h3.56V17h4v8h3.28v4h-3.28v8.1l1.69-.74,1.66-.7.94,3.78q-3,1.44-8.93,4.18Zm9.86,5.51a9.28,9.28,0,0,0-1-1.89,11,11,0,0,0-1.34-1.71,14.05,14.05,0,0,0,5.84-2.16,6,6,0,0,0,2.05-3.35h-3.06V29.72H429V41.13h-4.43v4.18a1.69,1.69,0,0,0,.13.84c.08.11.29.17.63.17H427a.61.61,0,0,0,.61-.54,12.1,12.1,0,0,0,.22-2.56,6.57,6.57,0,0,0,1.64.9,11,11,0,0,0,1.92.61,8.53,8.53,0,0,1-1.15,4.18,3.35,3.35,0,0,1-2.77,1h-2.81c-1.66,0-2.76-.33-3.31-1a5.89,5.89,0,0,1-.79-3.6V41.13H418a10.34,10.34,0,0,1-2.59,5.51A15.34,15.34,0,0,1,408.2,50.24Zm.47-21.92v-3.5h4.75a9.22,9.22,0,0,0-.9-2.44l1.34-.29h-4.4V18.78h7.82v-2.2h4.21v2.2H430v3.31H426l.9.18c-.33.72-.78,1.57-1.33,2.55h5.15v3.5Zm6,5.83H424.8v-1.8H414.68Zm0,4.32H424.8V36.63H414.68Zm2.38-13.65h4.57l-.18,0a23.65,23.65,0,0,0,1.08-2.7h-6a10.52,10.52,0,0,1,1,2.63Z"/></g><g class="c"><path class="f" d="M450.54,50.28a11.76,11.76,0,0,0-1.06-2,14.28,14.28,0,0,0-1.39-1.91,18.45,18.45,0,0,0,7.74-6.16,39.28,39.28,0,0,1-2.45-7.31,20.66,20.66,0,0,1-1.65,2.49,17.26,17.26,0,0,0-2.38-2.2,35.89,35.89,0,0,1-5,4.93v.72c1-.07,2.46-.19,4.43-.36.94-.07,1.63-.13,2.09-.18V42c-1.35.14-3.36.32-6.05.54l-.47,0V46.1a5.64,5.64,0,0,1-.32,2.16,2.47,2.47,0,0,1-1.3,1.26,14.52,14.52,0,0,1-5.18.61,12.47,12.47,0,0,0-1.23-3.63q2.57.06,3.39,0c.41,0,.61-.17.61-.51V42.93c-1.2.1-2.89.25-5.08.47l-1.69.14-.43-3.81q4.21-.28,7.2-.54V36.38h1.4a23.32,23.32,0,0,0,1.88-1.8H441a38.76,38.76,0,0,1-5.58,3.89,19.75,19.75,0,0,0-2.88-3.28A30.55,30.55,0,0,0,436.32,33V31.27h2.3q.69-.59,2-1.8h-7.23V25.8h5.25V23.38h-4.06v-3.6h4.06V16.51h4v3.27h3.49v2.45a36.73,36.73,0,0,0,2.27-4.86l4,1.12a45.84,45.84,0,0,1-3.74,7.31h2.26v2.44a43.17,43.17,0,0,0,3.32-11.73l4.35.65q-.54,3.09-1.29,5.9h9.57v4h-2.12a42,42,0,0,1-3.89,13.39,16.51,16.51,0,0,0,6.37,6,14.44,14.44,0,0,0-1.58,1.75,15.67,15.67,0,0,0-1.37,2,18.87,18.87,0,0,1-6.08-5.8A23.92,23.92,0,0,1,450.54,50.28ZM442.62,25.8h1.19c.62-.87,1.16-1.67,1.62-2.42h-2.81Zm5.9,6.26a17.16,17.16,0,0,0,1.73-2.59H446c-.67.81-1.19,1.41-1.55,1.8h2.09l.75-.22Zm9.83,3.35A38.15,38.15,0,0,0,460.26,27h-4.1A46.83,46.83,0,0,0,458.35,35.41Z"/></g><g class="c"><path class="e" d="M498.2,31.88a20.1,20.1,0,0,0-2.16-2.3q-11.76.42-24.66.72l-.1-3.86,5-.07a30.35,30.35,0,0,0,1.91-3.06H470V19.57h13.75V16.51h4.39v3.06h13.75v3.74h-7.13a45.19,45.19,0,0,1,7.2,6.16ZM474.91,50.13V31.66H497.2V46.14a4.74,4.74,0,0,1-.44,2.28,2.64,2.64,0,0,1-1.54,1.17,24.74,24.74,0,0,1-6.52.54,15.31,15.31,0,0,0-1.26-3.42,36.54,36.54,0,0,0,4.57.07,1.06,1.06,0,0,0,.65-.14.67.67,0,0,0,.18-.54V44.44H479.2v5.69Zm4.29-13.28h13.64V35.12H479.2Zm0,4.64h13.64V39.76H479.2Zm1.9-15.15,5.73-.11,5.29-.07q-1.23-1-2.34-1.8l1.73-1.05h-7.92Q482.51,24.72,481.1,26.34Z"/></g><g class="c"><path d="M506.7,50.13a14,14,0,0,0-1-4,25.45,25.45,0,0,0,2.95,0,.54.54,0,0,0,.61-.61v-8c-.72.22-1.76.52-3.13.9l-.29.07-.94-4.1q.9-.18,3.06-.72l1.3-.33V27.24h-3.78V23.31h3.78V16.54h3.89v6.77h3.27v3.93h-3.27v5.18l2.91-.83.54,3.85q-2.29.72-3.45,1.05V45.6a7.81,7.81,0,0,1-.29,2.37,2.74,2.74,0,0,1-1.12,1.37C510.79,49.92,509.12,50.18,506.7,50.13Zm18.65,0V41.85a22.44,22.44,0,0,1-8,7.17,14.46,14.46,0,0,0-2.74-3.28,18.49,18.49,0,0,0,4.68-2.84,19.11,19.11,0,0,0,3.74-4h-6.22V35.08h8.53V31.52h4.07a2.51,2.51,0,0,1-.87-1.37,9.81,9.81,0,0,1-.21-2.3V22.63h3.81v5.18a1.37,1.37,0,0,0,.15.81c.09.11.31.16.64.16h1.73a.64.64,0,0,0,.67-.46,10,10,0,0,0,.2-2.24,6.56,6.56,0,0,0,1.54.83,11.14,11.14,0,0,0,1.77.51,7.39,7.39,0,0,1-1.08,3.78,3.24,3.24,0,0,1-2.63,1H532.3a5.46,5.46,0,0,1-2.7-.51v3.42h8.67V38.9h-6.41a21.24,21.24,0,0,0,7.49,6.52,13.15,13.15,0,0,0-2.88,3.27,23.64,23.64,0,0,1-6.87-6.8V50.1ZM518.51,33a7.92,7.92,0,0,0-.88-1.57A10.58,10.58,0,0,0,516.46,30q3.7-.82,5-2.59a9,9,0,0,0,1.19-4.72h3.89q-.25,4.5-1.69,6.59Q523.09,31.85,518.51,33Zm-1.33-7.49V18.16h21v7.13h-3.78V21.8H520.81v3.71Z"/><path d="M544.68,49.88a24.41,24.41,0,0,0-3.28-3,28.08,28.08,0,0,0,4.54-2.13A17.06,17.06,0,0,0,549.61,42l4.07,1.54a28.66,28.66,0,0,1-4.25,3.57A32.45,32.45,0,0,1,544.68,49.88Zm11.09.25V41.74q-6.91.23-13.29.33l-.21-3.82q5,0,8.1,0c.36-.2.9-.51,1.62-.94a40.28,40.28,0,0,0-6-3.78l2.81-2.45.57.33a7.51,7.51,0,0,1,.94.46,34.64,34.64,0,0,0,3.38-3.09h-7.2v3.89h-4.06V25.18h13.35V23h-13V19.32h13V16.51h4.21v2.81h13.29V23H559.94v2.19H573.7v7.46h-4.25V28.75H557.53l1.12.54c-1.71,1.51-3.49,3-5.37,4.32.87.55,1.6,1,2.2,1.47a67.77,67.77,0,0,0,7.06-5.32l3.81,2a103.24,103.24,0,0,1-9.54,6.37l8.46-.11c-.67-.5-1.52-1.09-2.55-1.76l2.8-2.16a51.24,51.24,0,0,1,8.54,6.33l-3,2.45c-.69-.69-1.27-1.23-1.73-1.62L560,41.6v8.53Zm14.83-.36a33.94,33.94,0,0,0-3.82-2.88q-2.34-1.55-4.68-2.84l3.24-2.16a55.15,55.15,0,0,1,8.79,5.47Z"/><path d="M593.89,50.13V27h-1.83V23.24l-2.13,2.34a21,21,0,0,0-1.19-1.8v1.91h-6.55V24.36a30.68,30.68,0,0,1-2.7,2.77H591V38.29h-8.13v1.55h8.2V43h-8.2v1.52h8.74v3.27h-8.74v2.27H579.2V27.38l0,0a9.77,9.77,0,0,0-2.67-2.56,20.46,20.46,0,0,0,6.27-8.32h4.07a37,37,0,0,1,5.22,5.51V20.32h6.76V16.54h4.25v3.78h7.27V27h-2.55v8.82h-10v2h11.56V50h-4V48.37h-7.6v1.76Zm-11-18.75h4.64V29.94h-4.64Zm0,4.17h4.64V34h-4.64Zm.5-12.71h4.68a30.23,30.23,0,0,0-2.7-3.06A23.73,23.73,0,0,1,583.38,22.84Zm12.56,3.53h10.34V23.71H595.94Zm1.84,6.09h6.05V29.72h-6.05Zm0,12.34h7.6V41.42h-7.6Z"/></g></g><g class="c"><g class="c"><path d="M292.52,76V65h6.26v1.06h-5v3.62H298v1h-4.22V75H299v1Z"/><path d="M301,76V65h1.27l4.16,7.12,1.19,2.24h.07c-.1-1.61-.16-2.74-.16-3.41V65h1.19V76H307.4l-4.13-7.1-1.2-2.26H302c.1,1.84.15,3,.15,3.34v6Z"/><path d="M313.46,76l-3.53-11h1.3l1.85,6.07.39,1.38q.4,1.44.69,2.25h.06c.15-.48.36-1.15.61-2,.21-.69.37-1.23.49-1.61L317.13,65h1.26l-3.51,11Z"/><path d="M319.6,76V65h1.25V76Z"/><path d="M331,76h-1.39l-2.74-4.75h-2.07V76h-1.24V65H327q3.78,0,3.79,3a2.84,2.84,0,0,1-2,2.9,5.08,5.08,0,0,1-.59.18Zm-6.2-10v4.22h1.94c1.81,0,2.73-.74,2.74-2.18a1.8,1.8,0,0,0-1.63-1.93,5.21,5.21,0,0,0-1.11-.11Z"/><path d="M336.67,76.19a4.13,4.13,0,0,1-3.46-1.7,6.5,6.5,0,0,1-1.19-4A5.9,5.9,0,0,1,333.66,66a4.23,4.23,0,0,1,3-1.16,4.15,4.15,0,0,1,3.51,1.72,6.46,6.46,0,0,1,1.13,3.92A6.08,6.08,0,0,1,339.7,75,4.17,4.17,0,0,1,336.67,76.19Zm0-1.08a2.91,2.91,0,0,0,2.66-1.61,6,6,0,0,0,.71-3,4.79,4.79,0,0,0-1.4-3.82,3.06,3.06,0,0,0-4.65.86,5.84,5.84,0,0,0-.69,3,5.08,5.08,0,0,0,1.33,3.86A2.93,2.93,0,0,0,336.67,75.11Z"/><path d="M343.4,76V65h1.27l4.16,7.12L350,74.37h.07c-.11-1.61-.16-2.74-.16-3.41V65h1.19V76h-1.29l-4.13-7.1-1.2-2.26h-.08c.1,1.84.15,3,.15,3.34v6Z"/><path d="M353.85,76V65h1.54l2.15,6c.09.25.22.64.41,1.17s.31.92.4,1.17h.07c.13-.36.38-1.14.76-2.34l2.14-6h1.54V76H361.7V69.66q0-.78.15-3.18h-.06L360.92,69l-2.15,5.9h-.85L355.75,69l-.86-2.49h-.06q.15,2.42.15,3.18V76Z"/><path d="M365.59,76V65h6.25v1.06h-5v3.62h4.22v1h-4.22V75H372v1Z"/><path d="M374,76V65h1.28l4.16,7.12,1.19,2.24h.07c-.11-1.61-.16-2.74-.16-3.41V65h1.18V76h-1.29l-4.13-7.1-1.2-2.26h-.07c.1,1.84.15,3,.15,3.34v6Z"/><path d="M386.79,76V66.07h-3.34V65h8v1.06h-3.36V76Z"/><path d="M399.19,76l-1.1-3.47H394L392.87,76h-1.24l3.75-11h1.36l3.76,11Zm-4.88-4.44h3.47l-.57-1.79q-.33-1-1.14-3.72H396c-.38,1.35-.76,2.59-1.13,3.72Z"/><path d="M401.77,76V65H403V75h4.84v1Z"/><path d="M412.51,76V65h6.25v1.06h-5v3.62H418v1h-4.22V75h5.19v1Z"/><path d="M421,76V65h2.71q3.48,0,4.62,2.66a7,7,0,0,1,.51,2.79c0,2.32-.73,3.92-2.2,4.82a5.45,5.45,0,0,1-2.88.72Zm1.25-1h1.36a3.44,3.44,0,0,0,3.66-2.47,6.44,6.44,0,0,0,.3-2q0-3.48-2.54-4.23a4.88,4.88,0,0,0-1.42-.19H422.2Z"/><path d="M434.73,76.19a3.44,3.44,0,0,1-3.75-3,7.88,7.88,0,0,1-.15-1.59V65h1.25v6.55q.06,3.51,2.65,3.55c1.55,0,2.44-.9,2.65-2.68a8.19,8.19,0,0,0,0-.87V65h1.19v6.54q0,4.13-3.1,4.58A5.12,5.12,0,0,1,434.73,76.19Z"/><path d="M445.39,76.19a4.26,4.26,0,0,1-3.5-1.64,6.28,6.28,0,0,1-1.24-4A5.89,5.89,0,0,1,442.31,66a4.47,4.47,0,0,1,3.16-1.22,3.9,3.9,0,0,1,2.95,1.29l0,0-.69.82a3,3,0,0,0-2.28-1.06,3.11,3.11,0,0,0-2.84,1.6,5.62,5.62,0,0,0-.72,3,4.87,4.87,0,0,0,1.43,3.89,3.15,3.15,0,0,0,2.08.74,3.44,3.44,0,0,0,2.6-1.26l.69.77A4.2,4.2,0,0,1,445.39,76.19Z"/><path d="M456.6,76l-1.1-3.47h-4.09L450.29,76H449l3.75-11h1.36l3.77,11Zm-4.88-4.44h3.47l-.57-1.79q-.31-1-1.14-3.72h-.06c-.38,1.35-.76,2.59-1.13,3.72Z"/><path d="M461.48,76V66.07h-3.33V65h8v1.06h-3.37V76Z"/><path d="M467.78,76V65H469V76Z"/><path d="M475.75,76.19a4.14,4.14,0,0,1-3.46-1.7,6.49,6.49,0,0,1-1.18-4A5.9,5.9,0,0,1,472.75,66a4.22,4.22,0,0,1,3-1.16,4.15,4.15,0,0,1,3.52,1.72,6.46,6.46,0,0,1,1.13,3.92A6,6,0,0,1,478.78,75,4.17,4.17,0,0,1,475.75,76.19Zm0-1.08a2.93,2.93,0,0,0,2.67-1.61,6,6,0,0,0,.7-3,4.79,4.79,0,0,0-1.39-3.82,3.07,3.07,0,0,0-4.66.86,5.84,5.84,0,0,0-.69,3,5.08,5.08,0,0,0,1.34,3.86A2.89,2.89,0,0,0,475.75,75.11Z"/><path d="M482.48,76V65h1.28l4.16,7.12,1.18,2.24h.08c-.11-1.61-.16-2.74-.16-3.41V65h1.18V76h-1.29l-4.13-7.1-1.2-2.26h-.07c.1,1.84.14,3,.14,3.34v6Z"/><path d="M496,76V65h6.25v1.06h-5v3.62h4.22v1H497.2V75h5.19v1Z"/><path d="M503.13,76l3.24-5.67-3-5.32h1.38l1.55,2.92c.09.17.22.41.41.73s.35.65.47.85h.07c.29-.63.55-1.16.78-1.58L509.58,65h1.28l-3,5.38L511.07,76h-1.36L508,72.94c-.13-.26-.45-.86-.95-1.77H507l-.91,1.77L504.43,76Z"/><path d="M512.53,76V65h3c2.58,0,3.94,1,4.08,2.86,0,.11,0,.22,0,.34a3,3,0,0,1-2.12,3.07,5.91,5.91,0,0,1-1.91.28h-1.86V76Zm1.24-5.46h1.69c1.59,0,2.54-.48,2.84-1.44a2.73,2.73,0,0,0,.13-.89,1.86,1.86,0,0,0-1.32-2A5.77,5.77,0,0,0,515.4,66h-1.63Z"/><path d="M521.6,76V65h1.25V75h4.85v1Z"/><path d="M533.31,76.19a4.12,4.12,0,0,1-3.45-1.7,6.43,6.43,0,0,1-1.19-4A5.9,5.9,0,0,1,530.31,66a4.22,4.22,0,0,1,3-1.16,4.15,4.15,0,0,1,3.52,1.72A6.46,6.46,0,0,1,538,70.46,6.08,6.08,0,0,1,536.35,75,4.21,4.21,0,0,1,533.31,76.19Zm0-1.08A2.92,2.92,0,0,0,536,73.5a6,6,0,0,0,.7-3,4.79,4.79,0,0,0-1.39-3.82,3.07,3.07,0,0,0-4.66.86,5.84,5.84,0,0,0-.69,3,5.08,5.08,0,0,0,1.34,3.86A2.89,2.89,0,0,0,533.31,75.11Z"/><path d="M547.49,76h-1.4l-2.74-4.75h-2.06V76H540V65h3.37q3.78,0,3.8,3a2.84,2.84,0,0,1-2,2.9,4.91,4.91,0,0,1-.58.18Zm-6.2-10v4.22h1.93c1.82,0,2.73-.74,2.74-2.18a1.79,1.79,0,0,0-1.62-1.93,5.38,5.38,0,0,0-1.12-.11Z"/><path d="M555.24,76l-1.1-3.47h-4.08L548.93,76h-1.25l3.75-11h1.36l3.77,11Zm-4.88-4.44h3.47l-.57-1.79q-.32-1-1.14-3.72h-.06c-.38,1.35-.75,2.59-1.13,3.72Z"/><path d="M560.13,76V66.07h-3.34V65h8v1.06h-3.37V76Z"/><path d="M570.42,76.19a4.13,4.13,0,0,1-3.46-1.7,6.5,6.5,0,0,1-1.19-4A5.9,5.9,0,0,1,567.41,66a4.25,4.25,0,0,1,3-1.16,4.15,4.15,0,0,1,3.51,1.72,6.46,6.46,0,0,1,1.13,3.92A6.08,6.08,0,0,1,573.45,75,4.17,4.17,0,0,1,570.42,76.19Zm0-1.08a2.91,2.91,0,0,0,2.66-1.61,6,6,0,0,0,.71-3,4.79,4.79,0,0,0-1.4-3.82,2.9,2.9,0,0,0-2-.72,2.94,2.94,0,0,0-2.68,1.58,5.84,5.84,0,0,0-.69,3,5.08,5.08,0,0,0,1.33,3.86A2.93,2.93,0,0,0,570.42,75.11Z"/><path d="M584.59,76H583.2l-2.74-4.75h-2.07V76h-1.24V65h3.37q3.78,0,3.79,3a2.84,2.84,0,0,1-2,2.9,5.08,5.08,0,0,1-.59.18Zm-6.2-10v4.22h1.94c1.81,0,2.73-.74,2.74-2.18a1.8,1.8,0,0,0-1.63-1.93,5.21,5.21,0,0,0-1.11-.11Z"/><path d="M586.24,76V65h1.24V76Z"/><path d="M594.07,76.19a3.44,3.44,0,0,1-3.75-3,7.88,7.88,0,0,1-.15-1.59V65h1.25v6.55q.06,3.51,2.65,3.55c1.55,0,2.43-.9,2.65-2.68a8.19,8.19,0,0,0,0-.87V65H598v6.54q0,4.13-3.11,4.58A4.9,4.9,0,0,1,594.07,76.19Z"/><path d="M600.64,76V65h1.53l2.16,6c.09.25.22.64.41,1.17s.31.92.39,1.17h.08c.12-.36.38-1.14.76-2.34l2.14-6h1.54V76h-1.16V69.66c0-.52,0-1.58.14-3.18h0L607.71,69l-2.15,5.9h-.85L602.54,69l-.86-2.49h-.06c.1,1.61.14,2.67.14,3.18V76Z"/></g></g></svg>