<svg xmlns="http://www.w3.org/2000/svg" viewBox="0 0 1920 153"><defs><style>.a{fill:#fff;}.b{fill:#4c9827;}.c{fill:#0087cd;}.d{isolation:isolate;}.e{fill:#3f9177;}.f{fill:#59aa48;}.g{fill:#262626;}.h{fill:#009fb5;}.i{fill:#635650;}</style></defs><rect class="a" width="1920" height="153"/><path class="b" d="M314,62h0l-1,1h0v1h-1v1h0l-1,2h-1v1l-1,1h0l-1,1c-.17.24.18.76,0,1h-1s0,0,0,0,0,0,0,0h0l-2,3h0c-.15.2.16-.2,0,0h0v1s-1,0-1,0v1h-1v1h12v1h-1v1h0c-.2.27-.8.73-1,1h0l-1,1h0v1l-1,1h0l-1,1h0l-1,1h0v1h0c-.14.18-.86-.18-1,0v1c-.52.7-.48,1.3-1,2h-1l-1,2h0s0,0,0,0l-1,1h0v1c-.14.17-.87-.18-1,0s.05.9,0,1c.11,0-.11,0,0,0h12c.12,0,.88,0,1,0h0v10a1.06,1.06,0,0,1-1,1H292V60h0c.14,0,.86,0,1,0h21c.41,0,.59,0,1,0v1h0Z"/><path class="c" d="M339,87h1V86c.27-.2.73.2,1,0h0l1-1c.62-.73,1.38-1.27,2-2,.11-.17-.11-.83,0-1s-.13-.71,0-1,.86-.66,1-1V79h0s0,0,0,0h0V77H331l-2,1c-.27.11-.73-.11-1,0h0l-1,1-2,1h0s0,0,0,0v1h-1l-1,1c.1.27.16.88,0,1-.19.39-.81.61-1,1h0v3h0c0,.68.3,1,1,1h11c-.13,0,.13,0,0,0h0c.15,0-.14,0,0,0s0,0,0,0h4V87C338.49,86.8,338.51,87.2,339,87Z"/><path class="c" d="M341,102v1h-1c-.36.2-.64.8-1,1h0c-.26.11-.74-.12-1,0h0l-2,1H322v-4h1s0,0,0,0c.51-.89.49-2.11,1-3h0l1-1,1-1h0l1-1c.85-.4,2.15-.6,3-1h2c.08,0-.08,0,0,0,.71,0,1.29,0,2,0h11c.2,0-.1-.16,0,0h0v2h0v1h0s0,1,0,1h-1c-.16.3.17.71,0,1s.13.79,0,1h-1v1Z"/><path class="c" d="M325,97s0,0,0,0,0,0,0,0,0,0,0,0S325,97,325,97Z"/><path class="c" d="M325,98h0s0,0,0,0S325,98,325,98Z"/><path class="c" d="M328,61h1l1-1h15c.13,0-.13,0,0,0h0c.2,0,0-.21,0,0s0,.72,0,1v1h0v2h0v1h-1v1l-1,1h0l-1,1h0l-1,1h0s0,0,0,0h0l-1,1h0s0,0,0,0h-1l-2,1h-2s0,0,0,0c-.19,0,.19,0,0,0H322c-.13,0,.13,0,0,0h0c0-.39,0-1.61,0-2s-.08-.62,0-1c0,0,0,0,0,0,.16-.45.84-.55,1-1V66h0s0,0,0,0V65h1V64h1V63h1V62Z"/><path class="c" d="M322,70h0S322,70.06,322,70Z"/><g class="d"><g class="d"><path class="e" d="M362,92.24l-1.16-4q2-.51,4.5-1.26V80.14h-3.59V76.36h3.59V69.88h-3.92V66.1H373v3.78h-3.88v6.48h3.34v3.78h-3.34V85.9l3.52-1,.62,3.6Q367.92,90.29,362,92.24Zm30.81,5a15.3,15.3,0,0,1-7-5.43l.29,3.17-7.49,1.44-3.1.57-.86-3.42,1.29-.21c.75-.1,1.32-.18,1.73-.26V90.65a32.36,32.36,0,0,1-4.86,1.91,12.39,12.39,0,0,0-2.37-2.88,33.31,33.31,0,0,0,8.49-3.2h-4V78.3h17.82v8.18h-6.23a16.57,16.57,0,0,0,1.77,2.7,25.55,25.55,0,0,0,3.2-2.52l3,2.19c-1.71,1.08-3.06,1.89-4.07,2.41a14.59,14.59,0,0,0,4.93,2.6A10.89,10.89,0,0,0,392.83,97.2ZM372.67,77V73.7h22V77Zm1.41-4.54V64.66H393.3v7.81Zm3.42-2.84h2.19V67.54H377.5Zm1.19,13.79H388.8V81.36H378.69Zm2.69,9,4.4-.79a20.32,20.32,0,0,1-2.45-4.57q-.79.64-1.95,1.44Zm1.05-22.82h2.27V67.54h-2.27Zm5,0h2.34V67.54H387.4Z"/></g><g class="d"><path class="f" d="M398.34,91.73l-1.44-4.28q1.62-.58,4.39-1.66V76.07h-3.56V72h3.56V64h4v8h3.28v4h-3.28v8.1l1.69-.74,1.66-.7.94,3.78q-3,1.44-8.93,4.18Zm9.87,5.51a9.94,9.94,0,0,0-1-1.89,11,11,0,0,0-1.34-1.71,14.05,14.05,0,0,0,5.84-2.16,5.91,5.91,0,0,0,2.05-3.35h-3.06V76.72H429V88.13h-4.43v4.18a1.66,1.66,0,0,0,.13.84c.08.11.29.17.63.17H427a.61.61,0,0,0,.61-.54,12.1,12.1,0,0,0,.22-2.56,6.57,6.57,0,0,0,1.64.9,11,11,0,0,0,1.92.61,8.53,8.53,0,0,1-1.15,4.18,3.34,3.34,0,0,1-2.77,1h-2.81c-1.66,0-2.76-.33-3.31-1a5.89,5.89,0,0,1-.79-3.6V88.13H418a10.27,10.27,0,0,1-2.59,5.51A15.35,15.35,0,0,1,408.21,97.24Zm.46-21.92v-3.5h4.75a9.22,9.22,0,0,0-.9-2.44l1.34-.29h-4.4V65.78h7.82v-2.2h4.21v2.2H430v3.31H426l.9.18c-.33.72-.78,1.57-1.33,2.55h5.15v3.5Zm6,5.83H424.8v-1.8H414.69Zm0,4.32H424.8V83.63H414.69Zm2.37-13.65h4.57l-.18,0a23.65,23.65,0,0,0,1.08-2.7h-6a10.52,10.52,0,0,1,1,2.63Z"/></g><g class="d"><path class="c" d="M450.54,97.28a11.76,11.76,0,0,0-1.06-2,14.28,14.28,0,0,0-1.39-1.91,18.37,18.37,0,0,0,7.74-6.16,39.28,39.28,0,0,1-2.45-7.31,20.66,20.66,0,0,1-1.65,2.49,17.26,17.26,0,0,0-2.38-2.2,35.89,35.89,0,0,1-5,4.93v.72c1-.07,2.46-.19,4.43-.36.94-.07,1.63-.13,2.09-.18V89c-1.35.14-3.36.32-6.05.54l-.47,0V93.1a5.45,5.45,0,0,1-.32,2.16,2.47,2.47,0,0,1-1.3,1.26,14.52,14.52,0,0,1-5.18.61,12.74,12.74,0,0,0-1.22-3.63c1.7,0,2.83,0,3.38,0s.61-.17.61-.51V89.93c-1.2.1-2.89.25-5.07.47l-1.7.14-.43-3.81q4.21-.28,7.2-.54V83.38h1.41a24.91,24.91,0,0,0,1.87-1.8H441a38.76,38.76,0,0,1-5.58,3.89,19.75,19.75,0,0,0-2.88-3.28A30.55,30.55,0,0,0,436.32,80V78.27h2.3q.69-.58,2-1.8h-7.23V72.8h5.25V70.38h-4.06v-3.6h4.06V63.51h4v3.27h3.49v2.45a36.73,36.73,0,0,0,2.27-4.86l4,1.12a45.84,45.84,0,0,1-3.74,7.31h2.26v2.44a43.17,43.17,0,0,0,3.32-11.73l4.35.65q-.54,3.09-1.29,5.9h9.57v4h-2.12a42,42,0,0,1-3.89,13.39,16.51,16.51,0,0,0,6.37,6,15.33,15.33,0,0,0-1.58,1.75,15.67,15.67,0,0,0-1.37,2,18.87,18.87,0,0,1-6.08-5.8A23.92,23.92,0,0,1,450.54,97.28ZM442.62,72.8h1.19c.62-.87,1.16-1.67,1.62-2.42h-2.81Zm5.9,6.26a17.16,17.16,0,0,0,1.73-2.59H446c-.67.81-1.19,1.41-1.55,1.8h2.09l.76-.22Zm9.83,3.35A38.15,38.15,0,0,0,460.26,74h-4.1A46.83,46.83,0,0,0,458.35,82.41Z"/></g><g class="d"><path class="b" d="M498.21,78.88a21.28,21.28,0,0,0-2.17-2.3q-11.76.42-24.66.72l-.1-3.86,5-.07a30.35,30.35,0,0,0,1.91-3.06H470V66.57h13.75V63.51h4.39v3.06h13.75v3.74h-7.12A45,45,0,0,1,502,76.47Zm-23.3,18.25V78.66H497.2V93.14a4.88,4.88,0,0,1-.43,2.28,2.7,2.7,0,0,1-1.55,1.17,24.74,24.74,0,0,1-6.52.54,15.31,15.31,0,0,0-1.26-3.42,36.54,36.54,0,0,0,4.57.07,1.06,1.06,0,0,0,.65-.14.67.67,0,0,0,.18-.54V91.44H479.2v5.69Zm4.29-13.28h13.64V82.12H479.2Zm0,4.64h13.64V86.76H479.2Zm1.9-15.15,5.73-.11,5.29-.07q-1.23-1-2.34-1.8l1.73-1h-7.92Q482.51,71.72,481.1,73.34Z"/></g><g class="d"><path d="M506.7,97.13a14,14,0,0,0-1-4,25.45,25.45,0,0,0,2.95,0,.54.54,0,0,0,.61-.61v-8c-.72.22-1.76.52-3.13.9l-.29.07-.94-4.1q.9-.18,3.06-.72l1.3-.33V74.24h-3.78V70.31h3.78V63.54h3.89v6.77h3.27v3.93h-3.27v5.18l2.91-.83.54,3.85c-1.53.49-2.68.83-3.45,1V92.6a7.81,7.81,0,0,1-.29,2.37,2.77,2.77,0,0,1-1.11,1.37C510.79,96.92,509.12,97.18,506.7,97.13Zm18.65,0V88.85a22.44,22.44,0,0,1-8,7.17,14.46,14.46,0,0,0-2.74-3.28,18.49,18.49,0,0,0,4.68-2.84,19.11,19.11,0,0,0,3.74-4h-6.22V82.08h8.53V78.52h4.07a2.51,2.51,0,0,1-.87-1.37,9.81,9.81,0,0,1-.21-2.3V69.63h3.81v5.18a1.37,1.37,0,0,0,.15.81c.09.11.31.16.64.16h1.73a.64.64,0,0,0,.67-.46,10,10,0,0,0,.2-2.24,6.56,6.56,0,0,0,1.54.83,11.14,11.14,0,0,0,1.77.51,7.39,7.39,0,0,1-1.08,3.78,3.24,3.24,0,0,1-2.63,1H532.3a5.46,5.46,0,0,1-2.7-.51v3.42h8.67V85.9h-6.41a21.24,21.24,0,0,0,7.49,6.52,13.15,13.15,0,0,0-2.88,3.27,23.64,23.64,0,0,1-6.87-6.8V97.1ZM518.51,80a7.92,7.92,0,0,0-.88-1.57A10.58,10.58,0,0,0,516.46,77q3.7-.82,5-2.59a9,9,0,0,0,1.19-4.72h3.89q-.25,4.5-1.69,6.59Q523.09,78.85,518.51,80Zm-1.33-7.49V65.16h21v7.13h-3.78V68.8H520.81v3.71Z"/><path d="M544.68,96.88a24.41,24.41,0,0,0-3.28-3,28.08,28.08,0,0,0,4.54-2.13A16.74,16.74,0,0,0,549.61,89l4.07,1.54a28.66,28.66,0,0,1-4.25,3.57A31.93,31.93,0,0,1,544.68,96.88Zm11.09.25V88.74q-6.91.23-13.29.33l-.21-3.82q5,0,8.1,0c.36-.2.9-.51,1.62-.94a40.28,40.28,0,0,0-6-3.78l2.81-2.45.58.33a8,8,0,0,1,.93.46,36,36,0,0,0,3.39-3.09h-7.21v3.89h-4.06V72.18h13.35V70h-13V66.32h13V63.51h4.21v2.81h13.29V70H559.94v2.19H573.7v7.46h-4.25V75.75H557.53l1.12.54c-1.71,1.51-3.49,2.95-5.36,4.32q1.29.83,2.19,1.47a67.77,67.77,0,0,0,7.06-5.32l3.81,2a103.24,103.24,0,0,1-9.54,6.37l8.46-.11c-.67-.5-1.52-1.09-2.55-1.76l2.8-2.16a51.24,51.24,0,0,1,8.54,6.33l-3,2.45c-.69-.69-1.27-1.23-1.72-1.62L560,88.6v8.53Zm14.83-.36a34.6,34.6,0,0,0-3.81-2.88q-2.35-1.55-4.69-2.84l3.25-2.16a55.44,55.44,0,0,1,8.78,5.47Z"/><path d="M593.89,97.13V74h-1.83V70.24l-2.13,2.34a20.58,20.58,0,0,0-1.18-1.8v1.91h-6.56V71.36a30.68,30.68,0,0,1-2.7,2.77H591V85.29h-8.13v1.55h8.2V90h-8.2v1.52h8.74v3.27h-8.74v2.27h-3.67V74.38l0,0a9.77,9.77,0,0,0-2.67-2.56,20.46,20.46,0,0,0,6.27-8.32h4.07a37,37,0,0,1,5.22,5.51V67.32h6.77V63.54h4.24v3.78h7.28V74h-2.56v8.82h-10v2h11.56V97h-4V95.37h-7.6v1.76Zm-11-18.75h4.64V76.94h-4.64Zm0,4.17h4.64V81h-4.64Zm.5-12.71h4.68a30.23,30.23,0,0,0-2.7-3.06A23.73,23.73,0,0,1,583.38,69.84Zm12.56,3.53h10.34V70.71H595.94Zm1.84,6.09h6.05V76.72h-6.05Zm0,12.34h7.6V88.42h-7.6Z"/></g></g><g class="d"><g class="d"><path d="M292.52,123V112h6.26v1.06h-5v3.62H298v1h-4.22V122H299v1Z"/><path d="M301,123V112h1.27l4.16,7.12,1.19,2.24h.07c-.1-1.61-.16-2.74-.16-3.41V112h1.19v11H307.4l-4.13-7.1-1.2-2.26H302c.1,1.84.15,3,.15,3.34v6Z"/><path d="M313.46,123l-3.53-11h1.3l1.85,6.07c.09.32.23.78.39,1.38.28,1,.5,1.71.69,2.25h.06c.16-.48.36-1.15.61-2,.21-.69.37-1.23.49-1.61l1.81-6.07h1.26l-3.51,11Z"/><path d="M319.6,123V112h1.25v11Z"/><path d="M331,123h-1.39l-2.74-4.75h-2.07V123h-1.24V112H327q3.78,0,3.79,3a2.84,2.84,0,0,1-2,2.9,5.08,5.08,0,0,1-.59.18Zm-6.2-10v4.22h1.94c1.81,0,2.73-.74,2.74-2.18a1.79,1.79,0,0,0-1.63-1.93,5.21,5.21,0,0,0-1.11-.11Z"/><path d="M336.67,123.19a4.13,4.13,0,0,1-3.46-1.7,6.5,6.5,0,0,1-1.19-4,5.9,5.9,0,0,1,1.64-4.48,4.25,4.25,0,0,1,3-1.16,4.15,4.15,0,0,1,3.51,1.72,6.46,6.46,0,0,1,1.13,3.92A6.08,6.08,0,0,1,339.7,122,4.17,4.17,0,0,1,336.67,123.19Zm0-1.08a2.91,2.91,0,0,0,2.66-1.61,6,6,0,0,0,.71-3,4.79,4.79,0,0,0-1.4-3.82,2.9,2.9,0,0,0-2-.72A2.94,2.94,0,0,0,334,114.5a5.84,5.84,0,0,0-.69,3,5.08,5.08,0,0,0,1.33,3.86A2.93,2.93,0,0,0,336.67,122.11Z"/><path d="M343.4,123V112h1.27l4.16,7.12,1.19,2.24h.07c-.11-1.61-.16-2.74-.16-3.41V112h1.19v11h-1.29l-4.13-7.1-1.2-2.26h-.08c.1,1.84.15,3,.15,3.34v6Z"/><path d="M353.85,123V112h1.54l2.15,6c.09.25.23.64.41,1.17s.31.92.4,1.17h.07c.13-.36.38-1.14.76-2.34l2.14-6h1.54v11H361.7v-6.34q0-.78.15-3.18h-.06l-.87,2.49-2.15,5.9h-.85l-2.17-5.9-.86-2.49h-.06q.15,2.42.15,3.18V123Z"/><path d="M365.59,123V112h6.26v1.06h-5v3.62h4.21v1h-4.21V122H372v1Z"/><path d="M374,123V112h1.27l4.16,7.12,1.19,2.24h.07c-.11-1.61-.16-2.74-.16-3.41V112h1.18v11h-1.28l-4.14-7.1-1.2-2.26h-.07c.1,1.84.15,3,.15,3.34v6Z"/><path d="M386.79,123v-9.93h-3.34V112h8v1.06h-3.37V123Z"/><path d="M399.19,123l-1.1-3.47H394L392.87,123h-1.24l3.75-11h1.36l3.76,11Zm-4.88-4.44h3.47l-.57-1.79q-.33-1-1.14-3.72H396c-.38,1.35-.76,2.59-1.13,3.72Z"/><path d="M401.77,123V112H403V122h4.85v1Z"/><path d="M412.51,123V112h6.25v1.06h-5v3.62H418v1h-4.22V122h5.19v1Z"/><path d="M421,123V112h2.71q3.48,0,4.62,2.66a7,7,0,0,1,.51,2.79c0,2.32-.73,3.92-2.2,4.82a5.45,5.45,0,0,1-2.88.72Zm1.25-1h1.36a3.44,3.44,0,0,0,3.66-2.47,6.44,6.44,0,0,0,.3-2q0-3.48-2.54-4.23a4.88,4.88,0,0,0-1.42-.19H422.2Z"/><path d="M434.73,123.19a3.44,3.44,0,0,1-3.75-3,7.88,7.88,0,0,1-.15-1.59V112h1.25v6.55q.06,3.51,2.65,3.55c1.55,0,2.44-.9,2.65-2.68a8.14,8.14,0,0,0,.05-.87V112h1.18v6.54q0,4.13-3.1,4.58A5.12,5.12,0,0,1,434.73,123.19Z"/><path d="M445.39,123.19a4.27,4.27,0,0,1-3.5-1.64,6.34,6.34,0,0,1-1.23-4,5.89,5.89,0,0,1,1.65-4.47,4.48,4.48,0,0,1,3.17-1.22,3.89,3.89,0,0,1,2.94,1.29l0,0-.69.82a3,3,0,0,0-2.28-1.06,3.11,3.11,0,0,0-2.84,1.6,5.62,5.62,0,0,0-.72,3,4.84,4.84,0,0,0,1.44,3.89,3.13,3.13,0,0,0,2.08.74,3.44,3.44,0,0,0,2.59-1.26l.69.77A4.19,4.19,0,0,1,445.39,123.19Z"/><path d="M456.6,123l-1.1-3.47h-4.08L450.29,123H449l3.75-11h1.36l3.77,11Zm-4.88-4.44h3.47l-.57-1.79q-.31-1-1.14-3.72h-.06c-.38,1.35-.75,2.59-1.13,3.72Z"/><path d="M461.49,123v-9.93h-3.34V112h8v1.06h-3.36V123Z"/><path d="M467.78,123V112H469v11Z"/><path d="M475.75,123.19a4.12,4.12,0,0,1-3.45-1.7,6.43,6.43,0,0,1-1.19-4,5.9,5.9,0,0,1,1.64-4.48,4.22,4.22,0,0,1,3-1.16,4.15,4.15,0,0,1,3.52,1.72,6.46,6.46,0,0,1,1.13,3.92,6.08,6.08,0,0,1-1.61,4.53A4.21,4.21,0,0,1,475.75,123.19Zm0-1.08a2.92,2.92,0,0,0,2.67-1.61,6,6,0,0,0,.7-3,4.79,4.79,0,0,0-1.39-3.82,3.07,3.07,0,0,0-4.66.86,5.84,5.84,0,0,0-.69,3,5.08,5.08,0,0,0,1.34,3.86A2.89,2.89,0,0,0,475.75,122.11Z"/><path d="M482.48,123V112h1.28l4.16,7.12,1.18,2.24h.08c-.11-1.61-.16-2.74-.16-3.41V112h1.18v11h-1.29l-4.13-7.1-1.2-2.26h-.07c.1,1.84.15,3,.15,3.34v6Z"/><path d="M496,123V112h6.26v1.06h-5v3.62h4.21v1h-4.21V122h5.18v1Z"/><path d="M503.13,123l3.24-5.67-3-5.32h1.38l1.55,2.92c.09.17.22.41.41.73s.35.65.47.85h.07c.3-.63.55-1.16.78-1.58l1.57-2.92h1.29l-3,5.38,3.22,5.61h-1.36L508,119.94c-.13-.26-.45-.86-.95-1.77H507l-.91,1.77L504.43,123Z"/><path d="M512.53,123V112h3c2.58,0,3.94,1,4.08,2.86,0,.11,0,.22,0,.34a3,3,0,0,1-2.12,3.07,5.91,5.91,0,0,1-1.91.28h-1.86V123Zm1.24-5.46h1.69c1.59,0,2.54-.48,2.84-1.44a2.73,2.73,0,0,0,.13-.89,1.86,1.86,0,0,0-1.32-2,5.77,5.77,0,0,0-1.71-.21h-1.63Z"/><path d="M521.6,123V112h1.25V122h4.85v1Z"/><path d="M533.31,123.19a4.12,4.12,0,0,1-3.45-1.7,6.5,6.5,0,0,1-1.19-4,5.9,5.9,0,0,1,1.64-4.48,4.22,4.22,0,0,1,3-1.16,4.15,4.15,0,0,1,3.52,1.72,6.46,6.46,0,0,1,1.13,3.92,6.08,6.08,0,0,1-1.61,4.53A4.18,4.18,0,0,1,533.31,123.19Zm0-1.08A2.92,2.92,0,0,0,536,120.5a6,6,0,0,0,.7-3,4.79,4.79,0,0,0-1.39-3.82,3.07,3.07,0,0,0-4.66.86,5.84,5.84,0,0,0-.69,3,5.08,5.08,0,0,0,1.34,3.86A2.89,2.89,0,0,0,533.31,122.11Z"/><path d="M547.49,123h-1.4l-2.73-4.75h-2.07V123H540V112h3.37q3.78,0,3.8,3a2.85,2.85,0,0,1-2,2.9,5.76,5.76,0,0,1-.59.18Zm-6.2-10v4.22h1.93c1.82,0,2.73-.74,2.74-2.18a1.79,1.79,0,0,0-1.62-1.93,5.38,5.38,0,0,0-1.12-.11Z"/><path d="M555.24,123l-1.1-3.47h-4.08L548.93,123h-1.25l3.75-11h1.37l3.76,11Zm-4.88-4.44h3.48l-.58-1.79q-.32-1-1.14-3.72h-.06c-.38,1.35-.75,2.59-1.12,3.72Z"/><path d="M560.13,123v-9.93h-3.34V112h8v1.06h-3.37V123Z"/><path d="M570.42,123.19a4.13,4.13,0,0,1-3.46-1.7,6.5,6.5,0,0,1-1.19-4,5.87,5.87,0,0,1,1.65-4.48,4.22,4.22,0,0,1,3-1.16,4.15,4.15,0,0,1,3.51,1.72,6.39,6.39,0,0,1,1.13,3.92,6.08,6.08,0,0,1-1.61,4.53A4.17,4.17,0,0,1,570.42,123.19Zm0-1.08a2.91,2.91,0,0,0,2.66-1.61,6,6,0,0,0,.71-3,4.82,4.82,0,0,0-1.39-3.82,3.07,3.07,0,0,0-4.66.86,5.84,5.84,0,0,0-.69,3,5.08,5.08,0,0,0,1.33,3.86A2.93,2.93,0,0,0,570.42,122.11Z"/><path d="M584.59,123H583.2l-2.74-4.75h-2.07V123h-1.24V112h3.37q3.78,0,3.79,3a2.84,2.84,0,0,1-2,2.9,5.08,5.08,0,0,1-.59.18Zm-6.2-10v4.22h1.94c1.81,0,2.73-.74,2.74-2.18a1.8,1.8,0,0,0-1.63-1.93,5.21,5.21,0,0,0-1.11-.11Z"/><path d="M586.24,123V112h1.24v11Z"/><path d="M594.07,123.19a3.44,3.44,0,0,1-3.75-3,7.88,7.88,0,0,1-.15-1.59V112h1.25v6.55q.06,3.51,2.65,3.55c1.55,0,2.43-.9,2.65-2.68a8.19,8.19,0,0,0,0-.87V112H598v6.54c0,2.75-1,4.28-3.11,4.58A4.9,4.9,0,0,1,594.07,123.19Z"/><path d="M600.64,123V112h1.54l2.15,6c.09.25.22.64.41,1.17l.39,1.17h.08c.12-.36.38-1.14.76-2.34l2.14-6h1.54v11h-1.16v-6.34q0-.78.15-3.18h-.06l-.87,2.49-2.15,5.9h-.85l-2.17-5.9-.86-2.49h-.06q.15,2.42.15,3.18V123Z"/></g></g><path d="M971,0h664V46H1009Z"/><g class="d"><g class="d"><path class="a" d="M1583.91,31V15.46h9.54V18H1587v3.59h5.46v2.61H1587V28.4h6.66V31Z"/><path class="a" d="M1596.83,31V15.46H1600l4.51,8.27,1.56,3.36h.1c0-.08,0-.21,0-.37-.24-2.3-.36-4-.36-5.06v-6.2h2.94V31h-3.15l-4.49-8.32-1.58-3.34h-.1c0,.24,0,.61.1,1.12.18,1.93.28,3.37.28,4.3V31Z"/></g></g><g class="d"><g class="d"><path class="a" d="M1558.18,32V22.68h-1.57V20.39l1.57-.13v-1a4.61,4.61,0,0,1,1-3.08,3.87,3.87,0,0,1,3.15-1.26,5.92,5.92,0,0,1,2.22.42l-.56,2.27a3.67,3.67,0,0,0-1.24-.26c-1,0-1.43.62-1.43,1.85v1h2.21v2.44h-2.21V32Z"/></g></g><g class="d"><g class="d"><path class="a" d="M1055.73,27.92a3,3,0,0,0-.83-.4,11.38,11.38,0,0,0,.92-3.57l1,.17A13.66,13.66,0,0,1,1055.73,27.92Zm4.94,1.25V23.35l-.79.36a4.63,4.63,0,0,0-.31-1l-1.19.08v6.31h-1V22.88L1055,23l-.1-1,1,0c.31-.4.62-.81.93-1.25a11.93,11.93,0,0,0-1.86-2.17l.6-.71.45.42a18.3,18.3,0,0,0,1.33-2.82l1,.36a28.43,28.43,0,0,1-1.73,3.09,8.54,8.54,0,0,1,.81,1,30.52,30.52,0,0,0,1.61-2.71l.93.43a48,48,0,0,1-3,4.33l2.16-.1a13.7,13.7,0,0,0-.68-1.26l.81-.33a12,12,0,0,1,1.36,2.73v-6.8h7.72V27.89a1.79,1.79,0,0,1-.11.7.78.78,0,0,1-.4.38,6.2,6.2,0,0,1-2,.17,2.77,2.77,0,0,0-.33-1c.37,0,.84,0,1.4,0h.17c.17,0,.25-.1.25-.29V17.16h-5.72v12Zm-1-2.3a9,9,0,0,0-.75-2.71l.83-.24a9.76,9.76,0,0,1,.8,2.7Zm4.39,0a1.35,1.35,0,0,1-1-.3,1.69,1.69,0,0,1-.27-1.11V23.3h-.62v-.88H1064V20.89h-1.73V20h.84a7.06,7.06,0,0,0-.67-2l.72-.25a6.58,6.58,0,0,1,.72,2l-.69.25h2.36l-.56-.21a11.62,11.62,0,0,0,.79-2.18l.9.3c0,.08-.09.22-.17.4-.39.82-.66,1.39-.82,1.69h1.15v.89h-1.88v1.53h2v.88h-3.18v2.13a.94.94,0,0,0,.06.41.3.3,0,0,0,.27.11h1.74a4.15,4.15,0,0,0,.82-.07c0,.24.05.54.09.91a5.7,5.7,0,0,1-.9,0Z"/><path class="a" d="M1070.31,27.46l-.24-1.11q.79-.15,2.88-.6l.6-.13c.17-.76.33-1.69.49-2.78s.28-2.09.35-2.94l1.09.21c-.27,2-.58,3.74-.91,5.28l1.64-.38.11,1-1.88.44Zm0-8v-1h2.36V15.64h1v2.77h2.32v1Zm1.17,6a23.24,23.24,0,0,0-.17-2.52c-.12-1-.27-1.86-.44-2.7l.92-.16a27,27,0,0,1,.66,5.22Zm4.93,3.67V22.57H1079V15.45h1.14v3.1h3.7V19.6h-3.7v3h3.08v6.5H1082v-.65h-4.5v.7Zm1.07-1.74h4.5V23.62h-4.5Z"/><path class="a" d="M1092.39,29.14a2.84,2.84,0,0,0-.37-.94c.9,0,1.59,0,2,0a.39.39,0,0,0,.26-.06.25.25,0,0,0,.06-.2V26.11h-9.18v-.87h9.18v-.91c-1.16,0-2.17,0-3,0a4.47,4.47,0,0,1-3.44-1.32c-.48.32-1.2.8-2.18,1.43l-.11.06-.43-.93q1-.53,2.07-1.17V20.89h-2V20h3V22.2a3.56,3.56,0,0,0,3.06,1.25c.87,0,2.1,0,3.69,0s2.86-.06,3.81-.1a3.21,3.21,0,0,0-.3.89c-1,0-2.06.07-3.07.07v.91h3.27v.87h-3.27V28a1.49,1.49,0,0,1-.13.68.67.67,0,0,1-.46.34,4.18,4.18,0,0,1-.95.15Zm-4.77-9.6a8.75,8.75,0,0,0-2.4-1.34l.53-.64a11.67,11.67,0,0,1,1.33.58,5.85,5.85,0,0,1,1.08.68Zm.6-1.84a7.15,7.15,0,0,0-1.09-.81,12.15,12.15,0,0,0-1.34-.74l.54-.65a9.19,9.19,0,0,1,2.45,1.46Zm1.71,10.85a8.25,8.25,0,0,0-2.19-1.78l.76-.65a10.07,10.07,0,0,1,2.24,1.73Zm.12-5.77V18.37h2.79l.09-.38.09-.37h-3.85v-.81h2.35a5.45,5.45,0,0,0-.78-1.13l.88-.25a4.58,4.58,0,0,1,1,1.32l-.19.06h2.38a12.12,12.12,0,0,0,.91-1.38l1,.21a13.74,13.74,0,0,1-.88,1.17h2.8v.81h-4.55l-.27.75h3.62v4.41Zm1-3.15h5.25V19h-5.25Zm0,1.26h5.25v-.68h-5.25Zm0,1.27h5.25v-.67h-5.25Z"/><path class="a" d="M1100.62,29.14a2.3,2.3,0,0,0-.5-.87,11.74,11.74,0,0,0,3.11-.52,2.19,2.19,0,0,0,1.3-1.12h-2.15V21.82h9.12v4.81h-2.58v1.05c0,.18,0,.28.14.33a2.14,2.14,0,0,0,.67.07h2.37q.42,0,.54-.24a3.35,3.35,0,0,0,.16-1.14,3.75,3.75,0,0,0,1,.35,2.94,2.94,0,0,1-.41,1.53,1.42,1.42,0,0,1-1.13.38h-2.59a2.67,2.67,0,0,1-1.42-.26,1.14,1.14,0,0,1-.36-1V26.63h-2.19a2.91,2.91,0,0,1-1.5,1.71A10.77,10.77,0,0,1,1100.62,29.14Zm.2-7.94V16h6v.72h-2.51v.74h2.09v2.21h-2.09v.87h2.62v.71Zm1-3.79h1.57v-.74h-1.57Zm0,1.53h3.59V18.1h-3.59Zm0,1.55h1.57v-.87h-1.57Zm1.66,2.71h6.94v-.71h-6.94Zm0,1.38h6.94v-.72h-6.94Zm0,1.39h6.94v-.73h-6.94Zm3.85-7.36a2.14,2.14,0,0,0-.75-.63,5.62,5.62,0,0,0,1.78-2.52l1,.15c-.09.24-.2.48-.31.72h4.54v.76h-5A6.69,6.69,0,0,1,1107.3,18.61Zm.27,2.7V19h5.76v2.34Zm.81-2.93v-.7h4.44v.7Zm0,2.3h.91v-1.1h-.91Zm1.56,0h1v-1.1h-1Zm1.6,0h1v-1.1h-1Z"/><path class="a" d="M1132.79,32.18V15.43h1V32.18Z"/><path class="a" d="M1153.2,22.42a4.35,4.35,0,0,0-.67-.81,10.45,10.45,0,0,0,3-1.95,10.28,10.28,0,0,0-2-1.54l.62-.62a8.7,8.7,0,0,1,2,1.53,9.26,9.26,0,0,0,1.51-2.07H1154V16h4.26l.21,0,.71.37a10.34,10.34,0,0,1-2.09,3.26h5.09a13.57,13.57,0,0,1-2.54-3.81l.95-.3a10.42,10.42,0,0,0,1.05,1.84,17.16,17.16,0,0,0,1.93-1.75l.84.6a20.86,20.86,0,0,1-2.26,1.83,13.41,13.41,0,0,0,1,1.11,13.78,13.78,0,0,0,2-1.79l.84.59a21,21,0,0,1-2.23,1.78,10.55,10.55,0,0,0,2.73,1.63,4,4,0,0,0-.74.91,11.31,11.31,0,0,1-3.48-2.48v.8h-5.52v-.68A12.39,12.39,0,0,1,1153.2,22.42Zm-.09,6.37v-.94h4.08a7.65,7.65,0,0,0-.87-2l.84-.23h-1.7V21.78h8.24V25.6h-1.52l.74.19a20.11,20.11,0,0,1-1.13,2.06h4.28v.94Zm3.42-4.12h6.06v-2h-6.06Zm1.08,3.18h3.61l-.48-.14a12.38,12.38,0,0,0,1.08-2.11h-4.47a8.07,8.07,0,0,1,1,2Z"/><path class="a" d="M1168.68,29.11a6.23,6.23,0,0,0-1-.89,10.44,10.44,0,0,0,3.95-3.54,15.82,15.82,0,0,0,2.13-5.39l.66.1a17.34,17.34,0,0,1-.2-1.92h-3.68V16.36h4.76a15.61,15.61,0,0,0,.92,5.58,11.92,11.92,0,0,0,5.31,6.22,4.22,4.22,0,0,0-.9.93,12.77,12.77,0,0,1-6-8.35,16.15,16.15,0,0,1-2.29,5A11.74,11.74,0,0,1,1168.68,29.11Z"/></g></g><path class="a" d="M1216,8h140a15,15,0,0,1,15,15h0a15,15,0,0,1-15,15H1216a15,15,0,0,1-15-15h0A15,15,0,0,1,1216,8Z"/><path class="g" d="M1360,32l-5-6c2.54-3.22,2-7-1-10a8.7,8.7,0,0,0-12,0,7.5,7.5,0,0,0-.4,10.6c.13.14.26.27.4.4,3,3,7.78,3.54,11,1l6,6c.37.37.62.37,1,0A1.94,1.94,0,0,0,1360,32Zm-7-6a6.36,6.36,0,1,1,0-9A6.43,6.43,0,0,1,1353,26Z"/><g class="d"><g class="d"><path class="g" d="M1221.79,19.24h-4V18.6h1.94a7.67,7.67,0,0,0-.58-1.14l.59-.28a10.38,10.38,0,0,1,.68,1.42h1.32Zm-.16,1.86h-3.47v-.67h3.47Zm0,1.95h-3.47v-.68h3.47Zm-.2,5.27h-.66v-.7H1219v1h-.64V24.36h3.1Zm-.66-1.35V25H1219v2Zm8.35-5h-7.07v-.6h3.25v-.95h-2.69v-.6h2.69v-.9h-3v-.59h3v-1h.66v1h2.9v.59H1226v.9h2.6v.6H1226v.95h3.16Zm-.8,5.65a1,1,0,0,1-.3.78c-.2.2-.86.27-2,.23l-.22-.66h1.44a.37.37,0,0,0,.26-.11.35.35,0,0,0,.12-.25V26.55h-4.19a6,6,0,0,1-.91,2.15l-.49-.44a5.77,5.77,0,0,0,.88-3.43v-2h5.39Zm-.68-1.69V25h-4.09a5.41,5.41,0,0,1,0,1Zm0-1.58v-.94h-4.08v.94Z"/><path class="g" d="M1235.38,26.91h-1.9v1.78h-.62V26.91h-2v-.65h2V25.11h-1.55v-5h1.55V19H1231v-.63h1.82v-1h.62v1h1.83V19h-1.83v1.14H1235v5h-1.55v1.15h1.9Zm-2.52-4.64V20.76h-.92v1.51Zm0,2.19V22.88h-.92v1.58Zm1.55-2.19V20.76h-.93v1.51Zm0,2.19V22.88h-.93v1.58Zm4.22,3.38c0,.56-.38.83-1.14.83a1.37,1.37,0,0,1-.36,0l-.25-.66a3,3,0,0,0,.55.05c.38,0,.57-.09.57-.28V26.15h-1.51a8.78,8.78,0,0,1-.71,2.51l-.57-.39a6.75,6.75,0,0,0,.72-3.2v-3.4h2.7Zm3.65-7.52-.38.6a9.23,9.23,0,0,1-3.06-2.64,11.9,11.9,0,0,1-3,2.59l-.48-.53a8.28,8.28,0,0,0,3.4-3.13l.67.22a1.55,1.55,0,0,1-.18.26A7.34,7.34,0,0,0,1242.28,20.32ZM1238,25.51V24.19h-1.41c0,.15,0,.59,0,1.32Zm0-2V22.32h-1.41v1.21Zm2.42-2.6h-3.3v-.67h3.3Zm1.28,6.89a.75.75,0,0,1-.26.65,2,2,0,0,1-1.06.19h-.6l-.26-.66c.22,0,.48,0,.79,0A1.88,1.88,0,0,0,1241,28c.06,0,.09-.11.09-.22V21.32h.65Zm-1.51-1.21h-.67V22h.67Z"/><path class="g" d="M1255.23,28.11l-.44.61a14.67,14.67,0,0,1-5-7.72,14.74,14.74,0,0,1-5.4,7.56l-.53-.53a12.11,12.11,0,0,0,2.28-2,13.09,13.09,0,0,0,1.7-2.35A14.41,14.41,0,0,0,1249,21a8.47,8.47,0,0,0,.47-1.72l-.07-1h-1.21v-.7h1.89A13.08,13.08,0,0,0,1255.23,28.11Z"/><path class="g" d="M1262,21h-3.83v7.63h-.67v-11h4.5Zm-.64-2v-.77h-3.19V19Zm0,1.41v-.8h-3.19v.8Zm1,4.12-.52.26-.19-.36-2.68.35-.17-.54a9.61,9.61,0,0,0,1.63-1.21l-1.48.2-.17-.52a6.5,6.5,0,0,0,1.7-1.54l.63.28a9.9,9.9,0,0,1-1.22,1.13l1.17-.17a4.54,4.54,0,0,0,.63-.62l.6.27a26.48,26.48,0,0,1-2.32,2.07l1.42-.2a2.53,2.53,0,0,0-.26-.4l.54-.23A7.35,7.35,0,0,1,1262.35,24.54Zm-.41,1.19a2.78,2.78,0,0,1-.52,1.87,3.07,3.07,0,0,1-1.7.87l-.42-.56c1.14-.23,1.79-.67,1.94-1.31h-2V25.06h.63v1h1.43a2.64,2.64,0,0,0,0-.45V25h.63Zm4.59-1.23-.51.33-.27-.42-3,.28-.14-.51a7.54,7.54,0,0,0,1.53-1.12l-1.49.14-.15-.48a4.94,4.94,0,0,0,1.65-1.52l.61.27a8.94,8.94,0,0,1-1.11,1.11l1.13-.12a5.38,5.38,0,0,0,.56-.53l.55.26a18,18,0,0,1-2.06,1.85l1.58-.13a1.81,1.81,0,0,0-.35-.44l.53-.29A9.08,9.08,0,0,1,1266.53,24.5Zm-.88,2.1h-2.12v1.79h-.63V25h.63v1h1.5v-1h.62Zm2,1.3a.72.72,0,0,1-.22.56.77.77,0,0,1-.52.21c-.68,0-1.09,0-1.23,0l-.28-.68a7.56,7.56,0,0,0,.83,0,2,2,0,0,0,.67-.06.23.23,0,0,0,.11-.22V21h-3.87v-3.4h4.51ZM1267,19v-.77h-3.18V19Zm0,1.41v-.8h-3.18v.8Z"/><path class="g" d="M1274.2,19.77l-.47.36a12.71,12.71,0,0,0-1.48-1.77,19,19,0,0,1-1.4,2.09h2.78V21h-1.25v1.53h1.46v.59h-1.46v4.08a13,13,0,0,0,1.41-.4l0,.61q-1.58.53-3.69,1l-.15-.62c.46-.08,1.07-.22,1.83-.43V23.16H1270v-.59h1.72V21h-1v-.49a5.51,5.51,0,0,1-.55.57l-.4-.5a12.75,12.75,0,0,0,2.3-3.4l.56.27a.6.6,0,0,1-.12.29A10.29,10.29,0,0,1,1274.2,19.77Zm-2.84,6.86-.62.15a10.84,10.84,0,0,0-.6-2.6l.6-.15A12.27,12.27,0,0,1,1271.36,26.63Zm2.43-2.5a14.76,14.76,0,0,1-.49,2.3l-.57-.18a14.85,14.85,0,0,0,.45-2.36Zm7.43,3.65-.21.65a15.51,15.51,0,0,1-3.82-.29,3.81,3.81,0,0,1-2-1.3A8.83,8.83,0,0,1,1274,28.7l-.51-.41a7.06,7.06,0,0,0,1.36-2.09,8.17,8.17,0,0,1-.72-2.74l.61-.09a6.26,6.26,0,0,0,.42,2,12.49,12.49,0,0,0,.49-3h-1.41v-.6a29.87,29.87,0,0,0,1.28-3.38H1274v-.61h2.14v.61a28.65,28.65,0,0,1-1.2,3.38h1.33a13.62,13.62,0,0,1-.76,4.55,3.47,3.47,0,0,0,1.51,1.21,7.34,7.34,0,0,0,2.7.39C1280.12,27.83,1280.63,27.82,1281.22,27.78Zm0-1.87h-2.34v1.27h-.65V25.91h-1.81v-.55h1.81V24.23h-1.52v-.6h1.52v-1h-1.48V22h1.48V20.77h-1.78v-.6h1.78V19h-1.48V18.4h1.48V17.32h.65V18.4h1.64v1.77h.69v.6h-.69v1.82h-1.64v1h2v.6h-2v1.13h2.34Zm-1.34-5.74V19h-1v1.22Zm0,1.85V20.77h-1V22Z"/><path class="g" d="M1294.21,24.92h-5.29v2.79a.85.85,0,0,1-.33.74,3.4,3.4,0,0,1-1.59.23l-.72,0-.25-.74a9.23,9.23,0,0,0,1,0,3,3,0,0,0,1-.08.31.31,0,0,0,.14-.27v-2.7h-5.31v-.69h5.31v-.85a28.94,28.94,0,0,0,2.69-1.73H1285V21h7v.68a26.94,26.94,0,0,1-3.09,2.08v.5h5.29Zm-.54-3.26H1293V19.29h-8.87v2.37h-.69V18.61h4.91a5,5,0,0,0-.66-1.05l.62-.33a9.31,9.31,0,0,1,.82,1.38h4.55Z"/></g></g><path class="h" d="M1565,91V69s0,.06,0,0c.3-1.29.66-2,2-2h31c1.54,0,3,.46,3,2,0,7,0,14,0,21a4.18,4.18,0,0,1,0,1,3.21,3.21,0,0,1-3,2h-1c.18,1.12.82,1.94,1,3a1.72,1.72,0,0,1-1,2,4,4,0,0,1-2,0c-1.21-.64-1.8-1.36-3-2a1,1,0,0,0-1,0c-1.14.61-2.85,1.4-4,2-.23.12.25-.07,0,0a1.64,1.64,0,0,1-2-1,3.35,3.35,0,0,1,0-1c.16-1,.82-1.9,1-3h-18a2.76,2.76,0,0,1-3-2S1565,91,1565,91Zm32,0c.07,0,0,0,0,0h1a.88.88,0,0,0,1-.74,1.13,1.13,0,0,0,0-.26V70a.91.91,0,0,0-.81-1,.61.61,0,0,0-.19,0h-30a.89.89,0,0,0-1,.76,1,1,0,0,0,0,.24V90h0c0,.26-.26,1,0,1s.87,0,1,0h17c.09,0,.91,0,1,0s0,.19,0,0c.1-.66-.09-1.34,0-2a2.8,2.8,0,0,0,0-1,7.09,7.09,0,0,1-1-5,6.43,6.43,0,0,1,7.24-5.5,6.33,6.33,0,0,1,1.76.5c3.82,1.68,5.46,6.62,3,10-.08.11-1-.12-1,0C1596.11,88.77,1596.88,90.25,1597,91Zm-6-2a5.49,5.49,0,0,0,5-5c0-2.4-2.6-4-5-4a3.76,3.76,0,0,0-4,3.51,4,4,0,0,0,0,.49C1587,86.41,1588.6,89,1591,89Zm4,6-1-5a6,6,0,0,1-6,0l-1,5c.15-.07.91,0,1,0,.68-.35,1.34-.61,2-1a2.52,2.52,0,0,1,3,0C1593.75,94.43,1594.15,94.55,1595,95Zm-1-20c.15,0,.85,0,1,0,.61-.07,1.17-.41,1-1s-1.29-1-2-1h-23c-.12,0-.88,0-1,0a1.15,1.15,0,0,0-1,1c0,.45.55.87,1,1a5.57,5.57,0,0,0,1,0h23Zm-24,4c-.52,0-.85-.43-1,0-.26.73.17,2,1,2,1.24,0,2.77,0,4,0h6a4.09,4.09,0,0,0,2-1,.87.87,0,0,0,0-1c-.2-.37-.57,0-1,0h-11Z"/><g class="d"><g class="d"><path class="i" d="M1558,110.56h-5v-1.27H1555a4.18,4.18,0,0,0-.52-1.14l1.36-.43a9.67,9.67,0,0,1,.62,1.57H1558Zm-.26,2.39h-4.29v-1.28h4.29Zm0,2.36h-4.29V114h4.29Zm0,6.27h-1.36v-.7h-1.6v1h-1.33v-5.49h4.29Zm-1.36-2v-1.94h-1.6v1.94Zm3.64-3a22.34,22.34,0,0,1-.87,4.41l-1.17-.71a22.16,22.16,0,0,0,.74-4Zm6.47-8.35c0,1.14,0,2.25-.1,3.34a14.72,14.72,0,0,1-.18,2,1.71,1.71,0,0,1-.32.61,1.36,1.36,0,0,1-.6.43,3.89,3.89,0,0,1-1.3.15l-.68,0-.54-1.3,1.58,0a.53.53,0,0,0,.53-.44,20.22,20.22,0,0,0,.19-3.38h-1.62a6.32,6.32,0,0,1-4.52,5.84l-.84-1.13a7.12,7.12,0,0,0,2.66-1.56,11.8,11.8,0,0,0-1.84-1.55l.89-1a11.61,11.61,0,0,1,1.71,1.46,6.56,6.56,0,0,0,.55-2.07h-3.53v-1.34ZM1565,118.63a6.34,6.34,0,0,1-.2,1.75,1.69,1.69,0,0,1-.66,1,3.07,3.07,0,0,1-1.55.29,5.17,5.17,0,0,1-1.29-.1,1.06,1.06,0,0,1-.54-.41,1.2,1.2,0,0,1-.22-.72v-4h1.36V120a.29.29,0,0,0,.12.24,1.56,1.56,0,0,0,.69.08.68.68,0,0,0,.88-.75,7,7,0,0,0,.1-1.32Zm-.88-1.93-1,.82a10.8,10.8,0,0,0-2.09-2l1-.89A10.64,10.64,0,0,1,1564.14,116.7Zm3,3.25-1.26.57a28.06,28.06,0,0,0-1.27-3.93l1.2-.6A20.64,20.64,0,0,1,1567.17,120Z"/><path class="i" d="M1574.08,110.52h-4.93v-1.31h1.92c-.08-.17-.29-.57-.62-1.19l1.49-.41c.18.36.43.9.75,1.6h1.39Zm-.43,11h-1.38v-.69h-1.4v1h-1.39v-5.53h4.17Zm0-8.6h-4.14v-1.33h4.14Zm0,2.32h-4.16v-1.33h4.16Zm-1.41,4.28v-1.89h-1.4v1.89Zm11-6.19-.75,1.09a9.19,9.19,0,0,1-1.88-1.67v.87h-4.3v-.82a12.24,12.24,0,0,1-1.57,1.57l-.86-1.06a9.33,9.33,0,0,0,1.53-1.47,6.43,6.43,0,0,0-1.21-1l.92-.86a6.32,6.32,0,0,1,1,.79,6.47,6.47,0,0,0,.65-1.39h-2.19V108.1h3.52v1.27a12.27,12.27,0,0,1-1.47,2.93h3.67a9.64,9.64,0,0,1-1.78-4.29l1.23-.21a5.32,5.32,0,0,0,.19.83,6.25,6.25,0,0,0,.93-.75l.86.86a8,8,0,0,1-1.39,1.06c.07.15.15.34.24.56a5.77,5.77,0,0,0,1.58-1.13l.89.92a8.29,8.29,0,0,1-1.78,1.3A8.66,8.66,0,0,0,1583.27,113.29Zm-.39,8.34h-8.72v-1.3h2.19a7.09,7.09,0,0,0-.59-1.51l1-.59h-1.63v-3.76h6.65v3.76H1580l1.12.63q-.25.81-.51,1.47h2.27Zm-2.43-4.63v-1.3h-3.92V117Zm-.68,1.23h-2.7a19.54,19.54,0,0,1,.75,2.1h1.25A11.49,11.49,0,0,0,1579.77,118.23Z"/><path class="i" d="M1599.15,112.71l-.67,1.28a8.61,8.61,0,0,1-1.39-.4v6h-6.75l.68.8a21,21,0,0,1-5.32,1.54l-.69-1.29a18.84,18.84,0,0,0,4.37-1H1587v-6h3l-.61-.88a7.32,7.32,0,0,0,4.18-2.49l1.45.32a3.12,3.12,0,0,1-.35.54A12.9,12.9,0,0,0,1599.15,112.71Zm-9.36-.44h-4.66V111h4.66Zm-.14-2.55h-4.31v-1.28h4.31Zm6,5.54v-.56h-7.13v.56Zm0,1.63v-.59h-7.13v.59Zm0,1.67v-.63h-7.13v.63Zm3.22-8.66a19.42,19.42,0,0,1-1.4,1.79l-1.21-.72c.13-.16.42-.51.86-1.07h-5a13.36,13.36,0,0,1-1.41,1.41l-1.08-.93a9.76,9.76,0,0,0,2.38-2.72l1.31.44a1.62,1.62,0,0,1-.3.56h5.89Zm-1.94,3.66a12.63,12.63,0,0,1-3.13-1.54,8.21,8.21,0,0,1-2.6,1.54Zm2.12,7.21-.76,1.24a24.52,24.52,0,0,0-4.69-1l.74-1.2A20.38,20.38,0,0,1,1599.05,120.77Z"/><path class="i" d="M1606.27,110.48h-5.18V109.2h2a5,5,0,0,0-.51-1l1.41-.53a12.7,12.7,0,0,1,.7,1.53h1.54Zm-.35,2.38h-4.45v-1.28h4.45Zm0,2.34h-4.45v-1.27h4.45Zm0,6.23h-1.41v-.72h-1.68v1.1h-1.38v-5.54h4.47Zm-1.41-2v-1.81h-1.68v1.81Zm10.67-1.33a10.37,10.37,0,0,1-.43,2.28,3.11,3.11,0,0,1-.63,1.29,1,1,0,0,1-.69.26,1.09,1.09,0,0,1-.82-.36,5.39,5.39,0,0,1-.67-2.15,18.5,18.5,0,0,1-.31-3.2v-6.67h-2.17v4.31h1.72v1.38h-1.72v6.62h-1.37v-6.62h-1.49v-1.38h1.49v-4.31h-1.3v-1.35H1613v8.34a12.62,12.62,0,0,0,.52,3.59,13.73,13.73,0,0,0,.38-2.81Z"/></g></g><g class="d"><g class="d"><path class="i" d="M1361.74,117.83a36.85,36.85,0,0,1-4.33,2.53l-.42-1.28c.49-.24,1.07-.55,1.76-1v-3.82h-1.36V113h1.36v-3.09h-1.62v-1.31h4.41v1.31h-1.46V113h1.3v1.34h-1.3v3.06c.45-.28.94-.61,1.49-1Zm8.63-.67H1366a9.44,9.44,0,0,1-1.33,1.41v1.58c.66-.2,1.36-.44,2.08-.72l.18,1.27a18.86,18.86,0,0,1-3.48,1.11l-.39-1.08a.67.67,0,0,0,.3-.58v-.6a17.51,17.51,0,0,1-1.94,1l-.7-1.22a10.7,10.7,0,0,0,3.54-2.19h-2v-3h8.1Zm.68-3.75h-9.29v-1.16h9.29Zm-.43-1.85h-8.48V108.1h8.48Zm-6.07-1.17v-1.12h-1.07v1.12ZM1369,116v-.7h-5.32v.7Zm-2.07-5.63v-1.12h-1.09v1.12Zm4.31,10.37-.73,1.15a6.07,6.07,0,0,1-2.62-1.6,5.37,5.37,0,0,1-1.46-2.51l1.22-.31a3.77,3.77,0,0,0,.61,1.21,9.22,9.22,0,0,0,1.65-1.3l1,.88a10.64,10.64,0,0,1-1.78,1.36A6.3,6.3,0,0,0,1371.22,120.76Zm-2-10.37v-1.12h-1.06v1.12Z"/><path class="i" d="M1377.52,118.84a45.13,45.13,0,0,1-4.13,2l-.4-1.36c.69-.28,1.2-.49,1.53-.65V113.2h-1.32v-1.37h1.32v-4h1.39v4h1.14v1.37h-1.14v5l1.45-.75Zm9.67.47a6.07,6.07,0,0,1-.32,1.64,1.25,1.25,0,0,1-.58.68,4.57,4.57,0,0,1-1.64.18,3.13,3.13,0,0,1-1.41-.24.9.9,0,0,1-.44-.86V118h-1.53a4.09,4.09,0,0,1-1,2.66,5.71,5.71,0,0,1-3.11,1.38l-.68-1.26a5.05,5.05,0,0,0,2.57-.87,2.67,2.67,0,0,0,.87-1.91h-1.83v-4.87h8.29V118h-2.17v2.18c0,.27.14.41.43.41.52,0,.85-.08,1-.23a3.3,3.3,0,0,0,.27-1.45Zm-.28-6.92h-9.4v-1.18h2.22a10.38,10.38,0,0,0-.56-1.15h-1.12v-1.25h3.37a6.55,6.55,0,0,0-.33-.85l1.52-.27a4.57,4.57,0,0,1,.4,1.12h3.36v1.25h-1.12a8.47,8.47,0,0,1-.55,1.15h2.21Zm-2,2.58v-.67h-5.42V115Zm0,1.76V116h-5.42v.71Zm-1.31-6.67h-2.84a6.54,6.54,0,0,1,.55,1.15H1383A5.91,5.91,0,0,0,1383.62,110.06Z"/><path class="i" d="M1393.76,110.59h-4.67v-1.27h1.78a10.4,10.4,0,0,0-.47-1.3l1.36-.36.59,1.66h1.41Zm-.38,2.36h-3.9V111.7h3.9Zm0,2.34h-3.9V114h3.9Zm0,6.24h-1.33v-.64h-1.25v1h-1.35v-5.49h3.93Zm-1.33-2v-1.87h-1.25v1.87Zm11-.38h-1v1.3a1.16,1.16,0,0,1-.42,1,2.71,2.71,0,0,1-1.4.27l-.9,0-.41-1.32h1.45c.23,0,.35-.11.35-.33v-.94h-4.64v2.63h-1.33v-2.63h-.73V118.1h.73v-3.65h3v-.89h-3.92v-1.14h2.1v-.73h-1.38V110.6h1.38v-.72h-1.7v-1.15h1.7v-.9h1.29v.9h2.34v-.9h1.33v.87h2v1.15h-2v.75h1.44v1.09h-1.44v.73H1403v1.14h-3.9v.89h3v3.65h1Zm-5.29-2.9v-.72h-1.65v.72Zm0,1.82v-.78h-1.65v.78Zm1.81-7.5v-.72h-2.34v.72Zm0,1.82v-.73h-2.34v.73Zm1.18,3.86v-.73h-1.66v.73Zm0,1.82v-.78h-1.66v.78Z"/><path class="i" d="M1409.59,112.42a40.11,40.11,0,0,1-4,2l-.56-1.18a34.47,34.47,0,0,0,4.18-2.06Zm1.88.66a1.37,1.37,0,0,1-.28.92,1.08,1.08,0,0,1-.65.4,7.79,7.79,0,0,1-1.32.07l-.47-1.26.84,0c.32,0,.49-.15.49-.46V109.4h-4.77v-1.27h6.16Zm-2.86-2.48-.81,1a9.5,9.5,0,0,0-2.26-.87l.83-1.06A9.55,9.55,0,0,1,1408.61,110.6Zm8.93,11.21h-1.42v-.63H1408v.63h-1.39V115.2H1411a6.38,6.38,0,0,0,.61-1.08l1.51.24a4.19,4.19,0,0,1-.43.84h4.84Zm-1.42-4.2v-1.13H1408v1.13Zm0,2.34v-1.18H1408V120Zm.49-7.56a26,26,0,0,1-3.86,1.59l-.57-1.14c1.37-.47,2.72-1,4-1.61Zm1.88.43a1.83,1.83,0,0,1-.3,1.16,1.14,1.14,0,0,1-.67.44,11.55,11.55,0,0,1-1.5.06l-.48-1.25,1,0a.58.58,0,0,0,.34-.14.41.41,0,0,0,.18-.31V109.4h-4.72v-1.27h6.11Zm-3.22-2.09-.9,1a8.71,8.71,0,0,0-1.91-1l.85-1A7.32,7.32,0,0,1,1415.27,110.73Z"/></g></g><path class="h" d="M1372,96c.06-.09-.07.07,0,0a5,5,0,0,1,7,0h4c.06-.09-.07.07,0,0a5,5,0,0,1,7,0h1c-.35-.64-.41-.6-1-1-.41-.28-1.56-.75-2-1,0,0,0,0,0,0s.94.06,1,0c.47-.45-.06-1.37,0-2a8.36,8.36,0,0,0,0-2,3.24,3.24,0,0,0-3-3,3.31,3.31,0,0,0-3,3c0,.67,0,1.33,0,2a2.1,2.1,0,0,0,1,2s0-.06,0,0c-1.12.42-1.24,1-2,2V85h21c.6,0,1,.58,1,0V67a1,1,0,0,0-1-1h-26a1,1,0,0,0-1,1v0c0,1.8,0,3.2,0,5,0,.29.29.9,0,1a2.54,2.54,0,0,0-2,2c-.33,1.53-1.12,2.69,0,4,0,0,0,0,0,0h0a3.93,3.93,0,0,0-4,3.87V89a3.11,3.11,0,0,0,2,3c.12,0,0-.12,0,0a4.9,4.9,0,0,0,1,2c.06,0,.94-.07,1,0-.25.12-.78.88-1,1-.85.47-1.5.14-2,1Zm10-12V83h0c1.5,0,2.5,0,4,0,.44,0,.71.37,1,0,1-1.36,2.94-2.67,4-4,.38-.48.17-1.35,0-2-.12-.46-.6-.77-1-1-.23-.14,0-.76,0-1,0-2.12,0-3.88,0-6h0c0-.4.31-1,0-1s-1,.6-1,1v7a2.66,2.66,0,0,0-2,1c-.57.68-1.42,1.32-2,2-.09.1.13,0,0,0-1.73,0-3.27,0-5,0h0s0,0,0,0c1.09-1.27.31-2.52,0-4s-.56-2.71-2-3c-.11,0-.89,0-1,0V67h26V84Zm-4,10s0,0,0,0c1.35-1.19,1.33-2.48,1-4a3.25,3.25,0,0,0-5-2c-.08.06-.86-.1-1,0h0V83c0-.09,0,.09,0,0,0-.32.28,0,0,0s-1-.3-1,0c0,.1,0-.1,0,0v8h0c-.59-.12-1-.36-1-1,0-2.27,0-4.74,0-7a3.53,3.53,0,0,1,3-3c2.26,0,4.74,0,7,0,1.43,0,2.57,0,4,0,.46,0,.7.4,1,0,.68-.89,1.28-2.15,2-3,.29-.34.51,0,1,0,.32,0,.85-.29,1,0a1,1,0,0,1,0,1c-.8,1-1.2,2-2,3-.26.32-.76.67-1,1s-.75,0-1,0c-1.66,0-3.34,0-5,0a.93.93,0,0,0-1,.85V96h0C1379.21,95.06,1379.1,94.43,1378,94Zm-3-19c.27-1.17.79-2.15,2-2s2,1.82,2,3c0,.58.11.44,0,1-.24,1.19-.78,2.13-2,2a2,2,0,0,1-2-2V76h-1C1374,75.62,1374.91,75.36,1375,75Zm3,17a3.29,3.29,0,0,1-3,2,2.2,2.2,0,0,1-2-2c0-.55.9-1.47,1-2,.21-1.09.89-2.12,2-2s2,1.91,2,3h0A5.57,5.57,0,0,1,1378,92Zm10,0c-.22,1.14-.85,2.11-2,2a2.06,2.06,0,0,1-2-2,13.35,13.35,0,0,1,0-2,3.18,3.18,0,0,1,3-2c1,.13,1,1.93,1,3h0A8.34,8.34,0,0,1,1388,92Zm6,4c.06-.09-.07.07,0,0a5,5,0,0,1,7,0h1a7.27,7.27,0,0,0-1-1c-.55-.44-1.39-.6-2-1,0,0,0,0,0,0h0a3.74,3.74,0,0,0,1-2,8.36,8.36,0,0,0,0-2,3.28,3.28,0,0,0-3-3,3.32,3.32,0,0,0-3,3,5.57,5.57,0,0,0,0,1,3.94,3.94,0,0,0,1,3s0,0,0,0c-.22.11-.8.89-1,1-.88.47-1.48.13-2,1Zm5-4c-.25,1-.92,2.14-2,2a2.2,2.2,0,0,1-2-2,11.13,11.13,0,0,1,0-2c.22-1.07.91-2.14,2-2s2,1.93,2,3h0A5.57,5.57,0,0,1,1399,92Z"/><g class="d"><g class="d"><path class="i" d="M1457.1,118.34a15.75,15.75,0,0,1-.89,3.51l-1.25-.54a14.28,14.28,0,0,0,.9-3.33Zm3.81-1.34-1.18.4c-.06-.26-.12-.53-.21-.81a40.16,40.16,0,0,1-4,1l-.47-1.12a12.8,12.8,0,0,0,2.9-3.35,19.3,19.3,0,0,1-2.48.44l-.27-1.12a15.72,15.72,0,0,0,2.67-4.69l1.28.58a19.55,19.55,0,0,1-1.92,3.6,11.77,11.77,0,0,0,1.62-.38,8.33,8.33,0,0,0,.72-1.43l1.28.62a22.15,22.15,0,0,1-3.36,5.06,11.63,11.63,0,0,0,1.55-.43,2.54,2.54,0,0,0-.19-.57l1.19-.38A13.08,13.08,0,0,1,1460.91,117Zm-1.69,4.23-1.3.36a18.92,18.92,0,0,0-.48-3.25l1.23-.36A21,21,0,0,1,1459.22,121.23Zm2-.76-1.15.47a13.59,13.59,0,0,0-.74-2.72l1.14-.44A21.24,21.24,0,0,1,1461.2,120.47Zm8.1-5.23-.69,1.27a20.53,20.53,0,0,1-3.63-2,15.66,15.66,0,0,1-3.53,1.93l-.62-1.24a14.38,14.38,0,0,0,3-1.54,9,9,0,0,1-1.4-1.65,11.25,11.25,0,0,1-1.07,1.16l-.83-1.11a14.79,14.79,0,0,0,3.18-4.37l1.3.4a9.1,9.1,0,0,1-.58,1.17h3.88v1.31a15.18,15.18,0,0,1-2.31,3A15,15,0,0,0,1469.3,115.24Zm-1.18,5.39-.65,1.27a22.56,22.56,0,0,0-5.44-2l.56-1.26A25.52,25.52,0,0,1,1468.12,120.63Zm-.35-3-.52,1.25a23.58,23.58,0,0,0-4.42-1.53l.55-1.23A26,26,0,0,1,1467.77,117.63Zm-1-7h-3.15a4,4,0,0,1-.26.34,6.54,6.54,0,0,0,1.6,1.88A12.85,12.85,0,0,0,1466.77,110.6Z"/><path class="i" d="M1485.12,114.25a18.81,18.81,0,0,1-2.11,2v3.87a1.52,1.52,0,0,1-.38,1.12,1.73,1.73,0,0,1-1,.46c-.44,0-1.38.08-2.82.08l-.4-1.33c.46,0,.93,0,1.4,0a7.13,7.13,0,0,0,1.6-.09.36.36,0,0,0,.19-.35v-2.75a34.53,34.53,0,0,1-9.89,4.34l-.7-1.25a47.18,47.18,0,0,0,9.26-3.54q-4,.45-8.77.75l-.37-1.36,1.67,0v-7.13h2a6.6,6.6,0,0,0,1-1.42l1.53.32a7.06,7.06,0,0,1-.75,1.1H1483v5.46a9.64,9.64,0,0,0,1.29-1.28Zm-3.55-2.91v-1h-7.34v1Zm0,2.19v-1.06h-7.34v1.06Zm0,1.93v-.78h-7.34v1.45C1476.62,116,1479.06,115.78,1481.57,115.46Z"/><path class="i" d="M1501,119.4h-6.14v1a1.3,1.3,0,0,1-.25.85,1.23,1.23,0,0,1-.62.43,6.3,6.3,0,0,1-1.43.11l-1.1,0-.46-1.3,2.11,0c.19,0,.29-.09.29-.27v-.8h-6.34v-1.13h6.34v-.69a14.26,14.26,0,0,0,2.21-.63h-5.94v-1h8.52v1a23.84,23.84,0,0,1-3.33,1.22v.1H1501Zm-.24-2.35h-1.35v-1.82h-10.7V117h-1.42V114.1h1l-.29-5.74a11.13,11.13,0,0,0,3.12-.61l.65,1.11a12.49,12.49,0,0,1-2.36.49l0,.85h2.09v1h-2l0,.91h2v1h-1.94l.05.92h8.81l0-.92h-2.15v-1h2.21l0-.91h-2.25v-1h2.28l.05-.85h-2.44v-1.12h3.83l-.26,5.87h1Zm-4.86-8.83a5.24,5.24,0,0,1-1,1c.26.23.5.47.72.7l-.86.75a5.88,5.88,0,0,0-.79-.79,11.65,11.65,0,0,1-1.62.81l-.67-.9a7.27,7.27,0,0,0,1.36-.64c-.15-.13-.44-.35-.89-.66l.78-.78,1.07.77a5.26,5.26,0,0,0,.83-.75Zm.07,5-.85.73a8.07,8.07,0,0,0-1.08-1,15,15,0,0,1-1.64.9l-.65-.89a11.27,11.27,0,0,0,1.37-.73,6,6,0,0,0-1.05-.72l.77-.79c.28.17.7.45,1.24.85a7.17,7.17,0,0,0,.9-.85l1,.58a11.11,11.11,0,0,1-1,1A10.39,10.39,0,0,1,1496,113.26Z"/><path class="i" d="M1507.59,112.42a40.11,40.11,0,0,1-4,2l-.56-1.18a34.47,34.47,0,0,0,4.18-2.06Zm1.88.66a1.37,1.37,0,0,1-.28.92,1.08,1.08,0,0,1-.65.4,7.79,7.79,0,0,1-1.32.07l-.47-1.26.84,0c.32,0,.49-.15.49-.46V109.4h-4.77v-1.27h6.16Zm-2.86-2.48-.81,1a9.5,9.5,0,0,0-2.26-.87l.83-1.06A9.55,9.55,0,0,1,1506.61,110.6Zm8.93,11.21h-1.42v-.63H1506v.63h-1.39V115.2H1509a6.38,6.38,0,0,0,.61-1.08l1.51.24a4.19,4.19,0,0,1-.43.84h4.84Zm-1.42-4.2v-1.13H1506v1.13Zm0,2.34v-1.18H1506V120Zm.49-7.56a26,26,0,0,1-3.86,1.59l-.57-1.14c1.37-.47,2.72-1,4-1.61Zm1.88.43a1.83,1.83,0,0,1-.3,1.16,1.14,1.14,0,0,1-.67.44,11.55,11.55,0,0,1-1.5.06l-.48-1.25,1,0a.58.58,0,0,0,.34-.14.41.41,0,0,0,.18-.31V109.4h-4.72v-1.27h6.11Zm-3.22-2.09-.9,1a8.71,8.71,0,0,0-1.91-1l.85-1A7.32,7.32,0,0,1,1513.27,110.73Z"/></g></g><path class="h" d="M1485,97c-.66-.17-1.35.21-2,0a59.91,59.91,0,0,1-7-3c-2.14-1-3.87-2-6-3h0c-.41-.21-1.16-.7-1-1s.59-.2,1,0c.82.4,2.18.6,3,1,3.28,1.59,6.58,2.72,10,4,.74.28,1.24.76,2,1a2.87,2.87,0,0,0,2,0,29.14,29.14,0,0,0,5-2c.18-.11-.23-.86,0-1-.83-.22-1.27.26-2,0a13.27,13.27,0,0,0-6-1c-.86.08-2.14.88-3,1-.43.06-1-.66-1-1s.6-.93,1-1a31.51,31.51,0,0,1,7,0,9.55,9.55,0,0,1,2,0c1.07.26,1.92.76,3,1,.56.12.63.51,1,0a2.2,2.2,0,0,0,0-2c-.14-.28.23-.79,0-1a6.26,6.26,0,0,0-2-1,17.24,17.24,0,0,0-4-1c-1.11-.13-1.9.16-3,0-.4-.06-1.64.21-2,0-2-1.19-3.7-2.5-6-3a15.53,15.53,0,0,0-5,0,16.68,16.68,0,0,0-2,0c-.4.09-.9-.68-1-1s.62.12,1,0c1-.3,2-1,3-1a19.59,19.59,0,0,1,10,3c.3.17.61.78,1,1-.07-.59.07-1.5,0-2a49,49,0,0,0-2-8c-.11-.37.14-.64,0-1,0-.09.09-1,0-1a4.64,4.64,0,0,1-3-1c-.84-.9-.75-1.83-1-3-.28-1.33-1-2.64-1-4,0-1.06,0-1.94,0-3,0-.2.85-.89,1-1s-.15-.09,0,0a5.91,5.91,0,0,1,1,1,31.56,31.56,0,0,1,4,5,6,6,0,0,1,1,4,4.36,4.36,0,0,1-1,2c-.09.08,0-.1,0,0,.5,1.84.49,4.16,1,6,0,0,0-.08,0,0,.29-.36.75-.65,1-1a3.35,3.35,0,0,0,0-1c-.36-.75-.92-1.16-1-2a5.55,5.55,0,0,1,1-3,7.87,7.87,0,0,1,1-1,11.81,11.81,0,0,1,6-3,35.91,35.91,0,0,1,7-1,13.35,13.35,0,0,1,2,0c.32,0-.07.62,0,1s.19-.23,0,0a14.93,14.93,0,0,0-1,2,58.21,58.21,0,0,1-5,7c-1.11,1.43-2.18,2.65-4,3s-3.57.46-5-1c0,0,.07,0,0,0-.64.78-1.17.89-1,2s-.19,2.79,0,4c0,.11.9,0,1,0,.9.11,1.09-.08,2,0a3.35,3.35,0,0,0,1,0c1.25-.66,2.75-1.35,4-2,.53-.28.43.2,1,0,.81-.29,2.36-.72,3,0,.54-.31.46-.69,1-1a7.26,7.26,0,0,1,3-1c.86,0,1.22.63,2,1a2.3,2.3,0,0,1,1,1h0c-.13.31.06.67,0,1-.1.52-.61.64-1,1-1,1-1.88,2.15-3,3-1.86,1.41-4.06,2.71-6,4s-3.89,3.11-6,4c-.73.31-1.25-.25-2,0Zm2-18a3.39,3.39,0,0,0,2,1,3.65,3.65,0,0,0,4-1,11.14,11.14,0,0,0,2-2c.93-1.43,2.14-2.53,3-4,.61-1,1.41-3,2-4,.07-.12-.12.17,0,0h-1a30.45,30.45,0,0,0-6,1,13,13,0,0,0-5,2,9.48,9.48,0,0,0-2,2,3.33,3.33,0,0,0,0,4c.1-.08-.1.07,0,0,.52-.39,1.47-1.63,2-2,.35-.24,1,.61,1,1,0,.19-.85-.13-1,0C1487.42,77.47,1487.62,78.53,1487,79Zm-5-6h0c.14-.31.93-.67,1-1,.21-1-.48-2.12-1-3a32.46,32.46,0,0,0-3-5s.14.1,0,0c0,.54,0,.55,0,1-.08,1.94-.66,4.14,0,6a4.6,4.6,0,0,0,2,2c.21.12-.23-.09,0,0-.09-.45.14-.64,0-1s-.31-.88,0-1,.85.65,1,1S1481.86,72.66,1482,73Zm14,18h0c.94-.7,2.07-1.29,3-2,.77-.59,1.27-1.37,2-2a7.87,7.87,0,0,0,1-1c.15-.17.92-.77,1-1a5.57,5.57,0,0,0-1,0,11.12,11.12,0,0,0-4,1c-1.16.73-1.84,1.29-3,2-.08,0,.09.94,0,1C1495.56,89.71,1496,90,1496,91Zm-3-4c.23.11-.19.88,0,1a1.33,1.33,0,0,0,1,0c1.27-.78,2.74-2.21,4-3a7.61,7.61,0,0,1,3-1c.49-.12,1.49.06,2,0h0c-.48-.09-1.52-1-2-1-1.06-.1-1.11.49-2,1a56,56,0,0,1-6,3Zm-2,0h0c.27,0-.23.1,0,0,1-.44,2-1.51,3-2,.47-.23,1.55.27,2,0h0c-.31,0-.72-.12-1,0-1,.43-2,.53-3,1C1491.57,86.21,1491.42,86.76,1491,87Z"/><g class="d"><g class="d"><path class="i" d="M1174,119.4h-6.14v1a1.3,1.3,0,0,1-.25.85,1.23,1.23,0,0,1-.62.43,6.3,6.3,0,0,1-1.43.11l-1.1,0-.46-1.3,2.11,0c.19,0,.29-.09.29-.27v-.8h-6.34v-1.13h6.34v-.69a14.26,14.26,0,0,0,2.21-.63h-5.94v-1h8.52v1a23.84,23.84,0,0,1-3.33,1.22v.1H1174Zm-.24-2.35h-1.35v-1.82h-10.7V117h-1.42V114.1h1l-.29-5.74a11.13,11.13,0,0,0,3.12-.61l.65,1.11a12.49,12.49,0,0,1-2.36.49l0,.85h2.09v1h-2l0,.91h2v1h-1.94l.05.92h8.81l0-.92h-2.15v-1h2.21l0-.91h-2.25v-1h2.28l.05-.85h-2.44v-1.12h3.83l-.26,5.87h1Zm-4.86-8.83a5.24,5.24,0,0,1-1,1c.26.23.5.47.72.7l-.86.75a5.88,5.88,0,0,0-.79-.79,11.65,11.65,0,0,1-1.62.81l-.67-.9a7.27,7.27,0,0,0,1.36-.64c-.15-.13-.44-.35-.89-.66l.78-.78,1.07.77a5.26,5.26,0,0,0,.83-.75Zm.07,5-.85.73a8.07,8.07,0,0,0-1.08-1,15,15,0,0,1-1.64.9l-.65-.89a11.27,11.27,0,0,0,1.37-.73,6,6,0,0,0-1.05-.72l.77-.79c.28.17.7.45,1.24.85a7.17,7.17,0,0,0,.9-.85l1,.58a11.11,11.11,0,0,1-1,1A10.39,10.39,0,0,1,1169,113.26Z"/><path class="i" d="M1180.59,112.42a40.11,40.11,0,0,1-4,2l-.56-1.18a34.47,34.47,0,0,0,4.18-2.06Zm1.88.66a1.37,1.37,0,0,1-.28.92,1.08,1.08,0,0,1-.65.4,7.79,7.79,0,0,1-1.32.07l-.47-1.26.84,0c.32,0,.49-.15.49-.46V109.4h-4.77v-1.27h6.16Zm-2.86-2.48-.81,1a9.5,9.5,0,0,0-2.26-.87l.83-1.06A9.55,9.55,0,0,1,1179.61,110.6Zm8.93,11.21h-1.42v-.63H1179v.63h-1.39V115.2H1182a6.38,6.38,0,0,0,.61-1.08l1.51.24a4.19,4.19,0,0,1-.43.84h4.84Zm-1.42-4.2v-1.13H1179v1.13Zm0,2.34v-1.18H1179V120Zm.49-7.56a26,26,0,0,1-3.86,1.59l-.57-1.14c1.37-.47,2.72-1,4-1.61Zm1.88.43a1.83,1.83,0,0,1-.3,1.16,1.14,1.14,0,0,1-.67.44,11.55,11.55,0,0,1-1.5.06l-.48-1.25,1,0a.58.58,0,0,0,.34-.14.41.41,0,0,0,.18-.31V109.4h-4.72v-1.27h6.11Zm-3.22-2.09-.9,1a8.71,8.71,0,0,0-1.91-1l.85-1A7.32,7.32,0,0,1,1186.27,110.73Z"/><path class="i" d="M1206.15,112.71l-.67,1.28a8.61,8.61,0,0,1-1.39-.4v6h-6.75l.68.8a21,21,0,0,1-5.32,1.54l-.69-1.29a18.84,18.84,0,0,0,4.37-1H1194v-6h3l-.61-.88a7.32,7.32,0,0,0,4.18-2.49l1.45.32a3.12,3.12,0,0,1-.35.54A12.9,12.9,0,0,0,1206.15,112.71Zm-9.36-.44h-4.66V111h4.66Zm-.14-2.55h-4.31v-1.28h4.31Zm6,5.54v-.56h-7.13v.56Zm0,1.63v-.59h-7.13v.59Zm0,1.67v-.63h-7.13v.63Zm3.22-8.66a19.42,19.42,0,0,1-1.4,1.79l-1.21-.72c.13-.16.42-.51.86-1.07h-5a13.36,13.36,0,0,1-1.41,1.41l-1.08-.93a9.76,9.76,0,0,0,2.38-2.72l1.31.44a1.62,1.62,0,0,1-.3.56h5.89Zm-1.94,3.66a12.63,12.63,0,0,1-3.13-1.54,8.21,8.21,0,0,1-2.6,1.54Zm2.12,7.21-.76,1.24a24.52,24.52,0,0,0-4.69-1l.74-1.2A20.38,20.38,0,0,1,1206.05,120.77Z"/><path class="i" d="M1211.09,116.54a30.88,30.88,0,0,1-1.82,5.23l-1.23-.88a30.29,30.29,0,0,0,1.77-5.23Zm.4-2.87-.92,1.21a10.37,10.37,0,0,0-2.5-1.91l.87-1.19A11.35,11.35,0,0,1,1211.49,113.67Zm.1-3.74-1,1.12a11,11,0,0,0-2.38-2.24l1-1.08A13.68,13.68,0,0,1,1211.59,109.93Zm10.4-.55h-3.48c-.12.36-.28.78-.49,1.25h3.5v5.91h-3v4.16a.91.91,0,0,1-.41.82,2.65,2.65,0,0,1-1.35.26c-.28,0-.55,0-.8,0l-.58-1.44c.37,0,.73,0,1.07,0s.5,0,.55-.08a.3.3,0,0,0,.09-.25v-3.48h-2.92v-5.91h2.12a10.49,10.49,0,0,0,.48-1.25h-3.44v5.44a14.59,14.59,0,0,1-1.58,7.08l-1.21-.81a14.36,14.36,0,0,0,1.37-6.41v-6.62h10Zm-5.63,8.39a13.71,13.71,0,0,1-2.19,3.44l-1.17-1a11.13,11.13,0,0,0,2-3.22Zm3.76-4.82v-1.1h-4.5V113Zm0,2.34v-1.14h-4.5v1.14Zm2.1,5-1.25.92a18.4,18.4,0,0,0-1.6-3.51l1.22-.7A16.53,16.53,0,0,1,1222.22,120.31Z"/></g></g><path class="h" d="M1174,71c.62-.14,1.38.13,2,0s1.24-.85,2-1V67c.65,0,1.38,0,2,0a22.19,22.19,0,0,1,9,2c.91.46,1.14,1.46,2,2a1.56,1.56,0,0,0,1,0,34.24,34.24,0,0,1,8-1,38.39,38.39,0,0,1,9,1h0V96c-.78-.18-1.23-.84-2-1a35.4,35.4,0,0,0-9-1,33,33,0,0,0-6,1,4.18,4.18,0,0,1-1,0,34.53,34.53,0,0,0-9-1c-2.82.08-5.29,1.23-8,2Zm19,22a33.37,33.37,0,0,1,14,0c0-.12,0,.08,0,0V73c0-.22.24,0,0,0-1.38-.2-2.62-.86-4-1a34.4,34.4,0,0,0-10,1c-.31.06,0-.31,0,0C1193,79.53,1193,86.47,1193,93Zm-2-1h0V73c0-.23-.8-.87-1-1a17.43,17.43,0,0,0-8-3c-.51-.07-1.47,0-2,0V89a27.77,27.77,0,0,1,6,1A20.83,20.83,0,0,1,1191,92Zm-15,1a43.08,43.08,0,0,1,10-1,22.61,22.61,0,0,0-8-1V72c-.57.11-.46.93-1,1-.34,0-1-.34-1,0C1176,79.52,1176,86.48,1176,93Zm21-17,9,6-9,6Zm5,6-3-2v4Z"/><g class="d"><g class="d"><path class="i" d="M970,108.25a16.16,16.16,0,0,1-5.13,7.1l-.91-1.22a13.41,13.41,0,0,0,4.62-6.36ZM977.16,121l-1.28.88a12.94,12.94,0,0,0-.9-1.79c-2.46.58-5.47,1.1-9,1.58l-.42-1.22q2.06-1.47,4.81-8.14l1.46.43a34.89,34.89,0,0,1-4,7.27,51.35,51.35,0,0,0,6.47-1.13,29.35,29.35,0,0,0-1.67-2.43l1.18-.76A29.77,29.77,0,0,1,977.16,121Zm1-6.83-.85,1.26a12.46,12.46,0,0,1-4.43-6.12h-1.3V108H974A11.19,11.19,0,0,0,978.2,114.2Z"/><path class="i" d="M994,114.6h-13.9v-1.29h6.25v-2.13h-3.46a9.27,9.27,0,0,1-1.82,1.71l-1.06-1a13,13,0,0,0,3.41-4l1.42.43c-.28.5-.59,1-.94,1.52h2.45v-2h1.43v2h5.38v1.33h-5.38v2.13H994Zm-1.67,7.21h-1.44v-.72H983.2v.72h-1.48v-5.75h10.56Zm-1.44-2.06v-2.38H983.2v2.38Z"/><path class="i" d="M1001.27,110.48h-5.18V109.2h2a5,5,0,0,0-.51-1l1.41-.53a12.7,12.7,0,0,1,.7,1.53h1.54Zm-.35,2.38h-4.45v-1.28h4.45Zm0,2.34h-4.45v-1.27h4.45Zm0,6.23h-1.41v-.72h-1.68v1.1h-1.38v-5.54h4.47Zm-1.41-2v-1.81h-1.68v1.81Zm10.67-1.33a10.37,10.37,0,0,1-.43,2.28,3.11,3.11,0,0,1-.63,1.29,1,1,0,0,1-.69.26,1.09,1.09,0,0,1-.82-.36,5.39,5.39,0,0,1-.67-2.15,18.5,18.5,0,0,1-.31-3.2v-6.67h-2.17v4.31h1.72v1.38h-1.72v6.62h-1.37v-6.62h-1.49v-1.38h1.49v-4.31h-1.3v-1.35H1008v8.34a12.62,12.62,0,0,0,.52,3.59,13.73,13.73,0,0,0,.38-2.81Z"/><path class="i" d="M1015.24,117.72a19,19,0,0,1-2.06,3.59l-1.19-.77a17.3,17.3,0,0,0,2-3.4Zm9.12-1h-10.58V109h3a7.41,7.41,0,0,0,.74-1.36l1.56.29a5.13,5.13,0,0,1-.58,1.07h5.85ZM1023,111.2v-1h-7.82v1Zm0,2.17v-1h-7.82v1Zm0,2.16v-1h-7.82v1Zm.2,3.92a2,2,0,0,1-2.23,2.21h-3.42a1.76,1.76,0,0,1-1.2-.41,1.46,1.46,0,0,1-.46-1.18v-2.73h1.4v2.53a.39.39,0,0,0,.22.39,2.63,2.63,0,0,0,1,.11l2.39,0a1,1,0,0,0,.57-.18c.19-.12.31-.55.37-1.28Zm-2-.56-1.23.75a13.66,13.66,0,0,0-1.62-2l1.17-.73A11.1,11.1,0,0,1,1021.16,118.89Zm5.07,1.73-1.25.69a14.86,14.86,0,0,0-2.21-3.36l1.24-.71A17.66,17.66,0,0,1,1026.23,120.62Z"/></g></g><path class="h" d="M1011,72V93c0,.06,0,.93,0,1-.36,2-1.94,3-4,3H981a5.57,5.57,0,0,1-1,0,3.85,3.85,0,0,1-3-4c0-5.83-1-12.17-1-18V68c0-.55.56-.66,1-1s.6,0,1,0h28c.54,0,.74-.48,1,0,.14.26,0,.7,0,1,0,.75,0,2.21,0,3h0c.64,0,1.36,0,2,0s1.79.29,2,1C1011,72.06,1011,71.94,1011,72Zm-4,0h0V92c0,.52.47-.11,1,0s0,.6,0,1,.37,1,0,1a5.57,5.57,0,0,1-1,0c-.89-.24-1-1-1-2V68H979a1.09,1.09,0,0,0-1,1V93a3,3,0,0,0,3,3h26c1.62,0,2-1.38,2-3V73c0-.1,0-.91,0-1s.06,0,0,0C1008.28,72,1007.77,72,1007,72Zm-21,3h4a.92.92,0,0,1,1,.83.48.48,0,0,1,0,.17v8a.92.92,0,0,1-.83,1H990c-2.54,0-5.46,0-8,0a.9.9,0,0,1-1-.79.74.74,0,0,1,0-.21V76a.88.88,0,0,1,.74-1,1.13,1.13,0,0,1,.26,0Zm-3,5c0,1,0,2,0,3,0,.26-.27,0,0,0,1.9,0,4.1,0,6,0,.25,0,0,.27,0,0,0-1.91,0-4.09,0-6,0-.26.24,0,0,0-1.91,0-4.09,0-6,0-.27,0,0-.25,0,0C983,77.93,983,79.07,983,80Zm-1-9c-.13,0,.13,0,0,0a1.48,1.48,0,0,0-1,1c0,.4.61.92,1,1,.15,0-.16,0,0,0h19a8.34,8.34,0,0,0,1,0c.32-.07,0-.68,0-1a1,1,0,0,0-1-1H982Zm0,20c-.16,0,.15,0,0,0-.33.07-1,.66-1,1s.46,0,1,0h6c.52,0,1.48,0,2,0s1,.43,1,0a1.06,1.06,0,0,0-1-1c-1.26,0-2.74,0-4,0Zm20,1c.36,0-.13.32,0,0s.27-.85,0-1-.76,0-1,0c-1.4,0-2.6,0-4,0h-3c-.13,0,.13,0,0,0-.43.08-1,.57-1,1s.58,0,1,0c1.31,0,2.69,0,4,0Zm-8-17a1.19,1.19,0,0,0-1,1,1.17,1.17,0,0,0,1,1c.11,0-.11,0,0,0h7c.17,0,.84,0,1,0,.33-.06,0-.67,0-1,0-.48.51-1,0-1-1.3,0-2.7,0-4,0S995.3,75,994,75Zm8,13c.5,0,0,.43,0,0s.51-1,0-1c-.1,0-.9,0-1,0h-7c-.17,0,.16,0,0,0a2,2,0,0,0-1,1c-.1.51.46,0,1,0,1.3,0,2.7,0,4,0Zm-16,0c1.18,0,2.82,0,4,0,.44,0,1,.41,1,0a1.19,1.19,0,0,0-1-1c-.11,0,.11,0,0,0h-8c-.13,0,.13,0,0,0-.41,0-1,.59-1,1s.51,0,1,0Zm13-7c1,0,2,0,3,0,.53,0,.07-.49,0-1s.48-1,0-1h-8c-.07,0,.07,0,0,0a1.52,1.52,0,0,0-1,1,1,1,0,0,0,1,1c1.29,0,2.71,0,4,0Zm-2,2c-1,0-2,0-3,0a1,1,0,0,0-1,1c0,.38.52,1,1,1h8c.07,0-.07,0,0,0,.36,0,0-.64,0-1s.54-1,0-1c-1.29,0-2.71,0-4,0Z"/><g class="d"><g class="d"><path class="i" d="M1065.59,113.8l-.86,1.15a17.27,17.27,0,0,0-2.77-2l.84-1.16A14.61,14.61,0,0,1,1065.59,113.8Zm.18,2.61a27.4,27.4,0,0,1-2.5,5.44l-1.2-.87a27.72,27.72,0,0,0,2.44-5.23Zm.19-6.24-1,1a19,19,0,0,0-2.75-2.47l1-1A16.44,16.44,0,0,1,1066,110.17Zm10,3.1h-4.42v2.22h3.64v6.31h-1.45V121H1068v.78h-1.45v-6.31h3.58v-2.22h-4.42V112h4.43v-2.12c-1.26.12-2.45.19-3.58.23l-.5-1.35a33.11,33.11,0,0,0,8.73-1l.72,1.17a25.9,25.9,0,0,1-3.93.81V112H1076Zm-2.23,6.37v-2.78H1068v2.78Z"/><path class="i" d="M1085.85,111.53h-3.09v.91h2.76v4.7h-2.76v.9h2.76v1.12h-2.76v1a27.55,27.55,0,0,0,2.83-.4l.07,1.14q-3.47.57-7.33,1l-.29-1.16,3.44-.35v-1.2h-2.8V118h2.8v-.9h-2.8v-4.7h2.8v-.91h-3.21v-1.17h3.21v-.91c-.7.08-1.53.15-2.51.21l-.35-1.12a40.77,40.77,0,0,0,6.5-.76l.55,1c-.76.17-1.73.34-2.91.5v1h3.09Zm-4.37,2.75v-.82H1080v.82Zm0,1.81v-.82H1080v.82Zm2.74-1.79v-.84h-1.46v.84Zm0,1.79v-.82h-1.46v.82Zm7.55-5.27c0,2.23-.06,4.38-.15,6.44a25.5,25.5,0,0,1-.28,3.58,1.23,1.23,0,0,1-.54.75,2.33,2.33,0,0,1-1.28.26,8.51,8.51,0,0,1-.86,0l-.39-1.36c.4,0,.72,0,1,0,.47,0,.74-.06.82-.18a18,18,0,0,0,.28-2.85c.11-1.79.14-3.57.11-5.32h-1.38a20.56,20.56,0,0,1-2.13,9.73l-1.23-.61a17.37,17.37,0,0,0,2-9.12h-1.39v-1.33h1.42c0-1.31,0-2.29,0-2.92h1.39c0,1,0,2,0,2.92Z"/><path class="i" d="M1108.15,112.71l-.67,1.28a8.61,8.61,0,0,1-1.39-.4v6h-6.75l.68.8a21,21,0,0,1-5.32,1.54l-.69-1.29a18.84,18.84,0,0,0,4.37-1H1096v-6h3l-.61-.88a7.32,7.32,0,0,0,4.18-2.49l1.45.32a3.12,3.12,0,0,1-.35.54A12.9,12.9,0,0,0,1108.15,112.71Zm-9.36-.44h-4.66V111h4.66Zm-.14-2.55h-4.31v-1.28h4.31Zm6,5.54v-.56h-7.13v.56Zm0,1.63v-.59h-7.13v.59Zm0,1.67v-.63h-7.13v.63Zm3.22-8.66a19.42,19.42,0,0,1-1.4,1.79l-1.21-.72c.13-.16.42-.51.86-1.07h-5a13.36,13.36,0,0,1-1.41,1.41l-1.08-.93a9.76,9.76,0,0,0,2.38-2.72l1.31.44a1.62,1.62,0,0,1-.3.56h5.89Zm-1.94,3.66a12.63,12.63,0,0,1-3.13-1.54,8.21,8.21,0,0,1-2.6,1.54Zm2.12,7.21-.76,1.24a24.52,24.52,0,0,0-4.69-1l.74-1.2A20.38,20.38,0,0,1,1108.05,120.77Z"/><path class="i" d="M1115.27,110.48h-5.18V109.2h2a5,5,0,0,0-.51-1l1.41-.53a12.7,12.7,0,0,1,.7,1.53h1.54Zm-.35,2.38h-4.45v-1.28h4.45Zm0,2.34h-4.45v-1.27h4.45Zm0,6.23h-1.41v-.72h-1.68v1.1h-1.38v-5.54h4.47Zm-1.41-2v-1.81h-1.68v1.81Zm10.67-1.33a10.37,10.37,0,0,1-.43,2.28,3.11,3.11,0,0,1-.63,1.29,1,1,0,0,1-.69.26,1.09,1.09,0,0,1-.82-.36,5.39,5.39,0,0,1-.67-2.15,18.5,18.5,0,0,1-.31-3.2v-6.67h-2.17v4.31h1.72v1.38h-1.72v6.62h-1.37v-6.62h-1.49v-1.38h1.49v-4.31h-1.3v-1.35H1122v8.34a12.62,12.62,0,0,0,.52,3.59,13.73,13.73,0,0,0,.38-2.81Z"/></g></g><path class="h" d="M1076,85c0-.25-.07.24,0,0a4.67,4.67,0,0,1,2-3c1.68-1,3.33-2,5-3,.18-.11-.14.17,0,0,.72-.9,1.29-2.09,2-3,2-2.59,5-5.41,7-8a1.73,1.73,0,0,1,2.38-.62,1.75,1.75,0,0,1,.62.62c.74,1.23,1.29,2.75,2,4,.12.22-.27,0,0,0,.61-.06,1.39.06,2,0,.45,0,.78.57,1,1s.64.5,1,1a1.94,1.94,0,0,1,0,2c-.33.46-.67.53-1,1a1.43,1.43,0,0,0,0,1c.67,1.14,1.36,1.84,2,3s.22,2.77-1,3c-1,.19-2-.19-3,0-3.07.6-5.94,1.4-9,2-.09,0-.86,0-1,0,.25.44.76,1.58,1,2s.5.7,0,1-1.49.7-2,1c.23.41.78.61,1,1,.43.75.6,1.23,1,2,.78,1.51.65,3.63-1,4-1.06.23-2.42-1-3-2-.73-1.25-1.29-1.75-2-3-.3-.52-.71-1.47-1-2-.1-.19-.8-.06-1,0-2.57.82-4.44-.36-5-3,0-.14,0-.86,0-1Zm15-15c-.11.13.07-.1,0,0-1.4,1.8-2.6,4.2-4,6-.83,1.06-2.17,2-3,3a1.43,1.43,0,0,0,0,1c1,1.8,3,3.19,4,5,.09.16-.19,0,0,0,3.2-.63,6.8-1.37,10-2,.41-.08.57.09,1,0Zm-8,10c-1.76,1-3.31,2-5,3-1.14.71-1.36,2.72-1,4,.57,2,3.12,2,5,1,1.47-.83,2.54-1.16,4-2,.18-.1.81.11,1,0Zm18,2c0-.07.07.13,0,0l-4-7c-1.2-2.1-1.8-3.92-3-6-.06-.1-.93.08-1,0-.23-.26.27-.2,0,0s-1.19-.34-1,0c1.2,2.11,2.79,4.9,4,7s2.7,3.76,4,6c0,.08-.08,1,0,1C1100.42,83.14,1101,82.53,1101,82Zm-18,7c0,.08,0,0,0,0,1.07,1.86,1.92,4.15,3,6a1.26,1.26,0,0,0,1.76.24A1.36,1.36,0,0,0,1088,95a2.14,2.14,0,0,0,0-2c-1-1.68-2-3.31-3-5,0-.09.07.11,0,0Zm16-13c.27-.44.77-.6,1-1,0,0,0,.06,0,0-.22-.4-.77-.61-1-1,0-.08.06-1,0-1-.44,0-.52,0-1,0Zm-11,12-1-1h-1l1,1Zm13-22a2.11,2.11,0,0,0-1,1c0,.14,0-.14,0,0-.16.57.14,1.43,0,2a.93.93,0,0,0,.83,1h.17c.27-.06-.07-.75,0-1,.19-.72.8-1.28,1-2C1102.15,66.44,1101.49,66.3,1101,66Zm3,6c1.12-.62,2.89-1.38,4-2,.4-.22.18-.67,0-1s-.61-.22-1,0c-.67.36-1.34.63-2,1-.48.26-.53.72-1,1-.28.16-1.1-.29-1,0s.64,1,1,1Zm-1,3c0,.29.7.92,1,1,.79.22,1.2-.21,2,0,.39.1.91.33,1,0s.4-.89,0-1c-.58-.16-1.42.15-2,0-.26-.07-.84,0-1,0C1103.58,75,1103.05,74.69,1103,75Zm-22,12c.38-.18.64.22,1,0s.17-.69,0-1-.63-.2-1,0-.68-.18-1,0-.71.35-1,0,.28-.2,0,0-1.24.66-1,1a2.69,2.69,0,0,0,2,1C1080.15,88,1080.73,87.13,1081,87Zm4-2a1.46,1.46,0,0,0-1-1,1.52,1.52,0,0,0-1,1,1.44,1.44,0,0,0,1,1A1.52,1.52,0,0,0,1085,85Z"/><g class="d"><g class="d"><path class="i" d="M1272.24,118.12h-5.43v3.66h-1.43v-3.66h-5.49v-8h5.49v-2.26h1.43v2.26h5.43Zm-6.86-4.69v-2h-4v2Zm0,3.36v-2.06h-4v2.06Zm5.4-3.36v-2h-4v2Zm0,3.36v-2.06h-4v2.06Z"/><path class="i" d="M1280.06,110.51h-4.94v-1.3H1277a7.38,7.38,0,0,0-.58-1.12l1.48-.43a12.22,12.22,0,0,1,.73,1.55h1.47Zm-.44,2.37h-4.15v-1.33h4.15Zm0,2.36h-4.15V113.9h4.15Zm0,6.24h-1.36v-.72h-1.38v1h-1.41v-5.54h4.15Zm-1.36-2v-1.85h-1.38v1.85Zm10,1c0,.91-.54,1.36-1.64,1.36l-.87,0-.48-1.3h1.27c.21,0,.32-.11.32-.34v-.8h-4.47a5.13,5.13,0,0,1-1.16,2.59l-1.16-.83a5.16,5.16,0,0,0,1.08-3.5v-3.18h7.11Zm.74-6.76h-8.77v-1.2h3.67v-.75h-3v-1.11h3V110h-3.39v-1.15h3.39v-1h1.39v1h3.39V110h-3.39v.7h3v1.11h-3v.75H1289Zm-2.14,4.55v-.81h-4.34a6.51,6.51,0,0,1,0,.81Zm0-1.91v-.75h-4.32v.75Z"/><path class="i" d="M1296.08,118.09a26,26,0,0,1-4.77,2.13l-.36-1.36a14.73,14.73,0,0,0,1.93-.71V110.1h-1.68v-1.37h4.5v1.37h-1.43v7.43c.65-.32,1.2-.61,1.65-.88Zm8.94-8.66h-3.83c-.14.45-.3.9-.49,1.36h3.56v8.07h-5.21l.72.78a24.81,24.81,0,0,1-4.32,2.32l-.92-1.15a17.31,17.31,0,0,0,3.9-2h-1.79v-8.07h2.59a9.68,9.68,0,0,0,.53-1.36h-3.5v-1.3H1305Zm-2.17,3.66V112h-4.79v1.07Zm0,2.23v-1.07h-4.79v1.07Zm0,2.27v-1.08h-4.79v1.08Zm2.35,3.17-.86,1.12a20,20,0,0,0-3.73-1.61l.83-1.19A20.65,20.65,0,0,1,1305.2,120.76Z"/><path class="i" d="M1319.54,121.72h-1.46v-.78H1310v.78h-1.46V108.23h11Zm-1.46-9.71v-2.42H1310V112Zm0,3.76v-2.45H1310v2.45Zm0,3.82v-2.53H1310v2.53Z"/></g></g><path class="h" d="M1301,94V81h2V96h-28V68h15v2h-12V94Zm-1-28c-1.37,1.38-2.63,2.62-4,4-2.82,2.83-5.19,6.16-8,9-.11.11,0-.15,0,0,0,1.29,0,2.71,0,4,0,.1,0-.13,0,0h0c1.24,0,2.76,0,4,0,.26,0-.18.19,0,0,3.35-3.38,6.65-6.63,10-10,.82-.82,2.18-1.18,3-2,.08-.08-.06-.94,0-1l-4-4C1300.92,66.1,1300.08,65.91,1300,66Zm-10,14c0-.12-.1.1,0,0,1.77-1.78,3.23-4.22,5-6s3.3-3.28,5-5c.09-.09-.06.08,0,0l2,1s.08.92,0,1c-.84.84-2.16,1.15-3,2-2.64,2.66-5.37,5.34-8,8-.19.19.26,0,0,0s-.58,0-1,0C1290,80.5,1290,80.46,1290,80Zm1,9h-10v2h10Z"/><g class="d"><g class="d"><path class="a" d="M1387.16,22.06H1386v.54a.47.47,0,0,0,.08.26.24.24,0,0,0,.19.1h.89v.56h-1a.67.67,0,0,1-.77-.75v-.71h-1.26a3,3,0,0,1-2,2l-.33-.49a2.6,2.6,0,0,0,1.76-1.47H1382v-.55h2.36v-1h-2.07V20h2.07v-.83h.63V20h2v.55h-2v1h2.22Zm-3.1,5.42a13.17,13.17,0,0,1-1.73,2.18l-.49-.44a9.77,9.77,0,0,0,1.69-2.08Zm3-1.37c-1.45.26-3.13.49-5,.69l-.07-.58c.69,0,1.48-.13,2.36-.26V24.82h-1.95v-.56h1.95V23.15h.61v1.11h1.82v.56h-1.82v1.05c.7-.09,1.4-.19,2.08-.33Zm-.75,3.38-.6.13a11.37,11.37,0,0,0-.56-2.19l.58-.17A10.53,10.53,0,0,1,1386.31,29.49Zm6-5a6,6,0,0,1-.38,1.74.61.61,0,0,1-1.17,0,5.41,5.41,0,0,1-.22-2V21.41h-1.16a19.71,19.71,0,0,1-.19,2.7c.32.47.63.95.92,1.46l-.48.39c-.23-.41-.45-.77-.67-1.09a7.26,7.26,0,0,1-1.21,2l-.55-.33a5.5,5.5,0,0,0,1.32-2.26,13.8,13.8,0,0,0-1.12-1.43l.44-.4c.26.29.54.62.83,1a14.52,14.52,0,0,0,.11-2h-1.23v-.58h1.23V19.14h.6v1.69h1.77v3.36a9.4,9.4,0,0,0,0,1.16,1.72,1.72,0,0,0,.09.51.1.1,0,0,0,.07.06s.1-.13.18-.38a8.51,8.51,0,0,0,.2-1.32Zm-3.06,5-.59.17a15.31,15.31,0,0,0-.9-2.23l.56-.19A17.32,17.32,0,0,1,1389.27,29.47Zm3-.11-.56.28a14.25,14.25,0,0,0-1.35-2.25l.58-.3A14.53,14.53,0,0,1,1392.24,29.36Z"/><path class="a" d="M1398.45,24.17H1395V29.6h-.67V19.46h4.17Zm-.64-2.69V20.07H1395v1.41Zm0,2.05V22.07H1395v1.46Zm6,5.1a1.06,1.06,0,0,1-.18.66.87.87,0,0,1-.42.29,4.85,4.85,0,0,1-1,.06l-.89,0-.25-.67a9.83,9.83,0,0,0,1,0,3.32,3.32,0,0,0,1-.07.25.25,0,0,0,.14-.24V24.17h-3.5V19.46h4.12Zm-.62-7.15V20.07h-2.89v1.41Zm0,2.05V22.07h-2.89v1.46Z"/><path class="a" d="M1410.5,22.57H1407v7h-.62V19.43h4.16Zm-.6-1.87V20H1407v.71Zm0,1.3v-.74H1407V22Zm1,3.81-.49.24-.17-.34-2.47.33-.16-.5a8.86,8.86,0,0,0,1.5-1.12l-1.37.19-.16-.48a6.08,6.08,0,0,0,1.58-1.43l.58.26a9.13,9.13,0,0,1-1.12,1.05l1.07-.16a4.4,4.4,0,0,0,.58-.57l.55.25a23.38,23.38,0,0,1-2.14,1.91l1.32-.18a3,3,0,0,0-.24-.37l.49-.22A7,7,0,0,1,1410.87,25.81Zm-.39,1.09a2.59,2.59,0,0,1-.47,1.73,2.84,2.84,0,0,1-1.58.8l-.38-.51c1-.22,1.65-.62,1.78-1.22H1408V26.29h.57v.88h1.32a2.46,2.46,0,0,0,0-.43V26.2h.58Zm4.24-1.13-.47.3-.25-.38-2.82.25-.12-.47a6.32,6.32,0,0,0,1.4-1l-1.37.13-.14-.44a4.52,4.52,0,0,0,1.53-1.41l.56.26a8.17,8.17,0,0,1-1,1l1-.11c.1-.08.27-.25.52-.49l.5.24a17,17,0,0,1-1.9,1.71l1.46-.13a1.39,1.39,0,0,0-.33-.4l.5-.27A9,9,0,0,1,1414.72,25.77Zm-.81,1.93h-2v1.66h-.58V26.2h.58v1h1.39v-.88h.57Zm1.83,1.21a.68.68,0,0,1-.69.71c-.62,0-1,0-1.13,0l-.27-.62.77,0A2.15,2.15,0,0,0,1415,29a.22.22,0,0,0,.1-.21V22.57h-3.57V19.43h4.17Zm-.6-8.21V20h-2.93v.71Zm0,1.3v-.74h-2.93V22Z"/><path class="a" d="M1421.8,21.41l-.43.33a10.21,10.21,0,0,0-1.37-1.63,16.91,16.91,0,0,1-1.29,1.92h2.56v.55h-1.15V24h1.34v.56h-1.34V28.3a12.62,12.62,0,0,0,1.3-.37l0,.57c-1,.32-2.1.63-3.41.93l-.13-.56c.43-.08,1-.21,1.69-.41V24.54H1418V24h1.59v-1.4h-.91v-.46a3.83,3.83,0,0,1-.5.53l-.37-.46a11.85,11.85,0,0,0,2.12-3.14l.52.25a.62.62,0,0,1-.11.27A9.62,9.62,0,0,1,1421.8,21.41Zm-2.63,6.33-.56.13a10.5,10.5,0,0,0-.56-2.4l.56-.13A10.62,10.62,0,0,1,1419.17,27.74Zm2.25-2.31a13.6,13.6,0,0,1-.45,2.12l-.52-.17a14.33,14.33,0,0,0,.41-2.17Zm6.86,3.36-.19.61a13.92,13.92,0,0,1-3.53-.27,3.56,3.56,0,0,1-1.81-1.2,8.29,8.29,0,0,1-1.16,1.72l-.46-.39a6.38,6.38,0,0,0,1.25-1.92,7.46,7.46,0,0,1-.66-2.53l.56-.08a5.94,5.94,0,0,0,.39,1.81,11.52,11.52,0,0,0,.45-2.82h-1.3v-.55a28.38,28.38,0,0,0,1.18-3.12h-1.39v-.57h2v.57a29.61,29.61,0,0,1-1.12,3.12h1.23a12.93,12.93,0,0,1-.7,4.2,3.16,3.16,0,0,0,1.39,1.11,6.52,6.52,0,0,0,2.49.37C1427.27,28.85,1427.73,28.83,1428.28,28.79Zm0-1.72h-2.16v1.17h-.6V27.07h-1.67v-.51h1.67v-1h-1.4V25h1.4V24h-1.37v-.53h1.37V22.33h-1.64v-.55h1.64V20.65h-1.37v-.52h1.37v-1h.6v1h1.51v1.65h.64v.55h-.64V24h-1.51v1h1.81v.55h-1.81v1h2.16ZM1427,21.78V20.65h-.93v1.13Zm0,1.7V22.33h-.93v1.15Z"/><path class="a" d="M1440.27,26.16h-4.88v2.58a.75.75,0,0,1-.31.67,3,3,0,0,1-1.47.22l-.66,0-.23-.68c.32,0,.65.05,1,.05a2.78,2.78,0,0,0,.9-.08.28.28,0,0,0,.13-.25V26.16h-4.89v-.64h4.89v-.78a27,27,0,0,0,2.49-1.61h-5.45v-.62h6.48v.62a24.06,24.06,0,0,1-2.85,1.93v.46h4.88Zm-.49-3h-.64V21H1431v2.19h-.64V20.33h4.53a4.8,4.8,0,0,0-.61-1l.58-.3a8.32,8.32,0,0,1,.75,1.27h4.21Z"/><path class="a" d="M1447,22.38a.68.68,0,0,1,.49,1.16.66.66,0,0,1-.49.19.65.65,0,0,1-.48-.19.68.68,0,0,1,.48-1.16Zm0,5.4a.66.66,0,0,1,.49.19.68.68,0,0,1,.2.49.66.66,0,0,1-.2.48.62.62,0,0,1-.49.21.68.68,0,0,1-.68-.69.63.63,0,0,1,.2-.49A.65.65,0,0,1,1447,27.78Z"/></g><path class="a" d="M1459.85,19.87a15.38,15.38,0,0,1-1.68,2.33h1.3v.58h-1.86c-.44.46-.84.84-1.21,1.16h2.31v.54a20.68,20.68,0,0,1-1.56,1.41v.59c.72-.12,1.44-.27,2.16-.44l0,.62c-.67.16-1.38.3-2.14.43v1.65a.87.87,0,0,1-.22.62,1.55,1.55,0,0,1-1,.23l-.62,0-.2-.63c.22,0,.47,0,.77,0a1.36,1.36,0,0,0,.61-.08.29.29,0,0,0,.11-.27v-1.4c-1,.17-1.9.29-2.56.37l-.15-.57c1-.14,1.93-.28,2.71-.42v-.95c.42-.35.84-.73,1.24-1.13h-2.19q-.77.57-1.44,1l-.41-.52a15.17,15.17,0,0,0,3-2.2H1454V22.2h2.2V20.83h-1.84v-.57h1.84V19.1h.61v1.16h1.41v.57h-1.41V22.2h.59a12.75,12.75,0,0,0,1.92-2.62Zm4.51,9.21-.38.57a9,9,0,0,1-2.28-2,11,11,0,0,1-2.64,2l-.41-.55a9.07,9.07,0,0,0,2.7-2,10.73,10.73,0,0,1-1-3.07l.6-.22a9.6,9.6,0,0,0,.83,2.76,8.4,8.4,0,0,0,1.15-4.91h-1.82a13.52,13.52,0,0,1-1.53,2.82l-.48-.44a10.72,10.72,0,0,0,2-5l.61.16a18.31,18.31,0,0,1-.44,1.8h3v.61h-.74a9.44,9.44,0,0,1-1.43,5.5A7.31,7.31,0,0,0,1464.36,29.08Z"/><path class="a" d="M1476.27,26.47h-4.9V29.6h-.61V26.47h-4.9v-.6h4.9V25h.61v.89h4.9Zm-6.55.9a13.32,13.32,0,0,1-3.31,2l-.44-.49a12.14,12.14,0,0,0,3.22-1.91Zm6.18-4.91h-2.79a6.93,6.93,0,0,1-1.17,1.35c1.22.31,2.47.69,3.74,1.14l-.36.52a39.4,39.4,0,0,0-4-1.21,10,10,0,0,1-5,1l-.31-.58a11.07,11.07,0,0,0,4.48-.66c-1-.25-1.94-.46-2.82-.62a12.61,12.61,0,0,0,.94-1h-2.41v-.57h2.92c.31-.38.62-.77.91-1.17l.55.24a8.68,8.68,0,0,1-.7.93h2.87a3.81,3.81,0,0,0,.34-.62l.6.12a2.73,2.73,0,0,1-.22.5h2.42Zm-.11-1.13h-.64v-.76H1467v.76h-.64V20h4.5a6.48,6.48,0,0,0-.38-.72l.6-.2c.11.19.29.49.53.92h4.19Zm-3.45,1.13h-2.93c-.16.19-.34.4-.55.62q.75.15,2.37.54A4.6,4.6,0,0,0,1472.34,22.46Zm3.83,6.42-.45.47a18.53,18.53,0,0,0-3.37-1.83l.45-.5A19.58,19.58,0,0,1,1476.17,28.88Z"/><path class="a" d="M1453,30.39v-.7h24v.7Z"/><g class="d"><path class="a" d="M1484.18,25.1l-.42.45a13.19,13.19,0,0,0-1.94-1.71l.45-.47A12.37,12.37,0,0,1,1484.18,25.1Z"/></g><path class="a" d="M1493.5,21.87a12.48,12.48,0,0,1-1.17,1.65v6.13h-.62v-5.4a16.17,16.17,0,0,1-1.56,1.44l-.32-.49a13.86,13.86,0,0,0,3.14-3.68Zm-.28-2.39a10.88,10.88,0,0,1-3,2.5l-.36-.49a10.5,10.5,0,0,0,2.86-2.39Zm7.07,3.84h-1.89v5.33a.85.85,0,0,1-.66.9,7.35,7.35,0,0,1-1,.05q-.67,0-1.08,0l-.25-.64c.34,0,.7,0,1.07,0a7.54,7.54,0,0,0,1.17,0c.08,0,.11-.1.11-.21V23.32h-4.22v-.63h6.79Zm-.58-3H1494v-.64h5.71Z"/><path class="a" d="M1507.6,19.64a14.63,14.63,0,0,1-2.42.44V21h2.38v.57h-2.38v.88h2.19V26h-2.19v.85h2.19v.57h-2.19v1.21c.7-.06,1.43-.15,2.19-.28v.6q-3.22.42-5.46.65l-.14-.61c.87-.06,1.81-.16,2.82-.27v-1.3h-2.22v-.57h2.22V26h-2.21V22.47h2.21v-.88H1502V21h2.63v-.85c-.67,0-1.41.08-2.22.08l-.2-.55a20.07,20.07,0,0,0,5.11-.56Zm-3,4.26v-.83H1503v.83Zm0,1.49v-.91H1503v.91Zm2.18-1.49v-.83h-1.59v.83Zm0,1.49v-.91h-1.59v.91Zm5-3.89c0,1.77,0,3.38-.08,4.82a15.81,15.81,0,0,1-.21,2.53,1,1,0,0,1-.43.57,2.48,2.48,0,0,1-1.19.2l-.43,0-.2-.62,1.16,0a.6.6,0,0,0,.41-.17.75.75,0,0,0,.2-.54l.11-2.31c.06-1.29.09-2.59.09-3.88h-1.26a15.55,15.55,0,0,1-1.83,7.59l-.54-.27a14.83,14.83,0,0,0,1.77-7.32H1508v-.6h1.31l0-2.35h.6c0,1,0,1.76-.06,2.35Z"/><path class="a" d="M1524.24,21.72h-6.53c0,.63,0,1.32-.06,2.08h5.13a27.21,27.21,0,0,1-.21,3.26,7.32,7.32,0,0,1-.39,1.88,1.09,1.09,0,0,1-.53.55,4.28,4.28,0,0,1-1.5.16h-.78l-.19-.68c.38,0,.75,0,1.12,0a3.37,3.37,0,0,0,1-.09.68.68,0,0,0,.28-.32,9.05,9.05,0,0,0,.28-1.55c.11-.89.18-1.75.21-2.61h-4.54a6.61,6.61,0,0,1-3.37,5.17l-.51-.51a7.44,7.44,0,0,0,2-1.65,5,5,0,0,0,1.13-2.2,19,19,0,0,0,.24-3.52h-3.16v-.65h5a8.46,8.46,0,0,0-1.15-1.72l.61-.29a9.3,9.3,0,0,1,1.27,2h4.62Z"/><path class="a" d="M1536.27,26.47h-4.9V29.6h-.61V26.47h-4.9v-.6h4.9V25h.61v.89h4.9Zm-6.55.9a13.32,13.32,0,0,1-3.31,2l-.44-.49a12.14,12.14,0,0,0,3.22-1.91Zm6.18-4.91h-2.79a6.93,6.93,0,0,1-1.17,1.35c1.22.31,2.47.69,3.74,1.14l-.36.52a39.4,39.4,0,0,0-4-1.21,10,10,0,0,1-5,1l-.31-.58a11.07,11.07,0,0,0,4.48-.66c-1-.25-1.94-.46-2.82-.62a12.61,12.61,0,0,0,.94-1h-2.41v-.57h2.92c.31-.38.62-.77.91-1.17l.55.24a8.68,8.68,0,0,1-.7.93h2.87a3.81,3.81,0,0,0,.34-.62l.6.12a2.73,2.73,0,0,1-.22.5h2.42Zm-.11-1.13h-.64v-.76H1527v.76h-.64V20h4.5a6.48,6.48,0,0,0-.38-.72l.6-.2c.11.19.29.49.53.92h4.19Zm-3.45,1.13h-2.93c-.16.19-.34.4-.55.62q.75.15,2.37.54A4.6,4.6,0,0,0,1532.34,22.46Zm3.83,6.42-.45.47a18.53,18.53,0,0,0-3.37-1.83l.45-.5A19.58,19.58,0,0,1,1536.17,28.88Z"/><path class="a" d="M1489,30.39v-.7h48v.7Z"/></g></svg>