<?xml version="1.0" encoding="utf-8"?>
<!-- Generator: Adobe Illustrator 25.4.1, SVG Export Plug-In . SVG Version: 6.00 Build 0)  -->
<svg version="1.1" id="圖層_1" xmlns="http://www.w3.org/2000/svg" xmlns:xlink="http://www.w3.org/1999/xlink" x="0px" y="0px"
	 viewBox="0 0 1920 97" style="enable-background:new 0 0 1920 97;" xml:space="preserve">
<style type="text/css">
	.st0{fill:#262626;}
	.st1{fill:#635650;}
	.st2{fill:#4C9827;}
	.st3{fill:#0087CD;}
	.st4{fill:#3F9177;}
	.st5{fill:#59AA48;}
</style>
<rect y="95" class="st0" width="1920" height="1"/>
<g>
	<path d="M1659.8,41V19c0,0,0,0.1,0,0c0.3-1.3,0.7-2,2-2h31c1.5,0,3,0.5,3,2c0,7,0,14,0,21c0,0.3,0,0.7,0,1c-0.5,1.2-1.7,2-3,2h-1
		c0.2,1.1,0.8,1.9,1,3c0.2,0.8-0.2,1.7-1,2c-0.7,0.2-1.3,0.2-2,0c-1.2-0.6-1.8-1.4-3-2c-0.3-0.2-0.7-0.2-1,0c-1.1,0.6-2.8,1.4-4,2
		c-0.2,0.1,0.2-0.1,0,0c-0.8,0.2-1.7-0.2-2-1c-0.1-0.3-0.1-0.7,0-1c0.2-1,0.8-1.9,1-3h-18C1661.5,43.2,1660.2,42.3,1659.8,41
		L1659.8,41z M1691.8,41C1691.9,41,1691.8,41,1691.8,41h1c0.5,0.1,0.9-0.3,1-0.7c0-0.1,0-0.2,0-0.3V20c0.1-0.5-0.3-0.9-0.8-1
		c-0.1,0-0.1,0-0.2,0h-30c-0.5-0.1-0.9,0.3-1,0.8c0,0.1,0,0.2,0,0.2v20l0,0c0,0.3-0.3,1,0,1h19c0.2,0,0,0.2,0,0c0.1-0.7-0.1-1.3,0-2
		c0.1-0.3,0.1-0.7,0-1c-0.9-1.5-1.3-3.3-1-5c0.5-3.5,3.7-6,7.2-5.5c0.6,0.1,1.2,0.2,1.8,0.5c3.8,1.7,5.5,6.6,3,10
		c-0.1,0.1-1-0.1-1,0C1690.9,38.8,1691.7,40.2,1691.8,41z M1685.8,39c2.7-0.2,4.8-2.3,5-5c0-2.4-2.6-4-5-4c-2.1-0.1-3.9,1.4-4,3.5
		c0,0,0,0,0,0c0,0.2,0,0.3,0,0.5C1681.8,36.4,1683.4,39,1685.8,39z M1689.8,45l-1-5c-1.9,1.1-4.1,1.1-6,0l-1,5c0.2-0.1,0.9,0,1,0
		c0.7-0.3,1.3-0.6,2-1c0.9-0.7,2.1-0.7,3,0C1688.6,44.4,1689,44.5,1689.8,45z M1688.8,25c0.2,0,0.8,0,1,0c0.6-0.1,1.2-0.4,1-1
		s-1.3-1-2-1h-23c-0.1,0-0.9,0-1,0c-0.5,0.1-0.9,0.5-1,1c0,0.5,0.6,0.9,1,1c0.3,0,0.7,0,1,0H1688.8z M1664.8,29c-0.5,0-0.8-0.4-1,0
		c-0.3,0.7,0.2,2,1,2c1.2,0,2.8,0,4,0h6c0.7-0.1,1.4-0.5,2-1c0.2-0.3,0.2-0.7,0-1c-0.2-0.4-0.6,0-1,0H1664.8z"/>
	<g>
		<g>
			<path class="st1" d="M1652.8,60.6h-5v-1.3h2c-0.1-0.4-0.3-0.8-0.5-1.1l1.4-0.4c0.3,0.5,0.5,1,0.6,1.6h1.5V60.6z M1652.6,62.9
				h-4.3v-1.3h4.3V62.9z M1652.6,65.3h-4.3V64h4.3V65.3z M1652.6,71.6h-1.4v-0.7h-1.6v1h-1.3v-5.5h4.3L1652.6,71.6z M1651.2,69.6
				v-1.9h-1.6v1.9L1651.2,69.6z M1654.8,66.6c-0.1,1.5-0.4,3-0.9,4.4l-1.2-0.7c0.4-1.3,0.6-2.6,0.7-4L1654.8,66.6z M1661.3,58.2
				c0,1.1,0,2.2-0.1,3.3c0,0.7-0.1,1.3-0.2,2c-0.1,0.2-0.2,0.4-0.3,0.6c-0.2,0.2-0.4,0.3-0.6,0.4c-0.4,0.1-0.9,0.2-1.3,0.2h-0.7
				l-0.5-1.3h1.6c0.3,0,0.5-0.2,0.5-0.4c0.2-1.1,0.2-2.3,0.2-3.4h-1.6c-0.1,2.7-1.9,5.1-4.5,5.8l-0.8-1.1c1-0.3,1.9-0.9,2.7-1.6
				c-0.6-0.6-1.2-1.1-1.8-1.5l0.9-1c0.6,0.4,1.2,0.9,1.7,1.5c0.3-0.7,0.5-1.4,0.6-2.1h-3.5v-1.4L1661.3,58.2z M1659.8,68.6
				c0,0.6-0.1,1.2-0.2,1.8c-0.1,0.4-0.3,0.8-0.7,1c-0.5,0.2-1,0.3-1.6,0.3c-0.4,0-0.9,0-1.3-0.1c-0.2-0.1-0.4-0.2-0.5-0.4
				c-0.1-0.2-0.2-0.5-0.2-0.7v-4h1.4V70c0,0.1,0,0.2,0.1,0.2c0.2,0.1,0.5,0.1,0.7,0.1c0.4,0.1,0.7-0.1,0.9-0.4c0-0.1,0-0.2,0-0.3
				c0.1-0.4,0.1-0.9,0.1-1.3L1659.8,68.6z M1658.9,66.7l-1,0.8c-0.6-0.8-1.3-1.4-2.1-2l1-0.9C1657.6,65.2,1658.4,65.9,1658.9,66.7
				L1658.9,66.7z M1661.9,69.9l-1.3,0.6c-0.3-1.3-0.8-2.7-1.3-3.9l1.2-0.6C1661.2,67.3,1661.7,68.6,1661.9,69.9L1661.9,69.9z"/>
			<path class="st1" d="M1668.9,60.5h-4.9v-1.3h1.9c-0.1-0.2-0.3-0.6-0.6-1.2l1.5-0.4c0.2,0.4,0.4,0.9,0.8,1.6h1.4V60.5z
				 M1668.5,71.5h-1.4v-0.7h-1.4v1h-1.4v-5.6h4.2V71.5z M1668.5,62.9h-4.1v-1.4h4.1V62.9z M1668.5,65.2h-4.2v-1.4h4.2V65.2z
				 M1667.1,69.5v-1.9h-1.4v1.9L1667.1,69.5z M1678.1,63.3l-0.8,1.1c-0.7-0.5-1.3-1-1.9-1.7v0.9h-4.3v-0.8c-0.5,0.6-1,1.1-1.6,1.6
				l-0.9-1.1c0.6-0.4,1.1-0.9,1.5-1.5c-0.4-0.4-0.8-0.7-1.2-1l0.9-0.9c0.4,0.2,0.7,0.5,1,0.8c0.3-0.4,0.5-0.9,0.7-1.4h-2.2v-1.3h3.5
				v1.3c-0.4,1-0.9,2-1.5,2.9h3.7c-0.9-1.3-1.5-2.7-1.8-4.3l1.2-0.2c0,0.3,0.1,0.6,0.2,0.8c0.3-0.2,0.6-0.5,0.9-0.8l0.9,0.9
				c-0.4,0.4-0.9,0.8-1.4,1.1c0.1,0.2,0.2,0.3,0.2,0.6c0.6-0.3,1.1-0.7,1.6-1.1l0.9,0.9c-0.5,0.5-1.1,0.9-1.8,1.3
				C1676.7,62.2,1677.3,62.8,1678.1,63.3L1678.1,63.3z M1677.7,71.7h-8.7v-1.3h2.2c-0.1-0.5-0.3-1-0.6-1.5l1-0.6h-1.6v-3.8h6.7v3.8
				h-1.7l1.1,0.6c-0.2,0.5-0.3,1-0.5,1.5h2.3L1677.7,71.7z M1675.3,67v-1.3h-3.9V67H1675.3z M1674.6,68.2h-2.7
				c0.3,0.7,0.5,1.4,0.8,2.1h1.2C1674.2,69.7,1674.4,69,1674.6,68.2L1674.6,68.2z"/>
			<path class="st1" d="M1694,62.7l-0.7,1.3c-0.5-0.1-0.9-0.2-1.4-0.4v6h-6.8l0.7,0.8c-1.7,0.8-3.5,1.3-5.3,1.6l-0.7-1.3
				c1.5-0.2,3-0.5,4.4-1h-2.4v-6h3l-0.6-0.9c1.6-0.3,3.1-1.2,4.2-2.5l1.4,0.3c-0.1,0.2-0.2,0.4-0.3,0.5
				C1690.9,62,1692.4,62.5,1694,62.7z M1684.6,62.3h-4.7V61h4.7V62.3z M1684.5,59.7h-4.3v-1.3h4.3V59.7z M1690.5,65.3v-0.6h-7.1v0.6
				L1690.5,65.3z M1690.5,66.9v-0.6h-7.1v0.6H1690.5z M1690.5,68.6v-0.6h-7.1v0.6H1690.5z M1693.7,59.9c-0.4,0.6-0.9,1.2-1.4,1.8
				l-1.2-0.7c0.1-0.2,0.4-0.5,0.9-1.1h-5c-0.4,0.5-0.9,1-1.4,1.4l-1.1-0.9c1-0.8,1.8-1.7,2.4-2.7l1.3,0.4c-0.1,0.2-0.2,0.4-0.3,0.6
				h5.9L1693.7,59.9z M1691.8,63.6c-1.1-0.4-2.2-0.9-3.1-1.6c-0.8,0.7-1.6,1.2-2.6,1.5L1691.8,63.6z M1693.9,70.8l-0.8,1.2
				c-1.5-0.5-3.1-0.8-4.7-1l0.7-1.2C1690.8,69.9,1692.3,70.3,1693.9,70.8z"/>
			<path class="st1" d="M1701.1,60.5h-5.2v-1.3h2c-0.1-0.4-0.3-0.7-0.5-1l1.4-0.5c0.3,0.5,0.5,1,0.7,1.5h1.5L1701.1,60.5z
				 M1700.7,62.9h-4.4v-1.3h4.4V62.9z M1700.7,65.2h-4.4v-1.3h4.4V65.2z M1700.7,71.4h-1.4v-0.7h-1.7v1.1h-1.4v-5.5h4.5L1700.7,71.4
				z M1699.3,69.4v-1.8h-1.7v1.8L1699.3,69.4z M1710,68.1c-0.1,0.8-0.2,1.5-0.4,2.3c-0.1,0.5-0.3,0.9-0.6,1.3
				c-0.2,0.2-0.4,0.3-0.7,0.3c-0.3,0-0.6-0.1-0.8-0.4c-0.4-0.7-0.6-1.4-0.7-2.2c-0.2-1.1-0.3-2.1-0.3-3.2v-6.7h-2.2v4.3h1.7v1.4
				h-1.7v6.6h-1.4v-6.6h-1.5v-1.4h1.5v-4.3h-1.3v-1.4h6.2v8.3c0,1.2,0.2,2.4,0.5,3.6c0.2-0.9,0.4-1.9,0.4-2.8L1710,68.1z"/>
		</g>
	</g>
	<g>
		<g>
			<path class="st1" d="M1456.6,67.8c-1.4,0.9-2.8,1.8-4.3,2.5l-0.4-1.3c0.5-0.2,1.1-0.6,1.8-1v-3.8h-1.4V63h1.4v-3.1h-1.6v-1.3h4.4
				v1.3h-1.5V63h1.3v1.3h-1.3v3.1c0.4-0.3,0.9-0.6,1.5-1L1456.6,67.8z M1465.2,67.2h-4.4c-0.4,0.5-0.8,1-1.3,1.4v1.6
				c0.7-0.2,1.4-0.4,2.1-0.7l0.2,1.3c-1.1,0.5-2.3,0.9-3.5,1.1l-0.4-1.1c0.2-0.1,0.3-0.3,0.3-0.6v-0.6c-0.6,0.4-1.3,0.7-1.9,1
				l-0.7-1.2c1.3-0.5,2.5-1.2,3.5-2.2h-2v-3h8.1L1465.2,67.2z M1465.9,63.4h-9.3v-1.2h9.3V63.4z M1465.4,61.6h-8.5v-3.5h8.5V61.6z
				 M1459.4,60.4v-1.1h-1.1v1.1L1459.4,60.4z M1463.8,66v-0.7h-5.3V66H1463.8z M1461.8,60.4v-1.1h-1.1v1.1L1461.8,60.4z
				 M1466.1,70.7l-0.7,1.2c-1-0.3-1.9-0.9-2.6-1.6c-0.7-0.7-1.2-1.6-1.5-2.5l1.2-0.3c0.1,0.4,0.3,0.8,0.6,1.2
				c0.6-0.4,1.2-0.8,1.7-1.3l1,0.9c-0.5,0.5-1.1,1-1.8,1.4C1464.6,70.1,1465.3,70.5,1466.1,70.7L1466.1,70.7z M1464.1,60.4v-1.1
				h-1.1v1.1L1464.1,60.4z"/>
			<path class="st1" d="M1472.3,68.8c-1.3,0.7-2.7,1.4-4.1,2l-0.4-1.4c0.7-0.3,1.2-0.5,1.5-0.7v-5.6h-1.3v-1.4h1.3v-4h1.4v4h1.1v1.4
				h-1.1v5l1.4-0.8L1472.3,68.8z M1482,69.3c0,0.6-0.1,1.1-0.3,1.6c-0.1,0.3-0.3,0.5-0.6,0.7c-0.5,0.2-1.1,0.2-1.6,0.2
				c-0.5,0-1-0.1-1.4-0.2c-0.3-0.2-0.5-0.5-0.4-0.9V68h-1.5c0,1-0.4,1.9-1,2.7c-0.9,0.8-2,1.2-3.1,1.4l-0.7-1.3
				c0.9-0.1,1.8-0.4,2.6-0.9c0.5-0.5,0.9-1.2,0.9-1.9h-1.8v-4.9h8.3V68h-2.2v2.2c0,0.3,0.1,0.4,0.4,0.4c0.5,0,0.8-0.1,1-0.2
				c0.2-0.5,0.3-1,0.3-1.4L1482,69.3z M1481.7,62.4h-9.4v-1.2h2.2c-0.2-0.4-0.3-0.8-0.6-1.2h-1.1v-1.2h3.4c-0.1-0.3-0.2-0.6-0.3-0.8
				l1.5-0.3c0.2,0.4,0.3,0.7,0.4,1.1h3.4v1.2h-1.1c-0.2,0.4-0.3,0.8-0.6,1.2h2.2L1481.7,62.4z M1479.7,65v-0.7h-5.4V65L1479.7,65z
				 M1479.7,66.7V66h-5.4v0.7L1479.7,66.7z M1478.4,60.1h-2.8c0.2,0.4,0.4,0.7,0.6,1.2h1.7C1478.1,60.9,1478.3,60.5,1478.4,60.1
				L1478.4,60.1z"/>
			<path class="st1" d="M1488.6,60.6h-4.7v-1.3h1.8c-0.1-0.4-0.3-0.9-0.5-1.3l1.4-0.4l0.6,1.7h1.4V60.6z M1488.2,62.9h-3.9v-1.2h3.9
				V62.9z M1488.2,65.3h-3.9V64h3.9V65.3z M1488.2,71.5h-1.3v-0.6h-1.2v1h-1.3v-5.5h3.9L1488.2,71.5z M1486.9,69.5v-1.8h-1.2v1.9
				L1486.9,69.5z M1497.9,69.1h-1v1.3c0,0.4-0.1,0.8-0.4,1c-0.4,0.2-0.9,0.3-1.4,0.3h-0.9l-0.4-1.3h1.4c0.2,0,0.3-0.1,0.3-0.3v-0.9
				h-4.6v2.6h-1.3v-2.6h-0.7v-1.1h0.7v-3.7h3v-0.9h-3.9v-1.1h2.1v-0.7h-1.4v-1.1h1.4v-0.7h-1.7v-1.1h1.7v-0.9h1.3v0.9h2.3v-0.9h1.3
				v0.9h2v1.2h-2v0.8h1.4v1.1h-1.4v0.7h2.1v1.1h-3.9v0.9h3v3.7h1L1497.9,69.1z M1492.6,66.2v-0.7h-1.7v0.7H1492.6z M1492.6,68.1
				v-0.8h-1.7v0.8H1492.6z M1494.4,60.6v-0.7h-2.3v0.7H1494.4z M1494.4,62.4v-0.7h-2.3v0.7H1494.4z M1495.6,66.2v-0.7h-1.7v0.7
				H1495.6z M1495.6,68.1v-0.8h-1.7v0.8H1495.6z"/>
			<path class="st1" d="M1504.4,62.4c-1.3,0.7-2.6,1.4-4,2l-0.6-1.2c1.4-0.6,2.8-1.3,4.2-2.1L1504.4,62.4z M1506.3,63.1
				c0,0.3-0.1,0.7-0.3,0.9c-0.2,0.2-0.4,0.4-0.7,0.4c-0.4,0.1-0.9,0.1-1.3,0.1l-0.5-1.3h0.8c0.3,0,0.5-0.2,0.5-0.5v-3.3h-4.8v-1.3
				h6.2V63.1z M1503.4,60.6l-0.8,1c-0.7-0.4-1.5-0.7-2.3-0.9l0.8-1.1C1502,59.9,1502.7,60.2,1503.4,60.6z M1512.4,71.8h-1.4v-0.6
				h-8.1v0.6h-1.4v-6.6h4.4c0.2-0.3,0.4-0.7,0.6-1.1l1.5,0.2c-0.1,0.3-0.3,0.6-0.4,0.8h4.8L1512.4,71.8z M1510.9,67.6v-1.1h-8.1v1.1
				H1510.9z M1510.9,69.9v-1.2h-8.1V70L1510.9,69.9z M1511.4,62.4c-1.2,0.6-2.5,1.2-3.9,1.6l-0.6-1.1c1.4-0.5,2.7-1,4-1.6
				L1511.4,62.4z M1513.3,62.8c0,0.4-0.1,0.8-0.3,1.2c-0.2,0.2-0.4,0.4-0.7,0.4c-0.5,0.1-1,0.1-1.5,0.1l-0.5-1.2h1
				c0.1,0,0.2-0.1,0.3-0.1c0.1-0.1,0.2-0.2,0.2-0.3v-3.4h-4.7v-1.3h6.1L1513.3,62.8z M1510.1,60.7l-0.9,1c-0.6-0.4-1.2-0.7-1.9-1
				l0.8-1C1508.8,60,1509.5,60.3,1510.1,60.7z"/>
		</g>
	</g>
	<path d="M1466.8,46C1466.9,45.9,1466.8,46.1,1466.8,46c1.9-1.9,5.1-1.9,7,0h4c0.1-0.1-0.1,0.1,0,0c1.9-1.9,5.1-1.9,7,0h1
		c-0.3-0.6-0.4-0.6-1-1c-0.4-0.3-1.6-0.8-2-1l0,0c0.1-0.1,0.9,0.1,1,0c0.5-0.5-0.1-1.4,0-2c0.1-0.7,0.1-1.3,0-2
		c-0.1-1.6-1.4-2.9-3-3c-1.6,0.1-2.9,1.4-3,3c0,0.7,0,1.3,0,2c-0.1,0.8,0.3,1.6,1,2c0,0,0-0.1,0,0c-1.1,0.4-1.2,1-2,2V35h21
		c0.6,0,1,0.6,1,0V17c0-0.6-0.4-1-1-1h-26c-0.6,0-1,0.4-1,1l0,0c0,1.8,0,3.2,0,5c0,0.3,0.3,0.9,0,1c-1,0.2-1.8,1-2,2
		c-0.3,1.5-1.1,2.7,0,4l0,0l0,0c-2.2,0-4,1.7-4,3.9c0,0,0,0,0,0V39c0,1.3,0.8,2.5,2,3c0.1,0,0-0.1,0,0c0.2,0.7,0.5,1.4,1,2
		c0.1,0,0.9-0.1,1,0c-0.2,0.1-0.8,0.9-1,1c-0.8,0.5-1.5,0.1-2,1H1466.8z M1476.8,34v-1h4c0.4,0,0.7,0.4,1,0c1-1.4,2.9-2.7,4-4
		c0.4-0.5,0.2-1.4,0-2c-0.1-0.5-0.6-0.8-1-1c-0.2-0.1,0-0.8,0-1c0-2.1,0-3.9,0-6l0,0c0-0.4,0.3-1,0-1s-1,0.6-1,1v7
		c-0.8,0-1.5,0.4-2,1c-0.6,0.7-1.4,1.3-2,2c-0.1,0.1,0.1,0,0,0c-1.7,0-3.3,0-5,0l0,0c0,0,0,0,0,0c1.1-1.3,0.3-2.5,0-4s-0.6-2.7-2-3
		c-0.1,0-0.9,0-1,0v-5h26v17H1476.8z M1472.8,44L1472.8,44c1.3-1.2,1.3-2.5,1-4c-0.4-1.8-2.1-2.9-3.9-2.5c-0.4,0.1-0.8,0.3-1.1,0.5
		c-0.1,0.1-0.9-0.1-1,0l0,0v-5c0-0.1,0,0.1,0,0c0-0.3,0.3,0,0,0s-1-0.3-1,0c0,0.1,0-0.1,0,0v8l0,0c-0.6-0.1-1-0.4-1-1
		c0-2.3,0-4.7,0-7c0.2-1.6,1.4-2.8,3-3c2.3,0,4.7,0,7,0c1.4,0,2.6,0,4,0c0.5,0,0.7,0.4,1,0c0.7-0.9,1.3-2.1,2-3c0.3-0.3,0.5,0,1,0
		c0.3,0,0.8-0.3,1,0c0.2,0.3,0.2,0.7,0,1c-0.8,1-1.2,2-2,3c-0.3,0.3-0.8,0.7-1,1c-0.2,0.3-0.8,0-1,0c-1.7,0-3.3,0-5,0
		c-0.5,0-1,0.3-1,0.8V46l0,0C1474,45.1,1473.9,44.4,1472.8,44z M1469.8,25c0.3-1.2,0.8-2.1,2-2s2,1.8,2,3c0,0.6,0.1,0.4,0,1
		c-0.2,1.2-0.8,2.1-2,2c-1.1,0-2-0.9-2-2v-1h-1C1468.8,25.6,1469.7,25.4,1469.8,25z M1472.8,42c-0.5,1.2-1.7,2-3,2
		c-1.1-0.1-1.9-0.9-2-2c0-0.5,0.9-1.5,1-2c0.2-1.1,0.9-2.1,2-2s2,1.9,2,3l0,0C1472.8,41.3,1472.8,41.7,1472.8,42z M1482.8,42
		c-0.2,1.1-0.8,2.1-2,2c-1.1,0-2-0.9-2-2c-0.1-0.7-0.1-1.3,0-2c0.5-1.2,1.7-2,3-2c1,0.1,1,1.9,1,3l0,0
		C1482.8,41.3,1482.8,41.7,1482.8,42z M1488.8,46C1488.9,45.9,1488.8,46.1,1488.8,46c1.9-1.9,5.1-1.9,7,0h1c-0.3-0.4-0.6-0.7-1-1
		c-0.6-0.4-1.4-0.6-2-1l0,0l0,0c0.5-0.5,0.9-1.2,1-2c0.1-0.7,0.1-1.3,0-2c-0.1-1.6-1.4-2.9-3-3c-1.6,0.1-2.9,1.4-3,3
		c0,0.3,0,0.7,0,1c-0.1,1.1,0.3,2.2,1,3l0,0c-0.2,0.1-0.8,0.9-1,1c-0.9,0.5-1.5,0.1-2,1H1488.8z M1493.8,42c-0.2,1-0.9,2.1-2,2
		c-1.1-0.1-1.9-0.9-2-2c-0.1-0.7-0.1-1.3,0-2c0.2-1.1,0.9-2.1,2-2s2,1.9,2,3l0,0C1493.8,41.3,1493.8,41.7,1493.8,42z"/>
	<g>
		<g>
			<path class="st1" d="M1551.9,68.3c-0.2,1.2-0.5,2.4-0.9,3.5l-1.2-0.5c0.4-1.1,0.7-2.2,0.9-3.3L1551.9,68.3z M1555.7,67l-1.2,0.4
				c-0.1-0.3-0.1-0.5-0.2-0.8c-1.3,0.4-2.7,0.7-4,1l-0.5-1.1c1.2-0.9,2.1-2.1,2.9-3.3c-0.8,0.2-1.6,0.3-2.5,0.4l-0.3-1.1
				c1.2-1.4,2.1-3,2.7-4.7l1.3,0.6c-0.5,1.3-1.2,2.5-1.9,3.6c0.5-0.1,1.1-0.2,1.6-0.4c0.3-0.5,0.5-0.9,0.7-1.4l1.3,0.6
				c-0.9,1.8-2,3.5-3.4,5.1c0.5-0.1,1-0.3,1.6-0.4c0-0.2-0.1-0.4-0.2-0.6l1.2-0.4C1555.2,65.2,1555.5,66.1,1555.7,67z M1554,71.2
				l-1.3,0.4c-0.1-1.1-0.2-2.2-0.5-3.2l1.2-0.4C1553.8,69,1553.9,70.1,1554,71.2L1554,71.2z M1556,70.5l-1.2,0.5
				c-0.2-0.9-0.4-1.8-0.7-2.7l1.1-0.4C1555.6,68.7,1555.8,69.6,1556,70.5L1556,70.5z M1564.1,65.2l-0.7,1.3c-1.3-0.5-2.5-1.2-3.6-2
				c-1.1,0.8-2.3,1.4-3.5,1.9l-0.6-1.2c1.1-0.4,2.1-0.9,3-1.5c-0.5-0.5-1-1-1.4-1.7c-0.3,0.4-0.7,0.8-1.1,1.2l-0.8-1.1
				c1.3-1.2,2.4-2.7,3.2-4.4l1.3,0.4c-0.2,0.4-0.4,0.8-0.6,1.2h3.9v1.3c-0.6,1.1-1.4,2.1-2.3,3C1561.9,64.3,1563,64.8,1564.1,65.2
				L1564.1,65.2z M1563,70.6l-0.7,1.3c-1.7-0.9-3.5-1.6-5.4-2l0.6-1.3C1559.3,69.1,1561.2,69.8,1563,70.6L1563,70.6z M1562.6,67.6
				l-0.5,1.2c-1.4-0.7-2.9-1.2-4.4-1.5l0.6-1.2C1559.7,66.5,1561.2,67,1562.6,67.6L1562.6,67.6z M1561.6,60.6h-3.2
				c-0.1,0.1-0.2,0.2-0.3,0.3c0.4,0.7,1,1.4,1.6,1.9C1560.5,62.2,1561.1,61.4,1561.6,60.6L1561.6,60.6z"/>
			<path class="st1" d="M1579.9,64.2c-0.7,0.7-1.4,1.4-2.1,2v3.9c0,0.4-0.1,0.8-0.4,1.1c-0.3,0.3-0.6,0.4-1,0.5
				c-0.4,0-1.4,0.1-2.8,0.1l-0.4-1.3c0.5,0,0.9,0,1.4,0c0.5,0,1.1,0,1.6-0.1c0.1-0.1,0.2-0.2,0.2-0.3v-2.7c-3,2-6.4,3.4-9.9,4.3
				l-0.7-1.2c3.2-0.9,6.3-2,9.3-3.5c-2.7,0.3-5.6,0.6-8.8,0.8l-0.4-1.4h1.7v-7.2h2c0.4-0.4,0.7-0.9,1-1.4l1.5,0.3
				c-0.2,0.4-0.5,0.8-0.8,1.1h6.4v5.5c0.5-0.4,0.9-0.8,1.3-1.3L1579.9,64.2z M1576.4,61.3v-1h-7.3v1H1576.4z M1576.4,63.5v-1.1h-7.3
				v1.1L1576.4,63.5z M1576.4,65.5v-0.8h-7.3v1.4C1571.4,66,1573.9,65.8,1576.4,65.5z"/>
			<path class="st1" d="M1595.8,69.4h-6.1v1c0,0.3-0.1,0.6-0.2,0.8c-0.2,0.2-0.4,0.4-0.6,0.4c-0.5,0.1-1,0.1-1.4,0.1h-1.1l-0.5-1.3
				h2.1c0.2,0,0.3-0.1,0.3-0.3v-0.8h-6.3v-1.2h6.3v-0.7c0.8-0.2,1.5-0.4,2.2-0.6h-5.9v-1h8.5v1c-1.1,0.5-2.2,0.9-3.3,1.2v0.1h6.1
				V69.4z M1595.6,67h-1.3v-1.8h-10.7V67h-1.4v-2.9h1l-0.3-5.7c1.1-0.1,2.1-0.3,3.1-0.6l0.7,1.1c-0.8,0.2-1.6,0.4-2.4,0.5v0.8h2.1v1
				h-2v0.9h2v1h-1.9l0.1,0.9h8.8v-0.9h-2.2v-1h2.2v-0.9h-2.2v-1h2.3l0.1-0.8h-2.4v-1.1h3.8l-0.3,5.9h1L1595.6,67z M1590.7,58.2
				c-0.3,0.4-0.6,0.7-1,1c0.3,0.2,0.5,0.5,0.7,0.7l-0.9,0.8c-0.2-0.3-0.5-0.6-0.8-0.8c-0.5,0.3-1.1,0.6-1.6,0.8l-0.7-0.9
				c0.5-0.2,0.9-0.4,1.4-0.6c-0.2-0.1-0.4-0.3-0.9-0.7l0.8-0.8l1.1,0.8c0.3-0.2,0.6-0.5,0.8-0.8L1590.7,58.2z M1590.8,63.2l-0.8,0.7
				c-0.3-0.4-0.7-0.7-1.1-1c-0.5,0.3-1.1,0.6-1.6,0.9l-0.7-0.9c0.5-0.2,0.9-0.5,1.4-0.7c-0.3-0.3-0.7-0.5-1.1-0.7l0.8-0.8
				c0.3,0.2,0.7,0.5,1.2,0.8c0.3-0.3,0.6-0.5,0.9-0.8l1,0.6c-0.3,0.4-0.6,0.7-1,1C1590.2,62.6,1590.5,62.9,1590.8,63.2L1590.8,63.2z
				"/>
			<path class="st1" d="M1602.4,62.4c-1.3,0.7-2.6,1.4-4,2l-0.6-1.2c1.4-0.6,2.8-1.3,4.2-2.1L1602.4,62.4z M1604.3,63.1
				c0,0.3-0.1,0.7-0.3,0.9c-0.2,0.2-0.4,0.4-0.7,0.4c-0.4,0.1-0.9,0.1-1.3,0.1l-0.5-1.3h0.8c0.3,0,0.5-0.2,0.5-0.5v-3.3h-4.8v-1.3
				h6.2V63.1z M1601.4,60.6l-0.8,1c-0.7-0.4-1.5-0.7-2.3-0.9l0.8-1.1C1600,59.9,1600.7,60.2,1601.4,60.6z M1610.4,71.8h-1.4v-0.6
				h-8.1v0.6h-1.4v-6.6h4.4c0.2-0.3,0.4-0.7,0.6-1.1l1.5,0.2c-0.1,0.3-0.3,0.6-0.4,0.8h4.8L1610.4,71.8z M1608.9,67.6v-1.1h-8.1v1.1
				H1608.9z M1608.9,69.9v-1.2h-8.1V70L1608.9,69.9z M1609.4,62.4c-1.2,0.6-2.5,1.2-3.9,1.6l-0.6-1.1c1.4-0.5,2.7-1,4-1.6
				L1609.4,62.4z M1611.3,62.8c0,0.4-0.1,0.8-0.3,1.2c-0.2,0.2-0.4,0.4-0.7,0.4c-0.5,0.1-1,0.1-1.5,0.1l-0.5-1.2h1
				c0.1,0,0.2-0.1,0.3-0.1c0.1-0.1,0.2-0.2,0.2-0.3v-3.4h-4.7v-1.3h6.1L1611.3,62.8z M1608.1,60.7l-0.9,1c-0.6-0.4-1.2-0.7-1.9-1
				l0.8-1C1606.8,60,1607.5,60.3,1608.1,60.7z"/>
		</g>
	</g>
	<path d="M1579.8,47c-0.7-0.2-1.3,0.2-2,0c-2.4-0.9-4.7-1.9-7-3c-2.1-1-3.9-2-6-3l0,0c-0.4-0.2-1.2-0.7-1-1s0.6-0.2,1,0
		c0.8,0.4,2.2,0.6,3,1c3.3,1.6,6.6,2.7,10,4c0.7,0.3,1.2,0.8,2,1c0.6,0.2,1.4,0.2,2,0c1.7-0.5,3.4-1.2,5-2c0.2-0.1-0.2-0.9,0-1
		c-0.8-0.2-1.3,0.3-2,0c-1.9-0.8-3.9-1.1-6-1c-0.9,0.1-2.1,0.9-3,1c-0.4,0.1-1-0.7-1-1s0.6-0.9,1-1c2.3-0.3,4.7-0.3,7,0
		c0.7-0.1,1.3-0.1,2,0c1.1,0.3,1.9,0.8,3,1c0.6,0.1,0.6,0.5,1,0c0.3-0.6,0.3-1.4,0-2c-0.1-0.3,0.2-0.8,0-1c-0.6-0.5-1.3-0.8-2-1
		c-1.3-0.5-2.6-0.8-4-1c-1.1-0.1-1.9,0.2-3,0c-0.4-0.1-1.6,0.2-2,0c-2-1.2-3.7-2.5-6-3c-1.7-0.3-3.3-0.3-5,0c-0.7,0-1.3,0-2,0
		c-0.4,0.1-0.9-0.7-1-1s0.6,0.1,1,0c1-0.3,2-1,3-1c3.5,0.1,7,1.1,10,3c0.3,0.2,0.6,0.8,1,1c-0.1-0.6,0.1-1.5,0-2
		c-0.4-2.7-1.1-5.4-2-8c-0.1-0.4,0.1-0.6,0-1c0-0.1,0.1-1,0-1c-1.1,0-2.1-0.3-3-1c-0.8-0.9-0.8-1.8-1-3c-0.3-1.3-1-2.6-1-4
		c0-1.1,0-1.9,0-3c0-0.2,0.8-0.9,1-1s-0.2-0.1,0,0c0.4,0.3,0.7,0.6,1,1c1.5,1.5,2.8,3.2,4,5c0.8,1.2,1.1,2.6,1,4
		c-0.2,0.7-0.5,1.4-1,2c-0.1,0.1,0-0.1,0,0c0.5,1.8,0.5,4.2,1,6c0,0,0-0.1,0,0c0.3-0.4,0.8-0.6,1-1c0.1-0.3,0.1-0.7,0-1
		c-0.4-0.8-0.9-1.2-1-2c0-1.1,0.4-2.1,1-3c0.3-0.4,0.6-0.7,1-1c1.7-1.6,3.8-2.6,6-3c2.3-0.6,4.6-0.9,7-1c0.7-0.1,1.3-0.1,2,0
		c0.3,0-0.1,0.6,0,1s0.2-0.2,0,0c-0.4,0.6-0.7,1.3-1,2c-1.5,2.5-3.2,4.8-5,7c-1.1,1.4-2.2,2.6-4,3s-3.6,0.5-5-1c0,0,0.1,0,0,0
		c-0.6,0.8-1.2,0.9-1,2s-0.2,2.8,0,4c0,0.1,0.9,0,1,0c0.9,0.1,1.1-0.1,2,0c0.3,0.1,0.7,0.1,1,0c1.2-0.7,2.8-1.3,4-2
		c0.5-0.3,0.4,0.2,1,0c0.8-0.3,2.4-0.7,3,0c0.5-0.3,0.5-0.7,1-1c0.9-0.5,1.9-0.9,3-1c0.9,0,1.2,0.6,2,1c0.4,0.2,0.8,0.6,1,1l0,0
		c-0.1,0.3,0.1,0.7,0,1c-0.1,0.5-0.6,0.6-1,1c-1,1-1.9,2.2-3,3c-1.9,1.4-4.1,2.7-6,4s-3.9,3.1-6,4c-0.7,0.3-1.2-0.2-2,0H1579.8z
		 M1581.8,29c0.5,0.5,1.2,0.9,2,1c1.4,0.5,3,0.1,4-1c0.7-0.6,1.4-1.3,2-2c0.9-1.4,2.1-2.5,3-4c0.6-1,1.4-3,2-4c0.1-0.1-0.1,0.2,0,0
		h-1c-2,0.1-4,0.5-6,1c-1.8,0.3-3.5,1-5,2c-0.8,0.6-1.4,1.2-2,2c-0.9,1.2-0.9,2.8,0,4l0,0c0.5-0.4,1.5-1.6,2-2c0.3-0.2,1,0.6,1,1
		c0,0.2-0.8-0.1-1,0C1582.2,27.5,1582.4,28.5,1581.8,29z M1576.8,23L1576.8,23c0.1-0.3,0.9-0.7,1-1c0.2-1-0.5-2.1-1-3
		c-0.8-1.8-1.9-3.4-3-5c0,0,0.1,0.1,0,0c0,0.5,0,0.6,0,1c-0.1,1.9-0.7,4.1,0,6c0.4,0.9,1.1,1.6,2,2c0.2,0.1-0.2-0.1,0,0
		c-0.1-0.5,0.1-0.6,0-1s-0.3-0.9,0-1s0.8,0.6,1,1S1576.7,22.7,1576.8,23z M1590.8,41L1590.8,41c0.9-0.7,2.1-1.3,3-2
		c0.8-0.6,1.3-1.4,2-2c0.4-0.3,0.7-0.6,1-1c0.2-0.2,0.9-0.8,1-1c-0.3,0-0.7,0-1,0c-1.4,0.1-2.7,0.4-4,1c-1.2,0.7-1.8,1.3-3,2
		c-0.1,0,0.1,0.9,0,1C1590.4,39.7,1590.8,40,1590.8,41z M1587.8,37c0.2,0.1-0.2,0.9,0,1c0.3,0.1,0.7,0.1,1,0c1.3-0.8,2.7-2.2,4-3
		c0.9-0.5,1.9-0.9,3-1c0.5-0.1,1.5,0.1,2,0l0,0c-0.5-0.1-1.5-1-2-1c-1.1-0.1-1.1,0.5-2,1C1591.9,35.1,1589.9,36.1,1587.8,37
		C1587.8,37,1587.9,36.9,1587.8,37z M1585.8,37L1585.8,37C1586.1,37,1585.6,37.1,1585.8,37c1-0.4,2-1.5,3-2c0.5-0.2,1.6,0.3,2,0l0,0
		c-0.3,0-0.7-0.1-1,0c-1,0.4-2,0.5-3,1C1586.4,36.2,1586.2,36.8,1585.8,37z"/>
	<g>
		<g>
			<path class="st1" d="M1268.8,69.4h-6.1v1c0,0.3-0.1,0.6-0.2,0.8c-0.2,0.2-0.4,0.4-0.6,0.4c-0.5,0.1-1,0.1-1.4,0.1h-1.1l-0.5-1.3
				h2.1c0.2,0,0.3-0.1,0.3-0.3v-0.8h-6.3v-1.2h6.3v-0.7c0.8-0.2,1.5-0.4,2.2-0.6h-5.9v-1h8.5v1c-1.1,0.5-2.2,0.9-3.3,1.2v0.1h6.1
				V69.4z M1268.6,67h-1.3v-1.8h-10.7V67h-1.4v-2.9h1l-0.3-5.7c1.1-0.1,2.1-0.3,3.1-0.6l0.7,1.1c-0.8,0.2-1.6,0.4-2.4,0.5v0.8h2.1v1
				h-2v0.9h2v1h-1.9l0.1,0.9h8.8v-0.9h-2.2v-1h2.2v-0.9h-2.2v-1h2.3l0.1-0.8h-2.4v-1.1h3.8l-0.3,5.9h1L1268.6,67z M1263.7,58.2
				c-0.3,0.4-0.6,0.7-1,1c0.3,0.2,0.5,0.5,0.7,0.7l-0.9,0.8c-0.2-0.3-0.5-0.6-0.8-0.8c-0.5,0.3-1.1,0.6-1.6,0.8l-0.7-0.9
				c0.5-0.2,0.9-0.4,1.4-0.6c-0.2-0.1-0.4-0.3-0.9-0.7l0.8-0.8l1.1,0.8c0.3-0.2,0.6-0.5,0.8-0.8L1263.7,58.2z M1263.8,63.2l-0.8,0.7
				c-0.3-0.4-0.7-0.7-1.1-1c-0.5,0.3-1.1,0.6-1.6,0.9l-0.7-0.9c0.5-0.2,0.9-0.5,1.4-0.7c-0.3-0.3-0.7-0.5-1.1-0.7l0.8-0.8
				c0.3,0.2,0.7,0.5,1.2,0.8c0.3-0.3,0.6-0.5,0.9-0.8l1,0.6c-0.3,0.4-0.6,0.7-1,1C1263.2,62.6,1263.5,62.9,1263.8,63.2L1263.8,63.2z
				"/>
			<path class="st1" d="M1275.4,62.4c-1.3,0.7-2.6,1.4-4,2l-0.6-1.2c1.4-0.6,2.8-1.3,4.2-2.1L1275.4,62.4z M1277.3,63.1
				c0,0.3-0.1,0.7-0.3,0.9c-0.2,0.2-0.4,0.4-0.7,0.4c-0.4,0.1-0.9,0.1-1.3,0.1l-0.5-1.3h0.8c0.3,0,0.5-0.2,0.5-0.5v-3.3h-4.8v-1.3
				h6.2V63.1z M1274.4,60.6l-0.8,1c-0.7-0.4-1.5-0.7-2.3-0.9l0.8-1.1C1273,59.9,1273.7,60.2,1274.4,60.6z M1283.4,71.8h-1.4v-0.6
				h-8.1v0.6h-1.4v-6.6h4.4c0.2-0.3,0.4-0.7,0.6-1.1l1.5,0.2c-0.1,0.3-0.3,0.6-0.4,0.8h4.8L1283.4,71.8z M1281.9,67.6v-1.1h-8.1v1.1
				H1281.9z M1281.9,69.9v-1.2h-8.1V70L1281.9,69.9z M1282.4,62.4c-1.2,0.6-2.5,1.2-3.9,1.6l-0.6-1.1c1.4-0.5,2.7-1,4-1.6
				L1282.4,62.4z M1284.3,62.8c0,0.4-0.1,0.8-0.3,1.2c-0.2,0.2-0.4,0.4-0.7,0.4c-0.5,0.1-1,0.1-1.5,0.1l-0.5-1.2h1
				c0.1,0,0.2-0.1,0.3-0.1c0.1-0.1,0.2-0.2,0.2-0.3v-3.4h-4.7v-1.3h6.1L1284.3,62.8z M1281.1,60.7l-0.9,1c-0.6-0.4-1.2-0.7-1.9-1
				l0.8-1C1279.8,60,1280.5,60.3,1281.1,60.7z"/>
			<path class="st1" d="M1301,62.7l-0.7,1.3c-0.5-0.1-0.9-0.2-1.4-0.4v6h-6.8l0.7,0.8c-1.7,0.8-3.5,1.3-5.3,1.6l-0.7-1.3
				c1.5-0.2,3-0.5,4.4-1h-2.4v-6h3l-0.6-0.9c1.6-0.3,3.1-1.2,4.2-2.5l1.4,0.3c-0.1,0.2-0.2,0.4-0.3,0.5
				C1297.9,62,1299.4,62.5,1301,62.7z M1291.6,62.3h-4.7V61h4.7V62.3z M1291.5,59.7h-4.3v-1.3h4.3V59.7z M1297.5,65.3v-0.6h-7.1v0.6
				L1297.5,65.3z M1297.5,66.9v-0.6h-7.1v0.6H1297.5z M1297.5,68.6v-0.6h-7.1v0.6H1297.5z M1300.7,59.9c-0.4,0.6-0.9,1.2-1.4,1.8
				l-1.2-0.7c0.1-0.2,0.4-0.5,0.9-1.1h-5c-0.4,0.5-0.9,1-1.4,1.4l-1.1-0.9c1-0.8,1.8-1.7,2.4-2.7l1.3,0.4c-0.1,0.2-0.2,0.4-0.3,0.6
				h5.9L1300.7,59.9z M1298.8,63.6c-1.1-0.4-2.2-0.9-3.1-1.6c-0.8,0.7-1.6,1.2-2.6,1.5L1298.8,63.6z M1300.9,70.8l-0.8,1.2
				c-1.5-0.5-3.1-0.8-4.7-1l0.7-1.2C1297.8,69.9,1299.3,70.3,1300.9,70.8z"/>
			<path class="st1" d="M1305.9,66.5c-0.4,1.8-1.1,3.5-1.8,5.2l-1.2-0.9c0.7-1.7,1.3-3.4,1.8-5.2L1305.9,66.5z M1306.3,63.7
				l-0.9,1.2c-0.7-0.8-1.6-1.4-2.5-1.9l0.9-1.2C1304.7,62.3,1305.6,62.9,1306.3,63.7z M1306.4,59.9l-1,1.1c-0.7-0.9-1.5-1.6-2.4-2.2
				l1-1.1C1304.9,58.4,1305.7,59.1,1306.4,59.9z M1316.8,59.4h-3.5c-0.1,0.4-0.3,0.8-0.5,1.2h3.5v5.9h-3v4.2c0,0.3-0.1,0.6-0.4,0.8
				c-0.4,0.2-0.9,0.3-1.3,0.3c-0.3,0-0.6,0-0.8,0l-0.6-1.4c0.4,0,0.7,0,1.1,0s0.5,0,0.6-0.1c0.1-0.1,0.1-0.2,0.1-0.2v-3.5h-2.9v-5.9
				h2.1c0.2-0.4,0.3-0.8,0.5-1.2h-3.4v5.4c0.1,2.5-0.5,4.9-1.6,7.1l-1.2-0.8c0.9-2,1.4-4.2,1.4-6.4v-6.6h10L1316.8,59.4z
				 M1311.2,67.8c-0.6,1.2-1.3,2.4-2.2,3.4l-1.2-1c0.8-1,1.5-2,2-3.2L1311.2,67.8z M1314.9,62.9v-1.1h-4.5V63L1314.9,62.9z
				 M1314.9,65.3v-1.1h-4.5v1.1H1314.9z M1317,70.3l-1.2,0.9c-0.4-1.2-0.9-2.4-1.6-3.5l1.2-0.7C1316.1,68,1316.6,69.1,1317,70.3
				L1317,70.3z"/>
		</g>
	</g>
	<path d="M1268.8,21c0.6-0.1,1.4,0.1,2,0s1.2-0.9,2-1v-3c0.7,0,1.4,0,2,0c3.1,0,6.2,0.7,9,2c0.9,0.5,1.1,1.5,2,2
		c0.3,0.1,0.7,0.1,1,0c2.6-0.6,5.3-1,8-1c3,0,6,0.3,9,1l0,0v25c-0.8-0.2-1.2-0.8-2-1c-2.9-0.7-6-1.1-9-1c-2,0.1-4,0.5-6,1
		c-0.3,0-0.7,0-1,0c-2.9-0.7-6-1.1-9-1c-2.8,0.1-5.3,1.2-8,2V21z M1287.8,43c4.6-1,9.4-1,14,0c0-0.1,0,0.1,0,0V23c0-0.2,0.2,0,0,0
		c-1.4-0.2-2.6-0.9-4-1c-3.4-0.2-6.7,0.2-10,1c-0.3,0.1,0-0.3,0,0C1287.8,29.5,1287.8,36.5,1287.8,43z M1285.8,42L1285.8,42V23
		c0-0.2-0.8-0.9-1-1c-2.4-1.6-5.1-2.7-8-3c-0.5-0.1-1.5,0-2,0v20c2,0.1,4,0.4,6,1C1282.6,40.4,1284.2,41.1,1285.8,42z M1270.8,43
		c3.3-0.7,6.6-1.1,10-1c-2.6-0.8-5.3-1.1-8-1V22c-0.6,0.1-0.5,0.9-1,1c-0.3,0-1-0.3-1,0C1270.8,29.5,1270.8,36.5,1270.8,43z
		 M1291.8,26l9,6l-9,6V26z M1296.8,32l-3-2v4L1296.8,32z"/>
	<g>
		<g>
			<path class="st1" d="M1064.8,58.2c-1,2.8-2.8,5.3-5.1,7.1l-0.9-1.2c2.1-1.6,3.7-3.8,4.6-6.4L1064.8,58.2z M1072,71l-1.3,0.9
				c-0.3-0.6-0.6-1.2-0.9-1.8c-2.5,0.6-5.5,1.1-9,1.6l-0.4-1.2c1.4-1,3-3.7,4.8-8.1l1.5,0.4c-1,2.6-2.4,5-4,7.3
				c2.2-0.2,4.3-0.6,6.5-1.1c-0.5-0.8-1.1-1.6-1.7-2.4l1.2-0.8C1069.9,67.3,1071.1,69.1,1072,71z M1073,64.2l-0.9,1.3
				c-2.1-1.5-3.6-3.7-4.4-6.1h-1.3V58h2.4C1069.5,60.5,1070.9,62.7,1073,64.2L1073,64.2z"/>
			<path class="st1" d="M1088.8,64.6h-13.9v-1.3h6.2v-2.1h-3.5c-0.5,0.7-1.2,1.2-1.9,1.7l-1.1-1c1.4-1.1,2.6-2.4,3.4-4l1.4,0.4
				c-0.3,0.5-0.6,1-0.9,1.5h2.4v-2h1.4v2h5.4v1.3h-5.4v2.1h6.3V64.6z M1087.1,71.8h-1.4v-0.7h-7.7v0.7h-1.5v-5.8h10.6L1087.1,71.8z
				 M1085.7,69.7v-2.4h-7.7v2.4H1085.7z"/>
			<path class="st1" d="M1096.1,60.5h-5.2v-1.3h2c-0.1-0.4-0.3-0.7-0.5-1l1.4-0.5c0.3,0.5,0.5,1,0.7,1.5h1.5L1096.1,60.5z
				 M1095.7,62.9h-4.4v-1.3h4.4V62.9z M1095.7,65.2h-4.4v-1.3h4.4V65.2z M1095.7,71.4h-1.4v-0.7h-1.7v1.1h-1.4v-5.5h4.5V71.4z
				 M1094.3,69.4v-1.8h-1.7v1.8L1094.3,69.4z M1105,68.1c-0.1,0.8-0.2,1.5-0.4,2.3c-0.1,0.5-0.3,0.9-0.6,1.3
				c-0.2,0.2-0.4,0.3-0.7,0.3c-0.3,0-0.6-0.1-0.8-0.4c-0.4-0.7-0.6-1.4-0.7-2.2c-0.2-1.1-0.3-2.1-0.3-3.2v-6.7h-2.2v4.3h1.7v1.4
				h-1.7v6.6h-1.4v-6.6h-1.5v-1.4h1.5v-4.3h-1.3v-1.4h6.2v8.3c0,1.2,0.2,2.4,0.5,3.6c0.2-0.9,0.4-1.9,0.4-2.8L1105,68.1z"/>
			<path class="st1" d="M1110.1,67.7c-0.6,1.3-1.2,2.5-2.1,3.6l-1.2-0.8c0.8-1.1,1.5-2.2,2-3.4L1110.1,67.7z M1119.2,66.7h-10.6V59
				h3c0.3-0.4,0.5-0.9,0.7-1.4l1.6,0.3c-0.2,0.4-0.3,0.7-0.6,1.1h5.9L1119.2,66.7z M1117.8,61.2v-1h-7.8v1H1117.8z M1117.8,63.4v-1
				h-7.8v1H1117.8z M1117.8,65.5v-1h-7.8v1H1117.8z M1118,69.4c0.1,1.1-0.7,2.1-1.8,2.2c-0.2,0-0.3,0-0.5,0h-3.4
				c-0.4,0-0.9-0.1-1.2-0.4c-0.3-0.3-0.5-0.7-0.5-1.2v-2.7h1.4v2.5c0,0.2,0.1,0.3,0.2,0.4c0.3,0.1,0.7,0.1,1,0.1h2.4
				c0.2,0,0.4-0.1,0.6-0.2c0.2-0.1,0.3-0.6,0.4-1.3L1118,69.4z M1116,68.9l-1.2,0.8c-0.5-0.7-1-1.4-1.6-2l1.2-0.7
				C1115,67.5,1115.5,68.2,1116,68.9L1116,68.9z M1121.1,70.6l-1.2,0.7c-0.6-1.2-1.3-2.3-2.2-3.4l1.2-0.7
				C1119.7,68.3,1120.5,69.4,1121.1,70.6L1121.1,70.6z"/>
		</g>
	</g>
	<path d="M1105.8,22v21c0,0.1,0,0.9,0,1c-0.4,2-1.9,3-4,3h-26c-0.3,0-0.7,0-1,0c-1.8-0.4-3.1-2.1-3-4c0-5.8-1-12.2-1-18v-7
		c0-0.5,0.6-0.7,1-1s0.6,0,1,0h28c0.5,0,0.7-0.5,1,0c0.1,0.3,0,0.7,0,1c0,0.8,0,2.2,0,3l0,0c0.6,0,1.4,0,2,0S1105.6,21.3,1105.8,22
		C1105.8,22.1,1105.8,21.9,1105.8,22z M1101.8,22L1101.8,22v20c0,0.5,0.5-0.1,1,0s0,0.6,0,1s0.4,1,0,1c-0.3,0-0.7,0-1,0
		c-0.9-0.2-1-1-1-2V18h-27c-0.5,0-1,0.5-1,1v24c0,1.7,1.3,3,3,3h26c1.6,0,2-1.4,2-3V23c0-0.1,0-0.9,0-1s0.1,0,0,0
		C1103.1,22,1102.6,22,1101.8,22z M1080.8,25h4c0.5,0,1,0.3,1,0.8c0,0.1,0,0.1,0,0.2v8c0,0.5-0.3,1-0.8,1h-8.2
		c-0.5,0.1-0.9-0.3-1-0.8c0,0,0,0,0,0c0-0.1,0-0.1,0-0.2v-8c-0.1-0.5,0.3-0.9,0.7-1c0.1,0,0.2,0,0.3,0H1080.8z M1077.8,30
		c0,1,0,2,0,3c0,0.3-0.3,0,0,0h6c0.2,0,0,0.3,0,0c0-1.9,0-4.1,0-6c0-0.3,0.2,0,0,0c-1.9,0-4.1,0-6,0c-0.3,0,0-0.2,0,0
		C1077.8,27.9,1077.8,29.1,1077.8,30z M1076.8,21C1076.7,21,1076.9,21,1076.8,21c-0.5,0.1-0.9,0.5-1,1c0,0.4,0.6,0.9,1,1
		c0.2,0-0.2,0,0,0h19c0.3,0,0.7,0,1,0c0.3-0.1,0-0.7,0-1c0-0.6-0.4-1-1-1H1076.8z M1076.8,41C1076.7,41,1077,41,1076.8,41
		c-0.3,0.1-1,0.7-1,1s0.5,0,1,0h8c0.4,0,1,0.4,1,0c0-0.5-0.5-1-1-1H1076.8z M1096.8,42C1097.2,42,1096.7,42.3,1096.8,42s0.3-0.8,0-1
		s-0.8,0-1,0c-1.4,0-2.6,0-4,0h-3c-0.1,0,0.1,0,0,0c-0.4,0.1-1,0.6-1,1s0.6,0,1,0H1096.8z M1088.8,25c-0.5,0.1-0.9,0.5-1,1
		c0.1,0.5,0.5,0.9,1,1c0.1,0-0.1,0,0,0h7c0.2,0,0.8,0,1,0c0.3-0.1,0-0.7,0-1c0-0.5,0.5-1,0-1c-1.3,0-2.7,0-4,0S1090.1,25,1088.8,25z
		 M1096.8,38C1097.3,38,1096.8,38.4,1096.8,38s0.5-1,0-1h-8c-0.2,0,0.2,0,0,0c-0.4,0.2-0.8,0.6-1,1c-0.1,0.5,0.5,0,1,0H1096.8z
		 M1080.8,38h4c0.4,0,1,0.4,1,0c-0.1-0.5-0.5-0.9-1-1h-8c-0.1,0,0.1,0,0,0c-0.4,0-1,0.6-1,1s0.5,0,1,0H1080.8z M1093.8,31
		c1,0,2,0,3,0c0.5,0,0.1-0.5,0-1s0.5-1,0-1h-8c-0.1,0,0.1,0,0,0c-0.5,0.1-0.9,0.5-1,1c0,0.6,0.4,1,1,1c1.3,0,2.7,0,4,0H1093.8z
		 M1091.8,33h-3c-0.6,0-1,0.4-1,1c0,0.4,0.5,1,1,1h8c0.4,0,0-0.6,0-1s0.5-1,0-1H1091.8z"/>
	<g>
		<g>
			<path class="st1" d="M1160.4,63.8l-0.9,1.1c-0.9-0.8-1.8-1.4-2.8-2l0.8-1.2C1158.6,62.3,1159.6,63,1160.4,63.8z M1160.6,66.4
				c-0.6,1.9-1.5,3.7-2.5,5.4l-1.2-0.9c1-1.7,1.8-3.4,2.4-5.2L1160.6,66.4z M1160.8,60.2l-1,1c-0.8-0.9-1.8-1.7-2.8-2.5l1-1
				C1159.1,58.4,1160,59.2,1160.8,60.2L1160.8,60.2z M1170.8,63.3h-4.4v2.2h3.6v6.3h-1.4V71h-5.7v0.8h-1.4v-6.3h3.6v-2.2h-4.4V62
				h4.4v-2.2c-1.3,0.1-2.4,0.2-3.6,0.2l-0.5-1.3c2.9,0.1,5.9-0.3,8.7-1l0.7,1.2c-1.3,0.4-2.6,0.6-3.9,0.8V62h4.4L1170.8,63.3z
				 M1168.5,69.6v-2.8h-5.7v2.8H1168.5z"/>
			<path class="st1" d="M1180.7,61.5h-3.1v0.9h2.8v4.7h-2.8V68h2.8v1.1h-2.8v1c0.9-0.1,1.9-0.2,2.8-0.4l0.1,1.1
				c-2.3,0.4-4.8,0.7-7.3,1l-0.3-1.2l3.4-0.3v-1.2h-2.8V68h2.8v-0.9h-2.8v-4.7h2.8v-0.9h-3.2v-1.1h3.2v-0.9
				c-0.7,0.1-1.5,0.2-2.5,0.2l-0.3-1.1c2.2-0.1,4.4-0.3,6.5-0.8l0.6,1c-0.8,0.2-1.7,0.3-2.9,0.5v1h3.1L1180.7,61.5z M1176.3,64.3
				v-0.8h-1.5v0.8H1176.3z M1176.3,66.1v-0.8h-1.5v0.8H1176.3z M1179,64.3v-0.8h-1.5v0.8H1179z M1179,66.1v-0.8h-1.5v0.8H1179z
				 M1186.6,60.8c0,2.2-0.1,4.4-0.2,6.4c0,1.2-0.1,2.4-0.3,3.6c-0.1,0.3-0.3,0.6-0.5,0.8c-0.4,0.2-0.8,0.3-1.3,0.3
				c-0.3,0-0.6,0-0.9,0l-0.4-1.4c0.4,0,0.7,0,1,0c0.5,0,0.7-0.1,0.8-0.2c0.2-0.9,0.3-1.9,0.3-2.8c0.1-1.8,0.1-3.6,0.1-5.3h-1.4
				c0.1,3.4-0.6,6.7-2.1,9.7l-1.2-0.6c1.5-2.8,2.2-6,2-9.1h-1.4v-1.3h1.4c0-1.3,0-2.3,0-2.9h1.4c0,1,0,2,0,2.9L1186.6,60.8z"/>
			<path class="st1" d="M1203,62.7l-0.7,1.3c-0.5-0.1-0.9-0.2-1.4-0.4v6h-6.8l0.7,0.8c-1.7,0.8-3.5,1.3-5.3,1.6l-0.7-1.3
				c1.5-0.2,3-0.5,4.4-1h-2.4v-6h3l-0.6-0.9c1.6-0.3,3.1-1.2,4.2-2.5l1.4,0.3c-0.1,0.2-0.2,0.4-0.3,0.5
				C1199.9,62,1201.4,62.5,1203,62.7z M1193.6,62.3h-4.7V61h4.7V62.3z M1193.5,59.7h-4.3v-1.3h4.3V59.7z M1199.5,65.3v-0.6h-7.1v0.6
				L1199.5,65.3z M1199.5,66.9v-0.6h-7.1v0.6H1199.5z M1199.5,68.6v-0.6h-7.1v0.6H1199.5z M1202.7,59.9c-0.4,0.6-0.9,1.2-1.4,1.8
				l-1.2-0.7c0.1-0.2,0.4-0.5,0.9-1.1h-5c-0.4,0.5-0.9,1-1.4,1.4l-1.1-0.9c1-0.8,1.8-1.7,2.4-2.7l1.3,0.4c-0.1,0.2-0.2,0.4-0.3,0.6
				h5.9L1202.7,59.9z M1200.8,63.6c-1.1-0.4-2.2-0.9-3.1-1.6c-0.8,0.7-1.6,1.2-2.6,1.5L1200.8,63.6z M1202.9,70.8l-0.8,1.2
				c-1.5-0.5-3.1-0.8-4.7-1l0.7-1.2C1199.8,69.9,1201.3,70.3,1202.9,70.8z"/>
			<path class="st1" d="M1210.1,60.5h-5.2v-1.3h2c-0.1-0.4-0.3-0.7-0.5-1l1.4-0.5c0.3,0.5,0.5,1,0.7,1.5h1.5L1210.1,60.5z
				 M1209.7,62.9h-4.4v-1.3h4.4V62.9z M1209.7,65.2h-4.4v-1.3h4.4V65.2z M1209.7,71.4h-1.4v-0.7h-1.7v1.1h-1.4v-5.5h4.5L1209.7,71.4
				z M1208.3,69.4v-1.8h-1.7v1.8L1208.3,69.4z M1219,68.1c-0.1,0.8-0.2,1.5-0.4,2.3c-0.1,0.5-0.3,0.9-0.6,1.3
				c-0.2,0.2-0.4,0.3-0.7,0.3c-0.3,0-0.6-0.1-0.8-0.4c-0.4-0.7-0.6-1.4-0.7-2.2c-0.2-1.1-0.3-2.1-0.3-3.2v-6.7h-2.2v4.3h1.7v1.4
				h-1.7v6.6h-1.4v-6.6h-1.5v-1.4h1.5v-4.3h-1.3v-1.4h6.2v8.3c0,1.2,0.2,2.4,0.5,3.6c0.2-0.9,0.4-1.9,0.4-2.8L1219,68.1z"/>
		</g>
	</g>
	<path d="M1170.8,35C1170.8,34.7,1170.8,35.2,1170.8,35c0.2-1.2,1-2.3,2-3c1.7-1,3.3-2,5-3c0.2-0.1-0.1,0.2,0,0c0.7-0.9,1.3-2.1,2-3
		c2-2.6,5-5.4,7-8c0.5-0.8,1.5-1.1,2.4-0.6c0,0,0,0,0,0c0.3,0.2,0.5,0.4,0.6,0.6c0.7,1.2,1.3,2.8,2,4c0.1,0.2-0.3,0,0,0
		c0.6-0.1,1.4,0.1,2,0c0.4,0,0.8,0.6,1,1s0.6,0.5,1,1c0.4,0.6,0.4,1.4,0,2c-0.3,0.5-0.7,0.5-1,1c-0.1,0.3-0.1,0.7,0,1
		c0.7,1.1,1.4,1.8,2,3s0.2,2.8-1,3c-1,0.2-2-0.2-3,0c-3.1,0.6-5.9,1.4-9,2c-0.1,0-0.9,0-1,0c0.2,0.4,0.8,1.6,1,2s0.5,0.7,0,1
		s-1.5,0.7-2,1c0.2,0.4,0.8,0.6,1,1c0.4,0.8,0.6,1.2,1,2c0.8,1.5,0.7,3.6-1,4c-1.1,0.2-2.4-1-3-2c-0.7-1.2-1.3-1.8-2-3
		c-0.3-0.5-0.7-1.5-1-2c-0.1-0.2-0.8-0.1-1,0c-2.6,0.8-4.4-0.4-5-3c0-0.1,0-0.9,0-1V35z M1185.8,20
		C1185.7,20.1,1185.9,19.9,1185.8,20c-1.4,1.8-2.6,4.2-4,6c-0.8,1.1-2.2,2-3,3c-0.1,0.3-0.1,0.7,0,1c1,1.8,3,3.2,4,5
		c0.1,0.2-0.2,0,0,0c3.2-0.6,6.8-1.4,10-2c0.4-0.1,0.6,0.1,1,0L1185.8,20z M1177.8,30c-1.8,1-3.3,2-5,3c-1.1,0.7-1.4,2.7-1,4
		c0.6,2,3.1,2,5,1c1.5-0.8,2.5-1.2,4-2c0.2-0.1,0.8,0.1,1,0L1177.8,30z M1195.8,32C1195.8,31.9,1195.9,32.1,1195.8,32l-4-7
		c-1.2-2.1-1.8-3.9-3-6c-0.1-0.1-0.9,0.1-1,0c-0.2-0.3,0.3-0.2,0,0s-1.2-0.3-1,0c1.2,2.1,2.8,4.9,4,7s2.7,3.8,4,6c0,0.1-0.1,1,0,1
		C1195.2,33.1,1195.8,32.5,1195.8,32z M1177.8,39C1177.8,39.1,1177.8,39,1177.8,39c1.1,1.9,1.9,4.2,3,6c0.4,0.6,1.2,0.7,1.8,0.2
		c0.1-0.1,0.2-0.2,0.2-0.2c0.3-0.6,0.3-1.4,0-2c-1-1.7-2-3.3-3-5c0-0.1,0.1,0.1,0,0L1177.8,39z M1193.8,26c0.3-0.4,0.8-0.6,1-1
		c0,0,0,0.1,0,0c-0.2-0.4-0.8-0.6-1-1c0-0.1,0.1-1,0-1c-0.4,0-0.5,0-1,0L1193.8,26z M1182.8,38l-1-1h-1l1,1H1182.8z M1195.8,16
		c-0.4,0.2-0.8,0.6-1,1c0,0.1,0-0.1,0,0c-0.2,0.6,0.1,1.4,0,2c0,0.5,0.3,0.9,0.8,1h0.2c0.3-0.1-0.1-0.8,0-1c0.2-0.7,0.8-1.3,1-2
		C1197,16.4,1196.3,16.3,1195.8,16z M1198.8,22c1.1-0.6,2.9-1.4,4-2c0.4-0.2,0.2-0.7,0-1s-0.6-0.2-1,0c-0.7,0.4-1.3,0.6-2,1
		c-0.5,0.3-0.5,0.7-1,1c-0.3,0.2-1.1-0.3-1,0S1198.5,22,1198.8,22z M1197.8,25c0,0.3,0.7,0.9,1,1c0.8,0.2,1.2-0.2,2,0
		c0.4,0.1,0.9,0.3,1,0s0.4-0.9,0-1c-0.6-0.2-1.4,0.1-2,0c-0.3-0.1-0.8,0-1,0C1198.4,25,1197.9,24.7,1197.8,25z M1175.8,37
		c0.4-0.2,0.6,0.2,1,0s0.2-0.7,0-1s-0.6-0.2-1,0s-0.7-0.2-1,0s-0.7,0.3-1,0s0.3-0.2,0,0s-1.2,0.7-1,1c0.5,0.6,1.2,1,2,1
		C1175,38,1175.5,37.1,1175.8,37z M1179.8,35c-0.1-0.5-0.5-0.9-1-1c-0.5,0.1-0.9,0.5-1,1c0.1,0.5,0.5,0.9,1,1
		C1179.3,35.9,1179.7,35.5,1179.8,35z"/>
	<g>
		<g>
			<path class="st1" d="M1367.1,68.1h-5.4v3.7h-1.4v-3.7h-5.5v-8h5.5v-2.3h1.4v2.3h5.4V68.1z M1360.2,63.4v-2h-4v2H1360.2z
				 M1360.2,66.8v-2.1h-4v2.1H1360.2z M1365.6,63.4v-2h-4v2H1365.6z M1365.6,66.8v-2.1h-4v2.1H1365.6z"/>
			<path class="st1" d="M1374.9,60.5h-4.9v-1.3h1.9c-0.2-0.4-0.4-0.8-0.6-1.1l1.5-0.4c0.3,0.5,0.5,1,0.7,1.5h1.5L1374.9,60.5z
				 M1374.4,62.9h-4.2v-1.3h4.2V62.9z M1374.4,65.2h-4.2v-1.3h4.2V65.2z M1374.4,71.5h-1.4v-0.7h-1.4v1h-1.4v-5.5h4.2V71.5z
				 M1373.1,69.5v-1.9h-1.4v1.8L1373.1,69.5z M1383.1,70.5c0,0.9-0.5,1.4-1.6,1.4h-0.9l-0.5-1.3h1.3c0.2,0,0.3-0.1,0.3-0.3v-0.8
				h-4.5c-0.1,1-0.5,1.9-1.2,2.6l-1.2-0.8c0.8-1,1.2-2.2,1.1-3.5v-3.2h7.1L1383.1,70.5z M1383.8,63.7h-8.8v-1.2h3.7v-0.8h-3v-1.1h3
				V60h-3.4v-1.2h3.4v-1h1.4v1h3.4V60h-3.4v0.7h3v1.1h-3v0.8h3.7L1383.8,63.7z M1381.7,68.3v-0.8h-4.3c0,0.3,0,0.5,0,0.8H1381.7z
				 M1381.7,66.4v-0.8h-4.3v0.8H1381.7z"/>
			<path class="st1" d="M1390.9,68.1c-1.5,0.9-3.1,1.6-4.8,2.1l-0.4-1.4c0.7-0.2,1.3-0.4,1.9-0.7v-8h-1.7v-1.4h4.5v1.4h-1.4v7.4
				c0.7-0.3,1.2-0.6,1.7-0.9L1390.9,68.1z M1399.8,59.4h-3.8c-0.1,0.5-0.3,0.9-0.5,1.4h3.6v8.1h-5.2l0.7,0.8
				c-1.4,0.9-2.8,1.7-4.3,2.3l-0.9-1.2c1.4-0.5,2.7-1.2,3.9-2h-1.8v-8h2.6c0.2-0.4,0.4-0.9,0.5-1.4h-3.5v-1.3h8.7L1399.8,59.4z
				 M1397.7,63.1V62h-4.8v1.1L1397.7,63.1z M1397.7,65.3v-1.1h-4.8v1.1H1397.7z M1397.7,67.6v-1.1h-4.8v1.1L1397.7,67.6z M1400,70.8
				l-0.9,1.1c-1.2-0.7-2.4-1.2-3.7-1.6l0.8-1.2C1397.6,69.5,1398.8,70.1,1400,70.8L1400,70.8z"/>
			<path class="st1" d="M1414.4,71.7h-1.5v-0.8h-8.1v0.8h-1.5V58.2h11V71.7z M1412.9,62v-2.4h-8.1V62H1412.9z M1412.9,65.8v-2.4
				h-8.1v2.4L1412.9,65.8z M1412.9,69.6v-2.5h-8.1v2.5L1412.9,69.6z"/>
		</g>
	</g>
	<path d="M1395.8,44V31h2v15h-28V18h15v2h-12v24H1395.8z M1394.8,16c-1.4,1.4-2.6,2.6-4,4c-2.8,2.8-5.2,6.2-8,9c-0.1,0.1,0-0.1,0,0
		c0,1.3,0,2.7,0,4c0,0.1,0-0.1,0,0l0,0c1.2,0,2.8,0,4,0c0.3,0-0.2,0.2,0,0c3.3-3.4,6.7-6.6,10-10c0.8-0.8,2.2-1.2,3-2
		c0.1-0.1-0.1-0.9,0-1l-4-4C1395.7,16.1,1394.9,15.9,1394.8,16z M1384.8,30C1384.8,29.9,1384.7,30.1,1384.8,30c1.8-1.8,3.2-4.2,5-6
		s3.3-3.3,5-5c0.1-0.1-0.1,0.1,0,0l2,1c0,0,0.1,0.9,0,1c-0.8,0.8-2.2,1.1-3,2c-2.6,2.7-5.4,5.3-8,8c-0.2,0.2,0.3,0,0,0s-0.6,0-1,0
		C1384.8,30.5,1384.8,30.5,1384.8,30z M1385.8,39h-10v2h10V39z"/>
</g>
<g>
	<path class="st2" d="M232,15L232,15l-1,1l0,0v1h-1v1l0,0l-1,2h-1v1l-1,1l0,0l-1,1c-0.2,0.2,0.2,0.8,0,1h-1l0,0l0,0l0,0l-2,3l0,0v1
		h-1v1h-1v1h12v1h-1v1l0,0c-0.2,0.3-0.8,0.7-1,1l0,0l-1,1l0,0v1l-1,1l0,0l-1,1l0,0l-1,1l0,0v1l0,0c-0.1,0.2-0.9-0.2-1,0v1
		c-0.5,0.7-0.5,1.3-1,2h-1l-1,2l0,0l0,0l-1,1l0,0v1c-0.1,0.2-0.9-0.2-1,0s0,0.9,0,1h13v10c0,0.5-0.5,1-1,1h-23V13l0,0
		c0.1,0,0.9,0,1,0h21c0.4,0,0.6,0,1,0v1l0,0L232,15z"/>
	<path class="st3" d="M257,40h1v-1c0.3-0.2,0.7,0.2,1,0l0,0l1-1c0.6-0.7,1.4-1.3,2-2c0.1-0.2-0.1-0.8,0-1s-0.1-0.7,0-1s0.9-0.7,1-1
		v-1l0,0l0,0l0,0v-2h-14l-2,1c-0.3,0.1-0.7-0.1-1,0l0,0l-1,1l-2,1l0,0l0,0v1h-1l-1,1c0.1,0.3,0.2,0.9,0,1c-0.2,0.4-0.8,0.6-1,1l0,0
		v3l0,0c0,0.7,0.3,1,1,1h11c-0.1,0,0.1,0,0,0l0,0c0.1,0-0.1,0,0,0h4v-1C256.5,39.8,256.5,40.2,257,40z"/>
	<path class="st3" d="M259,55v1h-1c-0.4,0.2-0.6,0.8-1,1l0,0c-0.3,0.1-0.7-0.1-1,0l0,0l-2,1h-14v-4h1l0,0c0.5-0.9,0.5-2.1,1-3l0,0
		l1-1l1-1l0,0l1-1c0.9-0.4,2.1-0.6,3-1h2c0.1,0-0.1,0,0,0h13c0.2,0-0.1-0.2,0,0l0,0v2l0,0v1l0,0v1h-1c-0.2,0.3,0.2,0.7,0,1
		s0.1,0.8,0,1h-1v1L259,55z"/>
	<path class="st3" d="M243,50L243,50L243,50L243,50L243,50z"/>
	<path class="st3" d="M243,51L243,51L243,51L243,51z"/>
	<path class="st3" d="M246,14h1l1-1h15c0.1,0-0.1,0,0,0l0,0c0.2,0,0-0.2,0,0s0,0.7,0,1v1l0,0v2l0,0v1h-1v1l-1,1l0,0l-1,1l0,0l-1,1
		l0,0l0,0l0,0l-1,1l0,0l0,0h-1l-2,1h-2l0,0c-0.2,0,0.2,0,0,0h-13c-0.1,0,0.1,0,0,0l0,0c0-0.4,0-1.6,0-2s-0.1-0.6,0-1l0,0
		c0.2-0.5,0.8-0.5,1-1v-1l0,0l0,0v-1h1v-1h1v-1h1v-1L246,14z"/>
	<path class="st3" d="M240,23L240,23C240,23,240,23.1,240,23z"/>
	<g>
		<g>
			<path class="st4" d="M280,45.2l-1.2-4c1.3-0.3,2.8-0.8,4.5-1.3v-6.8h-3.6v-3.8h3.6v-6.5h-3.9v-3.8H291v3.8h-3.9v6.5h3.4v3.8h-3.4
				v5.8l3.5-1l0.6,3.6C287.7,42.7,283.9,43.9,280,45.2z M310.8,50.2c-2.8-1.1-5.3-3-7-5.4l0.3,3.2l-7.5,1.4l-3.1,0.6l-0.9-3.4
				l1.3-0.2c0.8-0.1,1.3-0.2,1.7-0.3v-2.5c-1.6,0.8-3.2,1.4-4.9,1.9c-0.6-1.1-1.4-2-2.4-2.9c3-0.7,5.8-1.8,8.5-3.2h-4v-8.2h17.8v8.2
				h-6.2c0.5,1,1.1,1.9,1.8,2.7c1.1-0.8,2.2-1.6,3.2-2.5l3,2.2c-1.7,1.1-3.1,1.9-4.1,2.4c1.5,1.2,3.1,2.1,4.9,2.6
				C312.3,47.8,311.4,48.9,310.8,50.2L310.8,50.2z M290.7,30v-3.3h22V30H290.7z M292.1,25.5v-7.8h19.2v7.8L292.1,25.5z M295.5,22.6
				h2.2v-2.1h-2.2L295.5,22.6z M296.7,36.4h10.1v-2h-10.1L296.7,36.4z M299.4,45.4l4.4-0.8c-1-1.4-1.8-2.9-2.5-4.6
				c-0.5,0.4-1.2,0.9-2,1.4L299.4,45.4z M300.4,22.6h2.3v-2h-2.3V22.6z M305.4,22.6h2.3v-2h-2.4L305.4,22.6z"/>
		</g>
		<g>
			<path class="st5" d="M316.3,44.7l-1.4-4.3c1.1-0.4,2.5-0.9,4.4-1.7v-9.7h-3.6V25h3.6v-8h4v8h3.3v4h-3.3v8.1l1.7-0.7l1.7-0.7
				l0.9,3.8c-2,1-5,2.4-8.9,4.2L316.3,44.7z M326.2,50.2c-0.3-0.7-0.6-1.3-1-1.9c-0.4-0.6-0.8-1.2-1.3-1.7c2.1-0.3,4.1-1,5.8-2.2
				c1-0.9,1.8-2,2-3.3h-3.1V29.7H347v11.4h-4.4v4.2c0,0.3,0,0.6,0.1,0.8c0.1,0.1,0.3,0.2,0.6,0.2h1.7c0.3,0,0.6-0.2,0.6-0.5
				c0.2-0.8,0.2-1.7,0.2-2.6c0.5,0.4,1.1,0.7,1.6,0.9c0.6,0.3,1.3,0.5,1.9,0.6c0,1.5-0.4,2.9-1.1,4.2c-0.7,0.7-1.7,1.1-2.8,1h-2.8
				c-1.7,0-2.8-0.3-3.3-1c-0.6-1.1-0.9-2.3-0.8-3.6v-4.2H336c-0.3,2.1-1.2,4-2.6,5.5C331.4,48.5,328.9,49.7,326.2,50.2L326.2,50.2z
				 M326.7,28.3v-3.5h4.8c-0.2-0.9-0.5-1.7-0.9-2.4l1.3-0.3h-4.4v-3.3h7.8v-2.2h4.2v2.2h8.5v3.3h-4l0.9,0.2
				c-0.3,0.7-0.8,1.6-1.3,2.5h5.1v3.5L326.7,28.3z M332.7,34.1h10.1v-1.8h-10.1L332.7,34.1z M332.7,38.5h10.1v-1.8h-10.1L332.7,38.5
				z M335,24.8h4.6h-0.2c0.4-0.9,0.8-1.8,1.1-2.7h-6c0.4,0.8,0.8,1.7,1,2.6L335,24.8z"/>
		</g>
		<g>
			<path class="st3" d="M368.5,50.3c-0.3-0.7-0.6-1.4-1.1-2c-0.4-0.7-0.9-1.3-1.4-1.9c3.1-1.3,5.8-3.4,7.7-6.2
				c-1.1-2.4-1.9-4.8-2.5-7.3c-0.5,0.9-1,1.7-1.6,2.5c-0.7-0.8-1.5-1.5-2.4-2.2c-1.5,1.8-3.2,3.5-5,4.9v0.7c1-0.1,2.5-0.2,4.4-0.4
				c0.9-0.1,1.6-0.1,2.1-0.2V42c-1.4,0.1-3.4,0.3-6,0.5h-0.5v3.6c0,0.7-0.1,1.5-0.3,2.2c-0.3,0.6-0.7,1-1.3,1.3
				c-1.7,0.5-3.4,0.7-5.2,0.6c-0.2-1.3-0.6-2.5-1.2-3.6c1.7,0,2.8,0,3.4,0c0.4,0,0.6-0.2,0.6-0.5v-3.1c-1.2,0.1-2.9,0.2-5.1,0.5
				l-1.7,0.1l-0.4-3.8c2.8-0.2,5.2-0.4,7.2-0.5v-2.8h1.4c0.7-0.6,1.3-1.2,1.9-1.8H359c-1.7,1.5-3.6,2.8-5.6,3.9
				c-0.8-1.2-1.8-2.3-2.9-3.3c1.3-0.6,2.6-1.4,3.8-2.2v-1.7h2.3c0.5-0.4,1.1-1,2-1.8h-7.2v-3.7h5.2v-2.4h-4.1v-3.6h4.1v-3.3h4v3.3
				h3.5v2.5c0.9-1.6,1.6-3.2,2.3-4.9l4,1.1c-1,2.5-2.3,5-3.7,7.3h2.3v2.4c1.7-3.7,2.8-7.7,3.3-11.7l4.4,0.6c-0.4,2.1-0.8,4-1.3,5.9
				h9.6v4h-2.1c-0.5,4.6-1.9,9.2-3.9,13.4c1.5,2.5,3.7,4.6,6.4,6c-0.6,0.5-1.1,1.1-1.6,1.8c-0.5,0.6-1,1.3-1.4,2
				c-2.4-1.5-4.5-3.4-6.1-5.8C374.1,46.9,371.5,48.9,368.5,50.3z M360.6,25.8h1.2c0.6-0.9,1.2-1.7,1.6-2.4h-2.8V25.8z M366.5,32.1
				c0.7-0.8,1.2-1.7,1.7-2.6H364c-0.7,0.8-1.2,1.4-1.5,1.8h2.1l0.8-0.2L366.5,32.1z M376.3,35.4c1-2.7,1.6-5.5,1.9-8.4h-4.1
				C374.6,29.9,375.4,32.7,376.3,35.4L376.3,35.4z"/>
		</g>
		<g>
			<path class="st2" d="M416.2,31.9c-0.7-0.8-1.4-1.6-2.2-2.3c-7.8,0.3-16.1,0.5-24.7,0.7l-0.1-3.9l5-0.1c0.7-1,1.3-2,1.9-3.1H388
				v-3.7h13.8v-3.1h4.4v3.1h13.8v3.7h-7.1c2.6,1.8,5,3.9,7.2,6.2L416.2,31.9z M392.9,50.1V31.7h22.3v14.5c0,0.8-0.1,1.6-0.4,2.3
				c-0.3,0.6-0.9,1-1.5,1.2c-2.1,0.5-4.3,0.6-6.5,0.5c-0.3-1.2-0.7-2.3-1.3-3.4c1.5,0.1,3,0.1,4.6,0.1c0.2,0,0.5,0,0.6-0.1
				c0.1-0.1,0.2-0.3,0.2-0.5v-1.7h-13.6v5.7L392.9,50.1z M397.2,36.8h13.6v-1.7h-13.6V36.8z M397.2,41.5h13.6v-1.7h-13.6V41.5z
				 M399.1,26.3l5.7-0.1l5.3-0.1c-0.8-0.7-1.6-1.3-2.3-1.8l1.7-1h-7.9C400.9,24.2,400,25.3,399.1,26.3z"/>
		</g>
		<g>
			<path d="M424.7,50.1c-0.1-1.4-0.5-2.7-1-4c1,0.1,2,0.1,3,0c0.3,0,0.6-0.2,0.6-0.5c0,0,0-0.1,0-0.2v-8c-0.7,0.2-1.8,0.5-3.1,0.9
				l-0.3,0.1l-0.9-4.1c0.6-0.1,1.6-0.4,3.1-0.7l1.3-0.3v-6.1h-3.8v-3.9h3.8v-6.8h3.9v6.8h3.3v3.9h-3.3v5.2l2.9-0.8l0.5,3.9
				c-1.5,0.5-2.7,0.8-3.5,1v9.1c0,0.8-0.1,1.6-0.3,2.4c-0.2,0.6-0.6,1-1.1,1.4C428.8,49.9,427.1,50.2,424.7,50.1z M443.4,50.1v-8.3
				c-2,3-4.8,5.5-8,7.2c-0.7-1.2-1.7-2.3-2.7-3.3c1.7-0.7,3.3-1.7,4.7-2.8c1.4-1.1,2.7-2.5,3.7-4h-6.2v-3.8h8.5v-3.6h4.1
				c-0.4-0.3-0.7-0.8-0.9-1.4c-0.2-0.8-0.2-1.5-0.2-2.3v-5.2h3.8v5.2c0,0.3,0,0.6,0.2,0.8c0.1,0.1,0.3,0.2,0.6,0.2h1.7
				c0.3,0,0.6-0.2,0.7-0.5c0.2-0.7,0.2-1.5,0.2-2.2c0.5,0.3,1,0.6,1.5,0.8c0.6,0.2,1.2,0.4,1.8,0.5c0,1.3-0.4,2.6-1.1,3.8
				c-0.7,0.7-1.6,1.1-2.6,1h-2.8c-0.9,0.1-1.9-0.1-2.7-0.5v3.4h8.7v3.8h-6.4c1.9,2.7,4.5,5,7.5,6.5c-1.1,0.9-2.1,2-2.9,3.3
				c-2.7-1.8-5.1-4.1-6.9-6.8v8.2L443.4,50.1z M436.5,33c-0.2-0.6-0.5-1.1-0.9-1.6c-0.3-0.5-0.7-1-1.2-1.4c2.5-0.5,4.1-1.4,5-2.6
				c0.8-1.4,1.2-3.1,1.2-4.7h3.9c-0.2,3-0.7,5.2-1.7,6.6C441.7,31,439.6,32.2,436.5,33z M435.2,25.5v-7.4h21v7.1h-3.8v-3.5h-13.6
				v3.7L435.2,25.5z"/>
			<path d="M462.7,49.9c-1-1.1-2.1-2.1-3.3-3c1.6-0.6,3.1-1.3,4.5-2.1c1.3-0.7,2.6-1.7,3.7-2.8l4.1,1.5c-1.3,1.3-2.7,2.5-4.2,3.6
				C465.9,48.2,464.3,49.1,462.7,49.9z M473.8,50.1v-8.4c-4.6,0.2-9,0.3-13.3,0.3l-0.2-3.8c3.3,0,6,0,8.1,0c0.4-0.2,0.9-0.5,1.6-0.9
				c-1.9-1.4-3.9-2.7-6-3.8l2.8-2.5l0.6,0.3c0.3,0.1,0.6,0.3,0.9,0.5c1.2-1,2.3-2,3.4-3.1h-7.2v3.9h-4.1v-7.5h13.3V23h-13v-3.7h13
				v-2.8h4.2v2.8h13.3V23h-13.3v2.2h13.8v7.5h-4.2v-3.9h-11.9l1.1,0.5c-1.7,1.5-3.5,3-5.4,4.3c0.9,0.5,1.6,1,2.2,1.5
				c2.5-1.6,4.8-3.4,7.1-5.3l3.8,2c-3.1,2.3-6.2,4.4-9.5,6.4l8.5-0.1c-0.7-0.5-1.5-1.1-2.5-1.8l2.8-2.2c3.1,1.8,5.9,3.9,8.5,6.3
				l-3,2.5c-0.7-0.7-1.3-1.2-1.7-1.6l-9.3,0.3v8.5L473.8,50.1z M488.6,49.8c-1.2-1-2.5-2-3.8-2.9c-1.6-1-3.1-2-4.7-2.8l3.2-2.2
				c3.1,1.5,6,3.4,8.8,5.5L488.6,49.8z"/>
			<path d="M511.9,50.1V27h-1.8v-3.8l-2.1,2.3c-0.4-0.6-0.8-1.2-1.2-1.8v1.9h-6.5v-1.3c-0.8,1-1.7,1.9-2.7,2.8H509v11.2h-8.1v1.5
				h8.2V43h-8.2v1.5h8.7v3.3h-8.7v2.3h-3.7V27.4l0,0c-0.7-1-1.6-1.9-2.7-2.6c2.8-2.2,4.9-5.1,6.3-8.3h4.1c1.9,1.7,3.7,3.5,5.2,5.5
				v-1.7h6.8v-3.8h4.2v3.8h7.3V27h-2.5v8.8h-10v2h11.6V50h-4v-1.6h-7.6v1.8L511.9,50.1z M500.9,31.4h4.6v-1.4h-4.6V31.4z
				 M500.9,35.5h4.6V34h-4.6V35.5z M501.4,22.8h4.7c-0.8-1.1-1.7-2.1-2.7-3.1C502.8,20.8,502.1,21.9,501.4,22.8L501.4,22.8z
				 M514,26.4h10.3v-2.7h-10.4L514,26.4z M515.8,32.5h6v-2.7h-6V32.5z M515.8,44.8h7.6v-3.4h-7.6V44.8z"/>
		</g>
	</g>
	<g>
		<g>
			<path d="M210.5,76V65h6.3v1.1h-5v3.6h4.2v1h-4.2V75h5.2v1H210.5z"/>
			<path d="M219,76V65h1.3l4.2,7.1l1.2,2.2h0.1c-0.1-1.6-0.2-2.7-0.2-3.4V65h1.2v11h-1.3l-4.1-7.1l-1.2-2.3H220
				c0.1,1.8,0.1,3,0.1,3.3v6L219,76z"/>
			<path d="M231.5,76l-3.5-11h1.3l1.9,6.1l0.4,1.4c0.3,1,0.5,1.7,0.7,2.2h0.1c0.1-0.5,0.4-1.2,0.6-2c0.2-0.7,0.4-1.2,0.5-1.6
				l1.8-6.1h1.3l-3.5,11H231.5z"/>
			<path d="M237.6,76V65h1.2v11H237.6z"/>
			<path d="M249,76h-1.4l-2.7-4.8h-2.1V76h-1.2V65h3.4c2.5,0,3.8,1,3.8,3c0.1,1.3-0.7,2.5-2,2.9c-0.2,0.1-0.4,0.1-0.6,0.2L249,76z
				 M242.8,66v4.2h1.9c1.8,0,2.7-0.7,2.7-2.2c0.1-1-0.7-1.8-1.6-1.9c-0.4-0.1-0.7-0.1-1.1-0.1H242.8z"/>
			<path d="M254.7,76.2c-1.4,0-2.7-0.6-3.5-1.7c-0.8-1.2-1.2-2.6-1.2-4c-0.1-1.7,0.5-3.3,1.6-4.5c0.8-0.8,1.9-1.2,3-1.2
				c1.4,0,2.7,0.6,3.5,1.7c0.8,1.2,1.2,2.5,1.1,3.9c0.1,1.7-0.5,3.3-1.6,4.5C256.9,75.8,255.8,76.2,254.7,76.2z M254.7,75.1
				c1.1,0,2.2-0.6,2.7-1.6c0.5-0.9,0.7-2,0.7-3c0.1-1.4-0.4-2.8-1.4-3.8c-1.3-1.1-3.2-0.9-4.3,0.4c-0.1,0.2-0.2,0.3-0.3,0.5
				c-0.5,0.9-0.7,2-0.7,3c-0.1,1.4,0.4,2.8,1.3,3.9C253.2,74.9,253.9,75.1,254.7,75.1z"/>
			<path d="M261.4,76V65h1.3l4.2,7.1l1.2,2.2h0.1c-0.1-1.6-0.2-2.7-0.2-3.4v-6h1.2v11h-1.3l-4.1-7.1l-1.2-2.3h-0.1
				c0.1,1.8,0.1,3,0.1,3.3v6L261.4,76z"/>
			<path d="M271.9,76V65h1.5l2.1,6c0.1,0.2,0.2,0.6,0.4,1.2s0.3,0.9,0.4,1.2h0.1c0.1-0.4,0.4-1.1,0.8-2.3l2.1-6h1.5v11h-1.2v-6.3
				c0-0.5,0-1.6,0.1-3.2h-0.1l-0.9,2.5l-2.1,5.9h-0.9l-2.2-5.9l-0.9-2.5h-0.1c0.1,1.6,0.1,2.7,0.1,3.2V76H271.9z"/>
			<path d="M283.6,76V65h6.2v1.1h-5v3.6h4.2v1h-4.2V75h5.2v1H283.6z"/>
			<path d="M292,76V65h1.3l4.2,7.1l1.2,2.2h0.1c-0.1-1.6-0.2-2.7-0.2-3.4V65h1.2v11h-1.3l-4.1-7.1l-1.2-2.3H293
				c0.1,1.8,0.1,3,0.1,3.3v6L292,76z"/>
			<path d="M304.8,76v-9.9h-3.3V65h8v1.1h-3.4V76H304.8z"/>
			<path d="M317.2,76l-1.1-3.5H312l-1.1,3.5h-1.2l3.8-11h1.4l3.8,11H317.2z M312.3,71.6h3.5l-0.6-1.8c-0.2-0.7-0.6-1.9-1.1-3.7H314
				c-0.4,1.3-0.8,2.6-1.1,3.7L312.3,71.6z"/>
			<path d="M319.8,76V65h1.2v10h4.8v1H319.8z"/>
			<path d="M330.5,76V65h6.2v1.1h-5v3.6h4.2v1h-4.2V75h5.2v1H330.5z"/>
			<path d="M339,76V65h2.7c2.3,0,3.9,0.9,4.6,2.7c0.4,0.9,0.5,1.8,0.5,2.8c0,2.3-0.7,3.9-2.2,4.8c-0.9,0.5-1.9,0.8-2.9,0.7L339,76z
				 M340.2,75h1.4c1.7,0.2,3.2-0.9,3.7-2.5c0.2-0.6,0.3-1.3,0.3-2c0-2.3-0.8-3.7-2.5-4.2c-0.5-0.1-0.9-0.2-1.4-0.2h-1.4L340.2,75z"
				/>
			<path d="M352.7,76.2c-1.9,0.2-3.5-1.1-3.8-3c-0.1-0.5-0.2-1.1-0.1-1.6V65h1.2v6.6c0,2.3,0.9,3.5,2.6,3.6c1.5,0,2.4-0.9,2.6-2.7
				c0-0.3,0-0.6,0-0.9V65h1.2v6.5c0,2.8-1,4.3-3.1,4.6C353.2,76.2,353,76.2,352.7,76.2z"/>
			<path d="M363.4,76.2c-1.4,0-2.7-0.6-3.5-1.6c-0.9-1.2-1.3-2.6-1.2-4c-0.1-1.7,0.5-3.3,1.7-4.6c0.9-0.8,2-1.2,3.2-1.2
				c1.1,0,2.2,0.5,3,1.3l0,0l-0.7,0.8c-0.6-0.7-1.4-1.1-2.3-1.1c-1.2,0-2.3,0.6-2.8,1.6c-0.5,0.9-0.8,2-0.7,3
				c-0.1,1.4,0.4,2.9,1.4,3.9c0.6,0.5,1.3,0.8,2.1,0.7c1,0,2-0.5,2.6-1.3l0.7,0.8C365.9,75.6,364.7,76.2,363.4,76.2z"/>
			<path d="M374.6,76l-1.1-3.5h-4.1l-1.1,3.5H367l3.8-11h1.4l3.8,11H374.6z M369.7,71.6h3.5l-0.6-1.8c-0.2-0.7-0.6-1.9-1.1-3.7h-0.1
				c-0.4,1.3-0.8,2.6-1.1,3.7L369.7,71.6z"/>
			<path d="M379.5,76v-9.9h-3.3V65h8v1.1h-3.4V76H379.5z"/>
			<path d="M385.8,76V65h1.2v11H385.8z"/>
			<path d="M393.8,76.2c-1.4,0-2.7-0.6-3.5-1.7c-0.8-1.2-1.2-2.6-1.2-4c-0.1-1.7,0.5-3.3,1.6-4.5c0.8-0.8,1.9-1.2,3-1.2
				c1.4-0.1,2.7,0.6,3.5,1.7c0.8,1.2,1.2,2.5,1.1,3.9c0.1,1.7-0.5,3.3-1.6,4.5C396,75.8,394.9,76.2,393.8,76.2z M393.8,75.1
				c1.1,0,2.2-0.6,2.7-1.6c0.5-0.9,0.7-2,0.7-3c0.1-1.4-0.4-2.8-1.4-3.8c-1.3-1.1-3.2-0.9-4.3,0.4c-0.1,0.2-0.2,0.3-0.3,0.5
				c-0.5,0.9-0.7,2-0.7,3c-0.1,1.4,0.4,2.8,1.3,3.9C392.3,74.9,393,75.1,393.8,75.1z"/>
			<path d="M400.5,76V65h1.3l4.2,7.1l1.2,2.2h0.1c-0.1-1.6-0.2-2.7-0.2-3.4V65h1.2v11h-1.3l-4.1-7.1l-1.2-2.3h-0.1
				c0.1,1.8,0.1,3,0.1,3.3v6L400.5,76z"/>
			<path d="M414,76V65h6.2v1.1h-5v3.6h4.2v1h-4.3V75h5.2v1H414z"/>
			<path d="M421.1,76l3.2-5.7l-3-5.3h1.4l1.5,2.9c0.1,0.2,0.2,0.4,0.4,0.7s0.4,0.7,0.5,0.8h0.1c0.3-0.6,0.5-1.2,0.8-1.6l1.5-2.9h1.3
				l-3,5.4l3.2,5.6h-1.4l-1.7-3.1c-0.1-0.3-0.5-0.9-1-1.8h0l-0.9,1.8l-1.7,3.1H421.1z"/>
			<path d="M430.5,76V65h3c2.6,0,3.9,1,4.1,2.9c0,0.1,0,0.2,0,0.3c0.1,1.4-0.8,2.7-2.1,3.1c-0.6,0.2-1.3,0.3-1.9,0.3h-1.9V76H430.5z
				 M431.8,70.5h1.7c1.6,0,2.5-0.5,2.8-1.4c0.1-0.3,0.1-0.6,0.1-0.9c0.1-0.9-0.5-1.7-1.3-2c-0.6-0.2-1.1-0.2-1.7-0.2h-1.6V70.5z"/>
			<path d="M439.6,76V65h1.2v10h4.8v1H439.6z"/>
			<path d="M451.3,76.2c-1.4,0-2.7-0.6-3.5-1.7c-0.8-1.2-1.2-2.6-1.2-4c-0.1-1.7,0.5-3.3,1.6-4.5c0.8-0.8,1.9-1.2,3-1.2
				c1.4-0.1,2.7,0.6,3.5,1.7c0.8,1.1,1.2,2.5,1.2,3.9c0.1,1.7-0.5,3.3-1.7,4.5C453.5,75.8,452.4,76.2,451.3,76.2z M451.3,75.1
				c1.1,0,2.2-0.6,2.7-1.6c0.5-0.9,0.7-2,0.7-3c0.1-1.4-0.4-2.8-1.4-3.8c-1.3-1.1-3.2-0.9-4.3,0.4c-0.1,0.2-0.2,0.3-0.3,0.5
				c-0.5,0.9-0.7,2-0.7,3c-0.1,1.4,0.4,2.8,1.3,3.9C449.9,74.9,450.6,75.1,451.3,75.1z"/>
			<path d="M465.5,76h-1.4l-2.7-4.8h-2.1V76H458V65h3.4c2.5,0,3.8,1,3.8,3c0.1,1.3-0.7,2.5-2,2.9c-0.2,0.1-0.4,0.1-0.6,0.2L465.5,76
				z M459.3,66v4.2h1.9c1.8,0,2.7-0.7,2.7-2.2c0.1-1-0.6-1.8-1.6-1.9c-0.4-0.1-0.7-0.1-1.1-0.1H459.3z"/>
			<path d="M473.2,76l-1.1-3.5h-4.1l-1.1,3.5h-1.2l3.8-11h1.4l3.8,11H473.2z M468.4,71.6h3.5l-0.6-1.8c-0.2-0.7-0.6-1.9-1.1-3.7
				h-0.1c-0.4,1.3-0.8,2.6-1.1,3.7L468.4,71.6z"/>
			<path d="M478.1,76v-9.9h-3.3V65h8v1.1h-3.4V76H478.1z"/>
			<path d="M488.4,76.2c-1.4,0-2.7-0.6-3.5-1.7c-0.8-1.2-1.2-2.6-1.2-4c-0.1-1.7,0.5-3.3,1.6-4.5c0.8-0.8,1.9-1.2,3-1.2
				c1.4,0,2.7,0.6,3.5,1.7c0.8,1.2,1.2,2.5,1.1,3.9c0.1,1.7-0.5,3.3-1.6,4.5C490.6,75.8,489.5,76.2,488.4,76.2z M488.4,75.1
				c1.1,0,2.2-0.6,2.7-1.6c0.5-0.9,0.7-2,0.7-3c0.1-1.4-0.4-2.8-1.4-3.8c-0.6-0.5-1.3-0.7-2-0.7c-1.1,0-2.2,0.6-2.7,1.6
				c-0.5,0.9-0.7,2-0.7,3c-0.1,1.4,0.4,2.8,1.3,3.9C486.9,74.9,487.7,75.1,488.4,75.1z"/>
			<path d="M502.6,76h-1.4l-2.7-4.8h-2.1V76h-1.2V65h3.4c2.5,0,3.8,1,3.8,3c0.1,1.3-0.7,2.5-2,2.9c-0.2,0.1-0.4,0.1-0.6,0.2
				L502.6,76z M496.4,66v4.2h1.9c1.8,0,2.7-0.7,2.7-2.2c0.1-1-0.7-1.8-1.6-1.9c-0.4-0.1-0.7-0.1-1.1-0.1H496.4z"/>
			<path d="M504.2,76V65h1.2v11H504.2z"/>
			<path d="M512.1,76.2c-1.9,0.2-3.5-1.1-3.8-3c-0.1-0.5-0.2-1.1-0.2-1.6V65h1.2v6.6c0,2.3,0.9,3.5,2.7,3.6c1.5,0,2.4-0.9,2.7-2.7
				c0-0.3,0-0.6,0-0.9V65h1.3v6.5c0,2.8-1,4.3-3.1,4.6C512.6,76.2,512.3,76.2,512.1,76.2z"/>
			<path d="M518.6,76V65h1.5l2.2,6c0.1,0.2,0.2,0.6,0.4,1.2s0.3,0.9,0.4,1.2h0.1c0.1-0.4,0.4-1.1,0.8-2.3l2.1-6h1.5v11h-1.2v-6.3
				c0-0.5,0-1.6,0.1-3.2l0,0l-0.9,2.5l-2.2,5.9h-0.8l-2.2-5.9l-0.9-2.5h-0.1c0.1,1.6,0.1,2.7,0.1,3.2V76H518.6z"/>
		</g>
	</g>
</g>
</svg>
