<svg xmlns="http://www.w3.org/2000/svg" viewBox="0 0 1920 145"><defs><style>.a{fill:#fff;}.b{fill:#4c9827;}.c{fill:#0087cd;}.d{isolation:isolate;}.e{fill:#3f9177;}.f{fill:#59aa48;}.g{fill:#262626;}.h{fill:#009fb5;}.i{fill:#635650;}</style></defs><rect class="a" width="1920" height="145"/><path class="b" d="M230.81,69.53l-.17.24-.54.72h0l-.18.24h0l-.23.3h0l-.25.35h0l-.23.3-.48.65-.37.48L227.47,74l-.19.25,0,.06-.14.17,0,.06-.24.31L226,75.91l-.18.25h0l-.49.65-.47.64-.22.33s0,0,0,0l-.06,0-.18.23-1.5,2h0l-.42.55h0l-.45.6s0,0,0,0h0l-.46.62-.07.1-.59.74-.18.29h11.11l-.5.77,0,.06-.32.41,0,.06-.12.19h0l-.18.24h0l-.54.72-.59.77-.31.42L229,87l-.3.42-.71,1-.18.24-.48.66,0,.06-.24.3-.18.24-.3.41-.18.24-.48.66h0l-.37.48-.11.16L224,93.67l-.32.41-.18.24-.71,1-.23.3s0,0,0,0l-.48.66h0l-.54.71h0l-.19.24-.37.47c-.05.09-.1.18-.14.27l.29,0h10.8v9.58c0,.45.06.4-.39.4H211V68.28h.06a2.2,2.2,0,0,0,.37.06h19c.37,0,.73,0,1.09.06l-.35.62v.09h0Z"/><path class="c" d="M253.22,92h0l.3-.17.65-.37.72-.54h0l.6-.57,1.66-2,.3-.46.34-.78.38-.9.31-1.35,0-.31h.05l.08-1.55H246.54l-.72.1-2,.55-.72.29h0l-.18.11-.84.49-1.32,1-.06.1-.45.44s0,0,0,0l-.18.2-.46.48-.67,1c.09.25-.1.33-.24.43l-.52,1-.12.35-.25,1-.11.54-.07.47,0,.49v.16c0,.61,0,.61.65.61h10.52l-.13-.09.13,0a1.91,1.91,0,0,0-.33-.06H237.88v-.06h10.6a1.8,1.8,0,0,1,.39.08s0,0,0,0l-.06,0V93l.18,0,.8-.06,1.54-.24h0l.32-.1.23-.07Z"/><path class="c" d="M255,105.74l-.36.34-.61.4h0l-1,.54h0l-.7.31h0l-1.8.52-.11,0-.72.11H237.53l0-.46.34-2.1.25-.83.09-.31s0,0,0,0l1.38-2.39.19-.23.26-.31,1-1,.07-.07.31-.22.28-.2.49-.34,2.28-1.07.1,0,.83-.18.3-.06.31-.1h.6c.06,0,.13.1.2.11h11.46a.45.45,0,0,1,.39.23l0,.3-.11.84-.05.3h0l-.12.55v.21c-.1.29-.19.57-.28.85a.07.07,0,0,0,0,.06l-.25.6-.11.2-.43.8-.34.56h0l-.3.41-.43.54Z"/><path class="c" d="M250.21,107.58l0,.07.79-.07v0Z"/><path class="c" d="M240.43,101.42s.06-.06.06-.08a.24.24,0,0,0-.06-.09s-.06,0-.06.06A.39.39,0,0,0,240.43,101.42Z"/><path class="c" d="M240.2,101.62l0,0s-.07,0-.08,0a.57.57,0,0,0,0,.13Z"/><path class="c" d="M242.65,69.24l1.14-.53.18,0,.29-.09.37-.16.35-.08.7-.12.37,0h.79v0l-.31,0,.85,0v.06H247v.06h11a1.86,1.86,0,0,0,.34-.06h0c.18,0,.26,0,.25.23s0,.49,0,.74l-.11.82-.07.3-.25,1.07h0l-.19.49-.07.27-.28.49,0,.11-.42.77-.51.67-.32.4-.4.5h0l-.9.83-.2.17s0,0,0,0l-.48.35-.36.24-.18.11a.09.09,0,0,0-.06,0l-.36.21h0l-.25.12-.11,0-.17.08-.12.06-1.32.47h0l-.54.11-.41.07-.71.11s-.06-.09-.08-.09-.34,0-.5,0h-11a1.86,1.86,0,0,0-.34.06h-.23l0-.6.07-1.06c.08-.34.16-.68.23-1a.14.14,0,0,0,0-.06l.42-1.19.28-.6.19-.35h0a0,0,0,0,0,.05,0l.18-.31v0l.35-.54.3-.35.41-.48.19-.19.35-.41v0l.6-.52h0l.48-.38Z"/><path class="c" d="M237.75,77.07h0v.28h0Z"/><path class="c" d="M237.82,76.76h-.06l0,.15h.05A.83.83,0,0,1,237.82,76.76Z"/><g class="d"><g class="d"><path class="e" d="M273.9,98.33l-1.08-3.74c1.24-.31,2.66-.71,4.25-1.19V86.91h-3.4V83.34h3.4V77.22h-3.71V73.65h10.95v3.57h-3.67v6.12h3.16v3.57h-3.16v5.44l3.33-1,.58,3.4Q279.48,96.5,273.9,98.33ZM303,103a14.54,14.54,0,0,1-6.6-5.14l.27,3q-2.37.48-7.07,1.36l-2.92.55-.82-3.23,1.23-.21,1.63-.23V96.84a29.83,29.83,0,0,1-4.59,1.8,11.53,11.53,0,0,0-2.25-2.72,31.27,31.27,0,0,0,8-3h-3.81V85.18h16.83v7.71h-5.88a14.57,14.57,0,0,0,1.66,2.55,23.26,23.26,0,0,0,3-2.38l2.82,2.08q-2.42,1.53-3.84,2.28a13.68,13.68,0,0,0,4.66,2.44A10.28,10.28,0,0,0,303,103ZM284,84V80.82h20.81V84Zm1.32-4.28V72.29h18.16v7.38ZM288.52,77h2.08V75h-2.08Zm1.13,13h9.55V88.07h-9.55Zm2.55,8.54,4.14-.75A19.5,19.5,0,0,1,294,93.47c-.5.41-1.11.86-1.83,1.36Zm1-21.56h2.14V75h-2.14Zm4.69,0h2.21V75h-2.21Z"/></g><g class="d"><path class="f" d="M308.21,97.86l-1.36-4c1-.36,2.4-.88,4.15-1.56V83.07h-3.37V79.26H311V71.68h3.74v7.58h3.09v3.81h-3.09v7.65l1.6-.7c.7-.3,1.22-.53,1.56-.66l.88,3.57c-1.85.91-4.67,2.22-8.43,3.94C309.38,97.33,308.66,97.65,308.21,97.86Zm9.32,5.2a9.16,9.16,0,0,0-1-1.78,10.33,10.33,0,0,0-1.25-1.62,13.41,13.41,0,0,0,5.5-2,5.56,5.56,0,0,0,1.94-3.16h-2.89V83.68h17.31V94.46H333V98.4a1.59,1.59,0,0,0,.12.8c.07.1.27.15.59.15h1.53a.58.58,0,0,0,.58-.51,11.08,11.08,0,0,0,.2-2.41,6.21,6.21,0,0,0,1.55.85,10.46,10.46,0,0,0,1.82.58,8.06,8.06,0,0,1-1.09,3.94,3.14,3.14,0,0,1-2.62,1H333c-1.56,0-2.61-.32-3.13-1a5.62,5.62,0,0,1-.75-3.4v-4h-2.41a9.71,9.71,0,0,1-2.45,5.2A14.42,14.42,0,0,1,317.53,103.06ZM318,82.35V79.06h4.49a9.8,9.8,0,0,0-.85-2.32l1.25-.27h-4.14V73.34h7.37V71.27h4v2.07h8.06v3.13h-3.84l.85.17c-.32.68-.74,1.49-1.26,2.42h4.86v3.29Zm5.68,5.51h9.55v-1.7h-9.55Zm0,4.08h9.55V90.21h-9.55Zm2.24-12.88h4.32L330,79a23.28,23.28,0,0,0,1-2.55h-5.68a10,10,0,0,1,.95,2.48Z"/></g><g class="d"><path class="c" d="M357.51,103.09a12,12,0,0,0-1-1.87,14.69,14.69,0,0,0-1.31-1.8,17.44,17.44,0,0,0,7.31-5.81,36.15,36.15,0,0,1-2.31-6.9,21,21,0,0,1-1.57,2.34A16.35,16.35,0,0,0,356.39,87a34.71,34.71,0,0,1-4.76,4.66v.68l4.18-.34,2-.17v3.46q-1.9.21-5.71.51a3.15,3.15,0,0,1-.44,0v3.33a5.06,5.06,0,0,1-.31,2,2.29,2.29,0,0,1-1.22,1.19,13.67,13.67,0,0,1-4.9.58,12,12,0,0,0-1.15-3.44,31.71,31.71,0,0,0,3.19,0c.39,0,.58-.15.58-.47V96.16c-1.13.09-2.73.24-4.79.44l-1.6.14L341,93.13q4-.27,6.8-.51V90h1.33a22.1,22.1,0,0,0,1.76-1.7H348.5a36.57,36.57,0,0,1-5.27,3.67,18.37,18.37,0,0,0-2.72-3.09,29.9,29.9,0,0,0,3.57-2.08V85.14h2.18c.43-.36,1.05-.93,1.87-1.7h-6.84V80h5V77.7h-3.85V74.3h3.85V71.2H350v3.1h3.3v2.31A35.12,35.12,0,0,0,355.47,72l3.74,1a41.65,41.65,0,0,1-3.54,6.9h2.15v2.32a41.23,41.23,0,0,0,3.12-11.09l4.12.61q-.51,2.93-1.23,5.58h9.05v3.74h-2a39.49,39.49,0,0,1-3.67,12.65,15.67,15.67,0,0,0,6,5.68,12.17,12.17,0,0,0-1.5,1.65,16,16,0,0,0-1.29,1.88,17.93,17.93,0,0,1-5.75-5.47A22.49,22.49,0,0,1,357.51,103.09ZM350,80h1.12c.59-.81,1.1-1.57,1.53-2.27H350Zm5.58,5.92a16,16,0,0,0,1.63-2.45h-4.05c-.63.77-1.12,1.34-1.46,1.7h2l.72-.2Zm9.28,3.16a36.86,36.86,0,0,0,1.8-7.92h-3.88A43.92,43.92,0,0,0,364.89,89.05Z"/></g><g class="d"><path class="b" d="M402.53,85.72a21.78,21.78,0,0,0-2-2.18q-11.13.42-23.29.68l-.11-3.63,4.73-.07a30.55,30.55,0,0,0,1.8-2.89H375.9V74.09h13V71.2H393v2.89h13v3.54H399.3a43.08,43.08,0,0,1,6.8,5.81Zm-22,17.24V85.52h21V99.18a4.53,4.53,0,0,1-.4,2.16,2.58,2.58,0,0,1-1.47,1.11,23.22,23.22,0,0,1-6.15.51,14.39,14.39,0,0,0-1.19-3.23,38.89,38.89,0,0,0,4.32.07,1,1,0,0,0,.61-.14.64.64,0,0,0,.17-.51V97.59H384.57V103Zm4-12.55h12.89V88.78H384.57Zm0,4.39h12.89V93.17H384.57Zm1.81-14.32,5.4-.1c2.2,0,3.87,0,5-.07-.77-.63-1.51-1.2-2.21-1.7l1.63-1h-7.48Q387.7,79,386.38,80.48Z"/></g><g class="d"><path d="M410.55,103a12.77,12.77,0,0,0-1-3.74,22.28,22.28,0,0,0,2.79,0,.51.51,0,0,0,.58-.58V91.16c-.68.2-1.67.49-3,.85l-.27.07-.88-3.88c.56-.11,1.53-.34,2.89-.68l1.22-.3V81.33h-3.57v-3.7h3.57V71.24h3.67v6.39h3.1v3.7h-3.1v4.9l2.76-.78.51,3.64c-1.45.45-2.54.78-3.27,1v8.6a7.44,7.44,0,0,1-.27,2.25,2.6,2.6,0,0,1-1.05,1.29C414.41,102.75,412.84,103,410.55,103Zm17.61,0V95.14a21,21,0,0,1-7.55,6.76A13.2,13.2,0,0,0,418,98.81a17.24,17.24,0,0,0,4.42-2.69A18,18,0,0,0,426,92.35H420.1v-3.6h8.06V85.38H432a2.36,2.36,0,0,1-.81-1.29,8.82,8.82,0,0,1-.21-2.18V77h3.61v4.9a1.32,1.32,0,0,0,.13.76c.09.11.3.16.62.16H437a.61.61,0,0,0,.63-.45,9.1,9.1,0,0,0,.18-2.1,6.42,6.42,0,0,0,1.47.78,9.46,9.46,0,0,0,1.66.47,6.89,6.89,0,0,1-1,3.57,3,3,0,0,1-2.48.92h-2.69a5.37,5.37,0,0,1-2.55-.47v3.23h8.2v3.6h-6.05a19.85,19.85,0,0,0,7.07,6.15,12.49,12.49,0,0,0-2.72,3.1,22.34,22.34,0,0,1-6.5-6.43v7.75ZM421.7,86.77a7.49,7.49,0,0,0-.83-1.47,10,10,0,0,0-1.11-1.38c2.34-.52,3.9-1.34,4.7-2.45A8.69,8.69,0,0,0,425.58,77h3.67q-.24,4.24-1.6,6.22Q426,85.69,421.7,86.77Zm-1.26-7.07V72.77H440.3V79.5h-3.57V76.2H423.88v3.5Z"/><path d="M446.42,102.72a24.31,24.31,0,0,0-3.09-2.86,26.48,26.48,0,0,0,4.28-2,15.88,15.88,0,0,0,3.47-2.59l3.84,1.47a27.48,27.48,0,0,1-4,3.36A30.71,30.71,0,0,1,446.42,102.72Zm10.47.24V95q-6.52.19-12.54.3l-.21-3.6c3.17,0,5.73,0,7.65,0,.34-.18.85-.47,1.53-.88a37.88,37.88,0,0,0-5.71-3.57l2.65-2.31.55.3a8.36,8.36,0,0,1,.88.45,33.42,33.42,0,0,0,3.2-2.93h-6.8v3.67h-3.85v-7h12.62V77.32H444.55V73.85h12.31V71.2h4v2.65h12.54v3.47H460.84V79.4h13v7h-4V82.76H458.56l1.05.51q-2.42,2.15-5.06,4.08c.81.52,1.5,1,2.07,1.4a62.92,62.92,0,0,0,6.66-5l3.61,1.94a98.54,98.54,0,0,1-9,6l8-.1c-.64-.48-1.44-1-2.42-1.67l2.66-2a48,48,0,0,1,8.05,6l-2.85,2.31c-.66-.66-1.2-1.17-1.63-1.53l-8.78.27V103Zm14-.34a32.12,32.12,0,0,0-3.6-2.72c-1.48-1-2.95-1.87-4.42-2.69l3.06-2a52.62,52.62,0,0,1,8.29,5.17Z"/><path d="M492.9,103V81.13h-1.74V77.56l-2,2.21a20.15,20.15,0,0,0-1.12-1.7v1.8h-6.19V78.61a28.71,28.71,0,0,1-2.55,2.62h10.88V91.77h-7.69v1.46h7.76v3h-7.76v1.42h8.27v3.1h-8.27v2.14H479V81.47l0,0a9.35,9.35,0,0,0-2.51-2.41,19.36,19.36,0,0,0,5.91-7.85h3.84a33.56,33.56,0,0,1,4.93,5.2V74.81h6.4V71.24h4v3.57h6.87v6.32H506v8.33h-9.45V91.4h10.91v11.39h-3.74v-1.5h-7.17V103ZM482.49,85.24h4.39V83.88h-4.39Zm0,4h4.39V87.76h-4.39Zm.48-12h4.42a27,27,0,0,0-2.55-2.89A23.6,23.6,0,0,1,483,77.19Zm11.87,3.33h9.75V78h-9.75Zm1.73,5.74h5.71V83.68h-5.71Zm0,11.67h7.17v-3.2h-7.17Z"/></g></g><g class="d"><g class="d"><path d="M211.3,124.14V114.8h5.32v.89h-4.26v3.08h3.58v.89h-3.58v3.58h4.4v.9Z"/><path d="M217.66,124.14l2.75-4.82-2.57-4.52H219l1.32,2.47.54,1,.2.38h.07l.07-.16c.26-.53.45-.92.59-1.18l1.33-2.47h1.09l-2.56,4.57,2.74,4.77h-1.16l-1.43-2.61-.39-.72L221,120h0c-.25.5-.51,1-.77,1.5l-1.42,2.61Z"/><path d="M225.93,124.14V114.8h2.59a4.38,4.38,0,0,1,2.52.6,2.38,2.38,0,0,1,1,2.1,2.57,2.57,0,0,1-1,2.16,3.84,3.84,0,0,1-2.47.7H227v3.78Zm1.06-4.65h1.43a3.16,3.16,0,0,0,1.9-.47,1.82,1.82,0,0,0,.62-1.52,1.62,1.62,0,0,0-.65-1.45,3.64,3.64,0,0,0-1.93-.39H227Z"/><path d="M233.91,124.14V114.8H235v8.44h4.12v.9Z"/><path d="M243.79,124.3A3.52,3.52,0,0,1,241,123a5.4,5.4,0,0,1-1.11-3.56,5.27,5.27,0,0,1,1.11-3.51,3.5,3.5,0,0,1,2.83-1.28,3.54,3.54,0,0,1,2.85,1.28,5.24,5.24,0,0,1,1.11,3.51,5.4,5.4,0,0,1-1.11,3.56A3.53,3.53,0,0,1,243.79,124.3Zm-2.08-2a2.56,2.56,0,0,0,4.16,0,4.76,4.76,0,0,0,.78-2.87,4.64,4.64,0,0,0-.78-2.83,2.62,2.62,0,0,0-4.17,0,4.69,4.69,0,0,0-.77,2.82A4.76,4.76,0,0,0,241.71,122.3Z"/><path d="M249.79,124.14V114.8h2.86c2.15,0,3.22.86,3.22,2.59a2.59,2.59,0,0,1-.58,1.75,2.93,2.93,0,0,1-1.58.86l2.41,4.14h-1.19l-2.33-4h-1.75v4Zm1.06-4.9h1.63c1.56,0,2.33-.62,2.33-1.85a1.53,1.53,0,0,0-.6-1.35,3.06,3.06,0,0,0-1.73-.38h-1.63Z"/><path d="M256.5,124.14l3.19-9.34h1.16l3.2,9.34h-1.12l-.94-3h-3.48l-.95,3Zm2.28-3.78h3l-.49-1.52c-.24-.71-.56-1.76-1-3.16h0c-.27,1-.59,2-1,3.16Z"/><path d="M266.61,124.14v-8.45h-2.84v-.89h6.77v.89h-2.86v8.45Z"/><path d="M275.3,124.3a3.53,3.53,0,0,1-2.84-1.31,5.45,5.45,0,0,1-1.1-3.56,5.32,5.32,0,0,1,1.1-3.51,3.79,3.79,0,0,1,5.68,0,5.24,5.24,0,0,1,1.11,3.51,5.4,5.4,0,0,1-1.11,3.56A3.52,3.52,0,0,1,275.3,124.3Zm-2.08-2a2.48,2.48,0,0,0,2.08,1.07,2.45,2.45,0,0,0,2.08-1.07,4.76,4.76,0,0,0,.79-2.87,4.64,4.64,0,0,0-.78-2.83,2.48,2.48,0,0,0-2.09-1,2.45,2.45,0,0,0-2.08,1,4.62,4.62,0,0,0-.78,2.82A4.76,4.76,0,0,0,273.22,122.3Z"/><path d="M281.3,124.14V114.8h2.86c2.15,0,3.23.86,3.23,2.59a2.59,2.59,0,0,1-.59,1.75,2.86,2.86,0,0,1-1.58.86l2.41,4.14h-1.19l-2.33-4h-1.75v4Zm1.06-4.9H284c1.56,0,2.34-.62,2.34-1.85a1.53,1.53,0,0,0-.6-1.35,3.1,3.1,0,0,0-1.74-.38h-1.63Z"/><path d="M289.3,124.14V114.8h1.06v9.34Z"/><path d="M296.22,124.3a3.06,3.06,0,0,1-2.33-.87,4.25,4.25,0,0,1-1-3.08V114.8H294v5.56c0,2,.75,3,2.24,3s2.3-1,2.3-3V114.8h1v5.55a4.29,4.29,0,0,1-1,3.08A3.11,3.11,0,0,1,296.22,124.3Z"/><path d="M302.09,124.14V114.8h1.3l1.84,5.1c.07.22.19.55.34,1s.26.77.33,1H306l.43-1.33c.1-.29.17-.51.22-.66l1.82-5.1h1.3v9.34h-1v-5.4q0-.7.12-2.4c0-.13,0-.23,0-.3h-.05l-.74,2.11-1.83,5h-.72l-1.84-5L303,116h-.05c0,.07,0,.17,0,.3q.12,1.69.12,2.4v5.4Z"/><path d="M318.59,124.3a3.52,3.52,0,0,1-2.84-1.31,5.4,5.4,0,0,1-1.11-3.56,5.27,5.27,0,0,1,1.11-3.51,3.78,3.78,0,0,1,5.67,0,5.24,5.24,0,0,1,1.11,3.51,5.4,5.4,0,0,1-1.11,3.56A3.5,3.5,0,0,1,318.59,124.3Zm-2.08-2a2.45,2.45,0,0,0,2.08,1.07,2.48,2.48,0,0,0,2.08-1.07,4.76,4.76,0,0,0,.78-2.87,4.64,4.64,0,0,0-.78-2.83,2.62,2.62,0,0,0-4.17,0,4.62,4.62,0,0,0-.78,2.82A4.76,4.76,0,0,0,316.51,122.3Z"/><path d="M324.59,124.14V114.8h5.3v.89h-4.24V119h3.59v.9h-3.59v4.26Z"/><path d="M334.39,124.14V114.8h5.32v.89h-4.26v3.08H339v.89h-3.59v3.58h4.4v.9Z"/><path d="M341.84,124.14V114.8h1.09l3.53,6,1,1.91h.06a2.2,2.2,0,0,0,0-.23c-.09-1.2-.13-2.09-.13-2.68v-5h1v9.34h-1.1l-3.51-6-1-1.91h-.06c0,.15,0,.38,0,.67.06,1,.09,1.68.09,2.17v5.12Z"/><path d="M352.72,124.14l-3-9.34h1.11L352.4,120c.08.27.18.64.32,1.11q.36,1.26.6,2h.05c.14-.42.32-1,.54-1.76.16-.57.29-1,.39-1.33l1.54-5.15h1.08l-3,9.34Z"/><path d="M358.23,124.14V114.8h1.06v9.34Z"/><path d="M361.89,124.14V114.8h2.86c2.15,0,3.22.86,3.22,2.59a2.59,2.59,0,0,1-.58,1.75,2.93,2.93,0,0,1-1.58.86l2.41,4.14H367l-2.33-4H363v4Zm1.06-4.9h1.63c1.56,0,2.33-.62,2.33-1.85a1.53,1.53,0,0,0-.6-1.35,3.06,3.06,0,0,0-1.73-.38H363Z"/><path d="M373.28,124.3a3.51,3.51,0,0,1-2.83-1.31,5.4,5.4,0,0,1-1.11-3.56,5.27,5.27,0,0,1,1.11-3.51,3.47,3.47,0,0,1,2.83-1.28,3.52,3.52,0,0,1,2.84,1.28,5.24,5.24,0,0,1,1.11,3.51,5.4,5.4,0,0,1-1.11,3.56A3.52,3.52,0,0,1,373.28,124.3Zm-2.07-2a2.55,2.55,0,0,0,4.15,0,4.7,4.7,0,0,0,.79-2.87,4.64,4.64,0,0,0-.78-2.83,2.48,2.48,0,0,0-2.09-1,2.45,2.45,0,0,0-2.08,1,4.62,4.62,0,0,0-.78,2.82A4.7,4.7,0,0,0,371.21,122.3Z"/><path d="M379.29,124.14V114.8h1.08l3.53,6,1,1.91H385a2.2,2.2,0,0,0,0-.23c-.08-1.2-.13-2.09-.13-2.68v-5h1v9.34h-1.1l-3.5-6-1-1.91h-.07c0,.15,0,.38,0,.67.06,1,.09,1.68.09,2.17v5.12Z"/><path d="M388.44,124.14V114.8h1.3l1.84,5.1c.08.22.19.55.34,1s.26.77.34,1h.06c.1-.3.25-.74.43-1.33.1-.29.17-.51.22-.66l1.82-5.1h1.3v9.34h-1v-5.4q0-.7.12-2.4c0-.13,0-.23,0-.3h-.05l-.74,2.11-1.83,5h-.72l-1.84-5-.74-2.11h-.05c0,.07,0,.17,0,.3q.12,1.69.12,2.4v5.4Z"/><path d="M398.7,124.14V114.8H404v.89h-4.26v3.08h3.59v.89h-3.59v3.58h4.4v.9Z"/><path d="M406.14,124.14V114.8h1.09l3.53,6,1,1.91h.06a2.2,2.2,0,0,0,0-.23c-.09-1.2-.13-2.09-.13-2.68v-5h1v9.34h-1.1l-3.51-6-1-1.91H407c0,.15,0,.38,0,.67.06,1,.09,1.68.09,2.17v5.12Z"/><path d="M417.25,124.14v-8.45h-2.84v-.89h6.77v.89h-2.86v8.45Z"/><path d="M421.06,124.14l3.19-9.34h1.16l3.2,9.34h-1.12l-.93-3h-3.48l-1,3Zm2.29-3.78h2.94l-.48-1.52c-.24-.71-.56-1.76-1-3.16h0c-.27,1-.59,2-1,3.16Z"/><path d="M430,124.14V114.8h1v8.44h4.12v.9Z"/><path d="M439.65,124.14V114.8H445v.89H440.7v3.08h3.59v.89H440.7v3.58h4.4v.9Z"/><path d="M447.09,124.14V114.8h2.3a4.2,4.2,0,0,1,3.25,1.21,4.86,4.86,0,0,1,1.11,3.43,5,5,0,0,1-1.1,3.45,4.1,4.1,0,0,1-3.22,1.25Zm1.06-.87h1.15a3.16,3.16,0,0,0,2.54-1,4.28,4.28,0,0,0,.83-2.81,4.19,4.19,0,0,0-.83-2.79,3.21,3.21,0,0,0-2.54-1h-1.15Z"/><path d="M459.07,124.3a3.1,3.1,0,0,1-2.34-.87,4.29,4.29,0,0,1-1-3.08V114.8h1.05v5.56c0,2,.75,3,2.25,3s2.29-1,2.29-3V114.8h1v5.55a4.34,4.34,0,0,1-.95,3.08A3.14,3.14,0,0,1,459.07,124.3Z"/><path d="M468.4,124.3a3.6,3.6,0,0,1-2.87-1.29,6,6,0,0,1,0-7.09,3.7,3.7,0,0,1,2.93-1.28,3.29,3.29,0,0,1,2.54,1.13l-.59.69a2.49,2.49,0,0,0-1.94-.89,2.66,2.66,0,0,0-2.2,1,4.51,4.51,0,0,0-.82,2.83,4.66,4.66,0,0,0,.8,2.87,2.6,2.6,0,0,0,2.19,1.06,2.9,2.9,0,0,0,2.2-1.07l.59.66A3.57,3.57,0,0,1,468.4,124.3Z"/><path d="M471.78,124.14,475,114.8h1.16l3.2,9.34h-1.12l-.93-3H473.8l-1,3Zm2.29-3.78H477l-.48-1.52c-.24-.71-.56-1.76-1-3.16h-.05c-.27,1-.59,2-1,3.16Z"/><path d="M481.9,124.14v-8.45h-2.85v-.89h6.77v.89H483v8.45Z"/><path d="M487.52,124.14V114.8h1.06v9.34Z"/><path d="M494.58,124.3a3.52,3.52,0,0,1-2.84-1.31,5.4,5.4,0,0,1-1.11-3.56,5.27,5.27,0,0,1,1.11-3.51,3.5,3.5,0,0,1,2.83-1.28,3.54,3.54,0,0,1,2.85,1.28,5.24,5.24,0,0,1,1.11,3.51,5.4,5.4,0,0,1-1.11,3.56A3.53,3.53,0,0,1,494.58,124.3Zm-2.08-2a2.56,2.56,0,0,0,4.16,0,4.76,4.76,0,0,0,.78-2.87,4.64,4.64,0,0,0-.78-2.83,2.62,2.62,0,0,0-4.17,0,4.69,4.69,0,0,0-.77,2.82A4.76,4.76,0,0,0,492.5,122.3Z"/><path d="M500.58,124.14V114.8h1.08l3.54,6,1,1.91h.07c0-.05,0-.13,0-.23-.09-1.2-.13-2.09-.13-2.68v-5h1v9.34H506l-3.51-6-1-1.91h-.06c0,.15,0,.38,0,.67.05,1,.08,1.68.08,2.17v5.12Z"/></g></g><path d="M-150.45,0H1960.77V46H-30.57Z"/><g class="d"><g class="d"><path class="a" d="M1681.91,31V15.46h9.54V18H1685v3.59h5.46v2.61H1685V28.4h6.66V31Z"/><path class="a" d="M1694.83,31V15.46H1698l4.51,8.27,1.56,3.36h.1c0-.08,0-.21,0-.37-.24-2.3-.36-4-.36-5.06v-6.2h2.94V31h-3.15l-4.49-8.32-1.58-3.34h-.1c0,.24,0,.61.1,1.12.18,1.93.28,3.37.28,4.3V31Z"/></g></g><g class="d"><g class="d"><path class="a" d="M1656.18,32V22.68h-1.57V20.39l1.57-.13v-1a4.61,4.61,0,0,1,1-3.08,3.87,3.87,0,0,1,3.15-1.26,5.92,5.92,0,0,1,2.22.42l-.56,2.27a3.67,3.67,0,0,0-1.24-.26c-1,0-1.43.62-1.43,1.85v1h2.21v2.44h-2.21V32Z"/></g></g><g class="d"><g class="d"><path class="a" d="M1153.73,27.92a3,3,0,0,0-.83-.4,11.38,11.38,0,0,0,.92-3.57l1,.17A13.66,13.66,0,0,1,1153.73,27.92Zm4.94,1.25V23.35l-.79.36a4.63,4.63,0,0,0-.31-1l-1.19.08v6.31h-1V22.88L1153,23l-.1-1,1,0c.31-.4.62-.81.93-1.25a11.93,11.93,0,0,0-1.86-2.17l.6-.71.45.42a18.3,18.3,0,0,0,1.33-2.82l1,.36a28.43,28.43,0,0,1-1.73,3.09,8.54,8.54,0,0,1,.81,1,30.52,30.52,0,0,0,1.61-2.71l.93.43a48,48,0,0,1-3,4.33l2.16-.1a13.7,13.7,0,0,0-.68-1.26l.81-.33a12,12,0,0,1,1.36,2.73v-6.8h7.72V27.89a1.79,1.79,0,0,1-.11.7.78.78,0,0,1-.4.38,6.2,6.2,0,0,1-2,.17,2.77,2.77,0,0,0-.33-1c.37,0,.84,0,1.4,0h.17c.17,0,.25-.1.25-.29V17.16h-5.72v12Zm-1-2.3a9,9,0,0,0-.75-2.71l.83-.24a9.76,9.76,0,0,1,.8,2.7Zm4.39,0a1.35,1.35,0,0,1-1-.3,1.69,1.69,0,0,1-.27-1.11V23.3h-.62v-.88H1162V20.89h-1.73V20h.84a7.06,7.06,0,0,0-.67-2l.72-.25a6.58,6.58,0,0,1,.72,2l-.69.25h2.36l-.56-.21a11.62,11.62,0,0,0,.79-2.18l.9.3c0,.08-.09.22-.17.4-.39.82-.66,1.39-.82,1.69h1.15v.89h-1.88v1.53h2v.88h-3.18v2.13a.94.94,0,0,0,.06.41.3.3,0,0,0,.27.11h1.74a4.15,4.15,0,0,0,.82-.07c0,.24.05.54.09.91a5.7,5.7,0,0,1-.9,0Z"/><path class="a" d="M1168.31,27.46l-.24-1.11q.79-.15,2.88-.6l.6-.13c.17-.76.33-1.69.49-2.78s.28-2.09.35-2.94l1.09.21c-.27,2-.58,3.74-.91,5.28l1.64-.38.11,1-1.88.44Zm0-8v-1h2.36V15.64h1v2.77h2.32v1Zm1.17,6a23.24,23.24,0,0,0-.17-2.52c-.12-1-.27-1.86-.44-2.7l.92-.16a27,27,0,0,1,.66,5.22Zm4.93,3.67V22.57H1177V15.45h1.14v3.1h3.7V19.6h-3.7v3h3.08v6.5H1180v-.65h-4.5v.7Zm1.07-1.74h4.5V23.62h-4.5Z"/><path class="a" d="M1190.39,29.14a2.84,2.84,0,0,0-.37-.94c.9,0,1.59,0,2,0a.39.39,0,0,0,.26-.06.25.25,0,0,0,.06-.2V26.11h-9.18v-.87h9.18v-.91c-1.16,0-2.17,0-3,0a4.47,4.47,0,0,1-3.44-1.32c-.48.32-1.2.8-2.18,1.43l-.11.06-.43-.93q1-.53,2.07-1.17V20.89h-2V20h3V22.2a3.56,3.56,0,0,0,3.06,1.25c.87,0,2.1,0,3.69,0s2.86-.06,3.81-.1a3.21,3.21,0,0,0-.3.89c-1,0-2.06.07-3.07.07v.91h3.27v.87h-3.27V28a1.49,1.49,0,0,1-.13.68.67.67,0,0,1-.46.34,4.18,4.18,0,0,1-.95.15Zm-4.77-9.6a8.75,8.75,0,0,0-2.4-1.34l.53-.64a11.67,11.67,0,0,1,1.33.58,5.85,5.85,0,0,1,1.08.68Zm.6-1.84a7.15,7.15,0,0,0-1.09-.81,12.15,12.15,0,0,0-1.34-.74l.54-.65a9.19,9.19,0,0,1,2.45,1.46Zm1.71,10.85a8.25,8.25,0,0,0-2.19-1.78l.76-.65a10.07,10.07,0,0,1,2.24,1.73Zm.12-5.77V18.37h2.79l.09-.38.09-.37h-3.85v-.81h2.35a5.45,5.45,0,0,0-.78-1.13l.88-.25a4.58,4.58,0,0,1,1,1.32l-.19.06h2.38a12.12,12.12,0,0,0,.91-1.38l1,.21a13.74,13.74,0,0,1-.88,1.17h2.8v.81h-4.55l-.27.75h3.62v4.41Zm1-3.15h5.25V19h-5.25Zm0,1.26h5.25v-.68h-5.25Zm0,1.27h5.25v-.67h-5.25Z"/><path class="a" d="M1198.62,29.14a2.3,2.3,0,0,0-.5-.87,11.74,11.74,0,0,0,3.11-.52,2.19,2.19,0,0,0,1.3-1.12h-2.15V21.82h9.12v4.81h-2.58v1.05c0,.18,0,.28.14.33a2.14,2.14,0,0,0,.67.07h2.37q.42,0,.54-.24a3.35,3.35,0,0,0,.16-1.14,3.75,3.75,0,0,0,1,.35,2.94,2.94,0,0,1-.41,1.53,1.42,1.42,0,0,1-1.13.38h-2.59a2.67,2.67,0,0,1-1.42-.26,1.14,1.14,0,0,1-.36-1V26.63h-2.19a2.91,2.91,0,0,1-1.5,1.71A10.77,10.77,0,0,1,1198.62,29.14Zm.2-7.94V16h6v.72h-2.51v.74h2.09v2.21h-2.09v.87h2.62v.71Zm1-3.79h1.57v-.74h-1.57Zm0,1.53h3.59V18.1h-3.59Zm0,1.55h1.57v-.87h-1.57Zm1.66,2.71h6.94v-.71h-6.94Zm0,1.38h6.94v-.72h-6.94Zm0,1.39h6.94v-.73h-6.94Zm3.85-7.36a2.14,2.14,0,0,0-.75-.63,5.62,5.62,0,0,0,1.78-2.52l1,.15c-.09.24-.2.48-.31.72h4.54v.76h-5A6.69,6.69,0,0,1,1205.3,18.61Zm.27,2.7V19h5.76v2.34Zm.81-2.93v-.7h4.44v.7Zm0,2.3h.91v-1.1h-.91Zm1.56,0h1v-1.1h-1Zm1.6,0h1v-1.1h-1Z"/><path class="a" d="M1230.79,32.18V15.43h1V32.18Z"/><path class="a" d="M1251.2,22.42a4.35,4.35,0,0,0-.67-.81,10.45,10.45,0,0,0,3-1.95,10.28,10.28,0,0,0-2-1.54l.62-.62a8.7,8.7,0,0,1,2,1.53,9.26,9.26,0,0,0,1.51-2.07H1252V16h4.26l.21,0,.71.37a10.34,10.34,0,0,1-2.09,3.26h5.09a13.57,13.57,0,0,1-2.54-3.81l.95-.3a10.42,10.42,0,0,0,1.05,1.84,17.16,17.16,0,0,0,1.93-1.75l.84.6a20.86,20.86,0,0,1-2.26,1.83,13.41,13.41,0,0,0,1,1.11,13.78,13.78,0,0,0,2-1.79l.84.59a21,21,0,0,1-2.23,1.78,10.55,10.55,0,0,0,2.73,1.63,4,4,0,0,0-.74.91,11.31,11.31,0,0,1-3.48-2.48v.8h-5.52v-.68A12.39,12.39,0,0,1,1251.2,22.42Zm-.09,6.37v-.94h4.08a7.65,7.65,0,0,0-.87-2l.84-.23h-1.7V21.78h8.24V25.6h-1.52l.74.19a20.11,20.11,0,0,1-1.13,2.06h4.28v.94Zm3.42-4.12h6.06v-2h-6.06Zm1.08,3.18h3.61l-.48-.14a12.38,12.38,0,0,0,1.08-2.11h-4.47a8.07,8.07,0,0,1,1,2Z"/><path class="a" d="M1266.68,29.11a6.23,6.23,0,0,0-1-.89,10.44,10.44,0,0,0,3.95-3.54,15.82,15.82,0,0,0,2.13-5.39l.66.1a17.34,17.34,0,0,1-.2-1.92h-3.68V16.36h4.76a15.61,15.61,0,0,0,.92,5.58,11.92,11.92,0,0,0,5.31,6.22,4.22,4.22,0,0,0-.9.93,12.77,12.77,0,0,1-6-8.35,16.15,16.15,0,0,1-2.29,5A11.74,11.74,0,0,1,1266.68,29.11Z"/></g></g><path class="a" d="M1314,8h140a15,15,0,0,1,15,15h0a15,15,0,0,1-15,15H1314a15,15,0,0,1-15-15h0A15,15,0,0,1,1314,8Z"/><path class="g" d="M1458.4,32.36l-5.88-5.88a8.17,8.17,0,1,0-1.35,1.36l5.88,5.88a1,1,0,0,0,1.35,0h0A1,1,0,0,0,1458.4,32.36Zm-7.87-6.51a6.29,6.29,0,1,1,0-8.89,6.3,6.3,0,0,1,0,8.89Z"/><g class="d"><g class="d"><path class="g" d="M1319.79,19.24h-4V18.6h1.94a7.67,7.67,0,0,0-.58-1.14l.59-.28a10.38,10.38,0,0,1,.68,1.42h1.32Zm-.16,1.86h-3.47v-.67h3.47Zm0,1.95h-3.47v-.68h3.47Zm-.2,5.27h-.66v-.7H1317v1h-.64V24.36h3.1Zm-.66-1.35V25H1317v2Zm8.35-5h-7.07v-.6h3.25v-.95h-2.69v-.6h2.69v-.9h-3v-.59h3v-1h.66v1h2.9v.59H1324v.9h2.6v.6H1324v.95h3.16Zm-.8,5.65a1,1,0,0,1-.3.78c-.2.2-.86.27-2,.23l-.22-.66h1.44a.37.37,0,0,0,.26-.11.35.35,0,0,0,.12-.25V26.55h-4.19a6,6,0,0,1-.91,2.15l-.49-.44a5.77,5.77,0,0,0,.88-3.43v-2h5.39Zm-.68-1.69V25h-4.09a5.41,5.41,0,0,1,0,1Zm0-1.58v-.94h-4.08v.94Z"/><path class="g" d="M1333.38,26.91h-1.9v1.78h-.62V26.91h-2v-.65h2V25.11h-1.55v-5h1.55V19H1329v-.63h1.82v-1h.62v1h1.83V19h-1.83v1.14H1333v5h-1.55v1.15h1.9Zm-2.52-4.64V20.76h-.92v1.51Zm0,2.19V22.88h-.92v1.58Zm1.55-2.19V20.76h-.93v1.51Zm0,2.19V22.88h-.93v1.58Zm4.22,3.38c0,.56-.38.83-1.14.83a1.37,1.37,0,0,1-.36,0l-.25-.66a3,3,0,0,0,.55.05c.38,0,.57-.09.57-.28V26.15h-1.51a8.78,8.78,0,0,1-.71,2.51l-.57-.39a6.75,6.75,0,0,0,.72-3.2v-3.4h2.7Zm3.65-7.52-.38.6a9.23,9.23,0,0,1-3.06-2.64,11.9,11.9,0,0,1-3,2.59l-.48-.53a8.28,8.28,0,0,0,3.4-3.13l.67.22a1.55,1.55,0,0,1-.18.26A7.34,7.34,0,0,0,1340.28,20.32ZM1336,25.51V24.19h-1.41c0,.15,0,.59,0,1.32Zm0-2V22.32h-1.41v1.21Zm2.42-2.6h-3.3v-.67h3.3Zm1.28,6.89a.75.75,0,0,1-.26.65,2,2,0,0,1-1.06.19h-.6l-.26-.66c.22,0,.48,0,.79,0A1.88,1.88,0,0,0,1339,28c.06,0,.09-.11.09-.22V21.32h.65Zm-1.51-1.21h-.67V22h.67Z"/><path class="g" d="M1353.23,28.11l-.44.61a14.67,14.67,0,0,1-5-7.72,14.74,14.74,0,0,1-5.4,7.56l-.53-.53a12.11,12.11,0,0,0,2.28-2,13.09,13.09,0,0,0,1.7-2.35A14.41,14.41,0,0,0,1347,21a8.47,8.47,0,0,0,.47-1.72l-.07-1h-1.21v-.7h1.89A13.08,13.08,0,0,0,1353.23,28.11Z"/><path class="g" d="M1360,21h-3.83v7.63h-.67v-11h4.5Zm-.64-2v-.77h-3.19V19Zm0,1.41v-.8h-3.19v.8Zm1,4.12-.52.26-.19-.36-2.68.35-.17-.54a9.61,9.61,0,0,0,1.63-1.21l-1.48.2-.17-.52a6.5,6.5,0,0,0,1.7-1.54l.63.28a9.9,9.9,0,0,1-1.22,1.13l1.17-.17a4.54,4.54,0,0,0,.63-.62l.6.27a26.48,26.48,0,0,1-2.32,2.07l1.42-.2a2.53,2.53,0,0,0-.26-.4l.54-.23A7.35,7.35,0,0,1,1360.35,24.54Zm-.41,1.19a2.78,2.78,0,0,1-.52,1.87,3.07,3.07,0,0,1-1.7.87l-.42-.56c1.14-.23,1.79-.67,1.94-1.31h-2V25.06h.63v1h1.43a2.64,2.64,0,0,0,0-.45V25h.63Zm4.59-1.23-.51.33-.27-.42-3,.28-.14-.51a7.54,7.54,0,0,0,1.53-1.12l-1.49.14-.15-.48a4.94,4.94,0,0,0,1.65-1.52l.61.27a8.94,8.94,0,0,1-1.11,1.11l1.13-.12a5.38,5.38,0,0,0,.56-.53l.55.26a18,18,0,0,1-2.06,1.85l1.58-.13a1.81,1.81,0,0,0-.35-.44l.53-.29A9.08,9.08,0,0,1,1364.53,24.5Zm-.88,2.1h-2.12v1.79h-.63V25h.63v1h1.5v-1h.62Zm2,1.3a.72.72,0,0,1-.22.56.77.77,0,0,1-.52.21c-.68,0-1.09,0-1.23,0l-.28-.68a7.56,7.56,0,0,0,.83,0,2,2,0,0,0,.67-.06.23.23,0,0,0,.11-.22V21h-3.87v-3.4h4.51ZM1365,19v-.77h-3.18V19Zm0,1.41v-.8h-3.18v.8Z"/><path class="g" d="M1372.2,19.77l-.47.36a12.71,12.71,0,0,0-1.48-1.77,19,19,0,0,1-1.4,2.09h2.78V21h-1.25v1.53h1.46v.59h-1.46v4.08a13,13,0,0,0,1.41-.4l0,.61q-1.58.53-3.69,1l-.15-.62c.46-.08,1.07-.22,1.83-.43V23.16H1368v-.59h1.72V21h-1v-.49a5.51,5.51,0,0,1-.55.57l-.4-.5a12.75,12.75,0,0,0,2.3-3.4l.56.27a.6.6,0,0,1-.12.29A10.29,10.29,0,0,1,1372.2,19.77Zm-2.84,6.86-.62.15a10.84,10.84,0,0,0-.6-2.6l.6-.15A12.27,12.27,0,0,1,1369.36,26.63Zm2.43-2.5a14.76,14.76,0,0,1-.49,2.3l-.57-.18a14.85,14.85,0,0,0,.45-2.36Zm7.43,3.65-.21.65a15.51,15.51,0,0,1-3.82-.29,3.81,3.81,0,0,1-2-1.3A8.83,8.83,0,0,1,1372,28.7l-.51-.41a7.06,7.06,0,0,0,1.36-2.09,8.17,8.17,0,0,1-.72-2.74l.61-.09a6.26,6.26,0,0,0,.42,2,12.49,12.49,0,0,0,.49-3h-1.41v-.6a29.87,29.87,0,0,0,1.28-3.38H1372v-.61h2.14v.61a28.65,28.65,0,0,1-1.2,3.38h1.33a13.62,13.62,0,0,1-.76,4.55,3.47,3.47,0,0,0,1.51,1.21,7.34,7.34,0,0,0,2.7.39C1378.12,27.83,1378.63,27.82,1379.22,27.78Zm0-1.87h-2.34v1.27h-.65V25.91h-1.81v-.55h1.81V24.23h-1.52v-.6h1.52v-1h-1.48V22h1.48V20.77h-1.78v-.6h1.78V19h-1.48V18.4h1.48V17.32h.65V18.4h1.64v1.77h.69v.6h-.69v1.82h-1.64v1h2v.6h-2v1.13h2.34Zm-1.34-5.74V19h-1v1.22Zm0,1.85V20.77h-1V22Z"/><path class="g" d="M1392.21,24.92h-5.29v2.79a.85.85,0,0,1-.33.74,3.4,3.4,0,0,1-1.59.23l-.72,0-.25-.74a9.23,9.23,0,0,0,1,0,3,3,0,0,0,1-.08.31.31,0,0,0,.14-.27v-2.7h-5.31v-.69h5.31v-.85a28.94,28.94,0,0,0,2.69-1.73H1383V21h7v.68a26.94,26.94,0,0,1-3.09,2.08v.5h5.29Zm-.54-3.26H1391V19.29h-8.87v2.37h-.69V18.61h4.91a5,5,0,0,0-.66-1.05l.62-.33a9.31,9.31,0,0,1,.82,1.38h4.55Z"/></g></g><path class="h" d="M1654.84,90.72V69a1.11,1.11,0,0,0,.07-.16,2.45,2.45,0,0,1,2.55-2h31a2.48,2.48,0,0,1,2.59,2.35V90.25a3.32,3.32,0,0,1-.11.83,2.5,2.5,0,0,1-2.57,1.8h-1.19c.18,1.12.35,2.19.53,3.25a1.46,1.46,0,0,1-1,1.81,1.67,1.67,0,0,1-1.29-.2l-3.62-1.91a.91.91,0,0,0-.93,0l-3.43,1.81a4.93,4.93,0,0,1-.71.31,1.34,1.34,0,0,1-1.67-.88l0-.12a2.6,2.6,0,0,1,0-.88c.16-1,.34-2.08.52-3.18h-17.94a2.52,2.52,0,0,1-2.71-2.08A.47.47,0,0,0,1654.84,90.72Zm31.93,0,.13,0h1.24c.68,0,.76-.07.76-.74V69.59c0-.65-.07-.72-.7-.72h-30.52c-.66,0-.72.06-.72.73V90.33a.42.42,0,0,0,.39.44h18a2.62,2.62,0,0,1,.28,0c.19,0,.27-.07.3-.26.1-.66.23-1.32.32-2a.81.81,0,0,0-.16-.48,6.41,6.41,0,0,1-1.18-4.7,6.49,6.49,0,1,1,11.65,4.72.61.61,0,0,0-.15.37c.11.76.24,1.53.36,2.28Zm-5.46-2.11a4.39,4.39,0,1,0-4.37-4.41v0a4.39,4.39,0,0,0,4.37,4.39Zm4.08,6.73-.89-5.43a6.61,6.61,0,0,1-6.34,0l-.88,5.4a3,3,0,0,0,.34-.15c.67-.35,1.36-.68,2-1.07a3.12,3.12,0,0,1,3.37,0c.75.44,1.53.81,2.38,1.26Zm-1-20.31a3.57,3.57,0,0,0,.46,0,1,1,0,0,0,.88-1.16l0-.14c-.16-.55-.55-.8-1.26-.8h-23.84a2.06,2.06,0,0,0-.35,0,1.08,1.08,0,0,0-1,1,1,1,0,0,0,.72,1,2.14,2.14,0,0,0,.56.06h23.81Zm-24,3.75a1,1,0,0,0-1,.68,1.06,1.06,0,0,0,.64,1.36,1.17,1.17,0,0,0,.45.06c1.24,0,2.47,0,3.71,0h6.32a1.14,1.14,0,0,0,1-.48,1,1,0,0,0-.27-1.45,1.09,1.09,0,0,0-.61-.18h-10.24Z"/><g class="d"><g class="d"><path class="i" d="M1648,110.56h-5v-1.27H1645a4.18,4.18,0,0,0-.52-1.14l1.36-.43a9.67,9.67,0,0,1,.62,1.57H1648Zm-.26,2.39h-4.29v-1.28h4.29Zm0,2.36h-4.29V114h4.29Zm0,6.27h-1.36v-.7h-1.6v1h-1.33v-5.49h4.29Zm-1.36-2v-1.94h-1.6v1.94Zm3.64-3a22.34,22.34,0,0,1-.87,4.41l-1.17-.71a22.16,22.16,0,0,0,.74-4Zm6.47-8.35c0,1.14,0,2.25-.1,3.34a14.72,14.72,0,0,1-.18,2,1.71,1.71,0,0,1-.32.61,1.36,1.36,0,0,1-.6.43,3.89,3.89,0,0,1-1.3.15l-.68,0-.54-1.3,1.58,0a.53.53,0,0,0,.53-.44,20.22,20.22,0,0,0,.19-3.38h-1.62a6.32,6.32,0,0,1-4.52,5.84l-.84-1.13a7.12,7.12,0,0,0,2.66-1.56,11.8,11.8,0,0,0-1.84-1.55l.89-1a11.61,11.61,0,0,1,1.71,1.46,6.56,6.56,0,0,0,.55-2.07h-3.53v-1.34ZM1655,118.63a6.34,6.34,0,0,1-.2,1.75,1.69,1.69,0,0,1-.66,1,3.07,3.07,0,0,1-1.55.29,5.17,5.17,0,0,1-1.29-.1,1.06,1.06,0,0,1-.54-.41,1.2,1.2,0,0,1-.22-.72v-4h1.36V120a.29.29,0,0,0,.12.24,1.56,1.56,0,0,0,.69.08.68.68,0,0,0,.88-.75,7,7,0,0,0,.1-1.32Zm-.88-1.93-1,.82a10.8,10.8,0,0,0-2.09-2l1-.89A10.64,10.64,0,0,1,1654.14,116.7Zm3,3.25-1.26.57a28.06,28.06,0,0,0-1.27-3.93l1.2-.6A20.64,20.64,0,0,1,1657.17,120Z"/><path class="i" d="M1664.08,110.52h-4.93v-1.31h1.92c-.08-.17-.29-.57-.62-1.19l1.49-.41c.18.36.43.9.75,1.6h1.39Zm-.43,11h-1.38v-.69h-1.4v1h-1.39v-5.53h4.17Zm0-8.6h-4.14v-1.33h4.14Zm0,2.32h-4.16v-1.33h4.16Zm-1.41,4.28v-1.89h-1.4v1.89Zm11-6.19-.75,1.09a9.19,9.19,0,0,1-1.88-1.67v.87h-4.3v-.82a12.24,12.24,0,0,1-1.57,1.57l-.86-1.06a9.33,9.33,0,0,0,1.53-1.47,6.43,6.43,0,0,0-1.21-1l.92-.86a6.32,6.32,0,0,1,1,.79,6.47,6.47,0,0,0,.65-1.39h-2.19V108.1h3.52v1.27a12.27,12.27,0,0,1-1.47,2.93h3.67a9.64,9.64,0,0,1-1.78-4.29l1.23-.21a5.32,5.32,0,0,0,.19.83,6.25,6.25,0,0,0,.93-.75l.86.86a8,8,0,0,1-1.39,1.06c.07.15.15.34.24.56a5.77,5.77,0,0,0,1.58-1.13l.89.92a8.29,8.29,0,0,1-1.78,1.3A8.66,8.66,0,0,0,1673.27,113.29Zm-.39,8.34h-8.72v-1.3h2.19a7.09,7.09,0,0,0-.59-1.51l1-.59h-1.63v-3.76h6.65v3.76H1670l1.12.63q-.25.81-.51,1.47h2.27Zm-2.43-4.63v-1.3h-3.92V117Zm-.68,1.23h-2.7a19.54,19.54,0,0,1,.75,2.1h1.25A11.49,11.49,0,0,0,1669.77,118.23Z"/><path class="i" d="M1689.15,112.71l-.67,1.28a8.61,8.61,0,0,1-1.39-.4v6h-6.75l.68.8a21,21,0,0,1-5.32,1.54l-.69-1.29a18.84,18.84,0,0,0,4.37-1H1677v-6h3l-.61-.88a7.32,7.32,0,0,0,4.18-2.49l1.45.32a3.12,3.12,0,0,1-.35.54A12.9,12.9,0,0,0,1689.15,112.71Zm-9.36-.44h-4.66V111h4.66Zm-.14-2.55h-4.31v-1.28h4.31Zm6,5.54v-.56h-7.13v.56Zm0,1.63v-.59h-7.13v.59Zm0,1.67v-.63h-7.13v.63Zm3.22-8.66a19.42,19.42,0,0,1-1.4,1.79l-1.21-.72c.13-.16.42-.51.86-1.07h-5a13.36,13.36,0,0,1-1.41,1.41l-1.08-.93a9.76,9.76,0,0,0,2.38-2.72l1.31.44a1.62,1.62,0,0,1-.3.56h5.89Zm-1.94,3.66a12.63,12.63,0,0,1-3.13-1.54,8.21,8.21,0,0,1-2.6,1.54Zm2.12,7.21-.76,1.24a24.52,24.52,0,0,0-4.69-1l.74-1.2A20.38,20.38,0,0,1,1689.05,120.77Z"/><path class="i" d="M1696.27,110.48h-5.18V109.2h2a5,5,0,0,0-.51-1l1.41-.53a12.7,12.7,0,0,1,.7,1.53h1.54Zm-.35,2.38h-4.45v-1.28h4.45Zm0,2.34h-4.45v-1.27h4.45Zm0,6.23h-1.41v-.72h-1.68v1.1h-1.38v-5.54h4.47Zm-1.41-2v-1.81h-1.68v1.81Zm10.67-1.33a10.37,10.37,0,0,1-.43,2.28,3.11,3.11,0,0,1-.63,1.29,1,1,0,0,1-.69.26,1.09,1.09,0,0,1-.82-.36,5.39,5.39,0,0,1-.67-2.15,18.5,18.5,0,0,1-.31-3.2v-6.67h-2.17v4.31h1.72v1.38h-1.72v6.62h-1.37v-6.62h-1.49v-1.38h1.49v-4.31h-1.3v-1.35H1703v8.34a12.62,12.62,0,0,0,.52,3.59,13.73,13.73,0,0,0,.38-2.81Z"/></g></g><g class="d"><g class="d"><path class="i" d="M1451.74,117.83a36.85,36.85,0,0,1-4.33,2.53l-.42-1.28c.49-.24,1.07-.55,1.76-1v-3.82h-1.36V113h1.36v-3.09h-1.62v-1.31h4.41v1.31h-1.46V113h1.3v1.34h-1.3v3.06c.45-.28.94-.61,1.49-1Zm8.63-.67H1456a9.44,9.44,0,0,1-1.33,1.41v1.58c.66-.2,1.36-.44,2.08-.72l.18,1.27a18.86,18.86,0,0,1-3.48,1.11l-.39-1.08a.67.67,0,0,0,.3-.58v-.6a17.51,17.51,0,0,1-1.94,1l-.7-1.22a10.7,10.7,0,0,0,3.54-2.19h-2v-3h8.1Zm.68-3.75h-9.29v-1.16h9.29Zm-.43-1.85h-8.48V108.1h8.48Zm-6.07-1.17v-1.12h-1.07v1.12ZM1459,116v-.7h-5.32v.7Zm-2.07-5.63v-1.12h-1.09v1.12Zm4.31,10.37-.73,1.15a6.07,6.07,0,0,1-2.62-1.6,5.37,5.37,0,0,1-1.46-2.51l1.22-.31a3.77,3.77,0,0,0,.61,1.21,9.22,9.22,0,0,0,1.65-1.3l1,.88a10.64,10.64,0,0,1-1.78,1.36A6.3,6.3,0,0,0,1461.22,120.76Zm-2-10.37v-1.12h-1.06v1.12Z"/><path class="i" d="M1467.52,118.84a45.13,45.13,0,0,1-4.13,2l-.4-1.36c.69-.28,1.2-.49,1.53-.65V113.2h-1.32v-1.37h1.32v-4h1.39v4h1.14v1.37h-1.14v5l1.45-.75Zm9.67.47a6.07,6.07,0,0,1-.32,1.64,1.25,1.25,0,0,1-.58.68,4.57,4.57,0,0,1-1.64.18,3.13,3.13,0,0,1-1.41-.24.9.9,0,0,1-.44-.86V118h-1.53a4.09,4.09,0,0,1-1,2.66,5.71,5.71,0,0,1-3.11,1.38l-.68-1.26a5.05,5.05,0,0,0,2.57-.87,2.67,2.67,0,0,0,.87-1.91h-1.83v-4.87h8.29V118h-2.17v2.18c0,.27.14.41.43.41.52,0,.85-.08,1-.23a3.3,3.3,0,0,0,.27-1.45Zm-.28-6.92h-9.4v-1.18h2.22a10.38,10.38,0,0,0-.56-1.15h-1.12v-1.25h3.37a6.55,6.55,0,0,0-.33-.85l1.52-.27a4.57,4.57,0,0,1,.4,1.12h3.36v1.25h-1.12a8.47,8.47,0,0,1-.55,1.15h2.21Zm-2,2.58v-.67h-5.42V115Zm0,1.76V116h-5.42v.71Zm-1.31-6.67h-2.84a6.54,6.54,0,0,1,.55,1.15H1473A5.91,5.91,0,0,0,1473.62,110.06Z"/><path class="i" d="M1483.76,110.59h-4.67v-1.27h1.78a10.4,10.4,0,0,0-.47-1.3l1.36-.36.59,1.66h1.41Zm-.38,2.36h-3.9V111.7h3.9Zm0,2.34h-3.9V114h3.9Zm0,6.24h-1.33v-.64h-1.25v1h-1.35v-5.49h3.93Zm-1.33-2v-1.87h-1.25v1.87Zm11-.38h-1v1.3a1.16,1.16,0,0,1-.42,1,2.71,2.71,0,0,1-1.4.27l-.9,0-.41-1.32h1.45c.23,0,.35-.11.35-.33v-.94h-4.64v2.63h-1.33v-2.63h-.73V118.1h.73v-3.65h3v-.89h-3.92v-1.14h2.1v-.73h-1.38V110.6h1.38v-.72h-1.7v-1.15h1.7v-.9h1.29v.9h2.34v-.9h1.33v.87h2v1.15h-2v.75h1.44v1.09h-1.44v.73H1493v1.14h-3.9v.89h3v3.65h1Zm-5.29-2.9v-.72h-1.65v.72Zm0,1.82v-.78h-1.65v.78Zm1.81-7.5v-.72h-2.34v.72Zm0,1.82v-.73h-2.34v.73Zm1.18,3.86v-.73h-1.66v.73Zm0,1.82v-.78h-1.66v.78Z"/><path class="i" d="M1499.59,112.42a40.11,40.11,0,0,1-4,2l-.56-1.18a34.47,34.47,0,0,0,4.18-2.06Zm1.88.66a1.37,1.37,0,0,1-.28.92,1.08,1.08,0,0,1-.65.4,7.79,7.79,0,0,1-1.32.07l-.47-1.26.84,0c.32,0,.49-.15.49-.46V109.4h-4.77v-1.27h6.16Zm-2.86-2.48-.81,1a9.5,9.5,0,0,0-2.26-.87l.83-1.06A9.55,9.55,0,0,1,1498.61,110.6Zm8.93,11.21h-1.42v-.63H1498v.63h-1.39V115.2H1501a6.38,6.38,0,0,0,.61-1.08l1.51.24a4.19,4.19,0,0,1-.43.84h4.84Zm-1.42-4.2v-1.13H1498v1.13Zm0,2.34v-1.18H1498V120Zm.49-7.56a26,26,0,0,1-3.86,1.59l-.57-1.14c1.37-.47,2.72-1,4-1.61Zm1.88.43a1.83,1.83,0,0,1-.3,1.16,1.14,1.14,0,0,1-.67.44,11.55,11.55,0,0,1-1.5.06l-.48-1.25,1,0a.58.58,0,0,0,.34-.14.41.41,0,0,0,.18-.31V109.4h-4.72v-1.27h6.11Zm-3.22-2.09-.9,1a8.71,8.71,0,0,0-1.91-1l.85-1A7.32,7.32,0,0,1,1505.27,110.73Z"/></g></g><path class="h" d="M1462.11,96.44a1.57,1.57,0,0,1,.19-.26,4.82,4.82,0,0,1,6.82.23l0,0h3.69a1.51,1.51,0,0,1,.18-.26,4.83,4.83,0,0,1,6.83.23l0,0h1.28a4.48,4.48,0,0,0-1.48-1.52c-.41-.28-.86-.5-1.3-.75a.17.17,0,0,1,0,0l.19-.18a2.58,2.58,0,0,0,.85-1.63,10.49,10.49,0,0,0,0-2.17,3.14,3.14,0,0,0-3.14-2.73,3.17,3.17,0,0,0-3.13,2.71,8.25,8.25,0,0,0-.06,1.4,3.16,3.16,0,0,0,1.09,2.56.57.57,0,0,1,.08.13,6.06,6.06,0,0,0-2.79,2.13V85.24h21.73c.6,0,.76-.16.76-.74V66.65c0-.57-.16-.74-.73-.74h-26.37c-.58,0-.75.17-.75.74,0,1.8,0,3.59,0,5.39a.44.44,0,0,1-.35.52h0a3.1,3.1,0,0,0-2.17,2.28,4.75,4.75,0,0,0,.73,4.38s0,0,0,.07l-.26,0a3.75,3.75,0,0,0-3.86,3.64,2.72,2.72,0,0,0,0,.28v6.19a2.69,2.69,0,0,0,2,2.69.5.5,0,0,1,.27.3,3.38,3.38,0,0,0,.93,1.6,1.45,1.45,0,0,1,.16.18l-.71.34a5.15,5.15,0,0,0-2.1,1.91Zm9.4-12.26V83h.36c1.5,0,3,0,4.49,0a1.16,1.16,0,0,0,1.05-.5c1-1.35,2.13-2.67,3.19-4a1.76,1.76,0,0,0,.48-1.63,1.62,1.62,0,0,0-.74-1.06.51.51,0,0,1-.28-.54c0-2.12,0-4.24,0-6.36v-.24c0-.4-.22-.64-.53-.64s-.51.25-.52.66c0,2.15,0,4.31,0,6.46v.42a3.28,3.28,0,0,0-2,1.43c-.57.69-1.13,1.39-1.7,2.07a.59.59,0,0,1-.38.2h-5.19l-.19,0s0-.07,0-.08a4.67,4.67,0,0,0,.75-4.25,3.22,3.22,0,0,0-2.74-2.56l-.32-.07V67h25.72V84.18Zm-3.87,10a.85.85,0,0,1,0-.09c1.35-1.18,1.32-2.75,1-4.27a3.14,3.14,0,0,0-3.76-2.36,3.27,3.27,0,0,0-1.17.53l-.3.21V83.06a.52.52,0,0,0-1,0v0c0,.1,0,.2,0,.3V91a1.44,1.44,0,0,1-1.09-1.38c0-2.26,0-4.53,0-6.8a2.64,2.64,0,0,1,2.59-2.49h11a1.24,1.24,0,0,0,1.11-.52c.68-.89,1.41-1.73,2.14-2.58a1.52,1.52,0,0,1,1.12-.65.71.71,0,0,1,.73.37.7.7,0,0,1-.13.8l-2.39,3c-.25.32-.52.63-.76,1a.61.61,0,0,1-.56.27h-5c-.61,0-.77.15-.77.76V96.26a7,7,0,0,0-2.8-2.05Zm-3.05-19a2.42,2.42,0,0,1,4.77.53,8.33,8.33,0,0,1-.08,1.73,2.38,2.38,0,0,1-2.63,1.83,2.45,2.45,0,0,1-2.14-2.37v-.6h0a8.49,8.49,0,0,1,.11-1.12Zm3.09,17a2.15,2.15,0,0,1-4.23-.51,7.42,7.42,0,0,1,.07-1.63,2.11,2.11,0,0,1,2.34-1.65,2.17,2.17,0,0,1,1.9,2.13v.57h0a8.05,8.05,0,0,1-.11,1.09Zm10.77-.17a2.16,2.16,0,0,1-4.28-.42,7.48,7.48,0,0,1,.07-1.57,2.12,2.12,0,0,1,2.36-1.63,2.18,2.18,0,0,1,1.88,2.11v.6h0a6.85,6.85,0,0,1,0,.91Zm5.11,4.36a1.51,1.51,0,0,1,.18-.26,4.83,4.83,0,0,1,6.83.23l0,0h1.27a8,8,0,0,0-1-1.12,21.26,21.26,0,0,0-1.78-1.2s0,0,0,0l.19-.18a2.59,2.59,0,0,0,.86-1.63,10.79,10.79,0,0,0,0-2.2,3.14,3.14,0,0,0-3.13-2.7,3.18,3.18,0,0,0-3.15,2.7,9.87,9.87,0,0,0-.06,1.33,3.24,3.24,0,0,0,1.09,2.63l.09.12-.64.3a5.19,5.19,0,0,0-2.16,1.94Zm5.56-4.19a2.15,2.15,0,0,1-4.23-.5,7.77,7.77,0,0,1,.08-1.67,2.11,2.11,0,0,1,2.36-1.62,2.16,2.16,0,0,1,1.87,2.11v.57h0a8.32,8.32,0,0,1-.1,1.11Z"/><g class="d"><g class="d"><path class="i" d="M1547.1,118.34a15.75,15.75,0,0,1-.89,3.51l-1.25-.54a14.28,14.28,0,0,0,.9-3.33Zm3.81-1.34-1.18.4c-.06-.26-.12-.53-.21-.81a40.16,40.16,0,0,1-4,1l-.47-1.12a12.8,12.8,0,0,0,2.9-3.35,19.3,19.3,0,0,1-2.48.44l-.27-1.12a15.72,15.72,0,0,0,2.67-4.69l1.28.58a19.55,19.55,0,0,1-1.92,3.6,11.77,11.77,0,0,0,1.62-.38,8.33,8.33,0,0,0,.72-1.43l1.28.62a22.15,22.15,0,0,1-3.36,5.06,11.63,11.63,0,0,0,1.55-.43,2.54,2.54,0,0,0-.19-.57l1.19-.38A13.08,13.08,0,0,1,1550.91,117Zm-1.69,4.23-1.3.36a18.92,18.92,0,0,0-.48-3.25l1.23-.36A21,21,0,0,1,1549.22,121.23Zm2-.76-1.15.47a13.59,13.59,0,0,0-.74-2.72l1.14-.44A21.24,21.24,0,0,1,1551.2,120.47Zm8.1-5.23-.69,1.27a20.53,20.53,0,0,1-3.63-2,15.66,15.66,0,0,1-3.53,1.93l-.62-1.24a14.38,14.38,0,0,0,3-1.54,9,9,0,0,1-1.4-1.65,11.25,11.25,0,0,1-1.07,1.16l-.83-1.11a14.79,14.79,0,0,0,3.18-4.37l1.3.4a9.1,9.1,0,0,1-.58,1.17h3.88v1.31a15.18,15.18,0,0,1-2.31,3A15,15,0,0,0,1559.3,115.24Zm-1.18,5.39-.65,1.27a22.56,22.56,0,0,0-5.44-2l.56-1.26A25.52,25.52,0,0,1,1558.12,120.63Zm-.35-3-.52,1.25a23.58,23.58,0,0,0-4.42-1.53l.55-1.23A26,26,0,0,1,1557.77,117.63Zm-1-7h-3.15a4,4,0,0,1-.26.34,6.54,6.54,0,0,0,1.6,1.88A12.85,12.85,0,0,0,1556.77,110.6Z"/><path class="i" d="M1575.12,114.25a18.81,18.81,0,0,1-2.11,2v3.87a1.52,1.52,0,0,1-.38,1.12,1.73,1.73,0,0,1-1,.46c-.44,0-1.38.08-2.82.08l-.4-1.33c.46,0,.93,0,1.4,0a7.13,7.13,0,0,0,1.6-.09.36.36,0,0,0,.19-.35v-2.75a34.53,34.53,0,0,1-9.89,4.34l-.7-1.25a47.18,47.18,0,0,0,9.26-3.54q-4,.45-8.77.75l-.37-1.36,1.67,0v-7.13h2a6.6,6.6,0,0,0,1-1.42l1.53.32a7.06,7.06,0,0,1-.75,1.1H1573v5.46a9.64,9.64,0,0,0,1.29-1.28Zm-3.55-2.91v-1h-7.34v1Zm0,2.19v-1.06h-7.34v1.06Zm0,1.93v-.78h-7.34v1.45C1566.62,116,1569.06,115.78,1571.57,115.46Z"/><path class="i" d="M1591,119.4h-6.14v1a1.3,1.3,0,0,1-.25.85,1.23,1.23,0,0,1-.62.43,6.3,6.3,0,0,1-1.43.11l-1.1,0-.46-1.3,2.11,0c.19,0,.29-.09.29-.27v-.8h-6.34v-1.13h6.34v-.69a14.26,14.26,0,0,0,2.21-.63h-5.94v-1h8.52v1a23.84,23.84,0,0,1-3.33,1.22v.1H1591Zm-.24-2.35h-1.35v-1.82h-10.7V117h-1.42V114.1h1l-.29-5.74a11.13,11.13,0,0,0,3.12-.61l.65,1.11a12.49,12.49,0,0,1-2.36.49l0,.85h2.09v1h-2l0,.91h2v1h-1.94l.05.92h8.81l0-.92h-2.15v-1h2.21l0-.91h-2.25v-1h2.28l.05-.85h-2.44v-1.12h3.83l-.26,5.87h1Zm-4.86-8.83a5.24,5.24,0,0,1-1,1c.26.23.5.47.72.7l-.86.75a5.88,5.88,0,0,0-.79-.79,11.65,11.65,0,0,1-1.62.81l-.67-.9a7.27,7.27,0,0,0,1.36-.64c-.15-.13-.44-.35-.89-.66l.78-.78,1.07.77a5.26,5.26,0,0,0,.83-.75Zm.07,5-.85.73a8.07,8.07,0,0,0-1.08-1,15,15,0,0,1-1.64.9l-.65-.89a11.27,11.27,0,0,0,1.37-.73,6,6,0,0,0-1.05-.72l.77-.79c.28.17.7.45,1.24.85a7.17,7.17,0,0,0,.9-.85l1,.58a11.11,11.11,0,0,1-1,1A10.39,10.39,0,0,1,1586,113.26Z"/><path class="i" d="M1597.59,112.42a40.11,40.11,0,0,1-4,2l-.56-1.18a34.47,34.47,0,0,0,4.18-2.06Zm1.88.66a1.37,1.37,0,0,1-.28.92,1.08,1.08,0,0,1-.65.4,7.79,7.79,0,0,1-1.32.07l-.47-1.26.84,0c.32,0,.49-.15.49-.46V109.4h-4.77v-1.27h6.16Zm-2.86-2.48-.81,1a9.5,9.5,0,0,0-2.26-.87l.83-1.06A9.55,9.55,0,0,1,1596.61,110.6Zm8.93,11.21h-1.42v-.63H1596v.63h-1.39V115.2H1599a6.38,6.38,0,0,0,.61-1.08l1.51.24a4.19,4.19,0,0,1-.43.84h4.84Zm-1.42-4.2v-1.13H1596v1.13Zm0,2.34v-1.18H1596V120Zm.49-7.56a26,26,0,0,1-3.86,1.59l-.57-1.14c1.37-.47,2.72-1,4-1.61Zm1.88.43a1.83,1.83,0,0,1-.3,1.16,1.14,1.14,0,0,1-.67.44,11.55,11.55,0,0,1-1.5.06l-.48-1.25,1,0a.58.58,0,0,0,.34-.14.41.41,0,0,0,.18-.31V109.4h-4.72v-1.27h6.11Zm-3.22-2.09-.9,1a8.71,8.71,0,0,0-1.91-1l.85-1A7.32,7.32,0,0,1,1603.27,110.73Z"/></g></g><path class="h" d="M1575.42,97.28c-.66-.18-1.33-.32-2-.53a62.52,62.52,0,0,1-7.2-3c-2.15-1-4.27-2-6.4-3.07l-.21-.11c-.42-.21-.56-.5-.4-.8s.45-.35.86-.14l2.45,1.21c3.27,1.59,6.56,3.16,10,4.44.74.27,1.51.49,2.27.73a3.34,3.34,0,0,0,2.14-.1,28.26,28.26,0,0,0,4.77-2.37l.58-.35c-.83-.22-1.6-.37-2.33-.63a14.53,14.53,0,0,0-6.39-.43c-.86.08-1.71.23-2.57.35-.43.06-.71-.1-.76-.43s.19-.55.6-.62a29.79,29.79,0,0,1,6.73-.47,11.63,11.63,0,0,1,2.17.45c1.07.26,2.13.56,3.21.8a1.33,1.33,0,0,0,1.47-.49,1.42,1.42,0,0,0,0-1.58,2.45,2.45,0,0,0-.57-.75,5.12,5.12,0,0,0-1.71-1.08,18.37,18.37,0,0,0-4.2-.88c-1.11-.12-2.23-.2-3.33-.37a3.44,3.44,0,0,1-1.16-.46A21.63,21.63,0,0,0,1567,84a18.32,18.32,0,0,0-5.42-.51,13.25,13.25,0,0,0-1.65.29c-.4.09-.67,0-.77-.33s.07-.56.45-.68a9.14,9.14,0,0,1,2.94-.37,22.43,22.43,0,0,1,10.75,2.94l1,.56c-.07-.59-.13-1.09-.2-1.59a55.25,55.25,0,0,0-1.91-8.69c-.11-.37-.22-.74-.36-1.1a.39.39,0,0,0-.25-.2,3.22,3.22,0,0,1-2.37-1.13,6.41,6.41,0,0,1-1.46-3.18,18.35,18.35,0,0,1-.31-4.05c0-1.06,0-2.11,0-3.17a.8.8,0,0,1,.29-.57.65.65,0,0,1,.59,0,3.72,3.72,0,0,1,.83.7,36.12,36.12,0,0,1,4.11,5.5,5.08,5.08,0,0,1,.64,3.71,3,3,0,0,1-.92,1.6.47.47,0,0,0-.14.37q.75,2.76,1.52,5.52s0,.08.06.16c.29-.36.56-.68.81-1,0-.07,0-.23,0-.33a7.11,7.11,0,0,1-.74-2.37,4,4,0,0,1,.62-2.61,5.57,5.57,0,0,1,.79-1,12.12,12.12,0,0,1,5.89-3.33,36.51,36.51,0,0,1,7-1.06,11.3,11.3,0,0,1,1.84.12.71.71,0,0,1,.69.57c.06.34-.2.51-.39.74a10.63,10.63,0,0,0-1.12,1.54,57,57,0,0,1-4.33,7.3,7.08,7.08,0,0,1-4.3,2.83,5.28,5.28,0,0,1-5.11-1.46l-.13-.09a3.38,3.38,0,0,0-1.07,2.68c.19,1.21.36,2.43.55,3.64a.45.45,0,0,0,.26.28c.91.11,1.81.2,2.72.28a1,1,0,0,0,.55-.11c1.25-.65,2.49-1.34,3.74-2a12.81,12.81,0,0,1,1.66-.72,1.89,1.89,0,0,1,2.23.46l1.62-.94a6,6,0,0,1,2.73-.9,5.22,5.22,0,0,1,2.46.46,1.53,1.53,0,0,1,.77.87v.47a5.68,5.68,0,0,0-.36.94,2.35,2.35,0,0,1-.67,1.35c-1,1-2,2-3.14,2.83-1.86,1.41-3.78,2.74-5.73,4a36.54,36.54,0,0,1-6,3.3c-.73.3-1.5.5-2.25.75Zm1.27-18.53a3.44,3.44,0,0,0,1.9,1.29,5.08,5.08,0,0,0,4.82-1.11,9.33,9.33,0,0,0,1.7-1.9c.93-1.42,1.77-2.92,2.62-4.39.61-1,1.19-2.1,1.78-3.15.07-.12.16-.24.28-.41h-.44a34.8,34.8,0,0,0-6.35.8,12.87,12.87,0,0,0-4.93,2.07,8.11,8.11,0,0,0-1.94,1.8,3.53,3.53,0,0,0,0,4.12c.1-.08.18-.16.28-.23.52-.39,1-.8,1.56-1.16a.51.51,0,0,1,.71.07.54.54,0,0,1,.11.28.88.88,0,0,1-.31.55c-.58.47-1.19.91-1.81,1.38Zm-4.34-6,.13.05a5.25,5.25,0,0,0,.41-.94,3.9,3.9,0,0,0-.5-2.85,37.09,37.09,0,0,0-3.65-5l-.21-.15c0,.54,0,1,0,1.44a15,15,0,0,0,.62,5.73,3.53,3.53,0,0,0,1.5,2,4.37,4.37,0,0,0,.68.27,6.8,6.8,0,0,0-.37-1.16.53.53,0,0,1,.18-.73l.09,0c.29-.11.54,0,.7.36S1572.21,72.4,1572.35,72.74ZM1585.68,91l.38-.24c.94-.7,1.88-1.39,2.81-2.1.77-.59,1.53-1.19,2.26-1.83a14.33,14.33,0,0,0,1.35-1.35,2.28,2.28,0,0,0,.23-.68,3.07,3.07,0,0,0-.68-.06,10.05,10.05,0,0,0-3.64,1.51c-1.15.73-2.32,1.43-3.49,2.15l-.25.16a3.62,3.62,0,0,1,1,2.44Zm-2.92-3.6a6.19,6.19,0,0,1,.63.32.48.48,0,0,0,.59,0c1.27-.78,2.55-1.53,3.82-2.32a11.69,11.69,0,0,1,3.53-1.58,12.86,12.86,0,0,1,1.52-.18l0-.08q-.72-.16-1.44-.27a4.81,4.81,0,0,0-2.87.84,55,55,0,0,1-5.71,3.19Zm-2.23-.71,0,.15a2.21,2.21,0,0,0,.81,0c1-.44,2-.91,3-1.4.47-.24.91-.53,1.36-.8l0-.16a4.18,4.18,0,0,0-.93.14c-1,.44-1.93.9-2.89,1.38-.44.22-.85.47-1.28.7Z"/><g class="d"><g class="d"><path class="i" d="M1264,119.4h-6.14v1a1.3,1.3,0,0,1-.25.85,1.23,1.23,0,0,1-.62.43,6.3,6.3,0,0,1-1.43.11l-1.1,0-.46-1.3,2.11,0c.19,0,.29-.09.29-.27v-.8h-6.34v-1.13h6.34v-.69a14.26,14.26,0,0,0,2.21-.63h-5.94v-1h8.52v1a23.84,23.84,0,0,1-3.33,1.22v.1H1264Zm-.24-2.35h-1.35v-1.82h-10.7V117h-1.42V114.1h1l-.29-5.74a11.13,11.13,0,0,0,3.12-.61l.65,1.11a12.49,12.49,0,0,1-2.36.49l0,.85h2.09v1h-2l0,.91h2v1h-1.94l.05.92h8.81l0-.92h-2.15v-1h2.21l0-.91h-2.25v-1h2.28l.05-.85h-2.44v-1.12h3.83l-.26,5.87h1Zm-4.86-8.83a5.24,5.24,0,0,1-1,1c.26.23.5.47.72.7l-.86.75a5.88,5.88,0,0,0-.79-.79,11.65,11.65,0,0,1-1.62.81l-.67-.9a7.27,7.27,0,0,0,1.36-.64c-.15-.13-.44-.35-.89-.66l.78-.78,1.07.77a5.26,5.26,0,0,0,.83-.75Zm.07,5-.85.73a8.07,8.07,0,0,0-1.08-1,15,15,0,0,1-1.64.9l-.65-.89a11.27,11.27,0,0,0,1.37-.73,6,6,0,0,0-1.05-.72l.77-.79c.28.17.7.45,1.24.85a7.17,7.17,0,0,0,.9-.85l1,.58a11.11,11.11,0,0,1-1,1A10.39,10.39,0,0,1,1259,113.26Z"/><path class="i" d="M1270.59,112.42a40.11,40.11,0,0,1-4,2l-.56-1.18a34.47,34.47,0,0,0,4.18-2.06Zm1.88.66a1.37,1.37,0,0,1-.28.92,1.08,1.08,0,0,1-.65.4,7.79,7.79,0,0,1-1.32.07l-.47-1.26.84,0c.32,0,.49-.15.49-.46V109.4h-4.77v-1.27h6.16Zm-2.86-2.48-.81,1a9.5,9.5,0,0,0-2.26-.87l.83-1.06A9.55,9.55,0,0,1,1269.61,110.6Zm8.93,11.21h-1.42v-.63H1269v.63h-1.39V115.2H1272a6.38,6.38,0,0,0,.61-1.08l1.51.24a4.19,4.19,0,0,1-.43.84h4.84Zm-1.42-4.2v-1.13H1269v1.13Zm0,2.34v-1.18H1269V120Zm.49-7.56a26,26,0,0,1-3.86,1.59l-.57-1.14c1.37-.47,2.72-1,4-1.61Zm1.88.43a1.83,1.83,0,0,1-.3,1.16,1.14,1.14,0,0,1-.67.44,11.55,11.55,0,0,1-1.5.06l-.48-1.25,1,0a.58.58,0,0,0,.34-.14.41.41,0,0,0,.18-.31V109.4h-4.72v-1.27h6.11Zm-3.22-2.09-.9,1a8.71,8.71,0,0,0-1.91-1l.85-1A7.32,7.32,0,0,1,1276.27,110.73Z"/><path class="i" d="M1296.15,112.71l-.67,1.28a8.61,8.61,0,0,1-1.39-.4v6h-6.75l.68.8a21,21,0,0,1-5.32,1.54l-.69-1.29a18.84,18.84,0,0,0,4.37-1H1284v-6h3l-.61-.88a7.32,7.32,0,0,0,4.18-2.49l1.45.32a3.12,3.12,0,0,1-.35.54A12.9,12.9,0,0,0,1296.15,112.71Zm-9.36-.44h-4.66V111h4.66Zm-.14-2.55h-4.31v-1.28h4.31Zm6,5.54v-.56h-7.13v.56Zm0,1.63v-.59h-7.13v.59Zm0,1.67v-.63h-7.13v.63Zm3.22-8.66a19.42,19.42,0,0,1-1.4,1.79l-1.21-.72c.13-.16.42-.51.86-1.07h-5a13.36,13.36,0,0,1-1.41,1.41l-1.08-.93a9.76,9.76,0,0,0,2.38-2.72l1.31.44a1.62,1.62,0,0,1-.3.56h5.89Zm-1.94,3.66a12.63,12.63,0,0,1-3.13-1.54,8.21,8.21,0,0,1-2.6,1.54Zm2.12,7.21-.76,1.24a24.52,24.52,0,0,0-4.69-1l.74-1.2A20.38,20.38,0,0,1,1296.05,120.77Z"/><path class="i" d="M1301.09,116.54a30.88,30.88,0,0,1-1.82,5.23l-1.23-.88a30.29,30.29,0,0,0,1.77-5.23Zm.4-2.87-.92,1.21a10.37,10.37,0,0,0-2.5-1.91l.87-1.19A11.35,11.35,0,0,1,1301.49,113.67Zm.1-3.74-1,1.12a11,11,0,0,0-2.38-2.24l1-1.08A13.68,13.68,0,0,1,1301.59,109.93Zm10.4-.55h-3.48c-.12.36-.28.78-.49,1.25h3.5v5.91h-3v4.16a.91.91,0,0,1-.41.82,2.65,2.65,0,0,1-1.35.26c-.28,0-.55,0-.8,0l-.58-1.44c.37,0,.73,0,1.07,0s.5,0,.55-.08a.3.3,0,0,0,.09-.25v-3.48h-2.92v-5.91h2.12a10.49,10.49,0,0,0,.48-1.25h-3.44v5.44a14.59,14.59,0,0,1-1.58,7.08l-1.21-.81a14.36,14.36,0,0,0,1.37-6.41v-6.62h10Zm-5.63,8.39a13.71,13.71,0,0,1-2.19,3.44l-1.17-1a11.13,11.13,0,0,0,2-3.22Zm3.76-4.82v-1.1h-4.5V113Zm0,2.34v-1.14h-4.5v1.14Zm2.1,5-1.25.92a18.4,18.4,0,0,0-1.6-3.51l1.22-.7A16.53,16.53,0,0,1,1312.22,120.31Z"/></g></g><path class="h" d="M1264.2,71.09l1.85-.4,2.23-.43V66.84c.65,0,1.27,0,1.89,0a21,21,0,0,1,8.67,2.23c.91.46,1.77,1,2.64,1.55a.87.87,0,0,0,.72.13,32.88,32.88,0,0,1,7.91-.84,35.18,35.18,0,0,1,8.6,1.13l.29.09V95.61c-.78-.18-1.54-.37-2.31-.54a32.79,32.79,0,0,0-8.67-.68,34.68,34.68,0,0,0-6.17.92,1.16,1.16,0,0,1-.49,0,33.11,33.11,0,0,0-17.16.35Zm18.42,22a35.09,35.09,0,0,1,14.36,0c0-.13,0-.21,0-.28V73c0-.22,0-.32-.29-.36-1.37-.19-2.74-.46-4.13-.6a31.54,31.54,0,0,0-9.59.58c-.31.06-.38.18-.38.48q0,9.8,0,19.58Zm-2-.6V72.76a.52.52,0,0,0-.26-.5,19.81,19.81,0,0,0-8.47-3.27c-.51-.07-1-.1-1.56-.15V89.29a21.84,21.84,0,0,1,5.31.94,21.3,21.3,0,0,1,5,2.26Zm-14.38.6a37.46,37.46,0,0,1,9.33-.73,19,19,0,0,0-7.28-1.08v-19c-.57.11-1.1.23-1.63.3-.34,0-.43.18-.43.52q0,9.78,0,19.55Zm20.52-16.92,9,5.93-9,5.94Zm5.36,5.94-3.34-2.2v4.4Z"/><g class="d"><g class="d"><path class="i" d="M1060,108.25a16.16,16.16,0,0,1-5.13,7.1l-.91-1.22a13.41,13.41,0,0,0,4.62-6.36Zm7.14,12.78-1.28.88a12.94,12.94,0,0,0-.9-1.79c-2.46.58-5.47,1.1-9,1.58l-.42-1.22q2.06-1.47,4.81-8.14l1.46.43a34.89,34.89,0,0,1-4,7.27,51.35,51.35,0,0,0,6.47-1.13,29.35,29.35,0,0,0-1.67-2.43l1.18-.76A29.77,29.77,0,0,1,1067.16,121Zm1-6.83-.85,1.26a12.46,12.46,0,0,1-4.43-6.12h-1.3V108H1064A11.19,11.19,0,0,0,1068.2,114.2Z"/><path class="i" d="M1084,114.6h-13.9v-1.29h6.25v-2.13h-3.46a9.27,9.27,0,0,1-1.82,1.71l-1.06-1a13,13,0,0,0,3.41-4l1.42.43c-.28.5-.59,1-.94,1.52h2.45v-2h1.43v2h5.38v1.33h-5.38v2.13H1084Zm-1.67,7.21h-1.44v-.72h-7.64v.72h-1.48v-5.75h10.56Zm-1.44-2.06v-2.38h-7.64v2.38Z"/><path class="i" d="M1091.27,110.48h-5.18V109.2h2a5,5,0,0,0-.51-1l1.41-.53a12.7,12.7,0,0,1,.7,1.53h1.54Zm-.35,2.38h-4.45v-1.28h4.45Zm0,2.34h-4.45v-1.27h4.45Zm0,6.23h-1.41v-.72h-1.68v1.1h-1.38v-5.54h4.47Zm-1.41-2v-1.81h-1.68v1.81Zm10.67-1.33a10.37,10.37,0,0,1-.43,2.28,3.11,3.11,0,0,1-.63,1.29,1,1,0,0,1-.69.26,1.09,1.09,0,0,1-.82-.36,5.39,5.39,0,0,1-.67-2.15,18.5,18.5,0,0,1-.31-3.2v-6.67h-2.17v4.31h1.72v1.38h-1.72v6.62h-1.37v-6.62h-1.49v-1.38h1.49v-4.31h-1.3v-1.35H1098v8.34a12.62,12.62,0,0,0,.52,3.59,13.73,13.73,0,0,0,.38-2.81Z"/><path class="i" d="M1105.24,117.72a19,19,0,0,1-2.06,3.59l-1.19-.77a17.3,17.3,0,0,0,2-3.4Zm9.12-1h-10.58V109h3a7.41,7.41,0,0,0,.74-1.36l1.56.29a5.13,5.13,0,0,1-.58,1.07h5.85ZM1113,111.2v-1h-7.82v1Zm0,2.17v-1h-7.82v1Zm0,2.16v-1h-7.82v1Zm.2,3.92a2,2,0,0,1-2.23,2.21h-3.42a1.76,1.76,0,0,1-1.2-.41,1.46,1.46,0,0,1-.46-1.18v-2.73h1.4v2.53a.39.39,0,0,0,.22.39,2.63,2.63,0,0,0,1,.11l2.39,0a1,1,0,0,0,.57-.18c.19-.12.31-.55.37-1.28Zm-2-.56-1.23.75a13.66,13.66,0,0,0-1.62-2l1.17-.73A11.1,11.1,0,0,1,1111.16,118.89Zm5.07,1.73-1.25.69a14.86,14.86,0,0,0-2.21-3.36l1.24-.71A17.66,17.66,0,0,1,1116.23,120.62Z"/></g></g><path class="h" d="M1101,71.84V93.48a1.07,1.07,0,0,0-.07.19,3.88,3.88,0,0,1-4,3.36h-26.46a4.43,4.43,0,0,1-.9-.09,3.89,3.89,0,0,1-3.1-4V68.28a1.59,1.59,0,0,1,.62-1.35,1.73,1.73,0,0,1,1.1-.32h27.33a1.46,1.46,0,0,1,1.26.73,2.27,2.27,0,0,1,.24.89c0,.74,0,1.5,0,2.28h2.32a1.54,1.54,0,0,1,1.52,1.15Zm-3.93.19v19.7c0,.52,0,.57.57.68a.72.72,0,0,1,.58.79.69.69,0,0,1-.66.67,1.88,1.88,0,0,1-2-1.77v-24h-27c-.49,0-.49,0-.49.49v24.3a2.39,2.39,0,0,0,2.17,2.6,1.48,1.48,0,0,0,.42,0h26.26a2.4,2.4,0,0,0,2.6-2.18,2,2,0,0,0,0-.42V72.51a1,1,0,0,0,0-.3c0-.07-.12-.17-.18-.17Zm-21.15,3.18h3.77c.63,0,.89.25.89.88V83.7c0,.63-.25.9-.88.9h-7.61c-.64,0-.89-.27-.89-.92V76.13c0-.68.24-.92.91-.92Zm-3.22,4.65v2.9c0,.26.08.35.35.35q2.85,0,5.7,0c.25,0,.36-.06.35-.34q0-2.86,0-5.73c0-.26-.09-.33-.33-.33q-2.87,0-5.73,0c-.27,0-.34.1-.34.36v2.79Zm-.41-8.55h-.4a.75.75,0,0,0-.1,1.47,2.38,2.38,0,0,0,.46,0h19.08a2.83,2.83,0,0,0,.5,0,.69.69,0,0,0,.54-.64c0-.52-.28-.82-.87-.82h-19.21Zm-.06,19.51a1.83,1.83,0,0,0-.47,0,.7.7,0,0,0-.55.68.73.73,0,0,0,.67.79h8a.72.72,0,0,0,.72-.7.17.17,0,0,0,0-.07c0-.46-.33-.73-.9-.73h-7.44Zm19.37,1.51a.73.73,0,0,0,.73-.49.69.69,0,0,0-.24-.84,1.58,1.58,0,0,0-.7-.18H1084a2.69,2.69,0,0,0-.4,0,.75.75,0,0,0-.63.84.76.76,0,0,0,.73.64c1.32,0,2.63,0,3.94,0Zm-7.82-17.12a.71.71,0,0,0-.77.64.2.2,0,0,0,0,.07.72.72,0,0,0,.66.78h7.63a4.19,4.19,0,0,0,.5,0,.68.68,0,0,0,.57-.65.71.71,0,0,0-.6-.81.49.49,0,0,0-.17,0c-1.3,0-2.6,0-3.91,0Zm7.78,13.2a.71.71,0,0,0,.8-.62.28.28,0,0,0,0-.09.73.73,0,0,0-.67-.78h-7.62l-.5,0a.67.67,0,0,0-.56.56.72.72,0,0,0,.53.88.58.58,0,0,0,.23,0c1.3,0,2.6,0,3.91,0s2.58,0,3.87,0Zm-15.27,0h3.54a.68.68,0,0,0,.74-.65.07.07,0,0,0,0-.05.72.72,0,0,0-.65-.77h-7.67l-.4,0a.7.7,0,0,0-.65.75h0a.72.72,0,0,0,.72.72h4.36Zm12.34-7.8c1,0,2,0,3,0a.71.71,0,0,0,.78-.65.79.79,0,0,0,0-.22.74.74,0,0,0-.84-.61h-7.88a.71.71,0,0,0-.64.67.73.73,0,0,0,.62.81h5ZM1086.74,83c-1,0-2,0-3,0a.72.72,0,0,0-.77.65.54.54,0,0,0,0,.22c0,.39.35.61.83.61h7.89a.68.68,0,0,0,.63-.66.71.71,0,0,0-.61-.81.6.6,0,0,0-.19,0c-1.29,0-2.59,0-3.88,0Z"/><g class="d"><g class="d"><path class="i" d="M1155.59,113.8l-.86,1.15a17.27,17.27,0,0,0-2.77-2l.84-1.16A14.61,14.61,0,0,1,1155.59,113.8Zm.18,2.61a27.4,27.4,0,0,1-2.5,5.44l-1.2-.87a27.72,27.72,0,0,0,2.44-5.23Zm.19-6.24-1,1a19,19,0,0,0-2.75-2.47l1-1A16.44,16.44,0,0,1,1156,110.17Zm10,3.1h-4.42v2.22h3.64v6.31h-1.45V121H1158v.78h-1.45v-6.31h3.58v-2.22h-4.42V112h4.43v-2.12c-1.26.12-2.45.19-3.58.23l-.5-1.35a33.11,33.11,0,0,0,8.73-1l.72,1.17a25.9,25.9,0,0,1-3.93.81V112H1166Zm-2.23,6.37v-2.78H1158v2.78Z"/><path class="i" d="M1175.85,111.53h-3.09v.91h2.76v4.7h-2.76v.9h2.76v1.12h-2.76v1a27.55,27.55,0,0,0,2.83-.4l.07,1.14q-3.47.57-7.33,1l-.29-1.16,3.44-.35v-1.2h-2.8V118h2.8v-.9h-2.8v-4.7h2.8v-.91h-3.21v-1.17h3.21v-.91c-.7.08-1.53.15-2.51.21l-.35-1.12a40.77,40.77,0,0,0,6.5-.76l.55,1c-.76.17-1.73.34-2.91.5v1h3.09Zm-4.37,2.75v-.82H1170v.82Zm0,1.81v-.82H1170v.82Zm2.74-1.79v-.84h-1.46v.84Zm0,1.79v-.82h-1.46v.82Zm7.55-5.27c0,2.23-.06,4.38-.15,6.44a25.5,25.5,0,0,1-.28,3.58,1.23,1.23,0,0,1-.54.75,2.33,2.33,0,0,1-1.28.26,8.51,8.51,0,0,1-.86,0l-.39-1.36c.4,0,.72,0,1,0,.47,0,.74-.06.82-.18a18,18,0,0,0,.28-2.85c.11-1.79.14-3.57.11-5.32h-1.38a20.56,20.56,0,0,1-2.13,9.73l-1.23-.61a17.37,17.37,0,0,0,2-9.12h-1.39v-1.33h1.42c0-1.31,0-2.29,0-2.92h1.39c0,1,0,2,0,2.92Z"/><path class="i" d="M1198.15,112.71l-.67,1.28a8.61,8.61,0,0,1-1.39-.4v6h-6.75l.68.8a21,21,0,0,1-5.32,1.54l-.69-1.29a18.84,18.84,0,0,0,4.37-1H1186v-6h3l-.61-.88a7.32,7.32,0,0,0,4.18-2.49l1.45.32a3.12,3.12,0,0,1-.35.54A12.9,12.9,0,0,0,1198.15,112.71Zm-9.36-.44h-4.66V111h4.66Zm-.14-2.55h-4.31v-1.28h4.31Zm6,5.54v-.56h-7.13v.56Zm0,1.63v-.59h-7.13v.59Zm0,1.67v-.63h-7.13v.63Zm3.22-8.66a19.42,19.42,0,0,1-1.4,1.79l-1.21-.72c.13-.16.42-.51.86-1.07h-5a13.36,13.36,0,0,1-1.41,1.41l-1.08-.93a9.76,9.76,0,0,0,2.38-2.72l1.31.44a1.62,1.62,0,0,1-.3.56h5.89Zm-1.94,3.66a12.63,12.63,0,0,1-3.13-1.54,8.21,8.21,0,0,1-2.6,1.54Zm2.12,7.21-.76,1.24a24.52,24.52,0,0,0-4.69-1l.74-1.2A20.38,20.38,0,0,1,1198.05,120.77Z"/><path class="i" d="M1205.27,110.48h-5.18V109.2h2a5,5,0,0,0-.51-1l1.41-.53a12.7,12.7,0,0,1,.7,1.53h1.54Zm-.35,2.38h-4.45v-1.28h4.45Zm0,2.34h-4.45v-1.27h4.45Zm0,6.23h-1.41v-.72h-1.68v1.1h-1.38v-5.54h4.47Zm-1.41-2v-1.81h-1.68v1.81Zm10.67-1.33a10.37,10.37,0,0,1-.43,2.28,3.11,3.11,0,0,1-.63,1.29,1,1,0,0,1-.69.26,1.09,1.09,0,0,1-.82-.36,5.39,5.39,0,0,1-.67-2.15,18.5,18.5,0,0,1-.31-3.2v-6.67h-2.17v4.31h1.72v1.38h-1.72v6.62h-1.37v-6.62h-1.49v-1.38h1.49v-4.31h-1.3v-1.35H1212v8.34a12.62,12.62,0,0,0,.52,3.59,13.73,13.73,0,0,0,.38-2.81Z"/></g></g><path class="h" d="M1165.51,85.31c0-.24.1-.49.17-.73a4.42,4.42,0,0,1,2.14-2.75q2.52-1.44,5-2.9a1.87,1.87,0,0,0,.5-.43c.72-.9,1.43-1.8,2.14-2.71l6-7.76a1.88,1.88,0,0,1,3.15.2c.74,1.24,1.45,2.48,2.16,3.73a.45.45,0,0,0,.51.3c.61-.06,1.22-.06,1.83-.12a.88.88,0,0,1,1,.5,14,14,0,0,0,.92,1.59,1.13,1.13,0,0,1,0,1.5c-.33.46-.62,1-1,1.42a.42.42,0,0,0,0,.51c.67,1.13,1.34,2.27,2,3.43a1.87,1.87,0,0,1-.7,2.55,1.8,1.8,0,0,1-.53.2l-3,.57-9.2,1.8-.32.08c.25.44.5.86.73,1.28s.22.8-.29,1.1l-1.5.87c.24.4.46.79.68,1.17.43.75.88,1.49,1.28,2.26a2.52,2.52,0,0,1-1,3.42,2.34,2.34,0,0,1-.67.24,2.51,2.51,0,0,1-2.72-1.24c-.72-1.25-1.43-2.52-2.14-3.77-.3-.53-.61-1-.9-1.57-.1-.19-.21-.21-.4-.15a4.42,4.42,0,0,1-5.6-2.78,5.54,5.54,0,0,1-.14-.55c0-.14-.07-.28-.1-.42Zm15.92-15.15-.27.32-4.2,5.41c-.82,1.06-1.65,2.11-2.49,3.17a.35.35,0,0,0,0,.47c1,1.79,2.09,3.6,3.12,5.4a.31.31,0,0,0,.38.17l9.6-1.88,1.25-.26Zm-8.11,9.92c-1.76,1-3.51,2-5.2,3a3.07,3.07,0,0,0-1.25,3.43,3.2,3.2,0,0,0,4.7,1.91c1.47-.83,2.93-1.69,4.39-2.53l.55-.33Zm17.73,1.83a2.17,2.17,0,0,0-.15-.35l-3.6-6.3q-1.8-3.15-3.61-6.25a2.08,2.08,0,0,0-.19-.29.64.64,0,0,0-.86-.09c-.34.25-.4.48-.2.81l3.61,6.32,3.88,6.72c0,.08.1.18.18.21a.77.77,0,0,0,.92-.6.55.55,0,0,0,0-.18Zm-18.33,7.31a.89.89,0,0,0,.06.15c1.07,1.86,2.13,3.73,3.21,5.58a1.27,1.27,0,0,0,1.79.23A1.25,1.25,0,0,0,1178,95a1.48,1.48,0,0,0,0-1.64c-1-1.68-2-3.38-2.94-5.07l-.18-.29Zm16.52-13c.27-.44.52-.83.75-1.22,0,0,0-.17,0-.23-.22-.4-.45-.79-.68-1.18,0-.07-.13-.18-.2-.18-.43,0-.87,0-1.35.08Zm-11.46,11.6-.65-1.13-1.13.65.65,1.13Zm13.25-22a.88.88,0,0,0-.55.71,3,3,0,0,1-.11.43c-.15.57-.31,1.14-.45,1.71a.61.61,0,0,0,.34.8.66.66,0,0,0,.37,0,.6.6,0,0,0,.47-.49l.58-2.17c.15-.56.1-.71-.4-1Zm3.2,5.78,3.35-1.86a.63.63,0,0,0,.37-.8.36.36,0,0,0,0-.09.65.65,0,0,0-.87-.23l-.07.05c-.66.37-1.33.73-2,1.11-.48.26-1,.52-1.43.8a.58.58,0,0,0-.28.73.61.61,0,0,0,.65.41,1.66,1.66,0,0,0,.31-.12Zm-.76,3.44a.71.71,0,0,0,.46.73l2.38.64a.61.61,0,0,0,.79-.34s0,0,0,0a.67.67,0,0,0-.45-.84l-.05,0-1.73-.46-.7-.19a.65.65,0,0,0-.72.53Zm-22.63,12.31a11.91,11.91,0,0,0,1.1-.62.61.61,0,0,0,.31-.81l0-.05a.61.61,0,0,0-.84-.24l-.06,0-1,.55a.67.67,0,0,1-.93-.13.16.16,0,0,1,0-.07.62.62,0,0,0-1.07.64l.08.1a2,2,0,0,0,1.71.83A4.46,4.46,0,0,0,1170.84,87.36Zm3.67-2.45a.61.61,0,0,0-.6-.63.62.62,0,0,0-.64.6.61.61,0,0,0,.6.63h0a.6.6,0,0,0,.6-.6Z"/><g class="d"><g class="d"><path class="i" d="M1362.24,118.12h-5.43v3.66h-1.43v-3.66h-5.49v-8h5.49v-2.26h1.43v2.26h5.43Zm-6.86-4.69v-2h-4v2Zm0,3.36v-2.06h-4v2.06Zm5.4-3.36v-2h-4v2Zm0,3.36v-2.06h-4v2.06Z"/><path class="i" d="M1370.06,110.51h-4.94v-1.3H1367a7.38,7.38,0,0,0-.58-1.12l1.48-.43a12.22,12.22,0,0,1,.73,1.55h1.47Zm-.44,2.37h-4.15v-1.33h4.15Zm0,2.36h-4.15V113.9h4.15Zm0,6.24h-1.36v-.72h-1.38v1h-1.41v-5.54h4.15Zm-1.36-2v-1.85h-1.38v1.85Zm10,1c0,.91-.54,1.36-1.64,1.36l-.87,0-.48-1.3h1.27c.21,0,.32-.11.32-.34v-.8h-4.47a5.13,5.13,0,0,1-1.16,2.59l-1.16-.83a5.16,5.16,0,0,0,1.08-3.5v-3.18h7.11Zm.74-6.76h-8.77v-1.2h3.67v-.75h-3v-1.11h3V110h-3.39v-1.15h3.39v-1h1.39v1h3.39V110h-3.39v.7h3v1.11h-3v.75H1379Zm-2.14,4.55v-.81h-4.34a6.51,6.51,0,0,1,0,.81Zm0-1.91v-.75h-4.32v.75Z"/><path class="i" d="M1386.08,118.09a26,26,0,0,1-4.77,2.13l-.36-1.36a14.73,14.73,0,0,0,1.93-.71V110.1h-1.68v-1.37h4.5v1.37h-1.43v7.43c.65-.32,1.2-.61,1.65-.88Zm8.94-8.66h-3.83c-.14.45-.3.9-.49,1.36h3.56v8.07h-5.21l.72.78a24.81,24.81,0,0,1-4.32,2.32l-.92-1.15a17.31,17.31,0,0,0,3.9-2h-1.79v-8.07h2.59a9.68,9.68,0,0,0,.53-1.36h-3.5v-1.3H1395Zm-2.17,3.66V112h-4.79v1.07Zm0,2.23v-1.07h-4.79v1.07Zm0,2.27v-1.08h-4.79v1.08Zm2.35,3.17-.86,1.12a20,20,0,0,0-3.73-1.61l.83-1.19A20.65,20.65,0,0,1,1395.2,120.76Z"/><path class="i" d="M1409.54,121.72h-1.46v-.78H1400v.78h-1.46V108.23h11Zm-1.46-9.71v-2.42H1400V112Zm0,3.76v-2.45H1400v2.45Zm0,3.82v-2.53H1400v2.53Z"/></g></g><path class="h" d="M1391,93.55V81.27h2.06V95.65h-27.63V67.89h14.31V70h-12.22v23.6Zm-.71-27.35c-1.37,1.37-2.75,2.74-4.12,4.12l-8.44,8.51a.73.73,0,0,0-.19.46c0,1.29,0,2.58,0,3.87,0,.11,0,.2,0,.32h4.09a.82.82,0,0,0,.64-.27l10-10.13,2.46-2.46c.09-.08.16-.17.22-.23l-4.49-4.49a3.25,3.25,0,0,1-.23.29ZM1379.62,80a.63.63,0,0,1,.23-.34c1.77-1.78,3.55-3.55,5.32-5.32l5.1-5.16a2.23,2.23,0,0,0,.2-.3l1.56,1.57s-.11.13-.2.21l-2.53,2.53-7.9,8a.76.76,0,0,1-.63.26c-.37,0-.73,0-1.16,0C1379.61,80.9,1379.59,80.44,1379.62,80Zm1.62,8.72h-10.53v2h10.53Z"/><g class="d"><g class="d"><path class="a" d="M1485.16,22.06H1484v.54a.47.47,0,0,0,.08.26.24.24,0,0,0,.19.1h.89v.56h-1a.67.67,0,0,1-.77-.75v-.71h-1.26a3,3,0,0,1-2,2l-.33-.49a2.6,2.6,0,0,0,1.76-1.47H1480v-.55h2.36v-1h-2.07V20h2.07v-.83h.63V20h2v.55h-2v1h2.22Zm-3.1,5.42a13.17,13.17,0,0,1-1.73,2.18l-.49-.44a9.77,9.77,0,0,0,1.69-2.08Zm3-1.37c-1.45.26-3.13.49-5,.69l-.07-.58c.69,0,1.48-.13,2.36-.26V24.82h-1.95v-.56h1.95V23.15h.61v1.11h1.82v.56h-1.82v1.05c.7-.09,1.4-.19,2.08-.33Zm-.75,3.38-.6.13a11.37,11.37,0,0,0-.56-2.19l.58-.17A10.53,10.53,0,0,1,1484.31,29.49Zm6-5a6,6,0,0,1-.38,1.74.61.61,0,0,1-1.17,0,5.41,5.41,0,0,1-.22-2V21.41h-1.16a19.71,19.71,0,0,1-.19,2.7c.32.47.63.95.92,1.46l-.48.39c-.23-.41-.45-.77-.67-1.09a7.26,7.26,0,0,1-1.21,2l-.55-.33a5.5,5.5,0,0,0,1.32-2.26,13.8,13.8,0,0,0-1.12-1.43l.44-.4c.26.29.54.62.83,1a14.52,14.52,0,0,0,.11-2h-1.23v-.58h1.23V19.14h.6v1.69h1.77v3.36a9.4,9.4,0,0,0,0,1.16,1.72,1.72,0,0,0,.09.51.1.1,0,0,0,.07.06s.1-.13.18-.38a8.51,8.51,0,0,0,.2-1.32Zm-3.06,5-.59.17a15.31,15.31,0,0,0-.9-2.23l.56-.19A17.32,17.32,0,0,1,1487.27,29.47Zm3-.11-.56.28a14.25,14.25,0,0,0-1.35-2.25l.58-.3A14.53,14.53,0,0,1,1490.24,29.36Z"/><path class="a" d="M1496.45,24.17H1493V29.6h-.67V19.46h4.17Zm-.64-2.69V20.07H1493v1.41Zm0,2.05V22.07H1493v1.46Zm6,5.1a1.06,1.06,0,0,1-.18.66.87.87,0,0,1-.42.29,4.85,4.85,0,0,1-1,.06l-.89,0-.25-.67a9.83,9.83,0,0,0,1,0,3.32,3.32,0,0,0,1-.07.25.25,0,0,0,.14-.24V24.17h-3.5V19.46h4.12Zm-.62-7.15V20.07h-2.89v1.41Zm0,2.05V22.07h-2.89v1.46Z"/><path class="a" d="M1508.5,22.57H1505v7h-.62V19.43h4.16Zm-.6-1.87V20H1505v.71Zm0,1.3v-.74H1505V22Zm1,3.81-.49.24-.17-.34-2.47.33-.16-.5a8.86,8.86,0,0,0,1.5-1.12l-1.37.19-.16-.48a6.08,6.08,0,0,0,1.58-1.43l.58.26a9.13,9.13,0,0,1-1.12,1.05l1.07-.16a4.4,4.4,0,0,0,.58-.57l.55.25a23.38,23.38,0,0,1-2.14,1.91l1.32-.18a3,3,0,0,0-.24-.37l.49-.22A7,7,0,0,1,1508.87,25.81Zm-.39,1.09a2.59,2.59,0,0,1-.47,1.73,2.84,2.84,0,0,1-1.58.8l-.38-.51c1-.22,1.65-.62,1.78-1.22H1506V26.29h.57v.88h1.32a2.46,2.46,0,0,0,0-.43V26.2h.58Zm4.24-1.13-.47.3-.25-.38-2.82.25-.12-.47a6.32,6.32,0,0,0,1.4-1l-1.37.13-.14-.44a4.52,4.52,0,0,0,1.53-1.41l.56.26a8.17,8.17,0,0,1-1,1l1-.11c.1-.08.27-.25.52-.49l.5.24a17,17,0,0,1-1.9,1.71l1.46-.13a1.39,1.39,0,0,0-.33-.4l.5-.27A9,9,0,0,1,1512.72,25.77Zm-.81,1.93h-2v1.66h-.58V26.2h.58v1h1.39v-.88h.57Zm1.83,1.21a.68.68,0,0,1-.69.71c-.62,0-1,0-1.13,0l-.27-.62.77,0A2.15,2.15,0,0,0,1513,29a.22.22,0,0,0,.1-.21V22.57h-3.57V19.43h4.17Zm-.6-8.21V20h-2.93v.71Zm0,1.3v-.74h-2.93V22Z"/><path class="a" d="M1519.8,21.41l-.43.33a10.21,10.21,0,0,0-1.37-1.63,16.91,16.91,0,0,1-1.29,1.92h2.56v.55h-1.15V24h1.34v.56h-1.34V28.3a12.62,12.62,0,0,0,1.3-.37l0,.57c-1,.32-2.1.63-3.41.93l-.13-.56c.43-.08,1-.21,1.69-.41V24.54H1516V24h1.59v-1.4h-.91v-.46a3.83,3.83,0,0,1-.5.53l-.37-.46a11.85,11.85,0,0,0,2.12-3.14l.52.25a.62.62,0,0,1-.11.27A9.62,9.62,0,0,1,1519.8,21.41Zm-2.63,6.33-.56.13a10.5,10.5,0,0,0-.56-2.4l.56-.13A10.62,10.62,0,0,1,1517.17,27.74Zm2.25-2.31a13.6,13.6,0,0,1-.45,2.12l-.52-.17a14.33,14.33,0,0,0,.41-2.17Zm6.86,3.36-.19.61a13.92,13.92,0,0,1-3.53-.27,3.56,3.56,0,0,1-1.81-1.2,8.29,8.29,0,0,1-1.16,1.72l-.46-.39a6.38,6.38,0,0,0,1.25-1.92,7.46,7.46,0,0,1-.66-2.53l.56-.08a5.94,5.94,0,0,0,.39,1.81,11.52,11.52,0,0,0,.45-2.82h-1.3v-.55a28.38,28.38,0,0,0,1.18-3.12h-1.39v-.57h2v.57a29.61,29.61,0,0,1-1.12,3.12h1.23a12.93,12.93,0,0,1-.7,4.2,3.16,3.16,0,0,0,1.39,1.11,6.52,6.52,0,0,0,2.49.37C1525.27,28.85,1525.73,28.83,1526.28,28.79Zm0-1.72h-2.16v1.17h-.6V27.07h-1.67v-.51h1.67v-1h-1.4V25h1.4V24h-1.37v-.53h1.37V22.33h-1.64v-.55h1.64V20.65h-1.37v-.52h1.37v-1h.6v1h1.51v1.65h.64v.55h-.64V24h-1.51v1h1.81v.55h-1.81v1h2.16ZM1525,21.78V20.65h-.93v1.13Zm0,1.7V22.33h-.93v1.15Z"/><path class="a" d="M1538.27,26.16h-4.88v2.58a.75.75,0,0,1-.31.67,3,3,0,0,1-1.47.22l-.66,0-.23-.68c.32,0,.65.05,1,.05a2.78,2.78,0,0,0,.9-.08.28.28,0,0,0,.13-.25V26.16h-4.89v-.64h4.89v-.78a27,27,0,0,0,2.49-1.61h-5.45v-.62h6.48v.62a24.06,24.06,0,0,1-2.85,1.93v.46h4.88Zm-.49-3h-.64V21H1529v2.19h-.64V20.33h4.53a4.8,4.8,0,0,0-.61-1l.58-.3a8.32,8.32,0,0,1,.75,1.27h4.21Z"/><path class="a" d="M1545,22.38a.68.68,0,0,1,.49,1.16.66.66,0,0,1-.49.19.65.65,0,0,1-.48-.19.68.68,0,0,1,.48-1.16Zm0,5.4a.66.66,0,0,1,.49.19.68.68,0,0,1,.2.49.66.66,0,0,1-.2.48.62.62,0,0,1-.49.21.68.68,0,0,1-.68-.69.63.63,0,0,1,.2-.49A.65.65,0,0,1,1545,27.78Z"/></g><path class="a" d="M1557.85,19.87a15.38,15.38,0,0,1-1.68,2.33h1.3v.58h-1.86c-.44.46-.84.84-1.21,1.16h2.31v.54a20.68,20.68,0,0,1-1.56,1.41v.59c.72-.12,1.44-.27,2.16-.44l0,.62c-.67.16-1.38.3-2.14.43v1.65a.87.87,0,0,1-.22.62,1.55,1.55,0,0,1-1,.23l-.62,0-.2-.63c.22,0,.47,0,.77,0a1.36,1.36,0,0,0,.61-.08.29.29,0,0,0,.11-.27v-1.4c-1,.17-1.9.29-2.56.37l-.15-.57c1-.14,1.93-.28,2.71-.42v-.95c.42-.35.84-.73,1.24-1.13h-2.19q-.77.57-1.44,1l-.41-.52a15.17,15.17,0,0,0,3-2.2H1552V22.2h2.2V20.83h-1.84v-.57h1.84V19.1h.61v1.16h1.41v.57h-1.41V22.2h.59a12.75,12.75,0,0,0,1.92-2.62Zm4.51,9.21-.38.57a9,9,0,0,1-2.28-2,11,11,0,0,1-2.64,2l-.41-.55a9.07,9.07,0,0,0,2.7-2,10.73,10.73,0,0,1-1-3.07l.6-.22a9.6,9.6,0,0,0,.83,2.76,8.4,8.4,0,0,0,1.15-4.91h-1.82a13.52,13.52,0,0,1-1.53,2.82l-.48-.44a10.72,10.72,0,0,0,2-5l.61.16a18.31,18.31,0,0,1-.44,1.8h3v.61h-.74a9.44,9.44,0,0,1-1.43,5.5A7.31,7.31,0,0,0,1562.36,29.08Z"/><path class="a" d="M1574.27,26.47h-4.9V29.6h-.61V26.47h-4.9v-.6h4.9V25h.61v.89h4.9Zm-6.55.9a13.32,13.32,0,0,1-3.31,2l-.44-.49a12.14,12.14,0,0,0,3.22-1.91Zm6.18-4.91h-2.79a6.93,6.93,0,0,1-1.17,1.35c1.22.31,2.47.69,3.74,1.14l-.36.52a39.4,39.4,0,0,0-4-1.21,10,10,0,0,1-5,1l-.31-.58a11.07,11.07,0,0,0,4.48-.66c-1-.25-1.94-.46-2.82-.62a12.61,12.61,0,0,0,.94-1h-2.41v-.57h2.92c.31-.38.62-.77.91-1.17l.55.24a8.68,8.68,0,0,1-.7.93h2.87a3.81,3.81,0,0,0,.34-.62l.6.12a2.73,2.73,0,0,1-.22.5h2.42Zm-.11-1.13h-.64v-.76H1565v.76h-.64V20h4.5a6.48,6.48,0,0,0-.38-.72l.6-.2c.11.19.29.49.53.92h4.19Zm-3.45,1.13h-2.93c-.16.19-.34.4-.55.62q.75.15,2.37.54A4.6,4.6,0,0,0,1570.34,22.46Zm3.83,6.42-.45.47a18.53,18.53,0,0,0-3.37-1.83l.45-.5A19.58,19.58,0,0,1,1574.17,28.88Z"/><path class="a" d="M1551,30.39v-.7h24v.7Z"/><g class="d"><path class="a" d="M1582.18,25.1l-.42.45a13.19,13.19,0,0,0-1.94-1.71l.45-.47A12.37,12.37,0,0,1,1582.18,25.1Z"/></g><path class="a" d="M1591.5,21.87a12.48,12.48,0,0,1-1.17,1.65v6.13h-.62v-5.4a16.17,16.17,0,0,1-1.56,1.44l-.32-.49a13.86,13.86,0,0,0,3.14-3.68Zm-.28-2.39a10.88,10.88,0,0,1-3,2.5l-.36-.49a10.5,10.5,0,0,0,2.86-2.39Zm7.07,3.84h-1.89v5.33a.85.85,0,0,1-.66.9,7.35,7.35,0,0,1-1,.05q-.67,0-1.08,0l-.25-.64c.34,0,.7,0,1.07,0a7.54,7.54,0,0,0,1.17,0c.08,0,.11-.1.11-.21V23.32h-4.22v-.63h6.79Zm-.58-3H1592v-.64h5.71Z"/><path class="a" d="M1605.6,19.64a14.63,14.63,0,0,1-2.42.44V21h2.38v.57h-2.38v.88h2.19V26h-2.19v.85h2.19v.57h-2.19v1.21c.7-.06,1.43-.15,2.19-.28v.6q-3.22.42-5.46.65l-.14-.61c.87-.06,1.81-.16,2.82-.27v-1.3h-2.22v-.57h2.22V26h-2.21V22.47h2.21v-.88H1600V21h2.63v-.85c-.67,0-1.41.08-2.22.08l-.2-.55a20.07,20.07,0,0,0,5.11-.56Zm-3,4.26v-.83H1601v.83Zm0,1.49v-.91H1601v.91Zm2.18-1.49v-.83h-1.59v.83Zm0,1.49v-.91h-1.59v.91Zm5-3.89c0,1.77,0,3.38-.08,4.82a15.81,15.81,0,0,1-.21,2.53,1,1,0,0,1-.43.57,2.48,2.48,0,0,1-1.19.2l-.43,0-.2-.62,1.16,0a.6.6,0,0,0,.41-.17.75.75,0,0,0,.2-.54l.11-2.31c.06-1.29.09-2.59.09-3.88h-1.26a15.55,15.55,0,0,1-1.83,7.59l-.54-.27a14.83,14.83,0,0,0,1.77-7.32H1606v-.6h1.31l0-2.35h.6c0,1,0,1.76-.06,2.35Z"/><path class="a" d="M1622.24,21.72h-6.53c0,.63,0,1.32-.06,2.08h5.13a27.21,27.21,0,0,1-.21,3.26,7.32,7.32,0,0,1-.39,1.88,1.09,1.09,0,0,1-.53.55,4.28,4.28,0,0,1-1.5.16h-.78l-.19-.68c.38,0,.75,0,1.12,0a3.37,3.37,0,0,0,1-.09.68.68,0,0,0,.28-.32,9.05,9.05,0,0,0,.28-1.55c.11-.89.18-1.75.21-2.61h-4.54a6.61,6.61,0,0,1-3.37,5.17l-.51-.51a7.44,7.44,0,0,0,2-1.65,5,5,0,0,0,1.13-2.2,19,19,0,0,0,.24-3.52h-3.16v-.65h5a8.46,8.46,0,0,0-1.15-1.72l.61-.29a9.3,9.3,0,0,1,1.27,2h4.62Z"/><path class="a" d="M1634.27,26.47h-4.9V29.6h-.61V26.47h-4.9v-.6h4.9V25h.61v.89h4.9Zm-6.55.9a13.32,13.32,0,0,1-3.31,2l-.44-.49a12.14,12.14,0,0,0,3.22-1.91Zm6.18-4.91h-2.79a6.93,6.93,0,0,1-1.17,1.35c1.22.31,2.47.69,3.74,1.14l-.36.52a39.4,39.4,0,0,0-4-1.21,10,10,0,0,1-5,1l-.31-.58a11.07,11.07,0,0,0,4.48-.66c-1-.25-1.94-.46-2.82-.62a12.61,12.61,0,0,0,.94-1h-2.41v-.57h2.92c.31-.38.62-.77.91-1.17l.55.24a8.68,8.68,0,0,1-.7.93h2.87a3.81,3.81,0,0,0,.34-.62l.6.12a2.73,2.73,0,0,1-.22.5h2.42Zm-.11-1.13h-.64v-.76H1625v.76h-.64V20h4.5a6.48,6.48,0,0,0-.38-.72l.6-.2c.11.19.29.49.53.92h4.19Zm-3.45,1.13h-2.93c-.16.19-.34.4-.55.62q.75.15,2.37.54A4.6,4.6,0,0,0,1630.34,22.46Zm3.83,6.42-.45.47a18.53,18.53,0,0,0-3.37-1.83l.45-.5A19.58,19.58,0,0,1,1634.17,28.88Z"/><path class="a" d="M1587,30.39v-.7h48v.7Z"/></g></svg>