<svg xmlns="http://www.w3.org/2000/svg" xmlns:xlink="http://www.w3.org/1999/xlink" viewBox="0 0 1244.4 189"><defs><style>.a{fill:#00abda;}.b,.e,.i{isolation:isolate;}.c{fill:#00b8cf;}.d,.e{fill:#fff;}.e{opacity:0.88;}.f{fill:url(#a);}.g{fill:#00b5d2;}.h{fill:#00b2d5;}.i{fill:#676767;opacity:0.42;}.j{fill:#0f6a9a;}.k{fill:#252756;}.l{fill:#064d78;}</style><linearGradient id="a" x1="322.9" y1="509.96" x2="322.9" y2="508.96" gradientTransform="matrix(202, 0, 0, -55, -64845.9, 28086.95)" gradientUnits="userSpaceOnUse"><stop offset="0" stop-color="#0bc"/><stop offset="1" stop-color="#00abdb"/></linearGradient></defs><circle class="a" cx="35" cy="93" r="35"/><g class="b"><g class="b"><path class="c" d="M85.47,114.39v-10.3a32.43,32.43,0,0,1-6.55,7.39,13.69,13.69,0,0,0-2.64-2.94,25.68,25.68,0,0,0,4.53-4,30.82,30.82,0,0,0,3.87-5.23H77.33V95.82h8.14v-4H77.2V88.34h4.53a19.17,19.17,0,0,0-1.54-5.68l3-.74H77.77V78.53h7.7V74.35h4v4.18h7.7v3.39H91.81l3.08.7-.4,1.06c-.94,2.28-1.61,3.84-2,4.66h5.15v3.48H89.43v4h7.79V99.3H89.43V100q1.93,1.32,6.65,5.24l-2.38,3q-1.28-1.5-4.27-4.36v10.43Zm-2.9-26h9.68l-3-.66a37.87,37.87,0,0,0,2-5.76H83.36a18.64,18.64,0,0,1,1.76,5.76Zm13.51,26.27a6.52,6.52,0,0,0-1.28-1.54,8.92,8.92,0,0,0-1.63-1.28,19.21,19.21,0,0,0,4.93-9.24A42.82,42.82,0,0,0,99,92.78V77.56l2.73.79a55.83,55.83,0,0,0,11.71-3.78l3.3,3a66.16,66.16,0,0,1-13.82,4v7.13H117.2v3.78h-4.62v21.78h-4V92.43h-5.68v.4Q102.94,107.7,96.08,114.61Z"/><path class="c" d="M119.88,84.6V81.34h16.41V84.6Zm2,29.3V99.12h13v12.94h-9.46v1.84Zm0-23.4V87.33h12.9V90.5Zm0,5.89V93.18h12.9v3.21Zm.18-17.64V75.54h12.63v3.21Zm3.3,30h5.94v-6.34h-5.94Zm15.93,4.92V96.52H136V92.7h5.28V82.18h3.87V92.7h5.15v3.82h-5.15v17.16Zm15,.62q-3.26-1.1-4.22-10.78-.61-6-.62-22.7v-.49H136.78V76.46h18.87q-.26,15.89.09,22.92.48,10.31,2.29,10.7.53.12.79-6.43a15.34,15.34,0,0,0,2.38,3.17q-.45,5-1.72,6.73A2.44,2.44,0,0,1,156.31,114.3Z"/><path class="c" d="M166.21,113l-3.39-2.37a17.37,17.37,0,0,0,5.28-8.76l3.61,1.32Q169.64,109.95,166.21,113Zm3.7-14.08V77.52H180a26.52,26.52,0,0,0,1.19-3.92l4.88.75c-.47,1-1,2.08-1.67,3.17h12.76V98.94Zm3.91-15.22h19.23v-3H173.82Zm0,6h19.23v-3H173.82Zm0,6h19.23v-3H173.82Zm6.69,18.48c-2.49,0-4.16-.34-5-1s-1.26-2-1.26-4v-6.82h4v6.78c0,.59.15,1,.46,1.12a5.94,5.94,0,0,0,2.18.24h7.17c.88,0,1.45-.22,1.72-.68a9.19,9.19,0,0,0,.52-3.32,10.33,10.33,0,0,0,3.7,1.45q-.39,3.7-1.52,5t-4,1.26Zm4.67-6.74a25,25,0,0,0-6.3-6.42l3-2a25.29,25.29,0,0,1,6.47,6.2Zm15.13,5.55a21,21,0,0,0-3.08-4.8,45.53,45.53,0,0,0-4.49-4.79l3.26-2.07a43,43,0,0,1,4.58,4.57,22.18,22.18,0,0,1,3.25,4.76Z"/></g></g><g class="b"><g class="b"><path class="d" d="M32,113.43v-3.91q-10.38,1.14-14.38,1.54l-.31-3.57,3-.26c.44,0,.77-.06,1-.09V93H17.68V89.67H56.23V93H35.9v17a24.08,24.08,0,0,0,7.39-3.7,26.37,26.37,0,0,1-4.44-7.17l2.37-.66h-4V95.3H51.74l.7-.13,2.51,1a24.51,24.51,0,0,1-6.11,10.34,24.67,24.67,0,0,0,8.4,3.78,9.88,9.88,0,0,0-2.42,3.17,24.34,24.34,0,0,1-8.76-4.53,30.55,30.55,0,0,1-8.14,4.4,11.34,11.34,0,0,0-2-3v3.12ZM22.88,87.6V74.45H51.3V87.6Zm2.2,7.88H32V93h-6.9Zm0,5.5H32v-2.6h-6.9Zm0,5.81,6.9-.66v-2.2h-6.9Zm1.71-27.06H47.21V77.22H26.79Zm0,5.15H47.21V82.32H26.79ZM46,104a21,21,0,0,0,4-5.55h-7.7A19,19,0,0,0,46,104Z"/></g></g><rect class="e" x="237.8" width="1006.6" height="189" rx="26"/><path class="f" d="M305.6,39h147a27.5,27.5,0,0,1,27.5,27.5h0A27.5,27.5,0,0,1,452.6,94h-147a27.5,27.5,0,0,1-27.5-27.5h0A27.5,27.5,0,0,1,305.6,39Z"/><g class="b"><g class="b"><path class="d" d="M325.28,70a47.88,47.88,0,0,1-5.42,3.16l-.52-1.6c.61-.3,1.34-.69,2.2-1.18V65.64h-1.7V64h1.7V60.1h-2V58.46H325V60.1H323.2V64h1.62v1.68H323.2v3.82q.84-.52,1.86-1.26Zm10.78-.84h-5.42A11.76,11.76,0,0,1,329,71v2c.83-.26,1.69-.56,2.6-.9l.22,1.58a24.16,24.16,0,0,1-4.34,1.4l-.5-1.36a.82.82,0,0,0,.38-.72v-.76a20,20,0,0,1-2.42,1.28L324,71.94a13.41,13.41,0,0,0,4.42-2.74h-2.52V65.44h10.12Zm.86-4.68H325.3V63.06h11.62Zm-.54-2.32h-10.6V57.88h10.6Zm-7.6-1.46v-1.4h-1.32v1.4Zm5.54,7V66.9h-6.64v.88Zm-2.58-7v-1.4h-1.36v1.4Zm5.38,13-.9,1.44a7.71,7.71,0,0,1-3.29-2A6.61,6.61,0,0,1,331.12,70l1.52-.38a4.73,4.73,0,0,0,.76,1.5,11,11,0,0,0,2.06-1.62l1.22,1.1a12.73,12.73,0,0,1-2.22,1.7A8.2,8.2,0,0,0,337.12,73.7Zm-2.44-13v-1.4h-1.32v1.4Z"/><path class="d" d="M345,71.3c-1.62.89-3.35,1.71-5.16,2.48l-.5-1.7c.87-.35,1.5-.62,1.9-.82v-7H339.6v-1.7h1.64v-5H343v5h1.44v1.7H343v6.2c.61-.31,1.22-.62,1.82-.94Zm12.08.58a6.84,6.84,0,0,1-.4,2.06,1.56,1.56,0,0,1-.72.85,6,6,0,0,1-2,.22,3.89,3.89,0,0,1-1.76-.3,1.11,1.11,0,0,1-.55-1.07V70.18h-1.92a5.08,5.08,0,0,1-1.28,3.33,7.09,7.09,0,0,1-3.88,1.73l-.86-1.58a6.27,6.27,0,0,0,3.21-1.09A3.33,3.33,0,0,0,348,70.18h-2.28V64.1H356v6.08h-2.72v2.74c0,.33.18.5.54.5.66,0,1.07-.09,1.23-.28a4.08,4.08,0,0,0,.33-1.82Zm-.34-8.64H345V61.76h2.78a14,14,0,0,0-.7-1.44h-1.4V58.76h4.22a8.2,8.2,0,0,0-.42-1.06l1.9-.34a5.47,5.47,0,0,1,.5,1.4h4.2v1.56h-1.4a9.7,9.7,0,0,1-.68,1.44h2.76Zm-2.48,3.22v-.84h-6.78v.84Zm0,2.2v-.88h-6.78v.88Zm-1.64-8.34h-3.54a8.91,8.91,0,0,1,.68,1.44h2.14A6.46,6.46,0,0,0,352.62,60.32Z"/><path class="d" d="M369.8,58.72a24.49,24.49,0,0,1-2.38,3.66h1.48v1.56h-2.82a19.47,19.47,0,0,1-1.6,1.54H368V67q-1,.93-2.52,2.1v.28c1.29-.19,2.47-.42,3.56-.66l0,1.64c-.61.12-1.81.32-3.58.58v2.22a2,2,0,0,1-.43,1.4,2.62,2.62,0,0,1-1.86.47L362,75l-.52-1.74c.58,0,1,.06,1.39.06.61,0,.91-.14.91-.4V71.22c-1.86.25-3.2.4-4,.46L359.4,70c1.54-.09,3-.23,4.34-.42V68.4c.69-.47,1.31-.93,1.86-1.36h-3.18a18.78,18.78,0,0,1-2.26,1.32L359.24,67a18.19,18.19,0,0,0,4.62-3.06h-4.4V62.38h3.64V60.64h-2.88v-1.5h2.88V57.52h1.72v1.62h2v1.38A18.47,18.47,0,0,0,368.3,58Zm-3.06,1.92h-1.92v1.74h.58C365.74,62,366.19,61.41,366.74,60.64ZM377,73.72,376,75.1a12.74,12.74,0,0,1-3.42-3A14.65,14.65,0,0,1,368.62,75l-1.22-1.32a12.51,12.51,0,0,0,4.2-3.08,14.08,14.08,0,0,1-1.36-4l1.54-.72a12.31,12.31,0,0,0,.88,3.08A18.47,18.47,0,0,0,374,62h-2.14a23,23,0,0,1-2.18,4.9l-1.12-1.34a20.59,20.59,0,0,0,2.54-8.18l1.62.32c-.12.89-.27,1.78-.44,2.66h4.58V62h-1.2q-.27,5.9-2,8.72A10.58,10.58,0,0,0,377,73.72Z"/><path class="d" d="M396.88,60.4H386.54a17.57,17.57,0,0,1-2.88,2.12q3.66,0,8.1-.38l-1-.6,1.62-.94a21.86,21.86,0,0,1,4.12,3l-1.32,1.16a14.72,14.72,0,0,0-1.5-1.26c-5,.41-9.36.62-12.94.66l-.34-1.52a10.63,10.63,0,0,0,3.66-2.2h-4.58V58.82h6.24A13.65,13.65,0,0,0,387,57.36l2.14.38a6.63,6.63,0,0,1-.9,1.08h8.68Zm-2,13.06a1.51,1.51,0,0,1-.29.86,1.42,1.42,0,0,1-.73.54,8.82,8.82,0,0,1-1.89.13c-.55,0-1.11,0-1.69,0l-.54-1.68a15.43,15.43,0,0,0,1.67.09,4.61,4.61,0,0,0,1.44-.12.37.37,0,0,0,.23-.35V71q-4.12.93-9.3,1.78l-.56-1.26a7.34,7.34,0,0,1-2,3.66l-1.6-1c1.42-1.06,2.12-2.82,2.12-5.28v-4h13.18ZM393,69.38V66.46h-9.56v1q4.86.18,8,.4l-.52,1.54c-2.65-.23-5.15-.36-7.48-.38a12.06,12.06,0,0,1-.22,2.14Q388,70.52,393,69.38Z"/><path class="d" d="M403.84,65l-1.08,1.44a21.41,21.41,0,0,0-3.46-2.56l1.06-1.44A18.24,18.24,0,0,1,403.84,65Zm.22,3.26a34,34,0,0,1-3.12,6.8L399.44,74a34.34,34.34,0,0,0,3-6.54Zm.24-7.8-1.3,1.3a23.72,23.72,0,0,0-3.44-3.08l1.28-1.28A20.7,20.7,0,0,1,404.3,60.46Zm12.56,3.88h-5.52v2.78h4.54V75h-1.8V74h-7.2v1h-1.82V67.12h4.48V64.34H404l0-1.66h5.54V60c-1.58.14-3.07.24-4.48.28l-.62-1.68a41.54,41.54,0,0,0,10.92-1.28l.88,1.46a31,31,0,0,1-4.9,1v2.84h5.52Zm-2.78,8V68.82h-7.2V72.3Z"/><path class="d" d="M429.16,62.16H425.3V63.3h3.44v5.88H425.3V70.3h3.44v1.4H425.3V73a31.76,31.76,0,0,0,3.54-.5l.08,1.42c-2.88.48-5.94.88-9.16,1.2l-.36-1.44,4.3-.44V71.7h-3.5V70.3h3.5V69.18h-3.5V63.3h3.5V62.16h-4V60.7h4V59.56c-.87.11-1.91.19-3.14.26l-.44-1.4a50.55,50.55,0,0,0,8.14-.94l.68,1.28c-.95.22-2.16.43-3.64.62V60.7h3.86ZM423.7,65.6v-1h-1.88v1Zm0,2.26v-1h-1.88v1Zm3.42-2.24v-1H425.3v1Zm0,2.24v-1H425.3v1Zm9.44-6.58c0,2.78-.08,5.47-.19,8A33.2,33.2,0,0,1,436,73.8a1.63,1.63,0,0,1-.67.94,3.15,3.15,0,0,1-1.62.32c-.34,0-.7,0-1.06,0l-.5-1.7c.51,0,.91.05,1.21.05q.87,0,1-.21a21.44,21.44,0,0,0,.35-3.58c.14-2.24.18-4.45.14-6.64h-1.72a25.76,25.76,0,0,1-2.67,12.16L429,74.34a21.73,21.73,0,0,0,2.47-11.4H429.7V61.28h1.78c0-1.65,0-2.86,0-3.66h1.74q0,1.89-.06,3.66Z"/></g></g><path class="g" d="M304.5,104a24.5,24.5,0,1,0,0,49h149a24.5,24.5,0,1,0,0-49h-149m0-2h149a26.5,26.5,0,0,1,0,53h-149a26.5,26.5,0,0,1,0-53Z"/><g class="b"><g class="b"><path class="h" d="M346.86,134a20.79,20.79,0,0,1-5.5,3.12l-1.06-1.44a19.57,19.57,0,0,0,5.22-2.82Zm10.67-1.94L356,133.12c-.46-.65-.83-1.14-1.1-1.46-1.88.23-3.52.4-4.93.5v4.08a1.51,1.51,0,0,1-.48,1.28c-.35.32-1.4.48-3.17.48l-.7-1.78c.72.05,1.4.08,2,.08a.47.47,0,0,0,.54-.52v-3.46q-4.11.21-6.1.24l-.42-1.54a29.52,29.52,0,0,0,5.9-2.48q-3.51.18-5,.18l-.28-1.3a19.85,19.85,0,0,0,7.34-4.16l1.64.94a17.49,17.49,0,0,1-4.86,3l1.58-.08,2.41-.19a6.66,6.66,0,0,0,1.34-.85l1.39-1,1.56,1.08a35.78,35.78,0,0,1-8.84,4.78q3.49-.15,7.74-.68c-.34-.36-.74-.74-1.18-1.14l1.58-.9A25.13,25.13,0,0,1,357.53,132.06Zm-6.13-10.7a22.73,22.73,0,0,1-8.44,3.9l-1-1.52a20.71,20.71,0,0,0,8-3.34ZM358,135.9l-1.2,1.34a25.89,25.89,0,0,0-5.26-3.3l1.24-1.24A30.14,30.14,0,0,1,358,135.9Z"/><path class="h" d="M362.82,133.34a15.56,15.56,0,0,1-1.28,4.8l-1.51-.68a14.26,14.26,0,0,0,1.31-4.4Zm4.86-1.32-1.56.54a8.64,8.64,0,0,0-.22-1,37.85,37.85,0,0,1-5.28,1.18l-.3-1.36a19.79,19.79,0,0,0,3.6-4.1c-1.06.17-2.09.28-3.09.36l-.21-1.18a18.93,18.93,0,0,0,3.57-6l1.66.58a21.23,21.23,0,0,1-2.89,4.94q1-.09,1.92-.24a11.33,11.33,0,0,0,.95-1.76l1.55.8a29.06,29.06,0,0,1-4.22,6,17.73,17.73,0,0,0,2.3-.62c-.13-.39-.24-.67-.32-.86l1.38-.6A14.26,14.26,0,0,1,367.68,132Zm-2.25,5.3-1.51.34a17.13,17.13,0,0,0-.5-4.3l1.38-.36A23.21,23.21,0,0,1,365.43,137.32Zm2.33-1.7-1.34.54a13.79,13.79,0,0,0-.78-2.82l1.32-.5A10.05,10.05,0,0,1,367.76,135.62ZM378,133.3a17,17,0,0,1-.36,3.45,2.9,2.9,0,0,1-.6.72,3.31,3.31,0,0,1-2.05.41,2.76,2.76,0,0,1-1.8-.41,2.29,2.29,0,0,1-.43-1.65v-6.74l-1.52.23A26.56,26.56,0,0,1,371,133a8.08,8.08,0,0,1-1,2.85,8.53,8.53,0,0,1-2.1,2.44L366.62,137a7,7,0,0,0,2.64-3.92,15,15,0,0,0,.26-3.6l-1.76.2-.32-1.32a21.37,21.37,0,0,0,2.78-4.38h-3v-1.64h3.64c.17-.38.38-1,.66-1.84l1.82.28c-.22.64-.42,1.16-.58,1.56h5V124h-5.68a24.15,24.15,0,0,1-2.3,3.9,37,37,0,0,0,4.7-.58,10.29,10.29,0,0,0-1-1.32l1.42-.92a23.76,23.76,0,0,1,2.94,4.16l-1.48,1c-.35-.65-.66-1.18-.92-1.58l-1,.18v7c0,.32.3.49.89.49a.8.8,0,0,0,.87-.53,19.44,19.44,0,0,0,.24-3.06Z"/><path class="h" d="M387.78,121.06a20.16,20.16,0,0,1-6.42,8.88l-1.14-1.52a16.82,16.82,0,0,0,5.78-8Zm8.91,16-1.59,1.1A17.26,17.26,0,0,0,394,135.9q-4.62,1.08-11.3,2l-.52-1.52q2.58-1.86,6-10.18l1.82.54a44.08,44.08,0,0,1-5,9.08,63.67,63.67,0,0,0,8.08-1.42,36.16,36.16,0,0,0-2.08-3l1.48-1A36.26,36.26,0,0,1,396.69,137ZM398,128.5l-1.06,1.58a15.55,15.55,0,0,1-5.54-7.66h-1.62v-1.7h2.9A14.07,14.07,0,0,0,398,128.5Z"/><path class="h" d="M417.68,129H400.32v-1.62h7.8v-2.66H403.8a11.56,11.56,0,0,1-2.28,2.14l-1.32-1.24a16.07,16.07,0,0,0,4.26-5l1.78.54c-.36.63-.75,1.26-1.18,1.9h3.06v-2.52h1.8v2.52h6.72v1.66h-6.72v2.66h7.76Zm-2.08,9h-1.8v-.9h-9.56v.9H402.4v-7.2h13.2Zm-1.8-2.58v-3h-9.56v3Z"/></g></g><path class="i" d="M523.93,73H1113L523.93,74Z"/><g class="b"><g class="b"><path class="j" d="M787.58,43.64V60.22H786V59H776.1v1.3h-1.5V43.64ZM776.1,45.1v5.4H786V45.1ZM786,57.54V52H776.1v5.58Z"/><path class="j" d="M804.14,44.54a32.11,32.11,0,0,1,5.28,5.8l-1.26.9a14,14,0,0,0-1.22-1.72c-11.42.64-12.58.68-13.36,1A11.23,11.23,0,0,0,793.1,49a3.87,3.87,0,0,0,1.62-1.18,33.19,33.19,0,0,0,4.6-5.64l1.46.66a43.72,43.72,0,0,1-5.12,5.88l10.2-.5A36.72,36.72,0,0,0,803,45.3Zm-9.5,7.62h12.72v8.32H805.8v-1h-9.66v1.08h-1.5Zm1.5,1.42V58h9.66V53.58Z"/><path class="j" d="M814.66,50.92a12.92,12.92,0,0,0-2.86-2.1l.84-1a12.4,12.4,0,0,1,2.92,2Zm-2.48,8.6a65.25,65.25,0,0,0,2.5-6.36l1.16.78c-.66,2.08-1.54,4.52-2.32,6.34ZM815,45.74a13.09,13.09,0,0,0-2.76-2.22l.86-1a11.93,11.93,0,0,1,2.8,2.12Zm2.22,3.9a10.92,10.92,0,0,1-.88,2.76,6.73,6.73,0,0,0-.74-.48,8.76,8.76,0,0,0,.76-2.48Zm2.68-.78a6.64,6.64,0,0,0-.24-.64,14.11,14.11,0,0,0-3.46.62,3.7,3.7,0,0,0-.34-.78c.3,0,.58-.3.92-.7a10.41,10.41,0,0,0,1.24-1.5,7.42,7.42,0,0,0-1.84.28,4.23,4.23,0,0,0-.34-.76c.24,0,.4-.22.6-.52a9.62,9.62,0,0,0,1.24-2.46l.94.34a11.14,11.14,0,0,1-1.34,2.34l1.34-.1c.18-.3.36-.58.52-.9l.9.4a18.61,18.61,0,0,1-2.46,3.2l1.76-.22c-.12-.22-.26-.44-.38-.66l.74-.26a8.34,8.34,0,0,1,1,2Zm9.28,7.68a3.25,3.25,0,0,1-.08.6c-.38,1.72-.78,2.6-1.32,3a2.33,2.33,0,0,1-1.5.38c-.6,0-1.8,0-3.06-.08a2.83,2.83,0,0,0-.42-1.14c1.28.12,2.58.14,3.08.14a1.33,1.33,0,0,0,.84-.16c.34-.22.6-.74.86-1.72H817.06a27.72,27.72,0,0,0,.86-3h9v-1H817.2v-1h11.12v3h-9.26c-.08.34-.18.68-.28,1Zm-11.1-4.48a10.85,10.85,0,0,0-.44-2.46l.78-.2a9.65,9.65,0,0,1,.48,2.38Zm1.78-3a8.42,8.42,0,0,1,.72,2.14l-.76.34a11.29,11.29,0,0,0-.7-2.24Zm5.32-3.9h-4.8v-.92h2.12a7.72,7.72,0,0,0-.78-1.58l1-.26A10.39,10.39,0,0,1,823.6,44l-.88.26h2.46Zm-4.26,3.74h3.76v2.94h-3.76Zm3.74-2.2H821v-.84h3.68Zm-3.68.64h3.68v.82H821ZM821.9,51h1.76V49.72H821.9Zm4.58-1.48a11.76,11.76,0,0,1-.86,2.76,5.87,5.87,0,0,0-.78-.52,7.76,7.76,0,0,0,.78-2.44Zm2.76-.66c-.06-.22-.18-.46-.3-.76a22.93,22.93,0,0,0-3.48.62,4.2,4.2,0,0,0-.34-.78c.32,0,.58-.28.94-.66a14.32,14.32,0,0,0,1.22-1.5,5.68,5.68,0,0,0-1.84.28,4.4,4.4,0,0,0-.34-.78c.24,0,.38-.22.58-.5a9.22,9.22,0,0,0,1.26-2.46l.94.34A11,11,0,0,1,826.54,45l1.32-.08q.3-.45.54-.9l.92.4a19.5,19.5,0,0,1-2.46,3.18l1.74-.22c-.12-.22-.24-.44-.36-.64l.7-.26A8,8,0,0,1,830,48.6Zm-1.88,3.32a11,11,0,0,0-.5-2.66l.8-.2a10.73,10.73,0,0,1,.5,2.6ZM829.1,49a10.18,10.18,0,0,1,.88,2.5l-.78.36a10.87,10.87,0,0,0-.82-2.62Z"/><path class="j" d="M835.9,54.06c.72-.32,1.46-.62,2.2-.94l.3,1.32c-2.1,1-4.34,2-6.08,2.76l-.58-1.48c.76-.26,1.72-.66,2.76-1.1V48.46h-2.38V47h2.38V42.5h1.4V47H838v1.42H835.9Zm11.48,4.68c1.16,0,1.36-.54,1.5-2.84a3.42,3.42,0,0,0,1.34.56c-.24,2.74-.7,3.62-2.78,3.62h-4.92c-2.26,0-2.94-.54-2.94-2.7V51.1l-1.58.66-.58-1.3,2.16-.9V44.12H841v4.82l2.68-1.12V42.26h1.42v5l3-1.28,1.14.38-.08.24a71.21,71.21,0,0,1-1,8.76L846.94,55a71.1,71.1,0,0,0,.76-7.3l-2.6,1.1V56.1h-1.42V49.36L841,50.5v6.9c0,1.08.26,1.34,1.56,1.34Z"/><path class="j" d="M858.46,56.42c-2.22.7-4.58,1.44-6.38,2L851.76,57l2.62-.76V50.74h-2.22V49.36h2.22V45H852v-1.4h6.1V45h-2.3v4.34h2v1.38h-2v5.1l2.46-.78Zm11.36-7.48a43.89,43.89,0,0,1-3.48,4.3A11.43,11.43,0,0,0,870.42,58a3.43,3.43,0,0,0-.94,1.12,12.64,12.64,0,0,1-4.62-6v5.6c0,.9-.24,1.32-.78,1.56a7.81,7.81,0,0,1-3,.32,6,6,0,0,0-.54-1.44c1.16,0,2.18,0,2.48,0s.44-.12.44-.46V54c-1.64,1.66-3.34,3.3-4.7,4.58l-.92-1.28c1.36-1.12,3.56-3.08,5.62-4.94v-5.2h-4.84V45.74h4.84V42.28h1.44v3.46h5.24v1.38h-5.24v.72a24.82,24.82,0,0,0,1,4.18,29.27,29.27,0,0,0,2.68-3.78Zm-9.8-.58a15.89,15.89,0,0,1,2.18,3.7l-1.22.58a16.83,16.83,0,0,0-2.12-3.74Zm8.16-2.88a11.5,11.5,0,0,0-2.36-2.2l.86-.78a14.25,14.25,0,0,1,2.4,2.08Z"/><path class="j" d="M887.58,43.64V60.22H886V59H876.1v1.3h-1.5V43.64ZM876.1,45.1v5.4H886V45.1ZM886,57.54V52H876.1v5.58Z"/><path class="j" d="M904.14,44.54a32.11,32.11,0,0,1,5.28,5.8l-1.26.9a14,14,0,0,0-1.22-1.72c-11.42.64-12.58.68-13.36,1A11.23,11.23,0,0,0,893.1,49a3.87,3.87,0,0,0,1.62-1.18,33.19,33.19,0,0,0,4.6-5.64l1.46.66a43.72,43.72,0,0,1-5.12,5.88l10.2-.5A36.72,36.72,0,0,0,903,45.3Zm-9.5,7.62h12.72v8.32H905.8v-1h-9.66v1.08h-1.5Zm1.5,1.42V58h9.66V53.58Z"/><path class="j" d="M914.66,50.92a12.92,12.92,0,0,0-2.86-2.1l.84-1a12.4,12.4,0,0,1,2.92,2Zm-2.48,8.6a65.25,65.25,0,0,0,2.5-6.36l1.16.78c-.66,2.08-1.54,4.52-2.32,6.34ZM915,45.74a13.09,13.09,0,0,0-2.76-2.22l.86-1a11.93,11.93,0,0,1,2.8,2.12Zm2.22,3.9a10.92,10.92,0,0,1-.88,2.76,6.73,6.73,0,0,0-.74-.48,8.76,8.76,0,0,0,.76-2.48Zm2.68-.78a6.64,6.64,0,0,0-.24-.64,14.11,14.11,0,0,0-3.46.62,3.7,3.7,0,0,0-.34-.78c.3,0,.58-.3.92-.7a10.41,10.41,0,0,0,1.24-1.5,7.42,7.42,0,0,0-1.84.28,4.23,4.23,0,0,0-.34-.76c.24,0,.4-.22.6-.52a9.62,9.62,0,0,0,1.24-2.46l.94.34a11.14,11.14,0,0,1-1.34,2.34l1.34-.1c.18-.3.36-.58.52-.9l.9.4a18.61,18.61,0,0,1-2.46,3.2l1.76-.22c-.12-.22-.26-.44-.38-.66l.74-.26a8.34,8.34,0,0,1,1,2Zm9.28,7.68a3.25,3.25,0,0,1-.08.6c-.38,1.72-.78,2.6-1.32,3a2.33,2.33,0,0,1-1.5.38c-.6,0-1.8,0-3.06-.08a2.83,2.83,0,0,0-.42-1.14c1.28.12,2.58.14,3.08.14a1.33,1.33,0,0,0,.84-.16c.34-.22.6-.74.86-1.72H917.06a27.72,27.72,0,0,0,.86-3h9v-1H917.2v-1h11.12v3h-9.26c-.08.34-.18.68-.28,1Zm-11.1-4.48a10.85,10.85,0,0,0-.44-2.46l.78-.2a9.65,9.65,0,0,1,.48,2.38Zm1.78-3a8.42,8.42,0,0,1,.72,2.14l-.76.34a11.29,11.29,0,0,0-.7-2.24Zm5.32-3.9h-4.8v-.92h2.12a7.72,7.72,0,0,0-.78-1.58l1-.26A10.39,10.39,0,0,1,923.6,44l-.88.26h2.46Zm-4.26,3.74h3.76v2.94h-3.76Zm3.74-2.2H921v-.84h3.68Zm-3.68.64h3.68v.82H921ZM921.9,51h1.76V49.72H921.9Zm4.58-1.48a11.76,11.76,0,0,1-.86,2.76,5.87,5.87,0,0,0-.78-.52,7.76,7.76,0,0,0,.78-2.44Zm2.76-.66c-.06-.22-.18-.46-.3-.76a22.93,22.93,0,0,0-3.48.62,4.2,4.2,0,0,0-.34-.78c.32,0,.58-.28.94-.66a14.32,14.32,0,0,0,1.22-1.5,5.68,5.68,0,0,0-1.84.28,4.4,4.4,0,0,0-.34-.78c.24,0,.38-.22.58-.5a9.22,9.22,0,0,0,1.26-2.46l.94.34A11,11,0,0,1,926.54,45l1.32-.08q.3-.45.54-.9l.92.4a19.5,19.5,0,0,1-2.46,3.18l1.74-.22c-.12-.22-.24-.44-.36-.64l.7-.26A8,8,0,0,1,930,48.6Zm-1.88,3.32a11,11,0,0,0-.5-2.66l.8-.2a10.73,10.73,0,0,1,.5,2.6ZM929.1,49a10.18,10.18,0,0,1,.88,2.5l-.78.36a10.87,10.87,0,0,0-.82-2.62Z"/><path class="j" d="M935.9,54.06c.72-.32,1.46-.62,2.2-.94l.3,1.32c-2.1,1-4.34,2-6.08,2.76l-.58-1.48c.76-.26,1.72-.66,2.76-1.1V48.46h-2.38V47h2.38V42.5h1.4V47H938v1.42H935.9Zm11.48,4.68c1.16,0,1.36-.54,1.5-2.84a3.42,3.42,0,0,0,1.34.56c-.24,2.74-.7,3.62-2.78,3.62h-4.92c-2.26,0-2.94-.54-2.94-2.7V51.1l-1.58.66-.58-1.3,2.16-.9V44.12H941v4.82l2.68-1.12V42.26h1.42v5l3-1.28,1.14.38-.08.24a71.21,71.21,0,0,1-1,8.76L946.94,55a71.1,71.1,0,0,0,.76-7.3l-2.6,1.1V56.1h-1.42V49.36L941,50.5v6.9c0,1.08.26,1.34,1.56,1.34Z"/><path class="j" d="M958.46,56.42c-2.22.7-4.58,1.44-6.38,2L951.76,57l2.62-.76V50.74h-2.22V49.36h2.22V45H952v-1.4h6.1V45h-2.3v4.34h2v1.38h-2v5.1l2.46-.78Zm11.36-7.48a43.89,43.89,0,0,1-3.48,4.3A11.43,11.43,0,0,0,970.42,58a3.43,3.43,0,0,0-.94,1.12,12.64,12.64,0,0,1-4.62-6v5.6c0,.9-.24,1.32-.78,1.56a7.81,7.81,0,0,1-3,.32,6,6,0,0,0-.54-1.44c1.16,0,2.18,0,2.48,0s.44-.12.44-.46V54c-1.64,1.66-3.34,3.3-4.7,4.58l-.92-1.28c1.36-1.12,3.56-3.08,5.62-4.94v-5.2h-4.84V45.74h4.84V42.28h1.44v3.46h5.24v1.38h-5.24v.72a24.82,24.82,0,0,0,1,4.18,29.27,29.27,0,0,0,2.68-3.78Zm-9.8-.58a15.89,15.89,0,0,1,2.18,3.7l-1.22.58a16.83,16.83,0,0,0-2.12-3.74Zm8.16-2.88a11.5,11.5,0,0,0-2.36-2.2l.86-.78a14.25,14.25,0,0,1,2.4,2.08Z"/><path class="j" d="M987.58,43.64V60.22H986V59H976.1v1.3h-1.5V43.64ZM976.1,45.1v5.4H986V45.1ZM986,57.54V52H976.1v5.58Z"/><path class="j" d="M1004.14,44.54a32.11,32.11,0,0,1,5.28,5.8l-1.26.9a14,14,0,0,0-1.22-1.72c-11.42.64-12.58.68-13.36,1A11.23,11.23,0,0,0,993.1,49a3.87,3.87,0,0,0,1.62-1.18,33.19,33.19,0,0,0,4.6-5.64l1.46.66a43.72,43.72,0,0,1-5.12,5.88l10.2-.5a36.72,36.72,0,0,0-2.9-2.94Zm-9.5,7.62h12.72v8.32h-1.56v-1h-9.66v1.08h-1.5Zm1.5,1.42V58h9.66V53.58Z"/><path class="j" d="M1014.66,50.92a12.92,12.92,0,0,0-2.86-2.1l.84-1a12.4,12.4,0,0,1,2.92,2Zm-2.48,8.6a65.25,65.25,0,0,0,2.5-6.36l1.16.78c-.66,2.08-1.54,4.52-2.32,6.34ZM1015,45.74a13.09,13.09,0,0,0-2.76-2.22l.86-1a11.93,11.93,0,0,1,2.8,2.12Zm2.22,3.9a10.92,10.92,0,0,1-.88,2.76,6.73,6.73,0,0,0-.74-.48,8.76,8.76,0,0,0,.76-2.48Zm2.68-.78a6.64,6.64,0,0,0-.24-.64,14.11,14.11,0,0,0-3.46.62,3.7,3.7,0,0,0-.34-.78c.3,0,.58-.3.92-.7a10.41,10.41,0,0,0,1.24-1.5,7.42,7.42,0,0,0-1.84.28,4.23,4.23,0,0,0-.34-.76c.24,0,.4-.22.6-.52a9.62,9.62,0,0,0,1.24-2.46l.94.34a11.14,11.14,0,0,1-1.34,2.34l1.34-.1c.18-.3.36-.58.52-.9l.9.4a18.61,18.61,0,0,1-2.46,3.2l1.76-.22c-.12-.22-.26-.44-.38-.66l.74-.26a8.34,8.34,0,0,1,1,2Zm9.28,7.68a3.25,3.25,0,0,1-.08.6c-.38,1.72-.78,2.6-1.32,3a2.33,2.33,0,0,1-1.5.38c-.6,0-1.8,0-3.06-.08a2.83,2.83,0,0,0-.42-1.14c1.28.12,2.58.14,3.08.14a1.33,1.33,0,0,0,.84-.16c.34-.22.6-.74.86-1.72h-10.52a27.72,27.72,0,0,0,.86-3h9v-1h-9.74v-1h11.12v3h-9.26c-.08.34-.18.68-.28,1Zm-11.1-4.48a10.85,10.85,0,0,0-.44-2.46l.78-.2a9.65,9.65,0,0,1,.48,2.38Zm1.78-3a8.42,8.42,0,0,1,.72,2.14l-.76.34a11.29,11.29,0,0,0-.7-2.24Zm5.32-3.9h-4.8v-.92h2.12a7.72,7.72,0,0,0-.78-1.58l1-.26a10.39,10.39,0,0,1,.86,1.58l-.88.26h2.46Zm-4.26,3.74h3.76v2.94h-3.76Zm3.74-2.2H1021v-.84h3.68Zm-3.68.64h3.68v.82H1021Zm.92,3.68h1.76V49.72h-1.76Zm4.58-1.48a11.76,11.76,0,0,1-.86,2.76,5.87,5.87,0,0,0-.78-.52,7.76,7.76,0,0,0,.78-2.44Zm2.76-.66c-.06-.22-.18-.46-.3-.76a22.93,22.93,0,0,0-3.48.62,4.2,4.2,0,0,0-.34-.78c.32,0,.58-.28.94-.66a14.32,14.32,0,0,0,1.22-1.5,5.68,5.68,0,0,0-1.84.28,4.4,4.4,0,0,0-.34-.78c.24,0,.38-.22.58-.5a9.22,9.22,0,0,0,1.26-2.46l.94.34a11,11,0,0,1-1.34,2.32l1.32-.08q.3-.45.54-.9l.92.4a19.5,19.5,0,0,1-2.46,3.18l1.74-.22c-.12-.22-.24-.44-.36-.64l.7-.26a8,8,0,0,1,1.06,2.1Zm-1.88,3.32a11,11,0,0,0-.5-2.66l.8-.2a10.73,10.73,0,0,1,.5,2.6ZM1029.1,49a10.18,10.18,0,0,1,.88,2.5l-.78.36a10.87,10.87,0,0,0-.82-2.62Z"/><path class="j" d="M1035.9,54.06c.72-.32,1.46-.62,2.2-.94l.3,1.32c-2.1,1-4.34,2-6.08,2.76l-.58-1.48c.76-.26,1.72-.66,2.76-1.1V48.46h-2.38V47h2.38V42.5h1.4V47H1038v1.42h-2.14Zm11.48,4.68c1.16,0,1.36-.54,1.5-2.84a3.42,3.42,0,0,0,1.34.56c-.24,2.74-.7,3.62-2.78,3.62h-4.92c-2.26,0-2.94-.54-2.94-2.7V51.1l-1.58.66-.58-1.3,2.16-.9V44.12H1041v4.82l2.68-1.12V42.26h1.42v5l3-1.28,1.14.38-.08.24a71.21,71.21,0,0,1-1,8.76l-1.22-.36a71.1,71.1,0,0,0,.76-7.3l-2.6,1.1V56.1h-1.42V49.36L1041,50.5v6.9c0,1.08.26,1.34,1.56,1.34Z"/><path class="j" d="M1058.46,56.42c-2.22.7-4.58,1.44-6.38,2l-.32-1.44,2.62-.76V50.74h-2.22V49.36h2.22V45H1052v-1.4h6.1V45h-2.3v4.34h2v1.38h-2v5.1l2.46-.78Zm11.36-7.48a43.89,43.89,0,0,1-3.48,4.3,11.43,11.43,0,0,0,4.08,4.74,3.43,3.43,0,0,0-.94,1.12,12.64,12.64,0,0,1-4.62-6v5.6c0,.9-.24,1.32-.78,1.56a7.81,7.81,0,0,1-3,.32,6,6,0,0,0-.54-1.44c1.16,0,2.18,0,2.48,0s.44-.12.44-.46V54c-1.64,1.66-3.34,3.3-4.7,4.58l-.92-1.28c1.36-1.12,3.56-3.08,5.62-4.94v-5.2h-4.84V45.74h4.84V42.28h1.44v3.46h5.24v1.38h-5.24v.72a24.82,24.82,0,0,0,1,4.18,29.27,29.27,0,0,0,2.68-3.78Zm-9.8-.58a15.89,15.89,0,0,1,2.18,3.7l-1.22.58a16.83,16.83,0,0,0-2.12-3.74Zm8.16-2.88a11.5,11.5,0,0,0-2.36-2.2l.86-.78a14.25,14.25,0,0,1,2.4,2.08Z"/><path class="j" d="M1087.58,43.64V60.22H1086V59h-9.92v1.3h-1.5V43.64ZM1076.1,45.1v5.4H1086V45.1ZM1086,57.54V52h-9.92v5.58Z"/><path class="j" d="M1092.46,57.88a1.32,1.32,0,1,1,2.64,0,1.32,1.32,0,1,1-2.64,0Z"/><path class="j" d="M1098,57.88a1.32,1.32,0,1,1,2.64,0,1.32,1.32,0,1,1-2.64,0Z"/><path class="j" d="M1103.58,57.88a1.32,1.32,0,1,1,2.64,0,1.32,1.32,0,1,1-2.64,0Z"/><path class="j" d="M1109.14,57.88a1.32,1.32,0,1,1,2.64,0,1.32,1.32,0,1,1-2.64,0Z"/></g></g><g class="b"><g class="b"><path d="M529.94,59h-1.36V48.71a2.92,2.92,0,0,1-.46.37c-.2.13-.43.27-.68.4a8.43,8.43,0,0,1-.8.37,6,6,0,0,1-.81.28V48.75a7.88,7.88,0,0,0,.95-.34c.33-.14.66-.3,1-.47s.62-.36.91-.55a7.31,7.31,0,0,0,.75-.56h.51Z"/><path d="M539.11,59h-1.36V48.71a3.48,3.48,0,0,1-.46.37c-.21.13-.43.27-.69.4a8.23,8.23,0,0,1-.79.37,5.68,5.68,0,0,1-.82.28V48.75a7.32,7.32,0,0,0,1-.34c.34-.14.66-.3,1-.47s.63-.36.92-.55a8.36,8.36,0,0,0,.74-.56h.52Z"/><path d="M550.73,53a11.75,11.75,0,0,1-.27,2.65,6.15,6.15,0,0,1-.78,1.94,3.6,3.6,0,0,1-1.25,1.21,3.49,3.49,0,0,1-1.69.41,3.14,3.14,0,0,1-1.6-.4A3.24,3.24,0,0,1,544,57.66a5.46,5.46,0,0,1-.73-1.85,11.19,11.19,0,0,1-.25-2.52,12.69,12.69,0,0,1,.26-2.76,6.19,6.19,0,0,1,.77-2,3.32,3.32,0,0,1,1.25-1.22A3.49,3.49,0,0,1,547,46.9Q550.73,46.9,550.73,53Zm-1.4.13q0-5.09-2.41-5.08c-1.7,0-2.55,1.73-2.55,5.17,0,3.22.83,4.82,2.5,4.82S549.33,56.41,549.33,53.13Z"/><path d="M557.15,54.8h-4.53V53.73h4.53Z"/><path d="M566.69,53a11.75,11.75,0,0,1-.27,2.65,6.15,6.15,0,0,1-.78,1.94,3.6,3.6,0,0,1-1.25,1.21,3.49,3.49,0,0,1-1.69.41,3.14,3.14,0,0,1-1.6-.4,3.24,3.24,0,0,1-1.18-1.15,5.68,5.68,0,0,1-.73-1.85,11.19,11.19,0,0,1-.25-2.52,13.35,13.35,0,0,1,.26-2.76,6.19,6.19,0,0,1,.77-2,3.34,3.34,0,0,1,1.26-1.22A3.45,3.45,0,0,1,563,46.9Q566.69,46.9,566.69,53Zm-1.39.13q0-5.09-2.42-5.08c-1.7,0-2.55,1.73-2.55,5.17,0,3.22.84,4.82,2.5,4.82S565.3,56.41,565.3,53.13Z"/><path d="M575.87,55.22a4.43,4.43,0,0,1-.28,1.61,4.05,4.05,0,0,1-.78,1.26,3.43,3.43,0,0,1-1.19.82,3.67,3.67,0,0,1-1.49.3,3.32,3.32,0,0,1-2.81-1.45,5.12,5.12,0,0,1-.75-1.72,9.28,9.28,0,0,1-.26-2.28,10.79,10.79,0,0,1,.34-2.82,6.93,6.93,0,0,1,1-2.16,4.52,4.52,0,0,1,1.54-1.39,4,4,0,0,1,2-.49,4.77,4.77,0,0,1,2,.34v1.28a4.24,4.24,0,0,0-1.94-.47,2.9,2.9,0,0,0-1.44.36,3.27,3.27,0,0,0-1.09,1A4.62,4.62,0,0,0,570,51a7.68,7.68,0,0,0-.25,2h0a2.88,2.88,0,0,1,2.72-1.49,3.55,3.55,0,0,1,1.41.27,3.23,3.23,0,0,1,1.07.75,3.42,3.42,0,0,1,.68,1.16A4.44,4.44,0,0,1,575.87,55.22Zm-1.39.18a3.83,3.83,0,0,0-.16-1.12,2.64,2.64,0,0,0-.45-.85,2.08,2.08,0,0,0-.73-.54,2.52,2.52,0,0,0-1-.18,2.26,2.26,0,0,0-.94.19,2.42,2.42,0,0,0-.74.52,2.45,2.45,0,0,0-.5.76,2.41,2.41,0,0,0-.18.93,3.6,3.6,0,0,0,.18,1.15,3,3,0,0,0,.49.93,2.38,2.38,0,0,0,.75.63,2.07,2.07,0,0,0,1,.22,2.18,2.18,0,0,0,.93-.19,2.08,2.08,0,0,0,.73-.54,2.52,2.52,0,0,0,.46-.84A3.29,3.29,0,0,0,574.48,55.4Z"/><path d="M582.28,54.8h-4.53V53.73h4.53Z"/><path d="M589.36,59H588V48.71a3.48,3.48,0,0,1-.46.37c-.2.13-.43.27-.68.4a8.43,8.43,0,0,1-.8.37,5.68,5.68,0,0,1-.82.28V48.75a7.32,7.32,0,0,0,1-.34c.34-.14.67-.3,1-.47s.63-.36.92-.55a7.31,7.31,0,0,0,.75-.56h.51Z"/><path d="M598.92,50.22a2.35,2.35,0,0,0-.17-1,1.9,1.9,0,0,0-.46-.67,2,2,0,0,0-.69-.41,3,3,0,0,0-.87-.13,3,3,0,0,0-.78.11,3.59,3.59,0,0,0-.74.3,4.87,4.87,0,0,0-.7.45,7,7,0,0,0-.63.59V48a4.19,4.19,0,0,1,1.29-.85,4.63,4.63,0,0,1,1.73-.29,4.2,4.2,0,0,1,1.35.21,3,3,0,0,1,1.08.62,3,3,0,0,1,.72,1,3.49,3.49,0,0,1,.26,1.37,4.62,4.62,0,0,1-.16,1.28,4,4,0,0,1-.49,1.08,5.29,5.29,0,0,1-.83,1,11.14,11.14,0,0,1-1.17,1q-.84.6-1.38,1a5.7,5.7,0,0,0-.86.79,2.1,2.1,0,0,0-.45.74,2.45,2.45,0,0,0-.13.85h5.93V59h-7.35v-.59a4.85,4.85,0,0,1,.17-1.34,3.57,3.57,0,0,1,.54-1.11,6,6,0,0,1,1-1c.42-.35.92-.75,1.52-1.18a9.88,9.88,0,0,0,1.08-.89,4.09,4.09,0,0,0,.7-.85,2.83,2.83,0,0,0,.38-.86A3.46,3.46,0,0,0,598.92,50.22Z"/></g></g><path class="i" d="M523.93,112.8H1113l-589.07,1Z"/><g class="b"><g class="b"><path class="j" d="M787.58,83.44V100H786V98.8H776.1v1.3h-1.5V83.44ZM776.1,84.9v5.4H786V84.9ZM786,97.34V91.76H776.1v5.58Z"/><path class="j" d="M804.14,84.34a32.11,32.11,0,0,1,5.28,5.8l-1.26.9a14,14,0,0,0-1.22-1.72c-11.42.64-12.58.68-13.36,1a11.23,11.23,0,0,0-.48-1.46,3.87,3.87,0,0,0,1.62-1.18,33.19,33.19,0,0,0,4.6-5.64l1.46.66a43.72,43.72,0,0,1-5.12,5.88l10.2-.5A36.72,36.72,0,0,0,803,85.1ZM794.64,92h12.72v8.32H805.8v-1h-9.66v1.08h-1.5Zm1.5,1.42V97.8h9.66V93.38Z"/><path class="j" d="M814.66,90.72a12.92,12.92,0,0,0-2.86-2.1l.84-1a12.4,12.4,0,0,1,2.92,2Zm-2.48,8.6a65.25,65.25,0,0,0,2.5-6.36l1.16.78c-.66,2.08-1.54,4.52-2.32,6.34ZM815,85.54a13.09,13.09,0,0,0-2.76-2.22l.86-1a11.93,11.93,0,0,1,2.8,2.12Zm2.22,3.9a10.92,10.92,0,0,1-.88,2.76,6.73,6.73,0,0,0-.74-.48,8.76,8.76,0,0,0,.76-2.48Zm2.68-.78a6.64,6.64,0,0,0-.24-.64,14.11,14.11,0,0,0-3.46.62,3.7,3.7,0,0,0-.34-.78c.3,0,.58-.3.92-.7a10.41,10.41,0,0,0,1.24-1.5,7.42,7.42,0,0,0-1.84.28,4.23,4.23,0,0,0-.34-.76c.24,0,.4-.22.6-.52a9.62,9.62,0,0,0,1.24-2.46l.94.34a11.14,11.14,0,0,1-1.34,2.34l1.34-.1c.18-.3.36-.58.52-.9l.9.4a18.61,18.61,0,0,1-2.46,3.2l1.76-.22c-.12-.22-.26-.44-.38-.66l.74-.26a8.34,8.34,0,0,1,1,2Zm9.28,7.68a3.25,3.25,0,0,1-.08.6c-.38,1.72-.78,2.6-1.32,3a2.33,2.33,0,0,1-1.5.38c-.6,0-1.8,0-3.06-.08a2.83,2.83,0,0,0-.42-1.14c1.28.12,2.58.14,3.08.14a1.33,1.33,0,0,0,.84-.16c.34-.22.6-.74.86-1.72H817.06a27.72,27.72,0,0,0,.86-3h9v-1H817.2v-1h11.12v3h-9.26c-.08.34-.18.68-.28,1Zm-11.1-4.48a10.85,10.85,0,0,0-.44-2.46l.78-.2a9.65,9.65,0,0,1,.48,2.38Zm1.78-3a8.42,8.42,0,0,1,.72,2.14l-.76.34a11.29,11.29,0,0,0-.7-2.24Zm5.32-3.9h-4.8v-.92h2.12a7.72,7.72,0,0,0-.78-1.58l1-.26a10.39,10.39,0,0,1,.86,1.58l-.88.26h2.46Zm-4.26,3.74h3.76v2.94h-3.76Zm3.74-2.2H821v-.84h3.68Zm-3.68.64h3.68V88H821Zm.92,3.68h1.76V89.52H821.9Zm4.58-1.48a11.76,11.76,0,0,1-.86,2.76,5.87,5.87,0,0,0-.78-.52,7.76,7.76,0,0,0,.78-2.44Zm2.76-.66c-.06-.22-.18-.46-.3-.76a22.93,22.93,0,0,0-3.48.62,4.2,4.2,0,0,0-.34-.78c.32,0,.58-.28.94-.66a14.32,14.32,0,0,0,1.22-1.5,5.68,5.68,0,0,0-1.84.28,4.4,4.4,0,0,0-.34-.78c.24,0,.38-.22.58-.5a9.22,9.22,0,0,0,1.26-2.46l.94.34a11,11,0,0,1-1.34,2.32l1.32-.08q.3-.45.54-.9l.92.4a19.5,19.5,0,0,1-2.46,3.18l1.74-.22c-.12-.22-.24-.44-.36-.64l.7-.26A8,8,0,0,1,830,88.4ZM827.36,92a11,11,0,0,0-.5-2.66l.8-.2a10.73,10.73,0,0,1,.5,2.6Zm1.74-3.18a10.18,10.18,0,0,1,.88,2.5l-.78.36a10.87,10.87,0,0,0-.82-2.62Z"/><path class="j" d="M835.9,93.86c.72-.32,1.46-.62,2.2-.94l.3,1.32c-2.1,1-4.34,2-6.08,2.76l-.58-1.48c.76-.26,1.72-.66,2.76-1.1V88.26h-2.38V86.84h2.38V82.3h1.4v4.54H838v1.42H835.9Zm11.48,4.68c1.16,0,1.36-.54,1.5-2.84a3.42,3.42,0,0,0,1.34.56c-.24,2.74-.7,3.62-2.78,3.62h-4.92c-2.26,0-2.94-.54-2.94-2.7V90.9l-1.58.66-.58-1.3,2.16-.9V83.92H841v4.82l2.68-1.12V82.06h1.42v5l3-1.28,1.14.38-.08.24a71.21,71.21,0,0,1-1,8.76l-1.22-.36a71.1,71.1,0,0,0,.76-7.3l-2.6,1.1V95.9h-1.42V89.16L841,90.3v6.9c0,1.08.26,1.34,1.56,1.34Z"/><path class="j" d="M858.46,96.22c-2.22.7-4.58,1.44-6.38,2l-.32-1.44,2.62-.76V90.54h-2.22V89.16h2.22V84.82H852v-1.4h6.1v1.4h-2.3v4.34h2v1.38h-2v5.1l2.46-.78Zm11.36-7.48a43.89,43.89,0,0,1-3.48,4.3,11.43,11.43,0,0,0,4.08,4.74,3.43,3.43,0,0,0-.94,1.12,12.64,12.64,0,0,1-4.62-6v5.6c0,.9-.24,1.32-.78,1.56a7.81,7.81,0,0,1-3,.32,6,6,0,0,0-.54-1.44c1.16,0,2.18,0,2.48,0s.44-.12.44-.46V93.76c-1.64,1.66-3.34,3.3-4.7,4.58l-.92-1.28c1.36-1.12,3.56-3.08,5.62-4.94v-5.2h-4.84V85.54h4.84V82.08h1.44v3.46h5.24v1.38h-5.24v.72a24.82,24.82,0,0,0,1,4.18A29.27,29.27,0,0,0,868.52,88Zm-9.8-.58a15.89,15.89,0,0,1,2.18,3.7l-1.22.58a16.83,16.83,0,0,0-2.12-3.74Zm8.16-2.88a11.5,11.5,0,0,0-2.36-2.2l.86-.78a14.25,14.25,0,0,1,2.4,2.08Z"/><path class="j" d="M887.58,83.44V100H886V98.8H876.1v1.3h-1.5V83.44ZM876.1,84.9v5.4H886V84.9ZM886,97.34V91.76H876.1v5.58Z"/><path class="j" d="M904.14,84.34a32.11,32.11,0,0,1,5.28,5.8l-1.26.9a14,14,0,0,0-1.22-1.72c-11.42.64-12.58.68-13.36,1a11.23,11.23,0,0,0-.48-1.46,3.87,3.87,0,0,0,1.62-1.18,33.19,33.19,0,0,0,4.6-5.64l1.46.66a43.72,43.72,0,0,1-5.12,5.88l10.2-.5A36.72,36.72,0,0,0,903,85.1ZM894.64,92h12.72v8.32H905.8v-1h-9.66v1.08h-1.5Zm1.5,1.42V97.8h9.66V93.38Z"/><path class="j" d="M914.66,90.72a12.92,12.92,0,0,0-2.86-2.1l.84-1a12.4,12.4,0,0,1,2.92,2Zm-2.48,8.6a65.25,65.25,0,0,0,2.5-6.36l1.16.78c-.66,2.08-1.54,4.52-2.32,6.34ZM915,85.54a13.09,13.09,0,0,0-2.76-2.22l.86-1a11.93,11.93,0,0,1,2.8,2.12Zm2.22,3.9a10.92,10.92,0,0,1-.88,2.76,6.73,6.73,0,0,0-.74-.48,8.76,8.76,0,0,0,.76-2.48Zm2.68-.78a6.64,6.64,0,0,0-.24-.64,14.11,14.11,0,0,0-3.46.62,3.7,3.7,0,0,0-.34-.78c.3,0,.58-.3.92-.7a10.41,10.41,0,0,0,1.24-1.5,7.42,7.42,0,0,0-1.84.28,4.23,4.23,0,0,0-.34-.76c.24,0,.4-.22.6-.52a9.62,9.62,0,0,0,1.24-2.46l.94.34a11.14,11.14,0,0,1-1.34,2.34l1.34-.1c.18-.3.36-.58.52-.9l.9.4a18.61,18.61,0,0,1-2.46,3.2l1.76-.22c-.12-.22-.26-.44-.38-.66l.74-.26a8.34,8.34,0,0,1,1,2Zm9.28,7.68a3.25,3.25,0,0,1-.08.6c-.38,1.72-.78,2.6-1.32,3a2.33,2.33,0,0,1-1.5.38c-.6,0-1.8,0-3.06-.08a2.83,2.83,0,0,0-.42-1.14c1.28.12,2.58.14,3.08.14a1.33,1.33,0,0,0,.84-.16c.34-.22.6-.74.86-1.72H917.06a27.72,27.72,0,0,0,.86-3h9v-1H917.2v-1h11.12v3h-9.26c-.08.34-.18.68-.28,1Zm-11.1-4.48a10.85,10.85,0,0,0-.44-2.46l.78-.2a9.65,9.65,0,0,1,.48,2.38Zm1.78-3a8.42,8.42,0,0,1,.72,2.14l-.76.34a11.29,11.29,0,0,0-.7-2.24Zm5.32-3.9h-4.8v-.92h2.12a7.72,7.72,0,0,0-.78-1.58l1-.26a10.39,10.39,0,0,1,.86,1.58l-.88.26h2.46Zm-4.26,3.74h3.76v2.94h-3.76Zm3.74-2.2H921v-.84h3.68Zm-3.68.64h3.68V88H921Zm.92,3.68h1.76V89.52H921.9Zm4.58-1.48a11.76,11.76,0,0,1-.86,2.76,5.87,5.87,0,0,0-.78-.52,7.76,7.76,0,0,0,.78-2.44Zm2.76-.66c-.06-.22-.18-.46-.3-.76a22.93,22.93,0,0,0-3.48.62,4.2,4.2,0,0,0-.34-.78c.32,0,.58-.28.94-.66a14.32,14.32,0,0,0,1.22-1.5,5.68,5.68,0,0,0-1.84.28,4.4,4.4,0,0,0-.34-.78c.24,0,.38-.22.58-.5a9.22,9.22,0,0,0,1.26-2.46l.94.34a11,11,0,0,1-1.34,2.32l1.32-.08q.3-.45.54-.9l.92.4a19.5,19.5,0,0,1-2.46,3.18l1.74-.22c-.12-.22-.24-.44-.36-.64l.7-.26A8,8,0,0,1,930,88.4ZM927.36,92a11,11,0,0,0-.5-2.66l.8-.2a10.73,10.73,0,0,1,.5,2.6Zm1.74-3.18a10.18,10.18,0,0,1,.88,2.5l-.78.36a10.87,10.87,0,0,0-.82-2.62Z"/><path class="j" d="M935.9,93.86c.72-.32,1.46-.62,2.2-.94l.3,1.32c-2.1,1-4.34,2-6.08,2.76l-.58-1.48c.76-.26,1.72-.66,2.76-1.1V88.26h-2.38V86.84h2.38V82.3h1.4v4.54H938v1.42H935.9Zm11.48,4.68c1.16,0,1.36-.54,1.5-2.84a3.42,3.42,0,0,0,1.34.56c-.24,2.74-.7,3.62-2.78,3.62h-4.92c-2.26,0-2.94-.54-2.94-2.7V90.9l-1.58.66-.58-1.3,2.16-.9V83.92H941v4.82l2.68-1.12V82.06h1.42v5l3-1.28,1.14.38-.08.24a71.21,71.21,0,0,1-1,8.76l-1.22-.36a71.1,71.1,0,0,0,.76-7.3l-2.6,1.1V95.9h-1.42V89.16L941,90.3v6.9c0,1.08.26,1.34,1.56,1.34Z"/><path class="j" d="M958.46,96.22c-2.22.7-4.58,1.44-6.38,2l-.32-1.44,2.62-.76V90.54h-2.22V89.16h2.22V84.82H952v-1.4h6.1v1.4h-2.3v4.34h2v1.38h-2v5.1l2.46-.78Zm11.36-7.48a43.89,43.89,0,0,1-3.48,4.3,11.43,11.43,0,0,0,4.08,4.74,3.43,3.43,0,0,0-.94,1.12,12.64,12.64,0,0,1-4.62-6v5.6c0,.9-.24,1.32-.78,1.56a7.81,7.81,0,0,1-3,.32,6,6,0,0,0-.54-1.44c1.16,0,2.18,0,2.48,0s.44-.12.44-.46V93.76c-1.64,1.66-3.34,3.3-4.7,4.58l-.92-1.28c1.36-1.12,3.56-3.08,5.62-4.94v-5.2h-4.84V85.54h4.84V82.08h1.44v3.46h5.24v1.38h-5.24v.72a24.82,24.82,0,0,0,1,4.18A29.27,29.27,0,0,0,968.52,88Zm-9.8-.58a15.89,15.89,0,0,1,2.18,3.7l-1.22.58a16.83,16.83,0,0,0-2.12-3.74Zm8.16-2.88a11.5,11.5,0,0,0-2.36-2.2l.86-.78a14.25,14.25,0,0,1,2.4,2.08Z"/><path class="j" d="M987.58,83.44V100H986V98.8H976.1v1.3h-1.5V83.44ZM976.1,84.9v5.4H986V84.9ZM986,97.34V91.76H976.1v5.58Z"/><path class="j" d="M1004.14,84.34a32.11,32.11,0,0,1,5.28,5.8l-1.26.9a14,14,0,0,0-1.22-1.72c-11.42.64-12.58.68-13.36,1a11.23,11.23,0,0,0-.48-1.46,3.87,3.87,0,0,0,1.62-1.18,33.19,33.19,0,0,0,4.6-5.64l1.46.66a43.72,43.72,0,0,1-5.12,5.88l10.2-.5a36.72,36.72,0,0,0-2.9-2.94ZM994.64,92h12.72v8.32h-1.56v-1h-9.66v1.08h-1.5Zm1.5,1.42V97.8h9.66V93.38Z"/><path class="j" d="M1014.66,90.72a12.92,12.92,0,0,0-2.86-2.1l.84-1a12.4,12.4,0,0,1,2.92,2Zm-2.48,8.6a65.25,65.25,0,0,0,2.5-6.36l1.16.78c-.66,2.08-1.54,4.52-2.32,6.34ZM1015,85.54a13.09,13.09,0,0,0-2.76-2.22l.86-1a11.93,11.93,0,0,1,2.8,2.12Zm2.22,3.9a10.92,10.92,0,0,1-.88,2.76,6.73,6.73,0,0,0-.74-.48,8.76,8.76,0,0,0,.76-2.48Zm2.68-.78a6.64,6.64,0,0,0-.24-.64,14.11,14.11,0,0,0-3.46.62,3.7,3.7,0,0,0-.34-.78c.3,0,.58-.3.92-.7a10.41,10.41,0,0,0,1.24-1.5,7.42,7.42,0,0,0-1.84.28,4.23,4.23,0,0,0-.34-.76c.24,0,.4-.22.6-.52a9.62,9.62,0,0,0,1.24-2.46l.94.34a11.14,11.14,0,0,1-1.34,2.34l1.34-.1c.18-.3.36-.58.52-.9l.9.4a18.61,18.61,0,0,1-2.46,3.2l1.76-.22c-.12-.22-.26-.44-.38-.66l.74-.26a8.34,8.34,0,0,1,1,2Zm9.28,7.68a3.25,3.25,0,0,1-.08.6c-.38,1.72-.78,2.6-1.32,3a2.33,2.33,0,0,1-1.5.38c-.6,0-1.8,0-3.06-.08a2.83,2.83,0,0,0-.42-1.14c1.28.12,2.58.14,3.08.14a1.33,1.33,0,0,0,.84-.16c.34-.22.6-.74.86-1.72h-10.52a27.72,27.72,0,0,0,.86-3h9v-1h-9.74v-1h11.12v3h-9.26c-.08.34-.18.68-.28,1Zm-11.1-4.48a10.85,10.85,0,0,0-.44-2.46l.78-.2a9.65,9.65,0,0,1,.48,2.38Zm1.78-3a8.42,8.42,0,0,1,.72,2.14l-.76.34a11.29,11.29,0,0,0-.7-2.24Zm5.32-3.9h-4.8v-.92h2.12a7.72,7.72,0,0,0-.78-1.58l1-.26a10.39,10.39,0,0,1,.86,1.58l-.88.26h2.46Zm-4.26,3.74h3.76v2.94h-3.76Zm3.74-2.2H1021v-.84h3.68Zm-3.68.64h3.68V88H1021Zm.92,3.68h1.76V89.52h-1.76Zm4.58-1.48a11.76,11.76,0,0,1-.86,2.76,5.87,5.87,0,0,0-.78-.52,7.76,7.76,0,0,0,.78-2.44Zm2.76-.66c-.06-.22-.18-.46-.3-.76a22.93,22.93,0,0,0-3.48.62,4.2,4.2,0,0,0-.34-.78c.32,0,.58-.28.94-.66a14.32,14.32,0,0,0,1.22-1.5,5.68,5.68,0,0,0-1.84.28,4.4,4.4,0,0,0-.34-.78c.24,0,.38-.22.58-.5a9.22,9.22,0,0,0,1.26-2.46l.94.34a11,11,0,0,1-1.34,2.32l1.32-.08q.3-.45.54-.9l.92.4a19.5,19.5,0,0,1-2.46,3.18l1.74-.22c-.12-.22-.24-.44-.36-.64l.7-.26a8,8,0,0,1,1.06,2.1ZM1027.36,92a11,11,0,0,0-.5-2.66l.8-.2a10.73,10.73,0,0,1,.5,2.6Zm1.74-3.18a10.18,10.18,0,0,1,.88,2.5l-.78.36a10.87,10.87,0,0,0-.82-2.62Z"/><path class="j" d="M1035.9,93.86c.72-.32,1.46-.62,2.2-.94l.3,1.32c-2.1,1-4.34,2-6.08,2.76l-.58-1.48c.76-.26,1.72-.66,2.76-1.1V88.26h-2.38V86.84h2.38V82.3h1.4v4.54H1038v1.42h-2.14Zm11.48,4.68c1.16,0,1.36-.54,1.5-2.84a3.42,3.42,0,0,0,1.34.56c-.24,2.74-.7,3.62-2.78,3.62h-4.92c-2.26,0-2.94-.54-2.94-2.7V90.9l-1.58.66-.58-1.3,2.16-.9V83.92H1041v4.82l2.68-1.12V82.06h1.42v5l3-1.28,1.14.38-.08.24a71.21,71.21,0,0,1-1,8.76l-1.22-.36a71.1,71.1,0,0,0,.76-7.3l-2.6,1.1V95.9h-1.42V89.16L1041,90.3v6.9c0,1.08.26,1.34,1.56,1.34Z"/><path class="j" d="M1058.46,96.22c-2.22.7-4.58,1.44-6.38,2l-.32-1.44,2.62-.76V90.54h-2.22V89.16h2.22V84.82H1052v-1.4h6.1v1.4h-2.3v4.34h2v1.38h-2v5.1l2.46-.78Zm11.36-7.48a43.89,43.89,0,0,1-3.48,4.3,11.43,11.43,0,0,0,4.08,4.74,3.43,3.43,0,0,0-.94,1.12,12.64,12.64,0,0,1-4.62-6v5.6c0,.9-.24,1.32-.78,1.56a7.81,7.81,0,0,1-3,.32,6,6,0,0,0-.54-1.44c1.16,0,2.18,0,2.48,0s.44-.12.44-.46V93.76c-1.64,1.66-3.34,3.3-4.7,4.58l-.92-1.28c1.36-1.12,3.56-3.08,5.62-4.94v-5.2h-4.84V85.54h4.84V82.08h1.44v3.46h5.24v1.38h-5.24v.72a24.82,24.82,0,0,0,1,4.18,29.27,29.27,0,0,0,2.68-3.78Zm-9.8-.58a15.89,15.89,0,0,1,2.18,3.7l-1.22.58a16.83,16.83,0,0,0-2.12-3.74Zm8.16-2.88a11.5,11.5,0,0,0-2.36-2.2l.86-.78a14.25,14.25,0,0,1,2.4,2.08Z"/><path class="j" d="M1087.58,83.44V100H1086V98.8h-9.92v1.3h-1.5V83.44ZM1076.1,84.9v5.4H1086V84.9ZM1086,97.34V91.76h-9.92v5.58Z"/><path class="j" d="M1092.46,97.68a1.32,1.32,0,1,1,2.64,0,1.32,1.32,0,1,1-2.64,0Z"/><path class="j" d="M1098,97.68a1.32,1.32,0,1,1,2.64,0,1.32,1.32,0,1,1-2.64,0Z"/><path class="j" d="M1103.58,97.68a1.32,1.32,0,1,1,2.64,0,1.32,1.32,0,1,1-2.64,0Z"/><path class="j" d="M1109.14,97.68a1.32,1.32,0,1,1,2.64,0,1.32,1.32,0,1,1-2.64,0Z"/></g></g><g class="b"><g class="b"><path d="M529.94,98.8h-1.36V88.52a3.71,3.71,0,0,1-.46.36c-.2.13-.43.27-.68.4a8.43,8.43,0,0,1-.8.37,6,6,0,0,1-.81.28V88.55a7.88,7.88,0,0,0,.95-.34c.33-.14.66-.3,1-.47s.62-.36.91-.55a7.31,7.31,0,0,0,.75-.56h.51Z"/><path d="M539.11,98.8h-1.36V88.52a4.68,4.68,0,0,1-.46.36c-.21.13-.43.27-.69.4a8.23,8.23,0,0,1-.79.37,5.68,5.68,0,0,1-.82.28V88.55a7.32,7.32,0,0,0,1-.34c.34-.14.66-.3,1-.47s.63-.36.92-.55a8.36,8.36,0,0,0,.74-.56h.52Z"/><path d="M550.73,92.8a11.75,11.75,0,0,1-.27,2.65,6.15,6.15,0,0,1-.78,1.94,3.6,3.6,0,0,1-1.25,1.21,3.49,3.49,0,0,1-1.69.41,3.14,3.14,0,0,1-1.6-.4A3.24,3.24,0,0,1,544,97.46a5.46,5.46,0,0,1-.73-1.85,11.19,11.19,0,0,1-.25-2.52,12.69,12.69,0,0,1,.26-2.76,6.19,6.19,0,0,1,.77-2,3.32,3.32,0,0,1,1.25-1.22A3.49,3.49,0,0,1,547,86.7Q550.73,86.7,550.73,92.8Zm-1.4.13q0-5.09-2.41-5.08c-1.7,0-2.55,1.73-2.55,5.17q0,4.83,2.5,4.83T549.33,92.93Z"/><path d="M557.15,94.6h-4.53V93.53h4.53Z"/><path d="M566.69,92.8a11.75,11.75,0,0,1-.27,2.65,6.15,6.15,0,0,1-.78,1.94,3.6,3.6,0,0,1-1.25,1.21,3.49,3.49,0,0,1-1.69.41,3.14,3.14,0,0,1-1.6-.4,3.24,3.24,0,0,1-1.18-1.15,5.68,5.68,0,0,1-.73-1.85,11.19,11.19,0,0,1-.25-2.52,13.35,13.35,0,0,1,.26-2.76,6.19,6.19,0,0,1,.77-2,3.34,3.34,0,0,1,1.26-1.22A3.45,3.45,0,0,1,563,86.7Q566.69,86.7,566.69,92.8Zm-1.39.13q0-5.09-2.42-5.08c-1.7,0-2.55,1.73-2.55,5.17,0,3.22.84,4.83,2.5,4.83S565.3,96.21,565.3,92.93Z"/><path d="M575.87,95a4.43,4.43,0,0,1-.28,1.61,4.05,4.05,0,0,1-.78,1.26,3.43,3.43,0,0,1-1.19.82,3.67,3.67,0,0,1-1.49.3,3.42,3.42,0,0,1-1.61-.38,3.3,3.3,0,0,1-1.2-1.07,5.15,5.15,0,0,1-.75-1.71,9.43,9.43,0,0,1-.26-2.29,10.79,10.79,0,0,1,.34-2.82,6.93,6.93,0,0,1,1-2.16,4.52,4.52,0,0,1,1.54-1.39,4,4,0,0,1,2-.49,4.77,4.77,0,0,1,2,.34v1.28a4.24,4.24,0,0,0-1.94-.47,2.9,2.9,0,0,0-1.44.36,3.27,3.27,0,0,0-1.09,1,4.71,4.71,0,0,0-.7,1.57,7.68,7.68,0,0,0-.25,2h0a2.88,2.88,0,0,1,2.72-1.49,3.55,3.55,0,0,1,1.41.27,3.23,3.23,0,0,1,1.07.75,3.42,3.42,0,0,1,.68,1.16A4.44,4.44,0,0,1,575.87,95Zm-1.39.18a3.83,3.83,0,0,0-.16-1.12,2.64,2.64,0,0,0-.45-.85,2.08,2.08,0,0,0-.73-.54,2.52,2.52,0,0,0-1-.18,2.26,2.26,0,0,0-.94.19,2.42,2.42,0,0,0-.74.52,2.45,2.45,0,0,0-.5.76,2.41,2.41,0,0,0-.18.93,3.6,3.6,0,0,0,.18,1.15,3,3,0,0,0,.49.93,2.26,2.26,0,0,0,.75.63,2.07,2.07,0,0,0,1,.23,2.18,2.18,0,0,0,.93-.2,2.08,2.08,0,0,0,.73-.54,2.52,2.52,0,0,0,.46-.84A3.29,3.29,0,0,0,574.48,95.2Z"/><path d="M582.28,94.6h-4.53V93.53h4.53Z"/><path d="M589.36,98.8H588V88.52a4.68,4.68,0,0,1-.46.36c-.2.13-.43.27-.68.4a8.43,8.43,0,0,1-.8.37,5.68,5.68,0,0,1-.82.28V88.55a7.32,7.32,0,0,0,1-.34c.34-.14.67-.3,1-.47s.63-.36.92-.55a7.31,7.31,0,0,0,.75-.56h.51Z"/><path d="M598.92,90a2.35,2.35,0,0,0-.17-1,1.9,1.9,0,0,0-.46-.67,2,2,0,0,0-.69-.41,3,3,0,0,0-.87-.13A3,3,0,0,0,596,88a3.59,3.59,0,0,0-.74.3,5.92,5.92,0,0,0-.7.45,7,7,0,0,0-.63.59V87.84a4.19,4.19,0,0,1,1.29-.85,4.63,4.63,0,0,1,1.73-.29,4.2,4.2,0,0,1,1.35.21,3,3,0,0,1,1.08.62,3,3,0,0,1,.72,1,3.49,3.49,0,0,1,.26,1.37,4.62,4.62,0,0,1-.16,1.28,4,4,0,0,1-.49,1.08,5.29,5.29,0,0,1-.83,1,11.14,11.14,0,0,1-1.17,1q-.84.6-1.38,1a5.7,5.7,0,0,0-.86.79,2.1,2.1,0,0,0-.45.74,2.45,2.45,0,0,0-.13.85h5.93V98.8h-7.35v-.59a4.85,4.85,0,0,1,.17-1.34,3.57,3.57,0,0,1,.54-1.11,6,6,0,0,1,1-1c.42-.35.92-.75,1.52-1.18a9.88,9.88,0,0,0,1.08-.89,4.09,4.09,0,0,0,.7-.85,2.83,2.83,0,0,0,.38-.86A3.46,3.46,0,0,0,598.92,90Z"/></g></g><path class="i" d="M523.93,152.6H1113l-589.07,1Z"/><g class="b"><g class="b"><path class="j" d="M787.58,123.24v16.58H786V138.6H776.1v1.3h-1.5V123.24ZM776.1,124.7v5.4H786v-5.4ZM786,137.14v-5.58H776.1v5.58Z"/><path class="j" d="M804.14,124.14a32.11,32.11,0,0,1,5.28,5.8l-1.26.9a14,14,0,0,0-1.22-1.72c-11.42.64-12.58.68-13.36,1a11.23,11.23,0,0,0-.48-1.46,3.87,3.87,0,0,0,1.62-1.18,33.19,33.19,0,0,0,4.6-5.64l1.46.66a43.72,43.72,0,0,1-5.12,5.88l10.2-.5a36.72,36.72,0,0,0-2.9-2.94Zm-9.5,7.62h12.72v8.32H805.8v-1h-9.66v1.08h-1.5Zm1.5,1.42v4.42h9.66v-4.42Z"/><path class="j" d="M814.66,130.52a12.92,12.92,0,0,0-2.86-2.1l.84-1a12.4,12.4,0,0,1,2.92,2Zm-2.48,8.6a65.25,65.25,0,0,0,2.5-6.36l1.16.78c-.66,2.08-1.54,4.52-2.32,6.34ZM815,125.34a13.09,13.09,0,0,0-2.76-2.22l.86-1a11.93,11.93,0,0,1,2.8,2.12Zm2.22,3.9a10.92,10.92,0,0,1-.88,2.76,6.73,6.73,0,0,0-.74-.48,8.76,8.76,0,0,0,.76-2.48Zm2.68-.78a6.64,6.64,0,0,0-.24-.64,14.11,14.11,0,0,0-3.46.62,3.7,3.7,0,0,0-.34-.78c.3,0,.58-.3.92-.7a10.41,10.41,0,0,0,1.24-1.5,7.42,7.42,0,0,0-1.84.28,4.23,4.23,0,0,0-.34-.76c.24,0,.4-.22.6-.52a9.62,9.62,0,0,0,1.24-2.46l.94.34a11.14,11.14,0,0,1-1.34,2.34l1.34-.1c.18-.3.36-.58.52-.9l.9.4a18.61,18.61,0,0,1-2.46,3.2l1.76-.22c-.12-.22-.26-.44-.38-.66l.74-.26a8.34,8.34,0,0,1,1,2Zm9.28,7.68a3.25,3.25,0,0,1-.08.6c-.38,1.72-.78,2.6-1.32,3a2.33,2.33,0,0,1-1.5.38c-.6,0-1.8,0-3.06-.08a2.83,2.83,0,0,0-.42-1.14c1.28.12,2.58.14,3.08.14a1.33,1.33,0,0,0,.84-.16c.34-.22.6-.74.86-1.72H817.06a27.72,27.72,0,0,0,.86-3h9v-1H817.2v-1h11.12v3h-9.26c-.08.34-.18.68-.28,1Zm-11.1-4.48a10.85,10.85,0,0,0-.44-2.46l.78-.2a9.65,9.65,0,0,1,.48,2.38Zm1.78-3a8.42,8.42,0,0,1,.72,2.14l-.76.34a11.29,11.29,0,0,0-.7-2.24Zm5.32-3.9h-4.8v-.92h2.12a7.72,7.72,0,0,0-.78-1.58l1-.26a10.39,10.39,0,0,1,.86,1.58l-.88.26h2.46Zm-4.26,3.74h3.76v2.94h-3.76Zm3.74-2.2H821v-.84h3.68ZM821,127h3.68v.82H821Zm.92,3.68h1.76v-1.32H821.9Zm4.58-1.48a11.76,11.76,0,0,1-.86,2.76,5.87,5.87,0,0,0-.78-.52,7.76,7.76,0,0,0,.78-2.44Zm2.76-.66c-.06-.22-.18-.46-.3-.76a22.93,22.93,0,0,0-3.48.62,4.2,4.2,0,0,0-.34-.78c.32,0,.58-.28.94-.66a14.32,14.32,0,0,0,1.22-1.5,5.68,5.68,0,0,0-1.84.28,4.4,4.4,0,0,0-.34-.78c.24,0,.38-.22.58-.5a9.22,9.22,0,0,0,1.26-2.46l.94.34a11,11,0,0,1-1.34,2.32l1.32-.08q.3-.45.54-.9l.92.4a19.5,19.5,0,0,1-2.46,3.18l1.74-.22c-.12-.22-.24-.44-.36-.64l.7-.26a8,8,0,0,1,1.06,2.1Zm-1.88,3.32a11,11,0,0,0-.5-2.66l.8-.2a10.73,10.73,0,0,1,.5,2.6Zm1.74-3.18a10.18,10.18,0,0,1,.88,2.5l-.78.36a10.87,10.87,0,0,0-.82-2.62Z"/><path class="j" d="M835.9,133.66c.72-.32,1.46-.62,2.2-.94l.3,1.32c-2.1,1-4.34,2-6.08,2.76l-.58-1.48c.76-.26,1.72-.66,2.76-1.1v-6.16h-2.38v-1.42h2.38V122.1h1.4v4.54H838v1.42H835.9Zm11.48,4.68c1.16,0,1.36-.54,1.5-2.84a3.42,3.42,0,0,0,1.34.56c-.24,2.74-.7,3.62-2.78,3.62h-4.92c-2.26,0-2.94-.54-2.94-2.7V130.7l-1.58.66-.58-1.3,2.16-.9v-5.44H841v4.82l2.68-1.12v-5.56h1.42v5l3-1.28,1.14.38-.08.24a71.21,71.21,0,0,1-1,8.76l-1.22-.36a71.1,71.1,0,0,0,.76-7.3l-2.6,1.1v7.34h-1.42V129L841,130.1V137c0,1.08.26,1.34,1.56,1.34Z"/><path class="j" d="M858.46,136c-2.22.7-4.58,1.44-6.38,2l-.32-1.44,2.62-.76v-5.52h-2.22V129h2.22v-4.34H852v-1.4h6.1v1.4h-2.3V129h2v1.38h-2v5.1l2.46-.78Zm11.36-7.48a43.89,43.89,0,0,1-3.48,4.3,11.43,11.43,0,0,0,4.08,4.74,3.43,3.43,0,0,0-.94,1.12,12.64,12.64,0,0,1-4.62-6v5.6c0,.9-.24,1.32-.78,1.56a7.81,7.81,0,0,1-3,.32,6,6,0,0,0-.54-1.44c1.16,0,2.18,0,2.48,0s.44-.12.44-.46v-4.72c-1.64,1.66-3.34,3.3-4.7,4.58l-.92-1.28c1.36-1.12,3.56-3.08,5.62-4.94v-5.2h-4.84v-1.38h4.84v-3.46h1.44v3.46h5.24v1.38h-5.24v.72a24.82,24.82,0,0,0,1,4.18,29.27,29.27,0,0,0,2.68-3.78ZM860,128a15.89,15.89,0,0,1,2.18,3.7l-1.22.58a16.83,16.83,0,0,0-2.12-3.74Zm8.16-2.88a11.5,11.5,0,0,0-2.36-2.2l.86-.78a14.25,14.25,0,0,1,2.4,2.08Z"/><path class="j" d="M887.58,123.24v16.58H886V138.6H876.1v1.3h-1.5V123.24ZM876.1,124.7v5.4H886v-5.4ZM886,137.14v-5.58H876.1v5.58Z"/><path class="j" d="M904.14,124.14a32.11,32.11,0,0,1,5.28,5.8l-1.26.9a14,14,0,0,0-1.22-1.72c-11.42.64-12.58.68-13.36,1a11.23,11.23,0,0,0-.48-1.46,3.87,3.87,0,0,0,1.62-1.18,33.19,33.19,0,0,0,4.6-5.64l1.46.66a43.72,43.72,0,0,1-5.12,5.88l10.2-.5a36.72,36.72,0,0,0-2.9-2.94Zm-9.5,7.62h12.72v8.32H905.8v-1h-9.66v1.08h-1.5Zm1.5,1.42v4.42h9.66v-4.42Z"/><path class="j" d="M914.66,130.52a12.92,12.92,0,0,0-2.86-2.1l.84-1a12.4,12.4,0,0,1,2.92,2Zm-2.48,8.6a65.25,65.25,0,0,0,2.5-6.36l1.16.78c-.66,2.08-1.54,4.52-2.32,6.34ZM915,125.34a13.09,13.09,0,0,0-2.76-2.22l.86-1a11.93,11.93,0,0,1,2.8,2.12Zm2.22,3.9a10.92,10.92,0,0,1-.88,2.76,6.73,6.73,0,0,0-.74-.48,8.76,8.76,0,0,0,.76-2.48Zm2.68-.78a6.64,6.64,0,0,0-.24-.64,14.11,14.11,0,0,0-3.46.62,3.7,3.7,0,0,0-.34-.78c.3,0,.58-.3.92-.7a10.41,10.41,0,0,0,1.24-1.5,7.42,7.42,0,0,0-1.84.28,4.23,4.23,0,0,0-.34-.76c.24,0,.4-.22.6-.52a9.62,9.62,0,0,0,1.24-2.46l.94.34a11.14,11.14,0,0,1-1.34,2.34l1.34-.1c.18-.3.36-.58.52-.9l.9.4a18.61,18.61,0,0,1-2.46,3.2l1.76-.22c-.12-.22-.26-.44-.38-.66l.74-.26a8.34,8.34,0,0,1,1,2Zm9.28,7.68a3.25,3.25,0,0,1-.08.6c-.38,1.72-.78,2.6-1.32,3a2.33,2.33,0,0,1-1.5.38c-.6,0-1.8,0-3.06-.08a2.83,2.83,0,0,0-.42-1.14c1.28.12,2.58.14,3.08.14a1.33,1.33,0,0,0,.84-.16c.34-.22.6-.74.86-1.72H917.06a27.72,27.72,0,0,0,.86-3h9v-1H917.2v-1h11.12v3h-9.26c-.08.34-.18.68-.28,1Zm-11.1-4.48a10.85,10.85,0,0,0-.44-2.46l.78-.2a9.65,9.65,0,0,1,.48,2.38Zm1.78-3a8.42,8.42,0,0,1,.72,2.14l-.76.34a11.29,11.29,0,0,0-.7-2.24Zm5.32-3.9h-4.8v-.92h2.12a7.72,7.72,0,0,0-.78-1.58l1-.26a10.39,10.39,0,0,1,.86,1.58l-.88.26h2.46Zm-4.26,3.74h3.76v2.94h-3.76Zm3.74-2.2H921v-.84h3.68ZM921,127h3.68v.82H921Zm.92,3.68h1.76v-1.32H921.9Zm4.58-1.48a11.76,11.76,0,0,1-.86,2.76,5.87,5.87,0,0,0-.78-.52,7.76,7.76,0,0,0,.78-2.44Zm2.76-.66c-.06-.22-.18-.46-.3-.76a22.93,22.93,0,0,0-3.48.62,4.2,4.2,0,0,0-.34-.78c.32,0,.58-.28.94-.66a14.32,14.32,0,0,0,1.22-1.5,5.68,5.68,0,0,0-1.84.28,4.4,4.4,0,0,0-.34-.78c.24,0,.38-.22.58-.5a9.22,9.22,0,0,0,1.26-2.46l.94.34a11,11,0,0,1-1.34,2.32l1.32-.08q.3-.45.54-.9l.92.4a19.5,19.5,0,0,1-2.46,3.18l1.74-.22c-.12-.22-.24-.44-.36-.64l.7-.26a8,8,0,0,1,1.06,2.1Zm-1.88,3.32a11,11,0,0,0-.5-2.66l.8-.2a10.73,10.73,0,0,1,.5,2.6Zm1.74-3.18a10.18,10.18,0,0,1,.88,2.5l-.78.36a10.87,10.87,0,0,0-.82-2.62Z"/><path class="j" d="M935.9,133.66c.72-.32,1.46-.62,2.2-.94l.3,1.32c-2.1,1-4.34,2-6.08,2.76l-.58-1.48c.76-.26,1.72-.66,2.76-1.1v-6.16h-2.38v-1.42h2.38V122.1h1.4v4.54H938v1.42H935.9Zm11.48,4.68c1.16,0,1.36-.54,1.5-2.84a3.42,3.42,0,0,0,1.34.56c-.24,2.74-.7,3.62-2.78,3.62h-4.92c-2.26,0-2.94-.54-2.94-2.7V130.7l-1.58.66-.58-1.3,2.16-.9v-5.44H941v4.82l2.68-1.12v-5.56h1.42v5l3-1.28,1.14.38-.08.24a71.21,71.21,0,0,1-1,8.76l-1.22-.36a71.1,71.1,0,0,0,.76-7.3l-2.6,1.1v7.34h-1.42V129L941,130.1V137c0,1.08.26,1.34,1.56,1.34Z"/><path class="j" d="M958.46,136c-2.22.7-4.58,1.44-6.38,2l-.32-1.44,2.62-.76v-5.52h-2.22V129h2.22v-4.34H952v-1.4h6.1v1.4h-2.3V129h2v1.38h-2v5.1l2.46-.78Zm11.36-7.48a43.89,43.89,0,0,1-3.48,4.3,11.43,11.43,0,0,0,4.08,4.74,3.43,3.43,0,0,0-.94,1.12,12.64,12.64,0,0,1-4.62-6v5.6c0,.9-.24,1.32-.78,1.56a7.81,7.81,0,0,1-3,.32,6,6,0,0,0-.54-1.44c1.16,0,2.18,0,2.48,0s.44-.12.44-.46v-4.72c-1.64,1.66-3.34,3.3-4.7,4.58l-.92-1.28c1.36-1.12,3.56-3.08,5.62-4.94v-5.2h-4.84v-1.38h4.84v-3.46h1.44v3.46h5.24v1.38h-5.24v.72a24.82,24.82,0,0,0,1,4.18,29.27,29.27,0,0,0,2.68-3.78ZM960,128a15.89,15.89,0,0,1,2.18,3.7l-1.22.58a16.83,16.83,0,0,0-2.12-3.74Zm8.16-2.88a11.5,11.5,0,0,0-2.36-2.2l.86-.78a14.25,14.25,0,0,1,2.4,2.08Z"/><path class="j" d="M987.58,123.24v16.58H986V138.6H976.1v1.3h-1.5V123.24ZM976.1,124.7v5.4H986v-5.4ZM986,137.14v-5.58H976.1v5.58Z"/><path class="j" d="M1004.14,124.14a32.11,32.11,0,0,1,5.28,5.8l-1.26.9a14,14,0,0,0-1.22-1.72c-11.42.64-12.58.68-13.36,1a11.23,11.23,0,0,0-.48-1.46,3.87,3.87,0,0,0,1.62-1.18,33.19,33.19,0,0,0,4.6-5.64l1.46.66a43.72,43.72,0,0,1-5.12,5.88l10.2-.5a36.72,36.72,0,0,0-2.9-2.94Zm-9.5,7.62h12.72v8.32h-1.56v-1h-9.66v1.08h-1.5Zm1.5,1.42v4.42h9.66v-4.42Z"/><path class="j" d="M1014.66,130.52a12.92,12.92,0,0,0-2.86-2.1l.84-1a12.4,12.4,0,0,1,2.92,2Zm-2.48,8.6a65.25,65.25,0,0,0,2.5-6.36l1.16.78c-.66,2.08-1.54,4.52-2.32,6.34Zm2.82-13.78a13.09,13.09,0,0,0-2.76-2.22l.86-1a11.93,11.93,0,0,1,2.8,2.12Zm2.22,3.9a10.92,10.92,0,0,1-.88,2.76,6.73,6.73,0,0,0-.74-.48,8.76,8.76,0,0,0,.76-2.48Zm2.68-.78a6.64,6.64,0,0,0-.24-.64,14.11,14.11,0,0,0-3.46.62,3.7,3.7,0,0,0-.34-.78c.3,0,.58-.3.92-.7a10.41,10.41,0,0,0,1.24-1.5,7.42,7.42,0,0,0-1.84.28,4.23,4.23,0,0,0-.34-.76c.24,0,.4-.22.6-.52a9.62,9.62,0,0,0,1.24-2.46l.94.34a11.14,11.14,0,0,1-1.34,2.34l1.34-.1c.18-.3.36-.58.52-.9l.9.4a18.61,18.61,0,0,1-2.46,3.2l1.76-.22c-.12-.22-.26-.44-.38-.66l.74-.26a8.34,8.34,0,0,1,1,2Zm9.28,7.68a3.25,3.25,0,0,1-.08.6c-.38,1.72-.78,2.6-1.32,3a2.33,2.33,0,0,1-1.5.38c-.6,0-1.8,0-3.06-.08a2.83,2.83,0,0,0-.42-1.14c1.28.12,2.58.14,3.08.14a1.33,1.33,0,0,0,.84-.16c.34-.22.6-.74.86-1.72h-10.52a27.72,27.72,0,0,0,.86-3h9v-1h-9.74v-1h11.12v3h-9.26c-.08.34-.18.68-.28,1Zm-11.1-4.48a10.85,10.85,0,0,0-.44-2.46l.78-.2a9.65,9.65,0,0,1,.48,2.38Zm1.78-3a8.42,8.42,0,0,1,.72,2.14l-.76.34a11.29,11.29,0,0,0-.7-2.24Zm5.32-3.9h-4.8v-.92h2.12a7.72,7.72,0,0,0-.78-1.58l1-.26a10.39,10.39,0,0,1,.86,1.58l-.88.26h2.46Zm-4.26,3.74h3.76v2.94h-3.76Zm3.74-2.2H1021v-.84h3.68ZM1021,127h3.68v.82H1021Zm.92,3.68h1.76v-1.32h-1.76Zm4.58-1.48a11.76,11.76,0,0,1-.86,2.76,5.87,5.87,0,0,0-.78-.52,7.76,7.76,0,0,0,.78-2.44Zm2.76-.66c-.06-.22-.18-.46-.3-.76a22.93,22.93,0,0,0-3.48.62,4.2,4.2,0,0,0-.34-.78c.32,0,.58-.28.94-.66a14.32,14.32,0,0,0,1.22-1.5,5.68,5.68,0,0,0-1.84.28,4.4,4.4,0,0,0-.34-.78c.24,0,.38-.22.58-.5a9.22,9.22,0,0,0,1.26-2.46l.94.34a11,11,0,0,1-1.34,2.32l1.32-.08q.3-.45.54-.9l.92.4a19.5,19.5,0,0,1-2.46,3.18l1.74-.22c-.12-.22-.24-.44-.36-.64l.7-.26a8,8,0,0,1,1.06,2.1Zm-1.88,3.32a11,11,0,0,0-.5-2.66l.8-.2a10.73,10.73,0,0,1,.5,2.6Zm1.74-3.18a10.18,10.18,0,0,1,.88,2.5l-.78.36a10.87,10.87,0,0,0-.82-2.62Z"/><path class="j" d="M1035.9,133.66c.72-.32,1.46-.62,2.2-.94l.3,1.32c-2.1,1-4.34,2-6.08,2.76l-.58-1.48c.76-.26,1.72-.66,2.76-1.1v-6.16h-2.38v-1.42h2.38V122.1h1.4v4.54H1038v1.42h-2.14Zm11.48,4.68c1.16,0,1.36-.54,1.5-2.84a3.42,3.42,0,0,0,1.34.56c-.24,2.74-.7,3.62-2.78,3.62h-4.92c-2.26,0-2.94-.54-2.94-2.7V130.7l-1.58.66-.58-1.3,2.16-.9v-5.44H1041v4.82l2.68-1.12v-5.56h1.42v5l3-1.28,1.14.38-.08.24a71.21,71.21,0,0,1-1,8.76l-1.22-.36a71.1,71.1,0,0,0,.76-7.3l-2.6,1.1v7.34h-1.42V129L1041,130.1V137c0,1.08.26,1.34,1.56,1.34Z"/><path class="j" d="M1058.46,136c-2.22.7-4.58,1.44-6.38,2l-.32-1.44,2.62-.76v-5.52h-2.22V129h2.22v-4.34H1052v-1.4h6.1v1.4h-2.3V129h2v1.38h-2v5.1l2.46-.78Zm11.36-7.48a43.89,43.89,0,0,1-3.48,4.3,11.43,11.43,0,0,0,4.08,4.74,3.43,3.43,0,0,0-.94,1.12,12.64,12.64,0,0,1-4.62-6v5.6c0,.9-.24,1.32-.78,1.56a7.81,7.81,0,0,1-3,.32,6,6,0,0,0-.54-1.44c1.16,0,2.18,0,2.48,0s.44-.12.44-.46v-4.72c-1.64,1.66-3.34,3.3-4.7,4.58l-.92-1.28c1.36-1.12,3.56-3.08,5.62-4.94v-5.2h-4.84v-1.38h4.84v-3.46h1.44v3.46h5.24v1.38h-5.24v.72a24.82,24.82,0,0,0,1,4.18,29.27,29.27,0,0,0,2.68-3.78ZM1060,128a15.89,15.89,0,0,1,2.18,3.7l-1.22.58a16.83,16.83,0,0,0-2.12-3.74Zm8.16-2.88a11.5,11.5,0,0,0-2.36-2.2l.86-.78a14.25,14.25,0,0,1,2.4,2.08Z"/><path class="j" d="M1087.58,123.24v16.58H1086V138.6h-9.92v1.3h-1.5V123.24Zm-11.48,1.46v5.4H1086v-5.4Zm9.92,12.44v-5.58h-9.92v5.58Z"/><path class="j" d="M1092.46,137.48a1.32,1.32,0,1,1,2.64,0,1.32,1.32,0,1,1-2.64,0Z"/><path class="j" d="M1098,137.48a1.32,1.32,0,1,1,2.64,0,1.32,1.32,0,1,1-2.64,0Z"/><path class="j" d="M1103.58,137.48a1.32,1.32,0,1,1,2.64,0,1.32,1.32,0,1,1-2.64,0Z"/><path class="j" d="M1109.14,137.48a1.32,1.32,0,1,1,2.64,0,1.32,1.32,0,1,1-2.64,0Z"/></g></g><g class="b"><g class="b"><path d="M529.94,138.6h-1.36V128.31a2.92,2.92,0,0,1-.46.37c-.2.13-.43.27-.68.4a8.43,8.43,0,0,1-.8.37,6,6,0,0,1-.81.28v-1.38a7.88,7.88,0,0,0,.95-.34c.33-.14.66-.3,1-.47s.62-.36.91-.55a7.31,7.31,0,0,0,.75-.56h.51Z"/><path d="M539.11,138.6h-1.36V128.31a3.48,3.48,0,0,1-.46.37c-.21.13-.43.27-.69.4a8.23,8.23,0,0,1-.79.37,5.68,5.68,0,0,1-.82.28v-1.38a7.32,7.32,0,0,0,1-.34c.34-.14.66-.3,1-.47s.63-.36.92-.55a8.36,8.36,0,0,0,.74-.56h.52Z"/><path d="M550.73,132.6a11.75,11.75,0,0,1-.27,2.65,6.15,6.15,0,0,1-.78,1.94,3.6,3.6,0,0,1-1.25,1.21,3.49,3.49,0,0,1-1.69.41,3.14,3.14,0,0,1-1.6-.4,3.24,3.24,0,0,1-1.18-1.15,5.46,5.46,0,0,1-.73-1.85,11.19,11.19,0,0,1-.25-2.52,12.69,12.69,0,0,1,.26-2.76,6.19,6.19,0,0,1,.77-2,3.32,3.32,0,0,1,1.25-1.22,3.49,3.49,0,0,1,1.73-.41Q550.73,126.5,550.73,132.6Zm-1.4.13q0-5.08-2.41-5.08c-1.7,0-2.55,1.73-2.55,5.17,0,3.22.83,4.82,2.5,4.82S549.33,136,549.33,132.73Z"/><path d="M557.15,134.4h-4.53v-1.07h4.53Z"/><path d="M566.69,132.6a11.75,11.75,0,0,1-.27,2.65,6.15,6.15,0,0,1-.78,1.94,3.6,3.6,0,0,1-1.25,1.21,3.49,3.49,0,0,1-1.69.41,3.14,3.14,0,0,1-1.6-.4,3.24,3.24,0,0,1-1.18-1.15,5.68,5.68,0,0,1-.73-1.85,11.19,11.19,0,0,1-.25-2.52,13.35,13.35,0,0,1,.26-2.76,6.19,6.19,0,0,1,.77-2,3.34,3.34,0,0,1,1.26-1.22,3.45,3.45,0,0,1,1.72-.41Q566.69,126.5,566.69,132.6Zm-1.39.13q0-5.08-2.42-5.08c-1.7,0-2.55,1.73-2.55,5.17,0,3.22.84,4.82,2.5,4.82S565.3,136,565.3,132.73Z"/><path d="M575.87,134.82a4.43,4.43,0,0,1-.28,1.61,4.05,4.05,0,0,1-.78,1.26,3.43,3.43,0,0,1-1.19.82,3.67,3.67,0,0,1-1.49.3,3.32,3.32,0,0,1-2.81-1.45,5.12,5.12,0,0,1-.75-1.72,9.28,9.28,0,0,1-.26-2.28,10.79,10.79,0,0,1,.34-2.82,6.93,6.93,0,0,1,1-2.16,4.52,4.52,0,0,1,1.54-1.39,4,4,0,0,1,2-.49,4.77,4.77,0,0,1,2,.34v1.28a4.24,4.24,0,0,0-1.94-.47,2.9,2.9,0,0,0-1.44.36,3.27,3.27,0,0,0-1.09,1,4.62,4.62,0,0,0-.7,1.57,7.68,7.68,0,0,0-.25,2h0a2.88,2.88,0,0,1,2.72-1.49,3.55,3.55,0,0,1,1.41.27,3.23,3.23,0,0,1,1.07.75,3.42,3.42,0,0,1,.68,1.16A4.44,4.44,0,0,1,575.87,134.82Zm-1.39.18a3.83,3.83,0,0,0-.16-1.12,2.64,2.64,0,0,0-.45-.85,2.08,2.08,0,0,0-.73-.54,2.52,2.52,0,0,0-1-.18,2.26,2.26,0,0,0-.94.19,2.42,2.42,0,0,0-.74.52,2.45,2.45,0,0,0-.5.76,2.41,2.41,0,0,0-.18.93,3.6,3.6,0,0,0,.18,1.15,3,3,0,0,0,.49.93,2.26,2.26,0,0,0,.75.63,2.07,2.07,0,0,0,1,.22,2.18,2.18,0,0,0,.93-.19,2.08,2.08,0,0,0,.73-.54,2.52,2.52,0,0,0,.46-.84A3.29,3.29,0,0,0,574.48,135Z"/><path d="M582.28,134.4h-4.53v-1.07h4.53Z"/><path d="M589.36,138.6H588V128.31a3.48,3.48,0,0,1-.46.37c-.2.13-.43.27-.68.4a8.43,8.43,0,0,1-.8.37,5.68,5.68,0,0,1-.82.28v-1.38a7.32,7.32,0,0,0,1-.34c.34-.14.67-.3,1-.47s.63-.36.92-.55a7.31,7.31,0,0,0,.75-.56h.51Z"/><path d="M598.92,129.82a2.35,2.35,0,0,0-.17-1,1.9,1.9,0,0,0-.46-.67,2,2,0,0,0-.69-.41,3,3,0,0,0-.87-.13,3,3,0,0,0-.78.11,3.59,3.59,0,0,0-.74.3,4.87,4.87,0,0,0-.7.45,7,7,0,0,0-.63.59v-1.46a4.19,4.19,0,0,1,1.29-.85,4.63,4.63,0,0,1,1.73-.29,4.2,4.2,0,0,1,1.35.21,3,3,0,0,1,1.08.62,3,3,0,0,1,.72,1,3.49,3.49,0,0,1,.26,1.37,4.62,4.62,0,0,1-.16,1.28,4,4,0,0,1-.49,1.08,5.29,5.29,0,0,1-.83,1,11.14,11.14,0,0,1-1.17.95q-.84.6-1.38,1a5.7,5.7,0,0,0-.86.79,2.1,2.1,0,0,0-.45.74,2.45,2.45,0,0,0-.13.85h5.93v1.22h-7.35V138a4.85,4.85,0,0,1,.17-1.34,3.57,3.57,0,0,1,.54-1.11,6,6,0,0,1,1-1c.42-.35.92-.75,1.52-1.18a9.88,9.88,0,0,0,1.08-.89,4.09,4.09,0,0,0,.7-.85,2.83,2.83,0,0,0,.38-.86A3.46,3.46,0,0,0,598.92,129.82Z"/></g></g><path class="d" d="M1163,81h45a14,14,0,0,1,14,14h0a14,14,0,0,1-14,14h-45a14,14,0,0,1-14-14h0A14,14,0,0,1,1163,81Z"/><path class="k" d="M1163,82a13,13,0,0,0,0,26h45a13,13,0,0,0,0-26h-45m0-1h45a14,14,0,0,1,0,28h-45a14,14,0,0,1,0-28Z"/><g class="b"><g class="b"><path class="l" d="M1171.68,102.28a5.44,5.44,0,0,0-.91-1.31,15.06,15.06,0,0,0,4-1.17,7.58,7.58,0,0,1-1.86-2.06l1.3-.52A6.38,6.38,0,0,0,1176,99a3.87,3.87,0,0,0,1.13-1.8h-4.6V90.87h4.84V89.72h-6.25V88.38h13.84v1.34h-6v1.15h5v6.31h-5.23a4.91,4.91,0,0,1-1.33,2.51,14,14,0,0,0,3.57.78c1.15.13,2.67.21,4.56.23a3.14,3.14,0,0,0-.63,1.47,44.55,44.55,0,0,1-4.86-.39,12.79,12.79,0,0,1-3.87-1.12A13.84,13.84,0,0,1,1171.68,102.28Zm2.22-8.83h3.44V92.09h-3.44Zm0,2.51h3.41a7.33,7.33,0,0,0,0-.78V94.6h-3.44Zm5,0h3.59V94.6h-3.55v.59A6.7,6.7,0,0,1,1178.86,96Zm0-2.51h3.55V92.09h-3.55Z"/><path class="l" d="M1187.39,96.17a3.81,3.81,0,0,0-.69-1.28,20.12,20.12,0,0,0,5.72-1.87,13.76,13.76,0,0,0-2.52-1.64,20.88,20.88,0,0,1-2.08,1,3.83,3.83,0,0,0-1-1.1,15.92,15.92,0,0,0,3.62-1.71,9.77,9.77,0,0,0,2.32-2l1.65.37c-.32.35-.63.66-.92.94h3.68l.24-.06,1,.57a11.72,11.72,0,0,1-4.62,4.47A21.82,21.82,0,0,1,1187.39,96.17Zm1.19,6.11a3.62,3.62,0,0,0-.64-1.36,19.91,19.91,0,0,0,6.65-1.78,14.61,14.61,0,0,0-2.75-1.93c-.81.38-1.64.73-2.5,1a3.88,3.88,0,0,0-.4-.61,3.4,3.4,0,0,0-.49-.54,18,18,0,0,0,4.22-1.88,10.56,10.56,0,0,0,2.67-2.25l1.65.38a11.59,11.59,0,0,1-1.09,1.12h3.48l.25-.06,1,.53Q1198.1,100.94,1188.58,102.28Zm5.13-10a10,10,0,0,0,2.5-2.17H1192c-.24.18-.52.37-.83.56A13.75,13.75,0,0,1,1193.71,92.26Zm2.23,6.12a8.41,8.41,0,0,0,2.59-2.63h-4.21c-.38.27-.76.51-1.14.74A13.85,13.85,0,0,1,1195.94,98.38Z"/></g></g></svg>