<svg xmlns="http://www.w3.org/2000/svg" width="71.03" height="60" viewBox="0 0 71.03 60">
  <path id="school" d="M233.359,69.379H214.07a.887.887,0,0,1-.887-.887V18.2a.887.887,0,0,1,.462-.777l9.641-5.313a.891.891,0,0,1,.857,0l9.641,5.313a.887.887,0,0,1,.462.777V68.492A.887.887,0,0,1,233.359,69.379Zm-18.4-1.77h17.516V18.723L223.714,13.9l-8.758,4.826Zm49.08,1.77H233.359a.885.885,0,0,1-.887-.887V30.4a.886.886,0,0,1,.454-.773l15.339-8.615a.868.868,0,0,1,.865,0l15.339,8.615a.886.886,0,0,1,.454.773V68.492A.885.885,0,0,1,264.037,69.379Zm-29.791-1.77h28.9V30.918L248.7,22.8l-14.452,8.117ZM264.81,36.147a.886.886,0,0,0-.341-1.206L249.13,26.327a.886.886,0,0,0-.865,0l-15.339,8.615a.886.886,0,0,0,.865,1.546L248.7,28.115,263.6,36.488a.877.877,0,0,0,.432.114A.888.888,0,0,0,264.81,36.147Zm18.516,33.232H264.037a.888.888,0,0,1-.887-.887V18.2a.887.887,0,0,1,.462-.777l9.641-5.313a.891.891,0,0,1,.857,0l9.645,5.313a.891.891,0,0,1,.458.777V68.492A.888.888,0,0,1,283.326,69.379Zm-18.4-1.77h17.516V18.723L273.681,13.9l-8.758,4.826ZM284.1,23.941a.89.89,0,0,0-.348-1.206l-9.645-5.313a.891.891,0,0,0-.857,0l-9.641,5.313a.886.886,0,1,0,.854,1.554l9.216-5.079,9.216,5.079a.9.9,0,0,0,.429.11A.886.886,0,0,0,284.1,23.941ZM248.7,41.962a5.83,5.83,0,1,1,5.83-5.83A5.838,5.838,0,0,1,248.7,41.962Zm0-9.89a4.06,4.06,0,1,0,4.06,4.06A4.064,4.064,0,0,0,248.7,32.072Zm4.943,37.307h-9.886a.885.885,0,0,1-.887-.887V53.4a.885.885,0,0,1,.887-.887h9.886a.885.885,0,0,1,.887.887v15.09A.885.885,0,0,1,253.641,69.379Zm-9-1.77h8.12V54.286h-8.12Zm-2.221-17.27h-5.471a.885.885,0,0,1-.887-.887V44.971a.885.885,0,0,1,.887-.887h5.471a.885.885,0,0,1,.887.887v4.482A.885.885,0,0,1,242.417,50.339Zm-4.584-1.77h3.7V45.854h-3.7Zm13.6,1.77h-5.474a.884.884,0,0,1-.883-.887V44.971a.884.884,0,0,1,.883-.887h5.474a.884.884,0,0,1,.883.887v4.482A.884.884,0,0,1,251.435,50.339Zm-4.588-1.77h3.7V45.854h-3.7Zm13.6,1.77h-5.471a.887.887,0,0,1-.887-.887V44.971a.887.887,0,0,1,.887-.887h5.471a.885.885,0,0,1,.887.887v4.482A.885.885,0,0,1,260.449,50.339Zm-4.584-1.77h3.7V45.854h-3.7Zm4.584,10.3h-3.6a.884.884,0,0,1-.883-.883V53.505a.887.887,0,0,1,.883-.887h3.6a.888.888,0,0,1,.887.887V57.99A.884.884,0,0,1,260.449,58.873Zm-2.712-1.77h1.829V54.392h-1.829Zm2.712,9.1h-3.6a.887.887,0,0,1-.883-.887V60.83a.884.884,0,0,1,.883-.883h3.6a.884.884,0,0,1,.887.883v4.485A.888.888,0,0,1,260.449,66.2Zm-2.712-1.774h1.829V61.717h-1.829Zm-17.193-5.555h-3.6a.884.884,0,0,1-.887-.883V53.505a.887.887,0,0,1,.887-.887h3.6a.887.887,0,0,1,.883.887V57.99A.884.884,0,0,1,240.545,58.873Zm-2.712-1.77h1.825V54.392h-1.825Zm2.712,9.1h-3.6a.887.887,0,0,1-.887-.887V60.83a.884.884,0,0,1,.887-.883h3.6a.884.884,0,0,1,.883.883v4.485A.887.887,0,0,1,240.545,66.2Zm-2.712-1.774h1.825V61.717h-1.825Zm40.275-32.7h-8.853a.884.884,0,0,1-.887-.883V25.876a.885.885,0,0,1,.887-.887h8.853a.885.885,0,0,1,.887.887v4.973A.884.884,0,0,1,278.108,31.732Zm-7.97-1.77h7.087v-3.2h-7.087Zm7.97,10.366h-8.853a.885.885,0,0,1-.887-.887V34.469a.887.887,0,0,1,.887-.887h8.853a.887.887,0,0,1,.887.887v4.973A.885.885,0,0,1,278.108,40.328Zm-7.97-1.77h7.087v-3.2h-7.087Zm7.97,10.366h-8.853a.887.887,0,0,1-.887-.887V43.065a.885.885,0,0,1,.887-.887h8.853a.885.885,0,0,1,.887.887v4.973A.887.887,0,0,1,278.108,48.925Zm-7.97-1.774h7.087v-3.2h-7.087Zm7.97,10.366h-8.853a.885.885,0,0,1-.887-.887V51.658a.884.884,0,0,1,.887-.883h8.853a.884.884,0,0,1,.887.883v4.973A.885.885,0,0,1,278.108,57.518Zm-7.97-1.77h7.087v-3.2h-7.087Zm7.97,10.366h-8.853a.887.887,0,0,1-.887-.887V60.255a.887.887,0,0,1,.887-.887h8.853a.887.887,0,0,1,.887.887v4.973A.887.887,0,0,1,278.108,66.114Zm-7.97-1.774h7.087v-3.2h-7.087Zm-36-41.425a.887.887,0,0,0-.352-1.2L224.143,16.4a.891.891,0,0,0-.857,0l-9.641,5.313a.885.885,0,1,0,.854,1.55l9.216-5.075,9.216,5.075a.859.859,0,0,0,.429.11A.886.886,0,0,0,234.136,22.915Zm-5.995,7.794h-8.853a.885.885,0,0,1-.887-.887V24.85a.888.888,0,0,1,.887-.887h8.853a.888.888,0,0,1,.887.887v4.973A.885.885,0,0,1,228.141,30.709Zm-7.97-1.77h7.087v-3.2h-7.087Zm7.97,10.366h-8.853a.888.888,0,0,1-.887-.887V33.446a.885.885,0,0,1,.887-.887h8.853a.885.885,0,0,1,.887.887v4.973A.888.888,0,0,1,228.141,39.306Zm-7.97-1.774h7.087v-3.2h-7.087Zm7.97,10.366h-8.853a.885.885,0,0,1-.887-.887V42.039a.884.884,0,0,1,.887-.883h8.853a.884.884,0,0,1,.887.883v4.973A.885.885,0,0,1,228.141,47.9Zm-7.97-1.77h7.087v-3.2h-7.087Zm7.97,10.366h-8.853a.888.888,0,0,1-.887-.887V50.636a.885.885,0,0,1,.887-.887h8.853a.885.885,0,0,1,.887.887v4.973A.888.888,0,0,1,228.141,56.5Zm-7.97-1.774h7.087v-3.2h-7.087Zm7.97,10.366h-8.853a.884.884,0,0,1-.887-.883V59.232a.885.885,0,0,1,.887-.887h8.853a.885.885,0,0,1,.887.887V64.2A.884.884,0,0,1,228.141,65.088Zm-7.97-1.77h7.087v-3.2h-7.087ZM248.7,22.67a.887.887,0,0,1-.887-.883V17.961H241.05a.887.887,0,0,1-.736-1.378l1.249-1.883-1.246-1.832a.886.886,0,0,1,.733-1.385H248.7a.887.887,0,0,1,.887.887v9.417A.887.887,0,0,1,248.7,22.67Zm-6-6.482h5.112V13.256h-5.09l.641.942a.886.886,0,0,1,0,.986Zm6.885-2.158V10.266a.887.887,0,0,0-1.774,0v3.763a.887.887,0,0,0,1.774,0Z" transform="translate(-213.183 -9.379)" fill="#fff"/>
</svg>
