<svg xmlns="http://www.w3.org/2000/svg" width="72.5" height="65.976" viewBox="0 0 72.5 65.976"><defs><style>.a{fill:#34495e;}.b{fill:#f39c12;}.c{fill:#f1c40f;}.d{fill:#d35400;}.e{fill:#a63125;}.f{fill:#e74c3c;}.g{fill:#bab08a;}.h{fill:#e0d6af;}.i{fill:#fff4c7;}.j{fill:#c9c19d;}.k{fill:#ecf0f1;}.l{fill:#2980b9;}.m{fill:#3498db;}.n{fill:#d4caa5;}.o{fill:#ffe066;}.p{fill:#def0ff;}.q{fill:#adbcc7;}.r{fill:#2c3e50;}.s{fill:#233140;}.t{fill:#56799c;}.u{fill:#27ae60;}</style></defs><g transform="translate(-19.679 -23.418)"><rect class="a" width="0.903" height="11.185" transform="translate(55.477 23.418)"/><path class="b" d="M70.067,26.423H59.862v-2H70.067l-2,1Z"/><rect class="c" width="10.205" height="2.003" transform="translate(56.38 23.418)"/><path class="d" d="M59.862,26.423v-1h6.723Z"/><rect class="e" width="72.5" height="4.777" transform="translate(19.679 84.617)"/><path class="e" d="M85.12,42.445H26.737l-7.059,5.82h72.5Z"/><rect class="f" width="35.948" height="4.777" transform="translate(37.955 84.617)"/><rect class="g" width="69.122" height="36.352" transform="translate(21.368 48.265)"/><rect class="h" width="69.122" height="34.95" transform="translate(21.368 49.667)"/><rect class="i" width="33.758" height="36.352" transform="translate(39.049 48.265)"/><path class="f" d="M55.929,29.011,33.9,48.265H77.96Z"/><path class="j" d="M55.929,31.25,36.459,48.265H75.4Z"/><path class="i" d="M56.676,32.823,37.955,48.265H75.4Z"/><rect class="k" width="9.981" height="10.957" transform="translate(35.708 51.963) rotate(90)"/><rect class="l" width="8.956" height="7.981" transform="translate(25.751 52.963)"/><path class="m" d="M34.707,53.328v-.365H25.751v7.563A50.664,50.664,0,0,1,34.707,53.328Z"/><rect class="k" width="9.981" height="10.957" transform="translate(35.708 64.776) rotate(90)"/><rect class="l" width="8.956" height="7.981" transform="translate(25.751 65.776)"/><path class="m" d="M34.707,66.141v-.365H25.751v7.562A50.7,50.7,0,0,1,34.707,66.141Z"/><rect class="k" width="9.981" height="10.957" transform="translate(53.199 51.963) rotate(90)"/><rect class="l" width="8.957" height="7.981" transform="translate(43.242 52.963)"/><path class="m" d="M52.2,53.328v-.365H43.242v7.563A50.627,50.627,0,0,1,52.2,53.328Z"/><rect class="k" width="9.981" height="10.957" transform="translate(53.199 64.776) rotate(90)"/><rect class="l" width="8.957" height="7.981" transform="translate(43.242 65.776)"/><path class="m" d="M52.2,66.141v-.365H43.242v7.562A50.667,50.667,0,0,1,52.2,66.141Z"/><rect class="k" width="9.981" height="10.957" transform="translate(69.615 51.963) rotate(90)"/><rect class="l" width="8.957" height="7.981" transform="translate(59.659 52.963)"/><path class="m" d="M68.615,53.328v-.365H59.659v7.563A50.627,50.627,0,0,1,68.615,53.328Z"/><rect class="k" width="9.981" height="10.957" transform="translate(69.615 64.776) rotate(90)"/><rect class="l" width="8.957" height="7.981" transform="translate(59.659 65.776)"/><path class="m" d="M68.615,66.141v-.365H59.659v7.562A50.667,50.667,0,0,1,68.615,66.141Z"/><rect class="k" width="9.981" height="10.957" transform="translate(87.29 51.963) rotate(90)"/><rect class="l" width="8.957" height="7.981" transform="translate(77.334 52.963)"/><path class="m" d="M86.291,53.328v-.365H77.334v7.563A50.67,50.67,0,0,1,86.291,53.328Z"/><rect class="k" width="9.981" height="10.957" transform="translate(87.29 64.776) rotate(90)"/><rect class="l" width="8.957" height="7.981" transform="translate(77.334 65.776)"/><path class="m" d="M86.291,66.141v-.365H77.334v7.562A50.71,50.71,0,0,1,86.291,66.141Z"/><path class="n" d="M61.636,41.889a5.256,5.256,0,1,1-5.256-5.256A5.256,5.256,0,0,1,61.636,41.889Z"/><path class="f" d="M61.185,41.443a5.257,5.257,0,1,1-5.256-5.255A5.257,5.257,0,0,1,61.185,41.443Z"/><path class="c" d="M60.39,41.443a4.462,4.462,0,1,1-4.461-4.461A4.441,4.441,0,0,1,60.39,41.443Z"/><path class="o" d="M60.29,41.443a4.362,4.362,0,1,1-4.361-4.36A4.348,4.348,0,0,1,60.29,41.443Z"/><path class="p" d="M60.135,41.443a4.207,4.207,0,1,1-4.206-4.206A4.189,4.189,0,0,1,60.135,41.443Z"/><path class="q" d="M52.156,42.185a4.206,4.206,0,0,1,7.6-2.481,4.207,4.207,0,1,0-7.578,3.65,4.254,4.254,0,0,0,.344.553A4.194,4.194,0,0,1,52.156,42.185Z"/><path class="r" d="M55.608,45.365a.182.182,0,0,1-.165-.194h0a.181.181,0,0,1,.194-.164h0a.18.18,0,0,1,.164.193h0a.181.181,0,0,1-.178.165h-.015Zm1.071-.238a.179.179,0,0,1,.131-.217h0a.177.177,0,0,1,.216.129h0a.178.178,0,0,1-.129.218h0a.158.158,0,0,1-.045.006h0A.181.181,0,0,1,56.679,45.127Zm-2.327-.079h0a.178.178,0,0,1-.092-.234h0a.179.179,0,0,1,.236-.094h0a.178.178,0,0,1,.091.237h0a.178.178,0,0,1-.163.107h0A.168.168,0,0,1,54.352,45.048Zm3.481-.363a.183.183,0,0,1,.053-.25h0a.183.183,0,0,1,.249.052h0a.181.181,0,0,1-.052.249h0a.181.181,0,0,1-.1.029h0A.186.186,0,0,1,57.833,44.685Zm-4.565-.344a.181.181,0,0,1-.011-.253h0a.18.18,0,0,1,.254-.01h0a.179.179,0,0,1,.011.252h0a.18.18,0,0,1-.133.059h0A.177.177,0,0,1,53.268,44.341Zm5.515-.452a.177.177,0,0,1-.032-.25h0A.179.179,0,0,1,59,43.608h0a.18.18,0,0,1,.031.251h0a.18.18,0,0,1-.142.068h0A.163.163,0,0,1,58.783,43.889Zm-6.312-.567a.182.182,0,0,1,.071-.244h0a.181.181,0,0,1,.244.074h0a.179.179,0,0,1-.072.242h0a.185.185,0,0,1-.086.021h0A.18.18,0,0,1,52.471,43.322Zm6.953-.491a.179.179,0,0,1-.113-.227h0a.179.179,0,0,1,.228-.111h0a.18.18,0,0,1,.112.227h0a.182.182,0,0,1-.17.122h0A.156.156,0,0,1,59.424,42.831ZM52.048,42.1a.183.183,0,0,1,.149-.208h0a.18.18,0,0,1,.206.149v0a.183.183,0,0,1-.149.208h0a.137.137,0,0,1-.028,0h0A.184.184,0,0,1,52.048,42.1Zm7.456-.656v-.007h0v-.007h0a.182.182,0,0,1,.178-.181h0a.18.18,0,0,1,.18.179h0v.009h0v.007h0a.179.179,0,0,1-.178.18h0A.181.181,0,0,1,59.5,41.443Zm-7.309-.433a.18.18,0,0,1-.149-.206h0a.182.182,0,0,1,.206-.149h0a.18.18,0,0,1,.147.206h0a.178.178,0,0,1-.175.151h0A.132.132,0,0,1,52.195,41.01Zm7.113-.741h0a.177.177,0,0,1,.109-.227h0a.179.179,0,0,1,.229.11h0a.18.18,0,0,1-.111.228h0a.173.173,0,0,1-.059.009h0A.178.178,0,0,1,59.308,40.269Zm-6.771-.448a.179.179,0,0,1-.073-.243h0v0h0a.179.179,0,0,1,.243-.074h0a.18.18,0,0,1,.072.242h0a.179.179,0,0,1-.158.094h0A.181.181,0,0,1,52.537,39.821Zm6.206-.584a.179.179,0,0,1,.029-.252h0a.181.181,0,0,1,.252.03h0a.182.182,0,0,1-.03.253h0a.181.181,0,0,1-.111.037h0A.176.176,0,0,1,58.743,39.237Zm-5.495-.427a.18.18,0,0,1,.009-.255h0a.178.178,0,0,1,.252.011h0a.177.177,0,0,1-.008.252h0a.178.178,0,0,1-.123.049h0A.177.177,0,0,1,53.248,38.81Zm4.625-.368a.18.18,0,0,1-.052-.247h0a.18.18,0,0,1,.249-.052h0a.181.181,0,0,1,.052.249h0a.18.18,0,0,1-.15.08h0A.181.181,0,0,1,57.873,38.442Zm-3.626-.361a.178.178,0,0,1,.091-.237h0a.182.182,0,0,1,.237.091h0a.181.181,0,0,1-.092.237h0a.167.167,0,0,1-.073.014h0A.178.178,0,0,1,54.247,38.081Zm2.548-.108a.179.179,0,0,1-.13-.217h0a.179.179,0,0,1,.216-.13h0a.177.177,0,0,1,.131.216h0a.179.179,0,0,1-.174.137h0A.165.165,0,0,1,56.795,37.973Zm-1.366-.256a.178.178,0,0,1,.163-.193h0a.178.178,0,0,1,.193.162h0a.177.177,0,0,1-.162.194h0l-.015,0h0A.18.18,0,0,1,55.429,37.717Z"/><path class="s" d="M52.759,41.491,55.65,41.3a.147.147,0,0,1,.156.137h0a.146.146,0,0,1-.136.155l-2.892.192a.145.145,0,0,1-.155-.136h0A.144.144,0,0,1,52.759,41.491Z"/><path class="s" d="M57.5,40.566l-1.305.84a.144.144,0,0,1-.2-.044h0a.146.146,0,0,1,.043-.2l1.3-.839a.146.146,0,0,1,.2.044h0A.145.145,0,0,1,57.5,40.566Z"/><path class="a" d="M56.25,41.443a.322.322,0,1,1-.321-.321A.322.322,0,0,1,56.25,41.443Z"/><path class="t" d="M56.14,41.443a.212.212,0,1,1-.211-.211A.212.212,0,0,1,56.14,41.443Z"/><path class="k" d="M47.79,89.394V84.178a8.139,8.139,0,0,1,16.277,0v5.216Z"/><path class="s" d="M55.929,77.04h0a7.138,7.138,0,0,0-7.139,7.138v5.216H63.067V84.178A7.138,7.138,0,0,0,55.929,77.04Z"/><path class="a" d="M6.384,0h.245a6.384,6.384,0,0,1,6.384,6.384V10.84a0,0,0,0,1,0,0H0a0,0,0,0,1,0,0V6.384A6.384,6.384,0,0,1,6.384,0Z" transform="translate(50.055 78.553)"/><path class="u" d="M27.344,89.394a3.206,3.206,0,1,0-5.494,0Z"/><path class="u" d="M35.771,89.394a4.8,4.8,0,1,0-8.23,0Z"/><path class="u" d="M84.513,89.394a3.206,3.206,0,1,1,5.494,0Z"/><path class="u" d="M76.086,89.394a4.8,4.8,0,1,1,8.231,0Z"/></g></svg>