<svg xmlns="http://www.w3.org/2000/svg" width="58.3" height="60" viewBox="0 0 58.3 60"><defs><style>.a{fill:#fff;}</style></defs><path class="a" d="M238.431,51.191h-4.974a.763.763,0,1,1,0-1.526h4.974a2.567,2.567,0,0,0,2.563-2.563V12.165A2.567,2.567,0,0,0,238.431,9.6H188.313a2.568,2.568,0,0,0-2.566,2.566V47.1a2.567,2.567,0,0,0,2.566,2.563h4.952a.763.763,0,0,1,0,1.526h-4.952a4.1,4.1,0,0,1-4.093-4.089V12.165a4.1,4.1,0,0,1,4.093-4.092h50.118a4.1,4.1,0,0,1,4.089,4.092V47.1A4.094,4.094,0,0,1,238.431,51.191Zm-1.179-6.586V14.659a2.391,2.391,0,0,0-2.345-2.427H191.834a2.391,2.391,0,0,0-2.345,2.427V44.605a2.389,2.389,0,0,0,2.345,2.427h1.432a.763.763,0,0,0,0-1.526h-1.432a.863.863,0,0,1-.815-.9V14.659a.86.86,0,0,1,.815-.9h43.074a.861.861,0,0,1,.819.9V44.605a.863.863,0,0,1-.819.9h-1.451a.763.763,0,1,0,0,1.526h1.451A2.389,2.389,0,0,0,237.253,44.605Zm-48.8-10.258V24.92a.763.763,0,1,0-1.526,0v9.427a.763.763,0,1,0,1.526,0Zm8.09,8.22V38.525A6.467,6.467,0,0,1,203,32.065a6.39,6.39,0,0,1,3.991,1.381.764.764,0,0,0,.945-1.2A7.893,7.893,0,0,0,203,30.539a8,8,0,0,0-7.989,7.986v4.042a.765.765,0,1,0,1.529,0ZM207.2,25.318a4.2,4.2,0,1,0-4.2,4.2A4.2,4.2,0,0,0,207.2,25.318Zm-1.526,0A2.674,2.674,0,1,1,203,22.645,2.679,2.679,0,0,1,205.676,25.318Zm-5.347,13.336V37.413a.763.763,0,1,0-1.526,0v1.242a.763.763,0,1,0,1.526,0Zm31.283,3.912V38.525a8,8,0,0,0-7.989-7.986,7.907,7.907,0,0,0-4.933,1.7.764.764,0,1,0,.945,1.2,6.4,6.4,0,0,1,3.988-1.378,6.467,6.467,0,0,1,6.46,6.459v4.042a.765.765,0,0,0,1.53,0Zm-3.789-17.249a4.2,4.2,0,1,0-4.2,4.2A4.2,4.2,0,0,0,227.823,25.318Zm-1.526,0a2.674,2.674,0,1,1-2.674-2.674A2.679,2.679,0,0,1,226.3,25.318Zm1.526,13.336V37.413a.763.763,0,1,0-1.526,0v1.242a.763.763,0,1,0,1.526,0Zm-19.337-8.779a6.353,6.353,0,0,1,4.829-2.083,6.536,6.536,0,0,1,4.687,2.1.763.763,0,1,0,1.109-1.049,8.07,8.07,0,0,0-5.8-2.576,7.862,7.862,0,0,0-5.97,2.591.764.764,0,1,0,1.141,1.018Zm9.029-8.83a4.2,4.2,0,1,0-4.2,4.2A4.207,4.207,0,0,0,217.514,21.046Zm-1.53,0a2.672,2.672,0,1,1-2.674-2.674A2.676,2.676,0,0,1,215.984,21.046Zm14.126,30.231a16.8,16.8,0,1,0-16.8,16.8A16.82,16.82,0,0,0,230.111,51.276Zm-1.53,0a15.269,15.269,0,1,1-15.27-15.27A15.287,15.287,0,0,1,228.581,51.276Zm-5.913,0c0-9.421-4.108-16.8-9.357-16.8s-9.354,7.379-9.354,16.8,4.108,16.8,9.354,16.8S222.668,60.694,222.668,51.276Zm-1.526,0c0,8.277-3.587,15.27-7.831,15.27s-7.828-6.994-7.828-15.27,3.587-15.27,7.828-15.27S221.142,43,221.142,51.276Zm8.969,0c0-5.246-7.379-9.357-16.8-9.357s-16.8,4.111-16.8,9.357,7.379,9.354,16.8,9.354S230.111,56.522,230.111,51.276Zm-1.53,0c0,4.244-6.99,7.828-15.27,7.828s-15.267-3.584-15.267-7.828,6.99-7.828,15.267-7.828S228.581,47.032,228.581,51.276ZM214.076,67.308V35.241a.763.763,0,1,0-1.526,0V67.308a.763.763,0,1,0,1.526,0Zm16.035-16.032a.763.763,0,0,0-.765-.765H197.279a.763.763,0,1,0,0,1.526h32.067A.763.763,0,0,0,230.111,51.276Zm3.435,16.032a.762.762,0,0,0-.762-.762H193.958a.763.763,0,0,0,0,1.526h38.826A.763.763,0,0,0,233.546,67.308Z" transform="translate(-184.221 -8.073)"/></svg>