<svg xmlns="http://www.w3.org/2000/svg" width="73.909" height="65" viewBox="0 0 73.909 65"><defs><style>.a{fill:#004f56;}.b{fill:#b38273;}.c{fill:#a6d2ac;}.d{fill:#9bb4fe;}.e{fill:#df9c07;}.f{fill:#009cfa;}.g{fill:#6ca8fb;}.h{fill:#50d4fb;}.i{fill:#a97261;}.j{fill:#94c89c;}.k{fill:#f0d2c8;}.l{fill:#e0b8ab;}.m{opacity:0.1;mix-blend-mode:multiply;isolation:isolate;}.n{fill:#488288;}.o{fill:#f3d559;}</style></defs><g transform="translate(349.094 -224.735)"><path class="a" d="M-336.016,239.756c.587-.209,1.172-.455,1.756-.729l.779,2.683a20.069,20.069,0,0,1-2.109,1.276,12.484,12.484,0,0,1-1.944.824,6.89,6.89,0,0,1-3.227.246c-.211-.035-.418-.081-.626-.135a1.7,1.7,0,0,1-.9-2.691,1.688,1.688,0,0,1,1.414-.647A12.854,12.854,0,0,0-336.016,239.756Z"/><path class="b" d="M-324.779,235.582a4.338,4.338,0,0,1-2.729.967,47.683,47.683,0,0,1-5,4.461l-.727-2.5a31.888,31.888,0,0,0,4.916-3.3,4.811,4.811,0,0,1,.779-1.132.381.381,0,0,1,.609.441l-.183.506.485-.292a3.4,3.4,0,0,1,.967-.5A.843.843,0,0,1-324.779,235.582Z"/><path class="c" d="M-333.237,238.512l.733,2.522-.887.983-.869-2.99C-333.919,238.866-333.576,238.693-333.237,238.512Z"/><path class="d" d="M-332.562,247.2V247.2h0Z"/><path class="e" d="M-332.562,247.175v.021h0v-.021Z"/><path class="f" d="M-325.9,231.982c-.055.05-.107.1-.161.152.079-.075.158-.149.238-.222C-325.853,231.935-325.879,231.958-325.9,231.982Z"/><path class="f" d="M-324.512,230.8q.42-.325.857-.629Q-324.092,230.477-324.512,230.8Z"/><path class="f" d="M-321.308,228.761q.476-.246.967-.467Q-320.831,228.516-321.308,228.761Z"/><path class="g" d="M-319.3,234.169a3.111,3.111,0,0,0-2.341,1.824c-.239.719-.147,1.657-.786,2.063a1.681,1.681,0,0,1-1.739-.267,3.081,3.081,0,0,0-1.68-.736,10.319,10.319,0,0,0,1.306,4.453c.045.079.094.159.147.237l0,.006a3.528,3.528,0,0,1,2.636-.776,3.544,3.544,0,0,1,3.107,3.06,3.609,3.609,0,0,1-.006.941l.018.007a7.273,7.273,0,0,1,1.337.7l2.432,1.5.033.021h2.906v-8.168h0a3.524,3.524,0,0,1-2.672,1.29,3.728,3.728,0,0,1-.432-.024,3.546,3.546,0,0,1-3.082-3.115,3.531,3.531,0,0,1,1.539-3.326l-.071.008A22.874,22.874,0,0,0-319.3,234.169Z"/><path class="g" d="M-326.061,244.039a4.652,4.652,0,0,1-.247-1.371,4.994,4.994,0,0,0-.574-1.443c-.567-1.082-2.265-3.669-2.687-4.755a20.616,20.616,0,0,0-2.987,10.279c0,.141-.005.284-.005.426v.021H-325l0-.021c.014-.185.023-.368.024-.55v-.062a3.518,3.518,0,0,1-.7-2l-.026-.029A2.461,2.461,0,0,1-326.061,244.039Z"/><path class="g" d="M-315.543,226.8a2.026,2.026,0,0,1,.842,1.414,5.945,5.945,0,0,1-.072,1.754.782.782,0,0,1-.247.56.63.63,0,0,1-.363.087,4.7,4.7,0,0,1-1.846-.647,1.891,1.891,0,0,0-1.878-.025,1.11,1.11,0,0,0-.391,1.152,1.113,1.113,0,0,0,.923.794,3,3,0,0,0,1.164-.241,2.61,2.61,0,0,1,2.19.211,1.073,1.073,0,0,1,.445.542.919.919,0,0,1-.234.862l-.006.007a3.474,3.474,0,0,1,.384-.024,3.529,3.529,0,0,1,2.7,1.291h0v-8.069A20.87,20.87,0,0,0-315.543,226.8Z"/><path class="c" d="M-314.776,232.4a1.073,1.073,0,0,0-.445-.542,2.61,2.61,0,0,0-2.19-.211,3,3,0,0,1-1.164.241,1.113,1.113,0,0,1-.923-.794,1.11,1.11,0,0,1,.391-1.152,1.891,1.891,0,0,1,1.878.025,4.7,4.7,0,0,0,1.846.647.63.63,0,0,0,.363-.087.782.782,0,0,0,.247-.56,5.945,5.945,0,0,0,.072-1.754,2.026,2.026,0,0,0-.842-1.414h0c-.054.009-.107.021-.161.031-.071.014-.142.027-.213.042-.1.019-.2.039-.292.06l-.237.053c-.089.02-.178.04-.267.062s-.191.048-.286.072c-.072.019-.145.036-.217.056-.164.044-.328.09-.49.138l-.146.045c-.12.036-.241.073-.36.112l-.172.057c-.11.037-.221.074-.33.113l-.173.062-.33.123-.161.062c-.116.046-.231.092-.346.14l-.137.056c-.132.056-.264.113-.394.171l-.082.036q-.49.222-.967.467l-.027.014c-.146.075-.29.152-.434.231l-.089.05c-.123.068-.245.137-.367.207l-.108.064c-.116.068-.232.138-.347.209l-.106.065c-.118.074-.236.15-.354.226l-.086.056c-.137.091-.272.182-.407.275l-.022.016q-.437.3-.857.629l-.077.061q-.164.128-.324.258l-.116.1q-.14.115-.279.234l-.128.111c-.088.076-.174.153-.26.23l-.131.119c-.08.073-.159.147-.238.222-.051.048-.1.1-.152.144q-.117.112-.231.228l-.146.144c-.076.078-.151.156-.226.235-.047.049-.1.1-.142.148-.074.079-.147.16-.22.241l-.138.15c-.071.081-.141.163-.212.245-.134.155-.266.311-.395.47l-.063.077c-.079.1-.156.2-.232.3-.03.038-.06.075-.089.114q-.117.153-.231.309c-.026.035-.053.07-.079.106-.078.108-.154.216-.23.325l-.068.1c-.078.114-.155.229-.231.344l-.055.083c-.079.121-.156.243-.233.365l-.041.067c-.03.048-.061.1-.09.144v0c.422,1.086,2.12,3.673,2.687,4.755a4.994,4.994,0,0,1,.574,1.443,4.652,4.652,0,0,0,.247,1.371,2.461,2.461,0,0,0,.37.491l.026.029c0-.034,0-.068,0-.1a3.521,3.521,0,0,1,.781-2.215,3.534,3.534,0,0,1,.494-.492l0-.006c-.053-.078-.1-.158-.147-.237a10.319,10.319,0,0,1-1.306-4.453,3.081,3.081,0,0,1,1.68.736,1.681,1.681,0,0,0,1.739.267c.639-.406.547-1.344.786-2.063a3.111,3.111,0,0,1,2.341-1.824,22.874,22.874,0,0,1,2.656-.308l.071-.008a3.51,3.51,0,0,1,1.561-.579l.006-.007A.919.919,0,0,0-314.776,232.4Z"/><path class="c" d="M-324.994,247.175l0,.021h.63a3.551,3.551,0,0,1-.6-.633v.062C-324.971,246.807-324.98,246.99-324.994,247.175Z"/><path class="c" d="M-317.3,245.679a7.273,7.273,0,0,0-1.337-.7l-.018-.007a3.525,3.525,0,0,1-.722,1.694l-.06.074h0a3.6,3.6,0,0,1-.462.453h5.065l-.033-.021Z"/><path class="h" d="M-319.438,246.742l.06-.074Z"/><path class="i" d="M-341.543,237.165a25.393,25.393,0,0,0-.72,3.359c-.091.736,1.79,1.6,1.867,1.572a.237.237,0,0,0,.157-.239,6.055,6.055,0,0,1,.58-3.179Z"/><path class="b" d="M-342.249,238.058c.528.967,1.593,1.855,2.458,1.659a2.759,2.759,0,0,0,1.737-2.18.049.049,0,0,0,.027,0c.11-.023.258-.065.266-.171s-.118-.182-.242-.244a.588.588,0,0,0-.009-.2c-.331-3.055-1.385-3.587-2.563-3.427a2.178,2.178,0,0,0-1.365,1.179A4.987,4.987,0,0,0-342.249,238.058Z"/><path class="a" d="M-340.771,281.907c-.682,1.8.7,1.828,4.216,1.817.488,0,.83-.519,0-.775l-2.7-1.1s-1.237-.016-1.493,0Z"/><path class="a" d="M-348.934,281.771c-.682,1.8.823,1.786,4.335,1.775.488-.005.829-.52,0-.776l-2.534-1.1s-1.5-.016-1.759,0Z"/><path class="f" d="M-338.71,254.975h-6.2a84,84,0,0,1,4.165,26.871h1.481A97.912,97.912,0,0,0-338.71,254.975Z"/><path class="f" d="M-340.931,254.975h-5a6.285,6.285,0,0,0,.161,4.6,86.356,86.356,0,0,1-3.123,22.089h1.759C-343.846,274.416-341.779,265.309-340.931,254.975Z"/><path class="c" d="M-338.71,254.975h-7.22c1.383-4.768-.337-9.282.98-12.136a4.3,4.3,0,0,1,2.277-2.327,2.9,2.9,0,0,1,3.844,1.764,8.762,8.762,0,0,1-.031,3.729,25.937,25.937,0,0,0-.087,6.958Z"/><path class="a" d="M-337.763,234.118a.72.72,0,0,0-.1-.33c-.032-.056-.05-.1-.109-.129-.117-.053-.108.03-.153-.094-.035-.1-.033-.2-.072-.295a.819.819,0,0,0-.368-.37,1.13,1.13,0,0,0-.482-.187c-.056,0-.11.02-.165.02-.089,0-.036.013-.117-.033a1.862,1.862,0,0,0-1.2-.191c-.294.04-1.24.256-1.127.748a2.56,2.56,0,0,0-.728.215,1.845,1.845,0,0,0-.861.956c-.1.26-.135.457.1.583a.862.862,0,0,0-.378.2,1.246,1.246,0,0,0-.262.752,3.286,3.286,0,0,0,.123,1.08,2.738,2.738,0,0,0,.5,1.055,1.439,1.439,0,0,0,1.791.471,1.145,1.145,0,0,0,.583-.618.8.8,0,0,1-.592-.594c-.136-.41-.025-.815.248-.9a.4.4,0,0,1,.305.03,3.12,3.12,0,0,1-.041-.67.749.749,0,0,0,.546.165c.284,0,.41-.154.573-.375a.876.876,0,0,0,.592.115.626.626,0,0,0,.594-.355C-338.036,235.343-337.732,234.641-337.763,234.118Z"/><path class="a" d="M-336.42,242.19c.622-.037,1.253-.109,1.89-.209v2.793a20.086,20.086,0,0,1-2.382.637,12.607,12.607,0,0,1-2.1.249,6.894,6.894,0,0,1-3.167-.665c-.193-.093-.379-.195-.564-.3a1.7,1.7,0,0,1-.115-2.837,1.691,1.691,0,0,1,1.538-.226A12.838,12.838,0,0,0-336.42,242.19Z"/><path class="b" d="M-324.464,241.318a4.337,4.337,0,0,1-2.891.167,47.527,47.527,0,0,1-6.049,2.888v-2.6a32.042,32.042,0,0,0,5.641-1.793,4.82,4.82,0,0,1,1.064-.871.381.381,0,0,1,.462.594l-.318.435.548-.145a3.389,3.389,0,0,1,1.067-.208A.843.843,0,0,1-324.464,241.318Z"/><path class="c" d="M-333.4,241.771V244.4l-1.126.7v-3.112Q-333.971,241.891-333.4,241.771Z"/><path class="f" d="M-325.665,244.567a3.517,3.517,0,0,0,.7,2,2.863,2.863,0,0,0-.509-1.782C-325.537,244.711-325.6,244.639-325.665,244.567Z"/><path class="f" d="M-323.645,242.275a6.3,6.3,0,0,0,.766-.154c.575-.05,1.017.495,1.264,1.017a2.978,2.978,0,0,0,.938,1.421,4.2,4.2,0,0,0,1.517.291,2.988,2.988,0,0,1,.5.132,3.609,3.609,0,0,0,.006-.941,3.544,3.544,0,0,0-3.107-3.06,3.528,3.528,0,0,0-2.636.775A1.017,1.017,0,0,0-323.645,242.275Z"/><path class="f" d="M-305.542,257.216a3.545,3.545,0,0,0-3.082-3.115,3.728,3.728,0,0,0-.432-.024,3.524,3.524,0,0,0-2.672,1.29V255.3l-.058.066V247.2h-3.05l1.215.747a2.266,2.266,0,0,1,.721.6,1.584,1.584,0,0,1,.254.861c.047,1.423-1.085,2.607-2.272,3.393a13.42,13.42,0,0,0-3.423,2.513,8.406,8.406,0,0,0-1.339,4.6c-.022.272-.069.587-.311.719a.626.626,0,0,1-.545-.015,2.106,2.106,0,0,1-1.067-1.52,9.46,9.46,0,0,0-.482-1.861c-.172-.356-.428-.667-.585-1.03-.552-1.271.2-2.868-.468-4.082-.483-.884-1.607-1.332-1.931-2.285a2.607,2.607,0,0,1-.087-1.02c.035-.525.118-1.075.16-1.615h-7.566v.007a20.744,20.744,0,0,0,14.259,19.7,5.919,5.919,0,0,1,.912-1.593,2.044,2.044,0,0,1,.839-.786c.723-.277,1.629.3,2.269-.131.839-.568.127-1.956.568-2.868a.549.549,0,0,1,.284-.3.735.735,0,0,1,.389.007,4.041,4.041,0,0,0,1.256.092v-1.484c.019.022.039.044.058.067v-.067a3.532,3.532,0,0,0,1.063.872,1.033,1.033,0,0,0,.183-.926c-.292-.9-1.873-1.227-1.65-2.151.177-.723,1.24-.656,1.906-.323a3.629,3.629,0,0,1,1.662,1.462,1.787,1.787,0,0,1-.231,2.081,1.2,1.2,0,0,0,.569.177A3.533,3.533,0,0,0-305.542,257.216Z"/><path class="c" d="M-308.564,258.788a3.629,3.629,0,0,0-1.662-1.462c-.666-.333-1.729-.4-1.906.323-.223.924,1.358,1.247,1.65,2.151a1.033,1.033,0,0,1-.183.926,3.514,3.514,0,0,0,1.639.419,3.567,3.567,0,0,0,.8-.1,1.2,1.2,0,0,1-.569-.177A1.787,1.787,0,0,0-308.564,258.788Z"/><path class="c" d="M-313.042,261.246a.735.735,0,0,0-.389-.007.549.549,0,0,0-.284.3c-.441.912.271,2.3-.568,2.868-.64.433-1.546-.146-2.269.131a2.044,2.044,0,0,0-.839.786,5.919,5.919,0,0,0-.912,1.593h0a20.71,20.71,0,0,0,6.473,1.031h.044v-6.6A4.041,4.041,0,0,1-313.042,261.246Z"/><path class="j" d="M-325.069,249.838c.324.953,1.448,1.4,1.931,2.285.667,1.214-.084,2.811.468,4.082.157.363.413.674.585,1.03a9.46,9.46,0,0,1,.482,1.861,2.106,2.106,0,0,0,1.067,1.52.626.626,0,0,0,.545.015c.242-.132.289-.447.311-.719a8.406,8.406,0,0,1,1.339-4.6,13.42,13.42,0,0,1,3.423-2.513c1.187-.786,2.319-1.97,2.272-3.393a1.584,1.584,0,0,0-.254-.861,2.266,2.266,0,0,0-.721-.6l-1.215-.747H-319.9a3.59,3.59,0,0,0,.462-.452v0c.021-.024.04-.049.06-.074a3.526,3.526,0,0,0,.722-1.693,2.988,2.988,0,0,0-.5-.132,4.2,4.2,0,0,1-1.517-.291,2.978,2.978,0,0,1-.938-1.421c-.247-.522-.689-1.067-1.264-1.017a6.3,6.3,0,0,1-.766.154,1.017,1.017,0,0,1-.748-.519,3.6,3.6,0,0,0-.494.493,3.519,3.519,0,0,0-.781,2.215c0,.034,0,.068,0,.1.064.072.128.144.186.221a2.863,2.863,0,0,1,.509,1.782,3.551,3.551,0,0,0,.6.633H-325c-.042.54-.125,1.09-.16,1.615A2.607,2.607,0,0,0-325.069,249.838Z"/><path class="k" d="M-297.8,262.6c-.839,1.057-2.9,1.184-2.9,1.184a38.088,38.088,0,0,1-8.393,7.366l-.626-3.464a29.767,29.767,0,0,0,8.074-5.3,5.209,5.209,0,0,1,.78-1.264.413.413,0,0,1,.681.446l-.173.555.511-.34a3.645,3.645,0,0,1,1.018-.586A.91.91,0,0,1-297.8,262.6Z"/><path class="a" d="M-309.092,271.146a13.538,13.538,0,0,1-2.056.99,7.434,7.434,0,0,1-3.471.43c-.23-.027-.455-.066-.682-.113a1.838,1.838,0,0,1-1.114-2.858,1.83,1.83,0,0,1,1.494-.772,13.884,13.884,0,0,0,5.2-1.141Z"/><path class="d" d="M-311.714,268.01h0Z"/><path class="d" d="M-291.082,247.24h0v0Z"/><path class="d" d="M-291.082,247.219v0Z"/><path class="f" d="M-311.266,261.234a1.447,1.447,0,0,0,.6-.466l.017-.021a3.562,3.562,0,0,1-1.063-.873v.067c-.019-.023-.039-.044-.058-.067v1.485l.058-.007A1.9,1.9,0,0,0-311.266,261.234Z"/><path class="g" d="M-292.894,247.219l-.013.021c-.6.892-1.408,1.645-1.993,2.551-1.2,1.866-1.354,4.19-1.906,6.337a3.211,3.211,0,0,1-1.408,2.237,1.39,1.39,0,0,1-1.856-.515c-.244-.545,0-1.174.005-1.771,0-.844-.5-1.64-.436-2.483a2.126,2.126,0,0,1,.039-.262l.005-.024a3.556,3.556,0,0,1-1.43.132,3.542,3.542,0,0,1-3.106-3.06,3.522,3.522,0,0,1,.728-2.634l.059-.075h0a3.54,3.54,0,0,1,.463-.453h-8.139V247.2h-.035v.02h.144v8.165c.019-.023.039-.045.058-.067v.067a3.522,3.522,0,0,1,2.672-1.291,3.7,3.7,0,0,1,.432.024,3.547,3.547,0,0,1,3.083,3.115,3.535,3.535,0,0,1-2.684,3.83l.045,0a5.85,5.85,0,0,0,1.08-.117c.573-.085,1.3.023,1.491.569a3.552,3.552,0,0,1,.077.67,1.248,1.248,0,0,0,1.412,1.008.769.769,0,0,0,.425-.214c.254-.275.175-.7.154-1.073s.142-.85.513-.856c0,.563.67.885,1.231.875a6.488,6.488,0,0,1,1.676-.075c.544.137.983.862.582,1.256l.443.479a20.717,20.717,0,0,1-5.088,2.917,20.7,20.7,0,0,0,5.088-2.917,20.807,20.807,0,0,0,3.072-2.943,20.632,20.632,0,0,0,4.878-11.961c.033-.477.05-.961.05-1.448v-.021Z"/><path class="c" d="M-299.525,263.113c.4-.394-.038-1.119-.582-1.256a6.488,6.488,0,0,0-1.676.075c-.561.01-1.235-.312-1.231-.875-.371.006-.533.483-.513.856s.1.8-.154,1.073a.769.769,0,0,1-.425.214,1.248,1.248,0,0,1-1.412-1.008,3.552,3.552,0,0,0-.077-.67c-.191-.546-.918-.654-1.491-.569a5.85,5.85,0,0,1-1.08.117l-.045,0a3.579,3.579,0,0,1-.8.1,3.525,3.525,0,0,1-1.639-.418l-.017.021a1.447,1.447,0,0,1-.6.466,1.9,1.9,0,0,1-.448.118l-.058.007v6.6h.058a20.742,20.742,0,0,0,5.948-.894c.269-.082.535-.169.8-.262s.512-.186.765-.286l.031-.011a20.717,20.717,0,0,0,5.088-2.917Z"/><path class="c" d="M-300.5,253.6c-.064.843.436,1.639.436,2.483,0,.6-.249,1.226-.005,1.771a1.39,1.39,0,0,0,1.856.515,3.211,3.211,0,0,0,1.408-2.237c.552-2.147.7-4.471,1.906-6.337.585-.906,1.391-1.659,1.993-2.551l.013-.021h-6.384a3.526,3.526,0,0,1,1.3,2.74,3.522,3.522,0,0,1-.781,2.215,3.536,3.536,0,0,1-1.7,1.136l-.005.024A2.126,2.126,0,0,0-300.5,253.6Z"/><path class="l" d="M-313.353,264.355l-1.315,2.476,2.371.6.708-2.816Z"/><path class="f" d="M-319.279,274.61s-2.9,5.344.839,5.808a4.679,4.679,0,0,0,1.646-.105c2.306-.537,4.225-1.232,4.447-.8.263.505,1.059,3.165.082,8.356l1.631-.125c2.872-8.684,2.588-14.064-4.249-11.894l-.019-1.181Z"/><path class="f" d="M-319.715,278.339s1.467,6.75,1.321,7.032c0,0-2.254,1.662-7.331.208v1.568c11.765,4.046,11.438.6,10.052-8.808Z"/><path class="a" d="M-326.426,289.719h-.979c-.8-.057-.2-1.95-.1-2.172a5.039,5.039,0,0,0,.159-1.759.548.548,0,0,1,.005-.167.559.559,0,0,1,.818-.361c.211.114.5.167.8.319v1.568l-.461.236a2.266,2.266,0,0,0-.1,1.431l.125.233A.487.487,0,0,1-326.426,289.719Z"/><path class="a" d="M-312.245,287.8c-.724,1.91.748,1.942,4.478,1.93.518-.005.881-.552,0-.824l-2.868-1.17s-1.314-.017-1.585,0Z"/><path class="a" d="M-313.341,275.909s-4.995.843-6.771.432c0,0,1.142-7.854,4.764-9.535a4.338,4.338,0,0,1,4.277.278,2.466,2.466,0,0,1,1.1,1.83,4.285,4.285,0,0,1-2.026,4.7C-312.751,274.062-312.162,275.755-313.341,275.909Z"/><path class="k" d="M-300.009,256.976c-.561,1.227-2.526,1.845-2.526,1.845a38.165,38.165,0,0,1-6.377,9.167l-1.441-3.212a29.754,29.754,0,0,0,6.564-7.084,5.233,5.233,0,0,1,.453-1.414.413.413,0,0,1,.769.269l-.035.58.414-.453a3.657,3.657,0,0,1,.847-.813A.911.911,0,0,1-300.009,256.976Z"/><path class="a" d="M-308.912,267.988a13.671,13.671,0,0,1-1.759,1.455,7.433,7.433,0,0,1-3.265,1.252c-.23.029-.457.045-.69.054a1.838,1.838,0,0,1-1.768-2.507,1.832,1.832,0,0,1,1.265-1.108,13.881,13.881,0,0,0,4.776-2.358Z"/><path class="k" d="M-313.912,264.5c.847.748,2.186,1.235,2.953.743a2.831,2.831,0,0,0,.916-2.711.054.054,0,0,0,.027-.007c.1-.06.226-.152.2-.257s-.178-.136-.318-.152a.662.662,0,0,0-.078-.186c-1.386-2.834-2.589-2.98-3.671-2.414a2.24,2.24,0,0,0-.907,1.615A5.127,5.127,0,0,0-313.912,264.5Z"/><path class="a" d="M-311.393,260.792l0,0h0Z"/><path class="e" d="M-310.547,259.064c-.055-.23-.671-1.607-.685-1.766a1.71,1.71,0,0,1-.429,1.273c-.047-.174-.075-.361-.121-.54-.064-.249-.2-.45-.277-.682,0,.585-.732,1.1-1.2,1.316.018-.221-.178-.43-.325-.578a1.957,1.957,0,0,1-.433.9,6.887,6.887,0,0,0-1.654,2.514,2.4,2.4,0,0,0,.189,1.914,2.853,2.853,0,0,0,1.524,1.308,2.31,2.31,0,0,0,1.727-.222,2.761,2.761,0,0,1,.577-3.768,1.825,1.825,0,0,1-.14.745c1.2-.755,1.272-1.476,1.3-1.692A2.137,2.137,0,0,0-310.547,259.064Z"/><path class="a" d="M-311.427,257.5c0-.023,0-.046,0-.07A.233.233,0,0,0-311.427,257.5Z"/><path class="k" d="M-312.214,263.487a.666.666,0,0,1-.912.223.667.667,0,0,1-.348-.872.668.668,0,0,1,.912-.223A.667.667,0,0,1-312.214,263.487Z"/><path class="k" d="M-278.736,242.87l-.158-.183a1.64,1.64,0,0,0-.775-.489c-.047-.011-.094-.022-.144-.031-.275-.05-.569-.111-.871-.175l-.012,0c-2.39-.512-5.478-1.382-6.593-1.7l-.428-.124s-.106-.149-.283-.41a27.586,27.586,0,0,1-3.2-5.917,12.907,12.907,0,0,0-.2-2.361c-.27-.461-.416.06-.5,1.062l-.617-1.642a.584.584,0,0,0-1.077-.041c-.4.921.6,2.636,1.353,3.429a28.088,28.088,0,0,0,3.2,6.67.3.3,0,0,0,.03.043h0a3.169,3.169,0,0,0,1.329,1.261c1.1.552,3.038,1.512,4.466,2.146a15.479,15.479,0,0,0,2.627.933,2.554,2.554,0,0,0,1.265-.1A1.487,1.487,0,0,0-278.736,242.87Z"/><g class="m"><path d="M-287.472,247.056c-.069.12-.143.236-.22.351h1.812a20.711,20.711,0,0,0-.951-6.214c.005.034.012.07.017.1A8.769,8.769,0,0,1-287.472,247.056Z"/><path d="M-292.162,232.552c.2.2.4.4.6.6C-291.761,232.948-291.96,232.748-292.162,232.552Z"/><path d="M-292.834,231.927q.309.274.606.56Q-292.525,232.2-292.834,231.927Z"/><path d="M-293.551,231.317q.328.267.646.547Q-293.223,231.584-293.551,231.317Z"/><path d="M-287.472,247.056a8.769,8.769,0,0,0,.658-5.76c-.005-.033-.012-.069-.017-.1s-.031-.1-.047-.146c-.035-.109-.07-.217-.107-.326-.022-.065-.046-.13-.069-.195-.034-.1-.068-.194-.1-.291-.026-.071-.054-.142-.081-.213-.034-.089-.068-.178-.1-.267s-.061-.15-.092-.225-.068-.167-.1-.249-.067-.154-.1-.231-.07-.16-.106-.239-.073-.155-.109-.233-.073-.154-.11-.23-.077-.156-.116-.234-.075-.149-.114-.224-.081-.154-.122-.231l-.119-.22c-.042-.077-.085-.153-.128-.228s-.082-.145-.124-.217-.088-.15-.133-.225-.087-.143-.13-.214-.091-.146-.137-.219l-.138-.215c-.046-.07-.092-.14-.139-.21s-.1-.145-.147-.217l-.14-.2-.158-.22c-.045-.063-.091-.127-.138-.189s-.114-.153-.172-.229l-.133-.173c-.063-.081-.128-.161-.192-.241l-.123-.154c-.072-.087-.144-.173-.217-.258-.036-.043-.071-.086-.108-.128-.083-.1-.168-.193-.253-.288l-.08-.09c-.1-.115-.209-.228-.315-.341l-.027-.028c-.194-.205-.393-.4-.6-.6l-.066-.065q-.3-.285-.606-.56l-.071-.063q-.318-.28-.646-.547l-.03-.024a20.674,20.674,0,0,0-3.8-2.443,5.709,5.709,0,0,0-1.318.045c-.456.069-1.025.438-.811.843l.306.047a3.246,3.246,0,0,0-1.147.018,1.08,1.08,0,0,0-.807.743c-.137.615.468,1.14,1.05,1.384a3.194,3.194,0,0,1,1.6.943c.154.246.214.537.345.8a.762.762,0,0,0,.667.478c-.756.445-1.858.361-2.339,1.094a1.2,1.2,0,0,0,.132,1.421,1.368,1.368,0,0,0,1.406.356c.443-.142.833-.5,1.3-.47a3.869,3.869,0,0,1,.923.341,12.051,12.051,0,0,0,1.751.122c.58.1,1.147.767.794,1.237-.291.385-.9.251-1.341.057a8.893,8.893,0,0,0-1.963-.737,2.152,2.152,0,0,0-1.953.51c-.324.346-.443.863-.769,1.191-.366.369-.863.476-1.11.986-.351.731.072,1.584.06,2.395-.01.9-.563,1.822-.222,2.655a1.621,1.621,0,0,0,1.149.911,2.648,2.648,0,0,0,1.5-.149c.465-.174.9-.438,1.376-.58a1.316,1.316,0,0,1,1.793,1.58c-.151.911-.843,1.966-.423,2.891a9.475,9.475,0,0,1,.674,1.209c.22.776-.321,1.536-.489,2.33a3.535,3.535,0,0,0,1.7-1.136,3.52,3.52,0,0,0,.782-2.215,3.526,3.526,0,0,0-1.3-2.74h6.384C-287.615,247.292-287.541,247.176-287.472,247.056Z"/><path d="M-296.992,229.051c.117.062.233.125.348.188C-296.759,229.176-296.875,229.113-296.992,229.051Z"/><path d="M-296.289,229.438c.165.094.328.191.491.291C-295.961,229.629-296.124,229.532-296.289,229.438Z"/><path d="M-296.644,229.239c.119.065.238.131.355.2C-296.406,229.37-296.525,229.3-296.644,229.239Z"/><path d="M-295.8,229.729c.082.05.164.1.245.153C-295.634,229.83-295.716,229.779-295.8,229.729Z"/><path d="M-297.384,228.85h0l.042.021Z"/><path d="M-297.344,228.871c.118.059.235.119.352.18C-297.109,228.99-297.226,228.93-297.344,228.871Z"/><path d="M-294.347,230.7l.175.13Z"/><path d="M-294.33,237.011a12.051,12.051,0,0,1-1.751-.122,3.869,3.869,0,0,0-.923-.341c-.463-.03-.853.328-1.3.47a1.368,1.368,0,0,1-1.406-.356,1.2,1.2,0,0,1-.132-1.421c.481-.733,1.583-.649,2.339-1.094a.762.762,0,0,1-.667-.478c-.131-.259-.191-.55-.345-.8a3.194,3.194,0,0,0-1.6-.943c-.582-.244-1.187-.769-1.05-1.384a1.08,1.08,0,0,1,.807-.743,3.246,3.246,0,0,1,1.147-.018l-.306-.047c-.214-.405.355-.774.811-.843a5.692,5.692,0,0,1,1.316-.045,20.633,20.633,0,0,0-9.225-2.166h-.042v8.07c-.019-.023-.039-.045-.058-.067v.067h0a3.522,3.522,0,0,0-2.7-1.291,3.739,3.739,0,0,0-.384.023,3.51,3.51,0,0,0-1.561.579,3.533,3.533,0,0,0-1.54,3.326,3.546,3.546,0,0,0,3.082,3.115,3.731,3.731,0,0,0,.432.025,3.525,3.525,0,0,0,2.672-1.291h0v.067c.019-.022.04-.044.058-.067V247.4h8.115a3.585,3.585,0,0,0-.462.452h0l-.059.075a3.524,3.524,0,0,0-.729,2.634,3.542,3.542,0,0,0,3.106,3.06,3.574,3.574,0,0,0,1.43-.131c.168-.794.709-1.554.489-2.33a9.475,9.475,0,0,0-.674-1.209c-.42-.925.272-1.98.423-2.891a1.316,1.316,0,0,0-1.793-1.58c-.48.142-.911.406-1.376.58a2.648,2.648,0,0,1-1.5.149,1.621,1.621,0,0,1-1.149-.911c-.341-.833.212-1.754.222-2.655.012-.811-.411-1.664-.06-2.395.247-.51.744-.617,1.11-.986.326-.328.445-.845.769-1.191a2.152,2.152,0,0,1,1.953-.51,8.893,8.893,0,0,1,1.963.737c.445.194,1.05.328,1.341-.057C-293.183,237.778-293.75,237.113-294.33,237.011Z"/><path d="M-294.172,230.834c.2.15.4.3.591.459C-293.775,231.136-293.973,230.984-294.172,230.834Z"/><path d="M-295.069,230.2l.152.1Z"/><path d="M-295.553,229.882q.244.154.484.315Q-295.309,230.036-295.553,229.882Z"/><path d="M-294.917,230.3c.192.132.382.268.57.406C-294.535,230.566-294.725,230.43-294.917,230.3Z"/></g><path class="f" d="M-287.472,245.107c-.069.12-.143.237-.22.351h1.812a20.718,20.718,0,0,0-.951-6.215c.005.034.012.07.017.1A8.766,8.766,0,0,1-287.472,245.107Z"/><path class="f" d="M-292.162,230.6c.2.2.4.4.6.6C-291.761,231-291.96,230.8-292.162,230.6Z"/><path class="f" d="M-292.834,229.979c.206.183.408.369.606.56C-292.426,230.348-292.628,230.162-292.834,229.979Z"/><path class="f" d="M-293.551,229.368c.219.178.434.361.646.547C-293.117,229.729-293.332,229.546-293.551,229.368Z"/><path class="c" d="M-287.472,245.107a8.766,8.766,0,0,0,.658-5.759c-.005-.034-.012-.07-.017-.1s-.031-.1-.047-.145c-.035-.109-.07-.218-.107-.326-.022-.066-.046-.131-.069-.2-.034-.1-.068-.194-.1-.29-.026-.072-.054-.143-.081-.214-.034-.089-.068-.178-.1-.266s-.061-.151-.092-.226-.068-.166-.1-.249-.067-.154-.1-.231-.07-.159-.106-.239-.073-.155-.109-.233l-.11-.23c-.038-.078-.077-.156-.116-.233s-.075-.15-.114-.224-.081-.155-.122-.232l-.119-.22c-.042-.076-.085-.152-.128-.228s-.082-.145-.124-.217-.088-.15-.133-.224l-.13-.215c-.045-.073-.091-.146-.137-.218l-.138-.216c-.046-.07-.092-.14-.139-.21s-.1-.145-.147-.217l-.14-.2c-.052-.074-.105-.147-.158-.22s-.091-.127-.138-.19-.114-.153-.172-.228l-.133-.174c-.063-.081-.128-.161-.192-.241l-.123-.153c-.072-.087-.144-.173-.217-.259l-.108-.128c-.083-.1-.168-.192-.253-.288l-.08-.09c-.1-.114-.209-.228-.315-.34l-.027-.029c-.194-.205-.393-.4-.6-.6l-.066-.064c-.2-.191-.4-.377-.606-.56l-.071-.064c-.212-.186-.427-.369-.646-.547l-.03-.024a20.67,20.67,0,0,0-3.8-2.442,5.71,5.71,0,0,0-1.318.044c-.456.07-1.025.438-.811.844l.306.047a3.223,3.223,0,0,0-1.147.017,1.081,1.081,0,0,0-.807.744c-.137.614.468,1.139,1.05,1.383a3.194,3.194,0,0,1,1.6.943c.154.247.214.538.345.8a.761.761,0,0,0,.667.477c-.756.446-1.858.361-2.339,1.1a1.2,1.2,0,0,0,.132,1.42,1.366,1.366,0,0,0,1.406.356c.443-.141.833-.5,1.3-.47a3.957,3.957,0,0,1,.923.341,11.914,11.914,0,0,0,1.751.122c.58.1,1.147.767.794,1.237-.291.386-.9.251-1.341.057a8.892,8.892,0,0,0-1.963-.737,2.155,2.155,0,0,0-1.953.51c-.324.346-.443.864-.769,1.192-.366.368-.863.475-1.11.985-.351.731.072,1.585.06,2.4-.01.9-.563,1.821-.222,2.654a1.618,1.618,0,0,0,1.149.911,2.648,2.648,0,0,0,1.5-.149c.465-.174.9-.438,1.376-.579a1.316,1.316,0,0,1,1.793,1.58c-.151.91-.843,1.965-.423,2.891a9.408,9.408,0,0,1,.674,1.209c.22.776-.321,1.536-.489,2.329a3.536,3.536,0,0,0,1.7-1.136,3.52,3.52,0,0,0,.782-2.215,3.523,3.523,0,0,0-1.3-2.739h6.384C-287.615,245.344-287.541,245.227-287.472,245.107Z"/><path class="f" d="M-296.992,227.1c.117.061.233.124.348.188C-296.759,227.227-296.875,227.164-296.992,227.1Z"/><path class="f" d="M-296.289,227.489c.165.1.328.192.491.291C-295.961,227.681-296.124,227.584-296.289,227.489Z"/><path class="f" d="M-296.644,227.291c.119.065.238.13.355.2C-296.406,227.421-296.525,227.356-296.644,227.291Z"/><path class="f" d="M-295.8,227.78l.245.153Z"/><path class="f" d="M-297.384,226.9h0l.042.021Z"/><path class="f" d="M-297.344,226.922c.118.059.235.12.352.181C-297.109,227.042-297.226,226.981-297.344,226.922Z"/><path class="f" d="M-294.347,228.755l.175.13Z"/><path class="f" d="M-294.33,235.062a11.914,11.914,0,0,1-1.751-.122A3.957,3.957,0,0,0-297,234.6c-.463-.03-.853.329-1.3.47a1.366,1.366,0,0,1-1.406-.356,1.2,1.2,0,0,1-.132-1.42c.481-.734,1.583-.649,2.339-1.1a.761.761,0,0,1-.667-.477c-.131-.259-.191-.55-.345-.8a3.194,3.194,0,0,0-1.6-.943c-.582-.244-1.187-.769-1.05-1.383a1.081,1.081,0,0,1,.807-.744,3.223,3.223,0,0,1,1.147-.017l-.306-.048c-.214-.4.355-.773.811-.843a5.749,5.749,0,0,1,1.316-.045,20.646,20.646,0,0,0-9.225-2.166h-.042v8.07l-.058-.068v.068h0a3.526,3.526,0,0,0-2.7-1.292,3.47,3.47,0,0,0-.384.024,3.521,3.521,0,0,0-1.561.578,3.534,3.534,0,0,0-1.54,3.326,3.544,3.544,0,0,0,3.082,3.115,3.523,3.523,0,0,0,.432.025,3.524,3.524,0,0,0,2.672-1.29h0v.066c.019-.022.04-.043.058-.066v8.164h8.115a3.585,3.585,0,0,0-.462.452v0c-.02.024-.04.049-.059.074a3.524,3.524,0,0,0-.729,2.634,3.544,3.544,0,0,0,3.106,3.061,3.556,3.556,0,0,0,1.43-.132c.168-.793.709-1.553.489-2.329a9.408,9.408,0,0,0-.674-1.209c-.42-.926.272-1.981.423-2.891a1.316,1.316,0,0,0-1.793-1.58c-.48.141-.911.4-1.376.579a2.648,2.648,0,0,1-1.5.149,1.618,1.618,0,0,1-1.149-.911c-.341-.833.212-1.754.222-2.654.012-.811-.411-1.665-.06-2.4.247-.51.744-.617,1.11-.985.326-.328.445-.846.769-1.192a2.155,2.155,0,0,1,1.953-.51,8.892,8.892,0,0,1,1.963.737c.445.194,1.05.329,1.341-.057C-293.183,235.829-293.75,235.165-294.33,235.062Z"/><path class="f" d="M-294.172,228.885c.2.15.4.3.591.459C-293.775,229.187-293.973,229.035-294.172,228.885Z"/><path class="f" d="M-295.069,228.248c.051.034.1.067.152.1C-294.967,228.315-295.018,228.282-295.069,228.248Z"/><path class="f" d="M-295.553,227.933q.244.154.484.315Q-295.309,228.088-295.553,227.933Z"/><path class="f" d="M-294.917,228.35q.288.2.57.4C-294.535,228.617-294.725,228.481-294.917,228.35Z"/><path class="n" d="M-275.588,245.2a48.438,48.438,0,0,0-2.6-9.955s-.939-.86-2.788.244a5.214,5.214,0,0,0-2.373,3.486,20.906,20.906,0,0,0-.5,6.267,17.554,17.554,0,0,0,.391,2.422c.03.127.454,1.78.637,1.646.161-.117.576-.771.486-.984.143.336,1.728,2.75,1.926,2.652a4.371,4.371,0,0,0,1.5-1.027c.261-.272,1.091-1.092,1.087-1.482a4.093,4.093,0,0,1-.345,1.2,6.425,6.425,0,0,0,2.086-1.97A4.635,4.635,0,0,0-275.588,245.2Z"/><path class="g" d="M-285.421,257.373l0-.016Z"/><path class="o" d="M-278.981,242.633"/><path class="l" d="M-282.775,244.6a4.734,4.734,0,0,0,3.562-2.357l-.325-.547a5.441,5.441,0,0,1-.491-1.062l-.353-1.038-1.418.61a2.185,2.185,0,0,1-.052,1.581,1.144,1.144,0,0,1-.527.583l-.008,0-.55.258C-284.3,244.425-282.775,244.6-282.775,244.6Z"/><path class="k" d="M-278.687,239.353c.257-.358.368-.926.05-1.093a.6.6,0,0,0-.359-.042c.227-1.23-.081-2.837-.876-3.254-1.04-.546-2.2-.407-3.534,2.318a2.557,2.557,0,0,0,.712,3.188c.737.473,2.025.007,2.842-.712A1.112,1.112,0,0,0-278.687,239.353Z"/><path class="k" d="M-282.881,282c.01.039.017.078.026.115-.449.036-.852.1-1.3.143l0-.014c-.111-.479-2.756-12.149-2.543-15.919.013-.219-.028-.6-.028-.741,0-.065,0-.128,0-.2v-.035c0-.622,0-1.14,0-1.593h3.777c-.1.872-.193,1.81-.28,2.736-.293,3.15-.554,6.182-.554,6.182.561.231.5.962.457,1.545A46.873,46.873,0,0,0-282.881,282Z"/><path class="g" d="M-277.93,262.818h-4.309c-.1-.746-.185-1.464-.263-2.13-.115.562-.227,1.3-.332,2.13h-3.885c.015-1.334.042-2.188.029-4.243v-.055c-.024-2.322,1-4.44,1.576-6.581h4.264c.21,1.17,1.1,2.029,1.7,3.019a10.9,10.9,0,0,1,1.278,3.554A34.079,34.079,0,0,1-277.93,262.818Z"/><path class="k" d="M-275.313,282.045l-.06.037c-.213.133-.421.254-.631.377q-.205.118-.417.246a78.851,78.851,0,0,1-4.141-9.9,54.12,54.12,0,0,1-1.161-6.264c-.137-.917-.269-1.864-.393-2.788h4.141c-.176,3.614-.586,7.866-.542,8.976C-277.223,272.573-276.728,279.984-275.313,282.045Z"/><path class="e" d="M-278.981,242.629l-.234-.388c-.951-.365-1.668,1.24-3.213,1.529a.641.641,0,0,1-.531-1.125.04.04,0,0,0,.02-.016l-.206.1a7.045,7.045,0,0,0-1.577.967,2.189,2.189,0,0,0-.74,2.12l.562,2.175a7.128,7.128,0,0,1,.024,2.908c-.063.352-.147.7-.238,1.045h4.263c0-.015,0-.027-.008-.043a2.91,2.91,0,0,1,.075-1,58,58,0,0,1,2.053-5.527C-278.525,244.147-279.187,243.85-278.981,242.629Z"/><path class="n" d="M-279.678,237.1a3.872,3.872,0,0,1-.079,1.335,5.994,5.994,0,0,1-.339.934c-.308.608-.621,1.225-.869,1.86a13.309,13.309,0,0,0-1.132,3.161,9.928,9.928,0,0,0-.065,1.066,6.92,6.92,0,0,1,.586-1.722,3.717,3.717,0,0,1,.668-.831c.255-.222.563-.4.8-.639a6.626,6.626,0,0,0,1.241-3.118,5.834,5.834,0,0,0,.2-1c.017-.243-.149-.776,0-.965"/><path class="e" d="M-278.186,236.06c.006.008.01.018.016.026l.113-.068C-278.084,236.023-278.134,236.067-278.186,236.06Z"/><path class="o" d="M-279.507,242.963"/><path class="n" d="M-280.248,234.045c-1.632-.278-2.719,1.089-4.071,1.689.178.176.431.149.652.219a2.826,2.826,0,0,1-.889.62,5.454,5.454,0,0,0,2.9-.169,9.741,9.741,0,0,0,1.215-.449,3.489,3.489,0,0,1,.838,2.087,2.966,2.966,0,0,1-.562,1.768c.86-.471,1.942-.592,2.217-2.869C-277.781,235.535-278.226,234.389-280.248,234.045Z"/><path class="k" d="M-278.454,242.958l-.186-.155a1.645,1.645,0,0,0-.845-.353l-.147-.008c-.28,0-.58-.014-.888-.028-.005,0-.008,0-.012,0-2.443-.109-5.632-.455-6.785-.588l-.443-.052s-.129-.129-.346-.358a27.5,27.5,0,0,1-4.14-5.3,12.908,12.908,0,0,0-.591-2.294c-.343-.41-.4.128-.32,1.13l-.88-1.517a.584.584,0,0,0-1.069.139c-.244.974,1.027,2.5,1.9,3.156a28.13,28.13,0,0,0,4.259,6.05.318.318,0,0,0,.037.036h0a3.156,3.156,0,0,0,1.519,1.024c1.176.363,3.246.989,4.76,1.377a15.367,15.367,0,0,0,2.745.485,2.564,2.564,0,0,0,1.232-.3A1.487,1.487,0,0,0-278.454,242.958Z"/><path class="f" d="M-282.552,262.818v.935h-4.3l-.26-.935Z"/><path class="f" d="M-277.689,262.818l-.262.935h-4.293v-.935Z"/><path class="e" d="M-275.354,281.914c.67,1.7-.648,1.748-3.989,1.779-.464,0-.8-.485-.01-.738l2.511-1.082s1.221-.028,1.464-.016Z"/><path class="e" d="M-282.793,281.914c.67,1.7-.648,1.748-3.989,1.779-.464,0-.795-.485-.01-.738l2.511-1.082s1.221-.028,1.465-.016Z"/></g></svg>