<svg xmlns="http://www.w3.org/2000/svg" viewBox="0 0 202 70"><defs><style>.a{fill:#fff;}.b{isolation:isolate;}.c{fill:#1ea7e5;}</style></defs><circle class="a" cx="35" cy="35" r="35"/><g class="b"><g class="b"><path class="c" d="M15.11,52.6V48.46H32.18V46.13H18.32V42.21H32.18v-2H19.78V26.28h12.4V24.61H15.38V20.52h16.8V18.58q-7,.32-12.49.36a11.39,11.39,0,0,0-1.06-4q18.75-.39,29.61-2.2l2.42,4.05q-5.49.88-13.2,1.45v2.29H54.71v4.09H37.46v1.67H50.53V40.23H37.46v2h14.7v3.92H37.46v2.33H55V52.6Zm9.77-20.9h7.3v-2h-7.3Zm0,5.1h7.3v-2h-7.3Zm12.58-5.1h7.7v-2h-7.7Zm0,5.1h7.7v-2h-7.7Z"/></g></g><g class="b"><g class="b"><path class="a" d="M76.1,53.39A12.54,12.54,0,0,0,73,50q13.24-5.82,16.5-20.46H73.86V25.27H90.23c.29-2.52.47-6.06.53-10.6V13.13H95.2v.17a112.16,112.16,0,0,1-.62,12h17.74V29.5H96.26a37.2,37.2,0,0,0,6.42,12.14,26.34,26.34,0,0,0,10.43,7.92,13,13,0,0,0-3,3.83q-11.47-5.32-17-20.29Q89.09,47.27,76.1,53.39Z"/><path class="a" d="M122.22,42.21V27.34a35.11,35.11,0,0,1-3.35,3.34,27.44,27.44,0,0,0-3.52-3.16,31.74,31.74,0,0,0,6.34-6.43A38.55,38.55,0,0,0,126.44,13l4.31,1.32a49.74,49.74,0,0,1-2.33,4.53h8.05a43.69,43.69,0,0,0,2.64-5.63l4.58,1.15c-.73,1.35-1.62,2.84-2.64,4.48h13.07v3.44h-14v3.25h11.44V28.7H140.17v3.39H151.7V35.3H140.17v3.48H155.3v3.43ZM120,53.56l-3.83-1.67a15.79,15.79,0,0,0,3-3.65,22.4,22.4,0,0,0,2.24-4.66l3.92,1A21.72,21.72,0,0,1,120,53.56Zm6.33-28.07h9.81V22.24h-9.81Zm0,6.6h9.81V28.7h-9.81Zm0,6.69h9.81V35.3h-9.81ZM130,53a41.69,41.69,0,0,0-.88-8.19l3.79-.39a44.61,44.61,0,0,1,1.1,8Zm10.39,0a36,36,0,0,0-2.47-8.18l3.83-.62a34.11,34.11,0,0,1,2.69,8Zm11.83.44a48.46,48.46,0,0,0-5.54-8.89l3.87-1.23a49.77,49.77,0,0,1,5.81,8.67Z"/><path class="a" d="M161.38,53.48,158.69,52q2.2-2.37,2.95-7.83l2.82.75C163.84,49.11,162.81,52,161.38,53.48Zm-1.72-10.74-.18-3.52c.53,0,1.4-.06,2.6-.09l5.46-.22V36.05h-7V32.88h7v-2.5h-6.87V14.54h17.69V30.38h-7.17v2.5h7.3v3.17h-7.3v2.69l5.37-.27,2.68-.13-.13,3.26q-4.67.3-13.69.83Zm4.09-15.22H168V17.4h-4.27ZM165.38,26a24.35,24.35,0,0,0-1.28-6.56l1.85-.48a22.82,22.82,0,0,1,1.41,6.42Zm.92,26a36.8,36.8,0,0,0-.92-7.66l2.55-.26a28,28,0,0,1,1.1,7.57Zm5.33-.66a29.25,29.25,0,0,0-2-7.17l2.51-.49a28.56,28.56,0,0,1,2.16,7Zm-1-23.8h4.49V17.4h-4.49Zm2-1.37L171,25.54a42.1,42.1,0,0,0,1.81-6.74l2.24.84c-.21.56-.51,1.42-.92,2.6C173.46,24.17,173,25.48,172.64,26.15Zm4.62,24.33a25.19,25.19,0,0,0-3.43-6.82l2.46-1a23,23,0,0,1,3.65,6.64Zm3.17,3V33.72h6.11V13.13h4v9.28h9V26.2h-9v7.52h7.31V53.26h-3.87V51.54h-9.77v1.89Zm3.74-5.63h9.77V37.46h-9.77Z"/></g></g></svg>