<svg xmlns="http://www.w3.org/2000/svg" width="74.145" height="60" viewBox="0 0 74.145 60">
  <path id="topics" d="M103.363,41.13a.935.935,0,0,1-.515-.149l-2.394-1.549a12.14,12.14,0,0,0-6.64-1.966H77.157a.952.952,0,0,1-.951-.951V10.886a.95.95,0,0,1,.951-.951H93.814a14.066,14.066,0,0,1,7.674,2.272l1.875,1.211,1.871-1.211a14.089,14.089,0,0,1,7.678-2.272H129.57a.95.95,0,0,1,.951.951V36.515a.952.952,0,0,1-.951.951H112.913a12.162,12.162,0,0,0-6.644,1.966l-2.39,1.549A.935.935,0,0,1,103.363,41.13ZM78.1,35.563h15.71a14.076,14.076,0,0,1,7.674,2.272l1.875,1.215,1.871-1.215a14.089,14.089,0,0,1,7.678-2.272h15.706V11.834H112.913a12.2,12.2,0,0,0-6.644,1.966l-2.39,1.549a.942.942,0,0,1-1.03,0L100.454,13.8a12.172,12.172,0,0,0-6.64-1.966H78.1ZM103.878,45.73l2.39-1.549a12.2,12.2,0,0,1,6.644-1.966h6.369a.949.949,0,0,0,0-1.9h-6.369a14.085,14.085,0,0,0-7.678,2.268L103.363,43.8l-1.875-1.215a14.072,14.072,0,0,0-7.674-2.268H87.445a.949.949,0,1,0,0,1.9h6.369a12.172,12.172,0,0,1,6.64,1.966l2.394,1.549a.942.942,0,0,0,1.03,0Zm.436-5.547V26.7a.951.951,0,0,0-1.9,0V40.183a.951.951,0,0,0,1.9,0Zm0-18.678V14.55a.951.951,0,0,0-1.9,0V21.5a.951.951,0,0,0,1.9,0ZM94.5,16.08a.951.951,0,0,0-.947-.951H83.243a.951.951,0,1,0,0,1.9H93.551A.949.949,0,0,0,94.5,16.08Zm0,4.761a.948.948,0,0,0-.947-.947H83.243a.949.949,0,1,0,0,1.9H93.551A.949.949,0,0,0,94.5,20.841Zm0,4.765a.949.949,0,0,0-.947-.951H83.243a.951.951,0,1,0,0,1.9H93.551A.951.951,0,0,0,94.5,25.605Zm0,4.761a.948.948,0,0,0-.947-.947H83.243a.949.949,0,1,0,0,1.9H93.551A.949.949,0,0,0,94.5,30.366ZM124.435,16.08a.952.952,0,0,0-.951-.951H113.176a.951.951,0,1,0,0,1.9h10.308A.95.95,0,0,0,124.435,16.08Zm0,4.761a.949.949,0,0,0-.951-.947H113.176a.949.949,0,1,0,0,1.9h10.308A.95.95,0,0,0,124.435,20.841Zm0,4.765a.95.95,0,0,0-.951-.951H113.176a.951.951,0,1,0,0,1.9h10.308A.952.952,0,0,0,124.435,25.605Zm0,4.761a.949.949,0,0,0-.951-.947H113.176a.949.949,0,1,0,0,1.9h10.308A.95.95,0,0,0,124.435,30.366Zm4.879,39.569h-51.9A11.134,11.134,0,0,1,66.291,58.813a.949.949,0,0,1,.947-.951h72.246a.95.95,0,0,1,.951.951A11.134,11.134,0,0,1,129.314,69.935ZM68.237,59.761a9.24,9.24,0,0,0,9.176,8.275h51.9a9.233,9.233,0,0,0,9.172-8.275Zm68.735-.947V22.232a3.8,3.8,0,0,0-3.8-3.8.951.951,0,1,0,0,1.9,1.9,1.9,0,0,1,1.9,1.9v35.63H71.653V22.232a1.9,1.9,0,0,1,1.9-1.9.951.951,0,1,0,0-1.9,3.8,3.8,0,0,0-3.8,3.8V58.813a.948.948,0,0,0,.947.947h65.323A.948.948,0,0,0,136.972,58.813Zm-6.451-5.622V40.183a.951.951,0,1,0-1.9,0V52.24H78.1V40.183a.949.949,0,1,0-1.9,0V53.191a.949.949,0,0,0,.951.947H129.57A.949.949,0,0,0,130.521,53.191ZM113.1,64.848H93.626a4.339,4.339,0,0,1-4.336-4.332v-1.7a.95.95,0,0,1,.951-.951h26.246a.95.95,0,0,1,.951.951v1.7A4.339,4.339,0,0,1,113.1,64.848ZM91.192,59.761v.755a2.435,2.435,0,0,0,2.434,2.433H113.1a2.435,2.435,0,0,0,2.434-2.433v-.755Z" transform="translate(-66.291 -9.935)" fill="#fff"/>
</svg>
