<svg xmlns="http://www.w3.org/2000/svg" width="83.667" height="65.194" viewBox="0 0 83.667 65.194"><defs><style>.a{fill:#61313e;}.b{fill:#63a343;}.c{fill:#4f823c;}.d{fill:#ffc23a;}.e{fill:#d13431;}.f{fill:#ea5645;}.g{fill:#b4b4b4;}.h{fill:#fff;}.i{fill:none;}.j{fill:#d8d6d6;}.k{fill:#f9a431;}</style></defs><g transform="translate(-314.385 -149.977)"><g transform="translate(314.385 199.098)"><path class="a" d="M395.916,209.75c1.179,0,2.136.634,2.136,1.418V224.4c0,.783-.957,1.418-2.136,1.418h-79.4c-1.177,0-2.133-.635-2.133-1.418V211.168c0-.783.957-1.418,2.133-1.418Z" transform="translate(-314.385 -209.75)"/></g><g transform="translate(314.385 199.098)"><path class="b" d="M395.916,209.75c1.179,0,2.136.634,2.136,1.418V224.4c0,.783-.957,1.418-2.136,1.418h-79.4c-1.177,0-2.133-.635-2.133-1.418V211.168c0-.783.957-1.418,2.133-1.418Z" transform="translate(-314.385 -209.75)"/></g><path class="c" d="M314.385,226.974c0,.783.957,1.418,2.133,1.418h79.4c1.179,0,2.136-.635,2.136-1.418v-2.807H314.385Z" transform="translate(0 -13.222)"/><g transform="translate(381.023 199.098)"><rect class="d" width="3.118" height="16.073" transform="translate(0 0)"/></g><g transform="translate(385.92 199.098)"><rect class="d" width="3.119" height="16.073" transform="translate(0 0)"/></g><g transform="translate(352.974 195.483)"><path class="e" d="M368.692,208.22c0,1.584-1.646,2.869-3.675,2.869s-3.675-1.284-3.675-2.869,1.644-2.868,3.675-2.868S368.692,206.636,368.692,208.22Z" transform="translate(-361.342 -205.352)"/></g><g transform="translate(318.428 152.141)"><path class="f" d="M395.248,200.622H319.3l1.256-48.012h73.73Z" transform="translate(-319.305 -152.61)"/></g><g transform="translate(353.67 196.086)"><path class="g" d="M368.144,208.356c0,1.255-1.335,2.271-2.976,2.271s-2.978-1.016-2.978-2.271,1.334-2.271,2.978-2.271S368.144,207.1,368.144,208.356Z" transform="translate(-362.19 -206.085)"/></g><g transform="translate(356.633 150.136)"><path class="h" d="M365.968,152.363a22.54,22.54,0,0,1,11.11-2.163c6.615.321,24.087,2.323,24.087,2.323V198.5s-18.234-2.9-28.328-2.092A15.268,15.268,0,0,0,365.8,198.5S366.093,152.483,365.968,152.363Z" transform="translate(-365.795 -150.171)"/></g><g transform="translate(356.633 196.233)"><g transform="translate(0 1.308)"><path class="g" d="M365.8,207.856v.924s0-.332.009-.924Z" transform="translate(-365.795 -207.856)"/></g><path class="g" d="M372.836,206.4A15.267,15.267,0,0,0,365.8,208.5v.5h35.369v-.5S382.93,205.6,372.836,206.4Z" transform="translate(-365.795 -206.264)"/></g><g transform="translate(321.295 150.175)"><path class="h" d="M358.239,152.471a24.473,24.473,0,0,0-11.487-2.225c-6.615.321-23.958,2.313-23.958,2.313v45.973s18.234-2.891,28.327-2.089a15.278,15.278,0,0,1,7.039,2.089S358.113,152.592,358.239,152.471Z" transform="translate(-322.794 -150.218)"/></g><g transform="translate(321.295 196.26)"><g transform="translate(35.36 1.308)"><path class="g" d="M365.829,207.888v.922s0-.33-.007-.922Z" transform="translate(-365.822 -207.888)"/></g><g transform="translate(0 0)"><path class="g" d="M351.121,206.438a15.277,15.277,0,0,1,7.039,2.089v.505H322.794v-.505S341.028,205.635,351.121,206.438Z" transform="translate(-322.794 -206.297)"/></g></g><g transform="translate(356.662 149.977)"><path class="i" d="M365.909,152.428l-.079,46.061s4.536-2.746,13.011-2.23l-1.758-46.094S368.148,149.009,365.909,152.428Z" transform="translate(-365.83 -149.977)"/></g><g transform="translate(363.169 149.979)"><path class="f" d="M378.46,170.13,376.1,173l-2.355-2.869V149.979h4.712Z" transform="translate(-373.748 -149.979)"/></g><g transform="translate(321.295 196.136)"><path class="j" d="M358.132,209.693l.029-1.193s-3.688-5.295-35.366,0v.505S353.452,206.041,358.132,209.693Z" transform="translate(-322.794 -206.146)"/></g><g transform="translate(356.633 196.192)"><path class="j" d="M365.824,208.512s4.121-5.153,35.34-.024v.5s-29.937-3.087-35.369.716Z" transform="translate(-365.795 -206.215)"/></g><g transform="translate(347.423 198.967)"><path class="e" d="M354.588,209.619v1.158h7.4s-.933-.575-1.044-1.186Z" transform="translate(-354.588 -209.591)"/></g><g transform="translate(358.48 198.967)"><path class="e" d="M375.447,209.619v1.158h-7.4s.933-.575,1.044-1.186Z" transform="translate(-368.043 -209.591)"/></g><g transform="translate(322.294 199.683)"><rect class="f" width="17.587" height="15.488"/><g transform="translate(0 11.324)"><rect class="e" width="17.587" height="4.165"/></g><rect class="d" width="7.792" height="15.488" transform="translate(5.477)"/><rect class="k" width="7.82" height="4.165" transform="translate(5.477 11.324)"/></g></g></svg>